%TF.GenerationSoftware,Altium Limited,Altium Designer,23.0.1 (38)*%
G04 Layer_Physical_Order=1*
G04 Layer_Color=255*
%FSLAX45Y45*%
%MOMM*%
%TF.SameCoordinates,98E3409A-FA71-4B7D-AABF-4CEB4AF68500*%
%TF.FilePolarity,Positive*%
%TF.FileFunction,Copper,L1,Top,Signal*%
%TF.Part,Single*%
G01*
G75*
%TA.AperFunction,Conductor*%
%ADD10C,0.25400*%
%TA.AperFunction,SMDPad,CuDef*%
%ADD11R,2.79000X0.74000*%
%AMCUSTOMSHAPE12*
4,1,6,0.35060,-0.47500,-0.35060,-0.47500,-0.50000,-0.32560,-0.50000,0.47500,0.50000,0.47500,0.50000,-0.32560,0.35060,-0.47500,0.0*%
%ADD12CUSTOMSHAPE12*%

%AMCUSTOMSHAPE13*
4,1,6,0.50000,-0.47500,-0.50000,-0.47500,-0.50000,0.32560,-0.35060,0.47500,0.35060,0.47500,0.50000,0.32560,0.50000,-0.47500,0.0*%
%ADD13CUSTOMSHAPE13*%

G04:AMPARAMS|DCode=14|XSize=2mm|YSize=2.4mm|CornerRadius=0mm|HoleSize=0mm|Usage=FLASHONLY|Rotation=45.000|XOffset=0mm|YOffset=0mm|HoleType=Round|Shape=Rectangle|*
%AMROTATEDRECTD14*
4,1,4,0.14142,-1.55564,-1.55564,0.14142,-0.14142,1.55564,1.55564,-0.14142,0.14142,-1.55564,0.0*
%
%ADD14ROTATEDRECTD14*%

%AMCUSTOMSHAPE15*
4,1,6,-0.36027,-0.07813,-0.36027,0.04278,-0.04278,0.36027,0.07813,0.36027,0.42073,0.01768,-0.01768,-0.42073,-0.36027,-0.07813,0.0*%
%ADD15CUSTOMSHAPE15*%

%AMCUSTOMSHAPE16*
4,1,6,-0.42073,-0.01768,-0.07813,-0.36027,0.04278,-0.36027,0.36027,-0.04278,0.36027,0.07813,0.01768,0.42073,-0.42073,-0.01768,0.0*%
%ADD16CUSTOMSHAPE16*%

%AMCUSTOMSHAPE17*
4,1,8,-0.60988,-0.48614,-0.60988,-0.36239,0.36239,0.60988,0.48614,0.60988,0.60988,0.48614,0.60988,0.36239,-0.36239,-0.60988,-0.48614,-0.60988,-0.60988,-0.48614,0.0*%
%ADD17CUSTOMSHAPE17*%

%AMCUSTOMSHAPE18*
4,1,8,-0.60988,0.48614,-0.48614,0.60988,-0.36239,0.60988,0.60988,-0.36239,0.60988,-0.48614,0.48614,-0.60988,0.36239,-0.60988,-0.60988,0.36239,-0.60988,0.48614,0.0*%
%ADD18CUSTOMSHAPE18*%

%AMCUSTOMSHAPE19*
4,1,8,-0.60988,-0.36239,-0.60988,-0.48614,-0.48614,-0.60988,-0.36239,-0.60988,0.60988,0.36239,0.60988,0.48614,0.48614,0.60988,0.36239,0.60988,-0.60988,-0.36239,0.0*%
%ADD19CUSTOMSHAPE19*%

%AMCUSTOMSHAPE20*
4,1,6,0.11844,-0.31997,-0.08309,-0.31997,-0.31997,-0.08309,-0.31997,0.11844,-0.01768,0.42073,0.42073,-0.01768,0.11844,-0.31997,0.0*%
%ADD20CUSTOMSHAPE20*%

%AMCUSTOMSHAPE21*
4,1,6,0.01768,-0.42073,0.31997,-0.11844,0.31997,0.08309,0.08309,0.31997,-0.11844,0.31997,-0.42073,0.01768,0.01768,-0.42073,0.0*%
%ADD21CUSTOMSHAPE21*%

%AMCUSTOMSHAPE22*
4,1,6,-0.11844,0.31997,0.08309,0.31997,0.31997,0.08309,0.31997,-0.11844,0.01768,-0.42073,-0.42073,0.01768,-0.11844,0.31997,0.0*%
%ADD22CUSTOMSHAPE22*%

%AMCUSTOMSHAPE23*
4,1,6,-0.01768,0.42073,-0.31997,0.11844,-0.31997,-0.08309,-0.08309,-0.31997,0.11844,-0.31997,0.42073,-0.01768,-0.01768,0.42073,0.0*%
%ADD23CUSTOMSHAPE23*%

%ADD24R,3.20000X1.20000*%
%TA.AperFunction,Conductor*%
%ADD25C,0.35000*%
%ADD26C,0.50000*%
%ADD27C,0.20000*%
%TA.AperFunction,ComponentPad*%
%ADD28C,5.00000*%
%ADD29C,1.10000*%
%TA.AperFunction,ViaPad*%
%ADD30C,0.60960*%
G36*
X3402687Y2029423D02*
X3413984Y2025423D01*
X3434968Y2013842D01*
X3453778Y1998988D01*
X3469909Y1981262D01*
X3482929Y1961139D01*
X3492487Y1939160D01*
X3498326Y1915915D01*
X3500261Y1892390D01*
X3499311Y1880118D01*
X3499308Y1880084D01*
X3500000Y1867670D01*
X3500000Y-1855968D01*
X3502020D01*
X3502218Y-1873979D01*
X3497453Y-1909687D01*
X3487626Y-1944345D01*
X3472939Y-1977239D01*
X3453694Y-2007692D01*
X3430289Y-2035077D01*
X3403204Y-2058829D01*
X3372999Y-2078460D01*
X3356646Y-2086012D01*
X3356646Y-2086012D01*
X3356646Y-2086013D01*
X2500000Y-2600000D01*
X-2500000D01*
X-3405191Y-2065299D01*
X-3416906Y-2058186D01*
X-3438148Y-2040864D01*
X-3456796Y-2020776D01*
X-3472494Y-1998306D01*
X-3484941Y-1973886D01*
X-3493899Y-1947981D01*
X-3499196Y-1921088D01*
X-3500732Y-1893721D01*
X-3499604Y-1880062D01*
X-3500000D01*
X-3500000Y1879600D01*
X-3499189Y1879664D01*
X-3500120Y1891538D01*
X-3498046Y1915269D01*
X-3492092Y1938335D01*
X-3482421Y1960106D01*
X-3469297Y1979987D01*
X-3453079Y1997435D01*
X-3434210Y2011975D01*
X-3415786Y2021829D01*
X-3411733Y2023599D01*
X-3401919Y2027021D01*
X-3389908Y2031109D01*
X-2500000Y2300000D01*
X2500000D01*
X3402687Y2029423D01*
D02*
G37*
%LPC*%
G36*
X612140Y1689847D02*
X355600D01*
X340734Y1686889D01*
X328131Y1678469D01*
X239231Y1589569D01*
X230811Y1576966D01*
X227853Y1562100D01*
Y1483991D01*
X215153Y1477203D01*
X214088Y1477915D01*
X204177Y1479886D01*
X191803D01*
X181892Y1477915D01*
X173491Y1472301D01*
X154562Y1453372D01*
X147870Y1457844D01*
X131131Y1461173D01*
X116453D01*
X107853Y1469773D01*
X87315Y1478280D01*
X65085D01*
X44547Y1469773D01*
X28827Y1454053D01*
X20320Y1433515D01*
Y1411285D01*
X28827Y1390747D01*
X44547Y1375027D01*
X65084Y1366520D01*
X69540Y1361092D01*
X68678Y1356761D01*
Y1344387D01*
X70650Y1334476D01*
X76264Y1326075D01*
X88638Y1313700D01*
X97040Y1308086D01*
X104517Y1306599D01*
X106005Y1299121D01*
X111619Y1290719D01*
X123993Y1278345D01*
X132395Y1272731D01*
X139873Y1271244D01*
X141360Y1263766D01*
X146974Y1255364D01*
X159348Y1242989D01*
X167750Y1237375D01*
X175227Y1235888D01*
X176715Y1228410D01*
X182329Y1220008D01*
X194703Y1207634D01*
X203105Y1202020D01*
X210583Y1200533D01*
X212070Y1193055D01*
X217684Y1184653D01*
X230059Y1172279D01*
X238461Y1166665D01*
X245939Y1165177D01*
X247426Y1157700D01*
X253040Y1149298D01*
X265415Y1136924D01*
X273816Y1131310D01*
X281294Y1129822D01*
X282781Y1122344D01*
X288395Y1113942D01*
X300770Y1101568D01*
X309171Y1095954D01*
X316649Y1094466D01*
X318137Y1086989D01*
X323750Y1078587D01*
X336125Y1066213D01*
X344527Y1060599D01*
X352005Y1059112D01*
X353492Y1051634D01*
X359106Y1043232D01*
X371480Y1030857D01*
X379882Y1025244D01*
X387360Y1023756D01*
X388847Y1016278D01*
X394461Y1007877D01*
X406836Y995502D01*
X415237Y989888D01*
X422715Y988401D01*
X424203Y980923D01*
X429817Y972521D01*
X432446Y969891D01*
X432594Y967947D01*
X428726Y955650D01*
X412847Y949073D01*
X397127Y933353D01*
X388620Y912815D01*
Y890585D01*
X397127Y870047D01*
X412847Y854327D01*
X423693Y849834D01*
X456134Y817393D01*
X460627Y806547D01*
X476347Y790827D01*
X496885Y782320D01*
X519115D01*
X539653Y790827D01*
X555373Y806547D01*
X563880Y827085D01*
Y834709D01*
X576089Y837137D01*
X590279Y846619D01*
X646112Y902452D01*
X647088Y903913D01*
X694483Y951308D01*
X700097Y959710D01*
X702068Y969620D01*
Y981995D01*
X700097Y991905D01*
X694483Y1000307D01*
X682109Y1012681D01*
X681804Y1015776D01*
X717091Y1051063D01*
X773607D01*
X784759Y1043611D01*
X799625Y1040653D01*
X885897D01*
X900763Y1043611D01*
X913365Y1052031D01*
X927388Y1066053D01*
X2208949D01*
X2274463Y1000540D01*
X2269603Y988807D01*
X773183D01*
X758317Y985849D01*
X745715Y977429D01*
X716777Y948491D01*
X712222Y947585D01*
X703820Y941971D01*
X606593Y844744D01*
X600979Y836342D01*
X599008Y826431D01*
Y814057D01*
X600979Y804146D01*
X606593Y795745D01*
X618968Y783370D01*
X627369Y777756D01*
X634847Y776269D01*
X636335Y768791D01*
X641949Y760389D01*
X654323Y748015D01*
X662725Y742401D01*
X670203Y740913D01*
X671690Y733436D01*
X677304Y725034D01*
X689678Y712659D01*
X698080Y707046D01*
X705558Y705558D01*
X707045Y698080D01*
X712659Y689678D01*
X725034Y677304D01*
X733435Y671690D01*
X740913Y670202D01*
X742401Y662725D01*
X748015Y654323D01*
X760389Y641949D01*
X768791Y636335D01*
X776269Y634847D01*
X777756Y627370D01*
X783370Y618968D01*
X795744Y606593D01*
X804146Y600979D01*
X811624Y599492D01*
X813111Y592014D01*
X818725Y583612D01*
X831100Y571238D01*
X839501Y565624D01*
X846979Y564137D01*
X848467Y556659D01*
X852205Y551064D01*
X852268Y548229D01*
X850629Y541796D01*
X847827Y536551D01*
X831947Y529973D01*
X816227Y514253D01*
X807720Y493715D01*
Y471485D01*
X816227Y450947D01*
X831947Y435227D01*
X852485Y426720D01*
X874715D01*
X895253Y435227D01*
X910973Y450947D01*
X917988Y467883D01*
X919767Y469884D01*
X949606Y499723D01*
X950810Y500527D01*
X955442Y505160D01*
X956902Y506135D01*
X999666Y548899D01*
X1000641Y550359D01*
X1048037Y597754D01*
X1053651Y606156D01*
X1055622Y616067D01*
Y628441D01*
X1054466Y634253D01*
X1060668Y644688D01*
X1063177Y646953D01*
X1105753D01*
X1110614Y635220D01*
X1070331Y594937D01*
X1065776Y594031D01*
X1057374Y588417D01*
X960147Y491190D01*
X954533Y482788D01*
X952562Y472878D01*
Y460503D01*
X954533Y450593D01*
X960147Y442191D01*
X972521Y429817D01*
X980923Y424203D01*
X988400Y422715D01*
X989888Y415238D01*
X995502Y406836D01*
X1007876Y394461D01*
X1016278Y388848D01*
X1023756Y387360D01*
X1025243Y379882D01*
X1030857Y371480D01*
X1043232Y359106D01*
X1051633Y353492D01*
X1059111Y352005D01*
X1060599Y344527D01*
X1066213Y336125D01*
X1078587Y323751D01*
X1086989Y318137D01*
X1094466Y316649D01*
X1095954Y309172D01*
X1101568Y300770D01*
X1113942Y288396D01*
X1122344Y282782D01*
X1129822Y281294D01*
X1131309Y273816D01*
X1136923Y265415D01*
X1149298Y253040D01*
X1157699Y247426D01*
X1165177Y245939D01*
X1166665Y238461D01*
X1172279Y230059D01*
X1184653Y217685D01*
X1193055Y212071D01*
X1200532Y210584D01*
X1202020Y203105D01*
X1207634Y194703D01*
X1220008Y182329D01*
X1228410Y176715D01*
X1235888Y175227D01*
X1237375Y167750D01*
X1242989Y159348D01*
X1255364Y146974D01*
X1263766Y141360D01*
X1271243Y139873D01*
X1272731Y132395D01*
X1278345Y123993D01*
X1290719Y111619D01*
X1299121Y106005D01*
X1306599Y104517D01*
X1308086Y97040D01*
X1313700Y88638D01*
X1326074Y76264D01*
X1334476Y70650D01*
X1344387Y68678D01*
X1356761D01*
X1366672Y70650D01*
X1375073Y76264D01*
X1396218Y97408D01*
X1686196Y-192569D01*
X1698798Y-200989D01*
X1713664Y-203947D01*
X1794623D01*
X1799483Y-215680D01*
X1693796Y-321367D01*
X1540091D01*
X1485895Y-267171D01*
X1473292Y-258751D01*
X1458427Y-255793D01*
X1407838D01*
X1407204Y-252602D01*
X1401590Y-244201D01*
X1304363Y-146974D01*
X1295961Y-141360D01*
X1291407Y-140454D01*
X1275419Y-124466D01*
X1262816Y-116045D01*
X1247950Y-113088D01*
X1224288D01*
X1209422Y-116045D01*
X1207838Y-117104D01*
X1187681Y-108755D01*
X1165450D01*
X1144912Y-117262D01*
X1129193Y-132981D01*
X1120686Y-153519D01*
Y-175750D01*
X1129193Y-196288D01*
X1144912Y-212007D01*
X1164327Y-220049D01*
X1166112Y-222297D01*
X1170170Y-233215D01*
X1166664Y-238461D01*
X1165177Y-245938D01*
X1157699Y-247425D01*
X1149298Y-253039D01*
X1136923Y-265414D01*
X1131309Y-273816D01*
X1129822Y-281294D01*
X1122344Y-282781D01*
X1113942Y-288395D01*
X1101568Y-300769D01*
X1095954Y-309171D01*
X1094466Y-316649D01*
X1086989Y-318136D01*
X1078588Y-323750D01*
X1066213Y-336125D01*
X1060599Y-344526D01*
X1059112Y-352004D01*
X1051633Y-353492D01*
X1043232Y-359106D01*
X1030857Y-371480D01*
X1025243Y-379882D01*
X1023756Y-387359D01*
X1016278Y-388847D01*
X1007876Y-394461D01*
X995502Y-406835D01*
X989888Y-415237D01*
X988401Y-422715D01*
X980923Y-424203D01*
X972521Y-429817D01*
X960146Y-442191D01*
X954533Y-450593D01*
X953045Y-458070D01*
X945567Y-459558D01*
X937166Y-465172D01*
X931791Y-470546D01*
X929848Y-470694D01*
X917550Y-466826D01*
X910973Y-450947D01*
X895253Y-435227D01*
X874715Y-426720D01*
X852485D01*
X831947Y-435227D01*
X816227Y-450947D01*
X807720Y-471485D01*
Y-493715D01*
X816227Y-514253D01*
X824827Y-522853D01*
Y-550369D01*
X828156Y-567108D01*
X837638Y-581298D01*
X902452Y-646112D01*
X903913Y-647088D01*
X951308Y-694483D01*
X959710Y-700097D01*
X969620Y-702068D01*
X981995D01*
X991905Y-700097D01*
X1000307Y-694483D01*
X1009080Y-685711D01*
X1024813Y-683483D01*
X1070180Y-728851D01*
X1066316Y-742947D01*
X1051482Y-749091D01*
X1042956Y-757618D01*
X989332D01*
X948490Y-716777D01*
X947584Y-712222D01*
X941970Y-703820D01*
X844743Y-606593D01*
X836341Y-600979D01*
X826431Y-599008D01*
X814057D01*
X804146Y-600979D01*
X795744Y-606593D01*
X783370Y-618968D01*
X777756Y-627369D01*
X776268Y-634847D01*
X768791Y-636334D01*
X760389Y-641948D01*
X748015Y-654323D01*
X742401Y-662724D01*
X740913Y-670202D01*
X733435Y-671690D01*
X725034Y-677303D01*
X712659Y-689678D01*
X707045Y-698080D01*
X705558Y-705558D01*
X698080Y-707045D01*
X689678Y-712659D01*
X677304Y-725034D01*
X671690Y-733435D01*
X663081Y-738009D01*
X651013Y-733919D01*
X644273Y-717647D01*
X628553Y-701927D01*
X608015Y-693420D01*
X585785D01*
X565247Y-701927D01*
X549527Y-717647D01*
X541020Y-738185D01*
Y-760415D01*
X549527Y-780953D01*
X565247Y-796673D01*
X582846Y-803963D01*
X585410Y-813511D01*
X585224Y-817648D01*
X583612Y-818725D01*
X571238Y-831099D01*
X565624Y-839501D01*
X552472Y-840522D01*
X551717Y-840091D01*
X550341Y-837760D01*
X542673Y-819247D01*
X526953Y-803527D01*
X506415Y-795020D01*
X484185D01*
X463647Y-803527D01*
X447927Y-819247D01*
X439420Y-839785D01*
Y-851947D01*
X426858Y-864508D01*
X417377Y-878699D01*
X414047Y-895437D01*
Y-917407D01*
X417377Y-934146D01*
X426858Y-948336D01*
X513543Y-1035021D01*
X515003Y-1035996D01*
X562399Y-1083392D01*
X570800Y-1089006D01*
X580711Y-1090977D01*
X593085D01*
X598693Y-1095579D01*
Y-1101849D01*
X601651Y-1116715D01*
X610071Y-1129318D01*
X679069Y-1198316D01*
X674205Y-1210949D01*
X665800Y-1211903D01*
X559582Y-1105685D01*
X558676Y-1101131D01*
X553062Y-1092729D01*
X455835Y-995502D01*
X447433Y-989888D01*
X437522Y-987916D01*
X425148D01*
X415237Y-989888D01*
X406836Y-995502D01*
X394461Y-1007876D01*
X388847Y-1016278D01*
X387360Y-1023756D01*
X379882Y-1025243D01*
X371480Y-1030857D01*
X359106Y-1043231D01*
X353492Y-1051633D01*
X352005Y-1059111D01*
X344527Y-1060599D01*
X336125Y-1066212D01*
X323750Y-1078587D01*
X318137Y-1086989D01*
X316649Y-1094466D01*
X309171Y-1095954D01*
X300770Y-1101568D01*
X288395Y-1113942D01*
X282781Y-1122344D01*
X281294Y-1129822D01*
X273816Y-1131309D01*
X265414Y-1136923D01*
X253039Y-1149298D01*
X247425Y-1157699D01*
X245938Y-1165178D01*
X238461Y-1166665D01*
X230059Y-1172279D01*
X217684Y-1184653D01*
X212070Y-1193055D01*
X210583Y-1200533D01*
X203105Y-1202020D01*
X194703Y-1207634D01*
X182329Y-1220008D01*
X176715Y-1228410D01*
X175228Y-1235888D01*
X167750Y-1237375D01*
X159348Y-1242989D01*
X146974Y-1255364D01*
X141360Y-1263766D01*
X139873Y-1271243D01*
X132395Y-1272730D01*
X123993Y-1278344D01*
X111619Y-1290719D01*
X106005Y-1299121D01*
X104517Y-1306599D01*
X97039Y-1308086D01*
X88637Y-1313700D01*
X76263Y-1326074D01*
X70649Y-1334476D01*
X68678Y-1344387D01*
Y-1356761D01*
X70649Y-1366672D01*
X76263Y-1375073D01*
X173490Y-1472301D01*
X181892Y-1477914D01*
X186446Y-1478821D01*
X307354Y-1599729D01*
X319957Y-1608149D01*
X334823Y-1611107D01*
X1661160D01*
X1676026Y-1608149D01*
X1688629Y-1599729D01*
X2271611Y-1016747D01*
X2410692D01*
X2413218Y-1029447D01*
X2406747Y-1032127D01*
X2391027Y-1047847D01*
X2382520Y-1068385D01*
Y-1090615D01*
X2391027Y-1111153D01*
X2403824Y-1123950D01*
X2391027Y-1136747D01*
X2382520Y-1157285D01*
Y-1179515D01*
X2391027Y-1200053D01*
X2406747Y-1215773D01*
X2427285Y-1224280D01*
X2449515D01*
X2470053Y-1215773D01*
X2480903Y-1204923D01*
X2489200Y-1201477D01*
X2497497Y-1204923D01*
X2508347Y-1215773D01*
X2528885Y-1224280D01*
X2551115D01*
X2571653Y-1215773D01*
X2587373Y-1200053D01*
X2590277Y-1193043D01*
X2604023D01*
X2606927Y-1200053D01*
X2622647Y-1215773D01*
X2643185Y-1224280D01*
X2665415D01*
X2685953Y-1215773D01*
X2701673Y-1200053D01*
X2710180Y-1179515D01*
Y-1157285D01*
X2701673Y-1136747D01*
X2688876Y-1123950D01*
X2701673Y-1111153D01*
X2710180Y-1090615D01*
Y-1068385D01*
X2701673Y-1047847D01*
X2685953Y-1032127D01*
X2679482Y-1029447D01*
X2682008Y-1016747D01*
X2947623D01*
X3004820Y-1073944D01*
Y-1077915D01*
X3013327Y-1098453D01*
X3029047Y-1114173D01*
X3049585Y-1122680D01*
X3071815D01*
X3092353Y-1114173D01*
X3103133Y-1103393D01*
X3115833Y-1108653D01*
Y-1464729D01*
X2752509Y-1828053D01*
X1422800D01*
Y-1804500D01*
X1093000D01*
Y-1929300D01*
X1422800D01*
Y-1905747D01*
X2747123D01*
X2751983Y-1917480D01*
X2587409Y-2082053D01*
X1422800D01*
Y-2058500D01*
X1093000D01*
Y-2183300D01*
X1422800D01*
Y-2159747D01*
X2582023D01*
X2586883Y-2171480D01*
X2422309Y-2336053D01*
X1422800D01*
Y-2312500D01*
X1093000D01*
Y-2437300D01*
X1422800D01*
Y-2413747D01*
X2438400D01*
X2453266Y-2410789D01*
X2465869Y-2402369D01*
X3253269Y-1614969D01*
X3261689Y-1602366D01*
X3264647Y-1587500D01*
Y970280D01*
X3261689Y985146D01*
X3253269Y997749D01*
X3188331Y1062687D01*
X3193191Y1074420D01*
X3198815D01*
X3219353Y1082927D01*
X3235073Y1098647D01*
X3243580Y1119185D01*
Y1141415D01*
X3235073Y1161953D01*
X3219353Y1177673D01*
X3198815Y1186180D01*
X3176585D01*
X3156047Y1177673D01*
X3147520Y1169147D01*
X3132160D01*
X3104538Y1196768D01*
X3091935Y1205189D01*
X3077069Y1208146D01*
X2608443D01*
X2603582Y1219880D01*
X2604336Y1220633D01*
X2614921Y1238967D01*
X2620400Y1259415D01*
Y1280585D01*
X2614921Y1301033D01*
X2604336Y1319367D01*
X2589367Y1334336D01*
X2571033Y1344921D01*
X2550585Y1350400D01*
X2529415D01*
X2508967Y1344921D01*
X2490633Y1334336D01*
X2475664Y1319367D01*
X2465079Y1301033D01*
X2459600Y1280585D01*
Y1259415D01*
X2465079Y1238967D01*
X2466778Y1236025D01*
X2460428Y1225027D01*
X1093051D01*
X639609Y1678469D01*
X627006Y1686889D01*
X612140Y1689847D01*
D02*
G37*
G36*
X-2529415Y1350400D02*
X-2550585D01*
X-2571033Y1344921D01*
X-2589367Y1334336D01*
X-2604336Y1319367D01*
X-2614921Y1301033D01*
X-2620400Y1280585D01*
Y1259415D01*
X-2614921Y1238967D01*
X-2604336Y1220633D01*
X-2589367Y1205664D01*
X-2571033Y1195079D01*
X-2550585Y1189600D01*
X-2529415D01*
X-2508967Y1195079D01*
X-2490633Y1205664D01*
X-2475664Y1220633D01*
X-2465079Y1238967D01*
X-2459600Y1259415D01*
Y1280585D01*
X-2465079Y1301033D01*
X-2475664Y1319367D01*
X-2490633Y1334336D01*
X-2508967Y1344921D01*
X-2529415Y1350400D01*
D02*
G37*
G36*
X-687884Y1964167D02*
X-1660695D01*
X-1675561Y1961209D01*
X-1688164Y1952789D01*
X-2510032Y1130920D01*
X-2525013Y1133900D01*
X-2529088Y1143739D01*
X-2544808Y1159458D01*
X-2565346Y1167965D01*
X-2587576D01*
X-2608115Y1159458D01*
X-2623834Y1143739D01*
X-2632341Y1123201D01*
Y1111300D01*
X-2632430Y1110557D01*
X-2645964Y1104345D01*
X-2652217Y1108451D01*
Y1119099D01*
X-2660724Y1139637D01*
X-2676444Y1155356D01*
X-2696982Y1163864D01*
X-2719212D01*
X-2739751Y1155356D01*
X-2755470Y1139637D01*
X-2763977Y1119099D01*
Y1096868D01*
X-2755470Y1076330D01*
X-2739751Y1060611D01*
X-2719212Y1052104D01*
X-2700740D01*
Y1034987D01*
X-2715010D01*
X-2735548Y1026480D01*
X-2751267Y1010760D01*
X-2759775Y990222D01*
Y967992D01*
X-2751267Y947454D01*
X-2735548Y931734D01*
X-2727490Y928396D01*
X-2725012Y915940D01*
X-2774066Y866887D01*
X-2892209D01*
X-2936921Y911598D01*
X-2949524Y920019D01*
X-2964390Y922976D01*
X-2971761D01*
X-2971941Y923008D01*
X-2972420Y923396D01*
X-2984651Y935627D01*
X-3005189Y944134D01*
X-3027420D01*
X-3047958Y935627D01*
X-3063677Y919907D01*
X-3072184Y899369D01*
Y884283D01*
X-3080381Y875123D01*
X-3083918Y874254D01*
X-3103390D01*
X-3123928Y865747D01*
X-3139648Y850027D01*
X-3148155Y829489D01*
Y807258D01*
X-3139648Y786720D01*
X-3131813Y778886D01*
X-3125624Y769128D01*
X-3131813Y762293D01*
X-3141093Y753013D01*
X-3149600Y732475D01*
Y710245D01*
X-3141093Y689707D01*
X-3125373Y673987D01*
X-3104835Y665480D01*
X-3087231D01*
X-3072462Y650711D01*
X-3072302Y649084D01*
X-3082673Y638713D01*
X-3091180Y618175D01*
Y595945D01*
X-3082673Y575407D01*
X-3071439Y564173D01*
X-3072698Y550273D01*
X-3073242Y549382D01*
X-3088452Y534172D01*
X-3096959Y513634D01*
Y491403D01*
X-3088452Y470865D01*
X-3074484Y456897D01*
X-3083422Y447958D01*
X-3091929Y427420D01*
Y405190D01*
X-3083422Y384652D01*
X-3067703Y368932D01*
X-3053337Y362982D01*
X-3060336Y346085D01*
Y323855D01*
X-3051829Y303316D01*
X-3036109Y287597D01*
X-3015571Y279090D01*
X-2993340D01*
X-2972802Y287597D01*
X-2964276Y296123D01*
X-2693408D01*
X-2677071Y279786D01*
X-2677155Y278929D01*
X-2706417Y249667D01*
X-3005400D01*
X-3005931Y249749D01*
X-3006698Y249924D01*
X-3007226Y250089D01*
X-3007543Y250217D01*
X-3007695Y250294D01*
X-3007734Y250319D01*
X-3008606Y251129D01*
X-3010369Y252215D01*
X-3016347Y258193D01*
X-3036885Y266700D01*
X-3059115D01*
X-3079653Y258193D01*
X-3095373Y242473D01*
X-3103880Y221935D01*
Y199705D01*
X-3095373Y179167D01*
X-3080036Y163830D01*
X-3090293Y153573D01*
X-3098800Y133035D01*
Y110805D01*
X-3090293Y90267D01*
X-3074573Y74547D01*
X-3072931Y73867D01*
X-3071118Y59369D01*
X-3078480Y41595D01*
Y19365D01*
X-3069973Y-1173D01*
X-3054253Y-16893D01*
X-3033715Y-25400D01*
X-3011485D01*
X-2990947Y-16893D01*
X-2984960Y-10907D01*
X-2984778D01*
X-2981260Y-11606D01*
X-2739671D01*
X-2723342Y-27935D01*
X-2710739Y-36356D01*
X-2695873Y-39313D01*
X-2639060D01*
X-2624194Y-36356D01*
X-2611591Y-27935D01*
X-2597103Y-13447D01*
X-1895691D01*
X-1854947Y-54191D01*
Y-367143D01*
X-1866680Y-372003D01*
X-1989291Y-249391D01*
X-2001894Y-240971D01*
X-2016760Y-238013D01*
X-2993809D01*
X-3018945Y-212877D01*
X-3019188Y-212540D01*
X-3019512Y-212006D01*
X-3019656Y-211718D01*
X-3019640Y-210879D01*
X-3020060Y-208530D01*
Y-197165D01*
X-3028567Y-176627D01*
X-3044287Y-160907D01*
X-3064825Y-152400D01*
X-3087055D01*
X-3107593Y-160907D01*
X-3123313Y-176627D01*
X-3131820Y-197165D01*
Y-219395D01*
X-3123313Y-239933D01*
X-3109619Y-253627D01*
X-3109788Y-267444D01*
X-3110133Y-267587D01*
X-3125853Y-283307D01*
X-3134360Y-303845D01*
Y-326075D01*
X-3125853Y-346613D01*
X-3110133Y-362333D01*
X-3089595Y-370840D01*
X-3080401D01*
X-3073345Y-381400D01*
X-3075940Y-387665D01*
Y-403860D01*
X-3097215D01*
X-3117753Y-412367D01*
X-3133473Y-428087D01*
X-3141980Y-448625D01*
Y-470855D01*
X-3133473Y-491393D01*
X-3117753Y-507113D01*
X-3097215Y-515620D01*
X-3082660D01*
X-3075103Y-528320D01*
X-3080910Y-542339D01*
X-3090225Y-538480D01*
X-3112455D01*
X-3132993Y-546987D01*
X-3148713Y-562707D01*
X-3157220Y-583245D01*
Y-605475D01*
X-3148713Y-626013D01*
X-3132994Y-641733D01*
X-3132945Y-641976D01*
X-3144120Y-653151D01*
X-3152627Y-673689D01*
Y-687188D01*
X-3171989Y-706550D01*
X-3180409Y-719152D01*
X-3183367Y-734018D01*
Y-1219200D01*
X-3180409Y-1234066D01*
X-3171989Y-1246669D01*
X-3121189Y-1297469D01*
X-3108586Y-1305889D01*
X-3093720Y-1308847D01*
X-2609143D01*
X-2606635Y-1314899D01*
X-2604863Y-1321547D01*
X-2614921Y-1338967D01*
X-2620400Y-1359415D01*
Y-1380585D01*
X-2614921Y-1401033D01*
X-2604336Y-1419367D01*
X-2589367Y-1434336D01*
X-2571033Y-1444921D01*
X-2550585Y-1450400D01*
X-2529415D01*
X-2508967Y-1444921D01*
X-2490633Y-1434336D01*
X-2475664Y-1419367D01*
X-2465079Y-1401033D01*
X-2459600Y-1380585D01*
Y-1359415D01*
X-2465079Y-1338967D01*
X-2475137Y-1321547D01*
X-2473365Y-1314899D01*
X-2470857Y-1308847D01*
X-2276690D01*
X-1909608Y-1675929D01*
X-1897006Y-1684349D01*
X-1882140Y-1687307D01*
X-567173D01*
X-552307Y-1684349D01*
X-539704Y-1675929D01*
X-369380Y-1505604D01*
X-356924Y-1508082D01*
X-353586Y-1516140D01*
X-337867Y-1531860D01*
X-317329Y-1540367D01*
X-295098D01*
X-274560Y-1531860D01*
X-258840Y-1516140D01*
X-250333Y-1495602D01*
Y-1473372D01*
X-250736Y-1472399D01*
X-237958Y-1459621D01*
X-234864Y-1459926D01*
X-222489Y-1472301D01*
X-214087Y-1477914D01*
X-204177Y-1479886D01*
X-191803D01*
X-181892Y-1477914D01*
X-173490Y-1472301D01*
X-147036Y-1445847D01*
X-130745Y-1462138D01*
X-123573Y-1479453D01*
X-107853Y-1495173D01*
X-87315Y-1503680D01*
X-65085D01*
X-44547Y-1495173D01*
X-28827Y-1479453D01*
X-20320Y-1458915D01*
Y-1436685D01*
X-28827Y-1416147D01*
X-44547Y-1400427D01*
X-65085Y-1391920D01*
X-74664D01*
X-81818Y-1381114D01*
X-38898Y-1338193D01*
X-29416Y-1324002D01*
X-26086Y-1307264D01*
Y-1253513D01*
X-29416Y-1236775D01*
X-30480Y-1235182D01*
Y-1225865D01*
X-38987Y-1205327D01*
X-54707Y-1189607D01*
X-75245Y-1181100D01*
X-97475D01*
X-118013Y-1189607D01*
X-133733Y-1205327D01*
X-142240Y-1225865D01*
Y-1242136D01*
X-154940Y-1247397D01*
X-159348Y-1242989D01*
X-167750Y-1237375D01*
X-175228Y-1235888D01*
X-176715Y-1228410D01*
X-182329Y-1220008D01*
X-194703Y-1207634D01*
X-203105Y-1202020D01*
X-210583Y-1200533D01*
X-212070Y-1193055D01*
X-217684Y-1184653D01*
X-230059Y-1172278D01*
X-238461Y-1166664D01*
X-245938Y-1165177D01*
X-247425Y-1157699D01*
X-253039Y-1149298D01*
X-265414Y-1136923D01*
X-273816Y-1131309D01*
X-281294Y-1129822D01*
X-282781Y-1122344D01*
X-288395Y-1113942D01*
X-300770Y-1101568D01*
X-309171Y-1095954D01*
X-316649Y-1094466D01*
X-318137Y-1086989D01*
X-323750Y-1078587D01*
X-336125Y-1066212D01*
X-344527Y-1060599D01*
X-352005Y-1059111D01*
X-353492Y-1051633D01*
X-359106Y-1043231D01*
X-371480Y-1030857D01*
X-379882Y-1025243D01*
X-380721Y-1020305D01*
X-370477Y-1008380D01*
X-369885D01*
X-349347Y-999873D01*
X-333627Y-984153D01*
X-325120Y-963615D01*
Y-941385D01*
X-333627Y-920847D01*
X-349347Y-905127D01*
X-369885Y-896620D01*
X-392115D01*
X-412653Y-905127D01*
X-416286Y-908760D01*
X-422170D01*
X-438909Y-912089D01*
X-453099Y-921571D01*
X-540046Y-1008518D01*
X-541022Y-1009978D01*
X-588417Y-1057374D01*
X-594031Y-1065775D01*
X-596003Y-1075686D01*
Y-1088060D01*
X-594031Y-1097971D01*
X-588417Y-1106373D01*
X-576043Y-1118747D01*
X-575738Y-1121842D01*
X-608850Y-1154953D01*
X-678234D01*
X-679973Y-1152834D01*
Y-1123819D01*
X-610710Y-1054556D01*
X-606156Y-1053650D01*
X-597754Y-1048037D01*
X-500527Y-950809D01*
X-494913Y-942408D01*
X-492942Y-932497D01*
Y-920123D01*
X-494913Y-910212D01*
X-500527Y-901810D01*
X-512901Y-889436D01*
X-521303Y-883822D01*
X-528781Y-882335D01*
X-530269Y-874857D01*
X-535883Y-866455D01*
X-548257Y-854080D01*
X-556659Y-848466D01*
X-564136Y-846979D01*
X-565624Y-839501D01*
X-571238Y-831100D01*
X-583612Y-818725D01*
X-592014Y-813111D01*
X-599492Y-811624D01*
X-600979Y-804146D01*
X-606593Y-795744D01*
X-618968Y-783370D01*
X-627369Y-777756D01*
X-634847Y-776268D01*
X-636335Y-768791D01*
X-641949Y-760389D01*
X-654323Y-748015D01*
X-662725Y-742401D01*
X-670202Y-740913D01*
X-671690Y-733435D01*
X-677303Y-725034D01*
X-689678Y-712659D01*
X-698080Y-707045D01*
X-705558Y-705558D01*
X-707045Y-698080D01*
X-712659Y-689678D01*
X-724546Y-677791D01*
X-724730Y-675379D01*
X-722018Y-664044D01*
X-704947Y-656973D01*
X-689227Y-641253D01*
X-680720Y-620715D01*
Y-598485D01*
X-689227Y-577947D01*
X-704947Y-562227D01*
X-725485Y-553720D01*
X-747715D01*
X-768253Y-562227D01*
X-776853Y-570827D01*
X-791344D01*
X-808082Y-574156D01*
X-822273Y-583638D01*
X-893599Y-654964D01*
X-894575Y-656425D01*
X-941970Y-703820D01*
X-947584Y-712222D01*
X-949556Y-722133D01*
Y-734507D01*
X-947584Y-744418D01*
X-941970Y-752819D01*
X-929596Y-765194D01*
X-929292Y-768288D01*
X-1049257Y-888253D01*
X-1134921D01*
X-1139781Y-876520D01*
X-964264Y-701003D01*
X-959710Y-700097D01*
X-951308Y-694483D01*
X-854081Y-597256D01*
X-848467Y-588854D01*
X-846495Y-578943D01*
Y-566569D01*
X-848467Y-556659D01*
X-854081Y-548257D01*
X-866455Y-535882D01*
X-874857Y-530268D01*
X-882335Y-528781D01*
X-883822Y-521303D01*
X-889436Y-512901D01*
X-901810Y-500527D01*
X-910212Y-494913D01*
X-917690Y-493426D01*
X-919177Y-485948D01*
X-924791Y-477546D01*
X-937166Y-465172D01*
X-945568Y-459558D01*
X-953045Y-458071D01*
X-954533Y-450593D01*
X-960146Y-442191D01*
X-972521Y-429817D01*
X-980923Y-424203D01*
X-982250Y-423939D01*
X-984320Y-417267D01*
X-973956Y-407813D01*
X-971235Y-408940D01*
X-949005D01*
X-928467Y-400433D01*
X-912747Y-384713D01*
X-904240Y-364175D01*
Y-341945D01*
X-912747Y-321407D01*
X-928467Y-305687D01*
X-949005Y-297180D01*
X-971235D01*
X-991773Y-305687D01*
X-1007493Y-321407D01*
X-1016000Y-341945D01*
Y-364175D01*
X-1014404Y-368028D01*
X-1023871Y-378361D01*
X-1026897Y-377407D01*
X-1030857Y-371480D01*
X-1043232Y-359106D01*
X-1051633Y-353492D01*
X-1059111Y-352004D01*
X-1060599Y-344526D01*
X-1066213Y-336125D01*
X-1078587Y-323750D01*
X-1086989Y-318136D01*
X-1094467Y-316649D01*
X-1095955Y-309171D01*
X-1101569Y-300770D01*
X-1113943Y-288395D01*
X-1122345Y-282781D01*
X-1129822Y-281294D01*
X-1131309Y-273816D01*
X-1136923Y-265414D01*
X-1149298Y-253039D01*
X-1157699Y-247425D01*
X-1165178Y-245938D01*
X-1166665Y-238461D01*
X-1172279Y-230059D01*
X-1184653Y-217684D01*
X-1193055Y-212070D01*
X-1200533Y-210583D01*
X-1202020Y-203105D01*
X-1207634Y-194703D01*
X-1218247Y-184090D01*
X-1213671Y-179514D01*
X-1204189Y-165323D01*
X-1200860Y-148585D01*
Y-25400D01*
X-1204189Y-8661D01*
X-1213671Y5529D01*
X-1241162Y33020D01*
X-1235901Y45720D01*
X-1233485D01*
X-1212947Y54227D01*
X-1197227Y69947D01*
X-1188720Y90485D01*
Y95622D01*
X-1175122Y109220D01*
X-1169985D01*
X-1149447Y117727D01*
X-1133727Y133447D01*
X-1125220Y153985D01*
Y176215D01*
X-1128676Y184559D01*
X-1126754Y194221D01*
Y215900D01*
X-1130084Y232639D01*
X-1139565Y246829D01*
X-1220651Y327914D01*
X-1222111Y328890D01*
X-1269506Y376286D01*
X-1277908Y381899D01*
X-1287819Y383871D01*
X-1300193D01*
X-1310104Y381899D01*
X-1318506Y376286D01*
X-1330880Y363911D01*
X-1333344Y360224D01*
X-1346044Y364076D01*
Y366673D01*
X-1354551Y387211D01*
X-1369877Y402537D01*
X-1369784Y404650D01*
X-1366795Y415237D01*
X-1267754D01*
Y403935D01*
X-1265783Y394024D01*
X-1260169Y385623D01*
X-1212773Y338227D01*
X-1211797Y336767D01*
X-1210337Y335791D01*
X-1162942Y288395D01*
X-1154600Y282822D01*
X-1152712Y280934D01*
X-1138522Y271452D01*
X-1121783Y268123D01*
X-1034337D01*
X-1017598Y271452D01*
X-1003408Y280934D01*
X-985264Y299077D01*
X-984529Y299720D01*
X-979485D01*
X-958947Y308227D01*
X-943227Y323947D01*
X-934720Y344485D01*
Y349529D01*
X-934076Y350265D01*
X-921336Y363006D01*
X-921082Y363220D01*
X-915985D01*
X-895447Y371727D01*
X-879727Y387447D01*
X-871220Y407985D01*
Y430215D01*
X-879727Y450753D01*
X-895447Y466473D01*
X-912262Y473438D01*
X-916576Y481241D01*
X-914169Y489183D01*
X-910212Y494914D01*
X-901810Y500528D01*
X-889436Y512902D01*
X-883822Y521304D01*
X-882335Y528782D01*
X-874857Y530269D01*
X-866455Y535883D01*
X-861361Y540977D01*
X-844105Y541680D01*
X-777876Y475451D01*
X-765273Y467031D01*
X-750407Y464073D01*
X-670093D01*
X-655228Y467031D01*
X-654630Y467430D01*
X-641093D01*
X-627144Y453480D01*
X-606606Y444973D01*
X-584376D01*
X-563837Y453480D01*
X-548118Y469200D01*
X-539611Y489738D01*
Y511968D01*
X-546120Y527683D01*
X-536436Y537418D01*
X-526735Y533400D01*
X-504505D01*
X-483967Y541907D01*
X-468247Y557627D01*
X-459740Y578165D01*
Y600395D01*
X-468247Y620933D01*
X-483967Y636653D01*
X-504505Y645160D01*
X-511016D01*
X-547304Y681448D01*
X-544325Y696429D01*
X-534227Y700612D01*
X-518507Y716331D01*
X-510000Y736869D01*
Y739611D01*
X-506282Y751820D01*
X-464355D01*
X-454444Y753791D01*
X-446043Y759405D01*
X-403389Y716751D01*
X-390786Y708331D01*
X-375920Y705373D01*
X-338464D01*
X-337934Y705291D01*
X-337166Y705116D01*
X-336639Y704951D01*
X-336321Y704823D01*
X-336169Y704746D01*
X-336130Y704721D01*
X-335259Y703911D01*
X-331355Y701506D01*
X-327542Y698958D01*
X-327068Y698863D01*
X-326656Y698610D01*
X-322128Y697881D01*
X-317631Y696986D01*
X-317157Y697081D01*
X-316680Y697004D01*
X-312220Y698063D01*
X-307721Y698958D01*
X-307319Y699226D01*
X-306849Y699338D01*
X-303133Y702023D01*
X-299319Y704572D01*
X-299050Y704974D01*
X-298659Y705257D01*
X-298587Y705373D01*
X-295864D01*
X-280998Y708331D01*
X-268396Y716751D01*
X-259975Y729354D01*
X-257018Y744220D01*
X-259975Y759086D01*
X-268396Y771689D01*
X-280998Y780109D01*
X-295864Y783067D01*
X-298587D01*
X-298659Y783183D01*
X-299050Y783467D01*
X-299319Y783868D01*
X-303131Y786416D01*
X-306849Y789102D01*
X-307319Y789214D01*
X-307721Y789482D01*
X-312220Y790377D01*
X-316680Y791436D01*
X-317157Y791359D01*
X-317631Y791454D01*
X-322128Y790559D01*
X-325515Y802877D01*
X-323947Y803527D01*
X-308227Y819247D01*
X-299720Y839785D01*
Y862015D01*
X-308227Y882553D01*
X-323947Y898273D01*
X-344485Y906780D01*
X-366715D01*
X-387253Y898273D01*
X-400230Y885296D01*
X-400400Y885423D01*
X-402362Y885915D01*
X-404154Y886855D01*
X-407218Y887133D01*
X-410201Y887881D01*
X-494050Y892027D01*
X-498423Y904959D01*
X-494913Y910212D01*
X-493426Y917690D01*
X-485948Y919177D01*
X-477546Y924791D01*
X-465172Y937166D01*
X-459558Y945568D01*
X-458071Y953046D01*
X-450593Y954533D01*
X-442191Y960147D01*
X-429817Y972521D01*
X-424203Y980923D01*
X-422715Y988401D01*
X-415237Y989888D01*
X-406836Y995502D01*
X-394461Y1007877D01*
X-388847Y1016278D01*
X-387360Y1023756D01*
X-379882Y1025244D01*
X-371480Y1030857D01*
X-359106Y1043232D01*
X-353492Y1051634D01*
X-352005Y1059112D01*
X-344527Y1060599D01*
X-336125Y1066213D01*
X-323750Y1078587D01*
X-318137Y1086989D01*
X-316649Y1094466D01*
X-309171Y1095954D01*
X-300770Y1101568D01*
X-297180Y1105157D01*
X-289167Y1102766D01*
X-284049Y1100327D01*
X-275973Y1080830D01*
X-260253Y1065110D01*
X-239715Y1056603D01*
X-217485D01*
X-196947Y1065110D01*
X-181227Y1080830D01*
X-172720Y1101368D01*
Y1123598D01*
X-181227Y1144137D01*
X-196947Y1159856D01*
X-216445Y1167932D01*
X-218883Y1173048D01*
X-221275Y1181063D01*
X-217685Y1184653D01*
X-212071Y1193055D01*
X-210583Y1200533D01*
X-203105Y1202020D01*
X-194703Y1207634D01*
X-182329Y1220008D01*
X-176715Y1228410D01*
X-175228Y1235888D01*
X-167750Y1237375D01*
X-159348Y1242989D01*
X-146974Y1255364D01*
X-141360Y1263766D01*
X-139873Y1271244D01*
X-132395Y1272731D01*
X-123993Y1278345D01*
X-111619Y1290719D01*
X-106005Y1299121D01*
X-104517Y1306599D01*
X-97040Y1308086D01*
X-88638Y1313700D01*
X-76264Y1326074D01*
X-70650Y1334476D01*
X-68678Y1344387D01*
Y1356761D01*
X-70650Y1366672D01*
X-76264Y1375073D01*
X-173491Y1472301D01*
X-181892Y1477914D01*
X-186447Y1478821D01*
X-660415Y1952789D01*
X-673018Y1961209D01*
X-687884Y1964167D01*
D02*
G37*
G36*
X-217485Y995680D02*
X-239715D01*
X-260253Y987173D01*
X-275973Y971453D01*
X-284480Y950915D01*
Y928685D01*
X-275973Y908147D01*
X-260253Y892427D01*
X-239715Y883920D01*
X-217485D01*
X-196947Y892427D01*
X-181227Y908147D01*
X-172720Y928685D01*
Y950915D01*
X-181227Y971453D01*
X-196947Y987173D01*
X-217485Y995680D01*
D02*
G37*
G36*
X684215Y563880D02*
X661985D01*
X641447Y555373D01*
X625727Y539653D01*
X617220Y519115D01*
Y496885D01*
X625727Y476347D01*
X641447Y460627D01*
X661985Y452120D01*
X684215D01*
X704753Y460627D01*
X720473Y476347D01*
X728980Y496885D01*
Y519115D01*
X720473Y539653D01*
X704753Y555373D01*
X684215Y563880D01*
D02*
G37*
G36*
X925515Y347980D02*
X903285D01*
X882747Y339473D01*
X867027Y323753D01*
X858520Y303215D01*
Y280985D01*
X867027Y260447D01*
X882747Y244727D01*
X903285Y236220D01*
X925515D01*
X946053Y244727D01*
X961773Y260447D01*
X970280Y280985D01*
Y303215D01*
X961773Y323753D01*
X946053Y339473D01*
X925515Y347980D01*
D02*
G37*
G36*
X1408115Y5080D02*
X1385885D01*
X1365347Y-3427D01*
X1349627Y-19147D01*
X1341120Y-39685D01*
Y-61915D01*
X1336687Y-70209D01*
X1334476Y-70649D01*
X1326074Y-76263D01*
X1313700Y-88637D01*
X1308086Y-97039D01*
X1306115Y-106950D01*
Y-119324D01*
X1308086Y-129235D01*
X1313700Y-137637D01*
X1410927Y-234864D01*
X1419329Y-240478D01*
X1429239Y-242449D01*
X1441614D01*
X1451524Y-240478D01*
X1459926Y-234864D01*
X1472301Y-222489D01*
X1477914Y-214087D01*
X1479886Y-204177D01*
Y-191803D01*
X1477914Y-181892D01*
X1472301Y-173490D01*
X1454616Y-155806D01*
X1463814Y-146608D01*
X1473296Y-132418D01*
X1476625Y-115679D01*
Y-93709D01*
X1473296Y-76971D01*
X1463814Y-62780D01*
X1452880Y-51847D01*
Y-39685D01*
X1444373Y-19147D01*
X1428653Y-3427D01*
X1408115Y5080D01*
D02*
G37*
G36*
X925515Y-172720D02*
X903285D01*
X882747Y-181227D01*
X867027Y-196947D01*
X858520Y-217485D01*
Y-239715D01*
X867027Y-260253D01*
X882747Y-275973D01*
X903285Y-284480D01*
X925515D01*
X946053Y-275973D01*
X961773Y-260253D01*
X970280Y-239715D01*
Y-217485D01*
X961773Y-196947D01*
X946053Y-181227D01*
X925515Y-172720D01*
D02*
G37*
G36*
X620715Y-502920D02*
X598485D01*
X577947Y-511427D01*
X562227Y-527147D01*
X553720Y-547685D01*
Y-569915D01*
X562227Y-590453D01*
X577947Y-606173D01*
X598485Y-614680D01*
X620715D01*
X641253Y-606173D01*
X656973Y-590453D01*
X665480Y-569915D01*
Y-547685D01*
X656973Y-527147D01*
X641253Y-511427D01*
X620715Y-502920D01*
D02*
G37*
G36*
X-446085Y-655320D02*
X-468315D01*
X-488853Y-663827D01*
X-504573Y-679547D01*
X-513080Y-700085D01*
Y-722315D01*
X-504573Y-742853D01*
X-488853Y-758573D01*
X-468315Y-767080D01*
X-446085D01*
X-425547Y-758573D01*
X-409827Y-742853D01*
X-401320Y-722315D01*
Y-700085D01*
X-409827Y-679547D01*
X-425547Y-663827D01*
X-446085Y-655320D01*
D02*
G37*
G36*
X468315Y-668020D02*
X446085D01*
X425547Y-676527D01*
X409827Y-692247D01*
X401320Y-712785D01*
Y-735015D01*
X409827Y-755553D01*
X425547Y-771273D01*
X446085Y-779780D01*
X468315D01*
X488853Y-771273D01*
X504573Y-755553D01*
X513080Y-735015D01*
Y-712785D01*
X504573Y-692247D01*
X488853Y-676527D01*
X468315Y-668020D01*
D02*
G37*
G36*
X315915Y-820420D02*
X293685D01*
X273147Y-828927D01*
X257427Y-844647D01*
X248920Y-865185D01*
Y-887415D01*
X257427Y-907953D01*
X273147Y-923673D01*
X293685Y-932180D01*
X315915D01*
X336453Y-923673D01*
X352173Y-907953D01*
X360680Y-887415D01*
Y-865185D01*
X352173Y-844647D01*
X336453Y-828927D01*
X315915Y-820420D01*
D02*
G37*
G36*
X-204785Y-909320D02*
X-227015D01*
X-247553Y-917827D01*
X-263273Y-933547D01*
X-271780Y-954085D01*
Y-976315D01*
X-263273Y-996853D01*
X-247553Y-1012573D01*
X-227015Y-1021080D01*
X-204785D01*
X-184247Y-1012573D01*
X-168527Y-996853D01*
X-160020Y-976315D01*
Y-954085D01*
X-168527Y-933547D01*
X-184247Y-917827D01*
X-204785Y-909320D01*
D02*
G37*
G36*
X-77785Y-1023620D02*
X-100015D01*
X-120553Y-1032127D01*
X-136273Y-1047847D01*
X-144780Y-1068385D01*
Y-1090615D01*
X-136273Y-1111153D01*
X-120553Y-1126873D01*
X-100015Y-1135380D01*
X-77785D01*
X-57247Y-1126873D01*
X-41527Y-1111153D01*
X-33020Y-1090615D01*
Y-1068385D01*
X-41527Y-1047847D01*
X-57247Y-1032127D01*
X-77785Y-1023620D01*
D02*
G37*
G36*
X2550585Y-1289600D02*
X2529415D01*
X2508967Y-1295079D01*
X2490633Y-1305664D01*
X2475664Y-1320633D01*
X2465079Y-1338967D01*
X2459600Y-1359415D01*
Y-1380585D01*
X2465079Y-1401033D01*
X2475664Y-1419367D01*
X2490633Y-1434336D01*
X2508967Y-1444921D01*
X2529415Y-1450400D01*
X2550585D01*
X2571033Y-1444921D01*
X2589367Y-1434336D01*
X2604336Y-1419367D01*
X2614921Y-1401033D01*
X2620400Y-1380585D01*
Y-1359415D01*
X2614921Y-1338967D01*
X2604336Y-1320633D01*
X2589367Y-1305664D01*
X2571033Y-1295079D01*
X2550585Y-1289600D01*
D02*
G37*
G36*
X175135Y-1586420D02*
X152905D01*
X132367Y-1594927D01*
X116647Y-1610647D01*
X108140Y-1631185D01*
Y-1653415D01*
X116647Y-1673953D01*
X132367Y-1689673D01*
X143213Y-1694166D01*
X352284Y-1903236D01*
X368955Y-1914376D01*
X388620Y-1918287D01*
X677020D01*
X686000Y-1927268D01*
X686000Y-1942000D01*
Y-2045800D01*
X686000Y-2056300D01*
X686000Y-2069000D01*
Y-2082053D01*
X-199809D01*
X-370032Y-1911831D01*
X-382634Y-1903410D01*
X-397500Y-1900453D01*
X-496853D01*
X-497574Y-1896830D01*
X-503187Y-1888428D01*
X-518128Y-1873487D01*
X-526530Y-1867874D01*
X-536440Y-1865902D01*
X-606560D01*
X-616470Y-1867874D01*
X-624872Y-1873487D01*
X-639812Y-1888428D01*
X-641901Y-1891553D01*
X-779800D01*
Y-1845000D01*
X-1150600D01*
Y-1973946D01*
X-1151347Y-1977700D01*
Y-2013887D01*
X-1151680Y-2014220D01*
X-1154115D01*
X-1174653Y-2022727D01*
X-1183180Y-2031253D01*
X-1389409D01*
X-1459800Y-1960863D01*
Y-1845000D01*
X-1830600D01*
Y-2015800D01*
X-1514737D01*
X-1432969Y-2097569D01*
X-1420366Y-2105989D01*
X-1405500Y-2108947D01*
X-1183180D01*
X-1174653Y-2117473D01*
X-1154115Y-2125980D01*
X-1131885D01*
X-1111347Y-2117473D01*
X-1095627Y-2101753D01*
X-1087120Y-2081215D01*
Y-2059535D01*
X-1085032Y-2057446D01*
X-1076611Y-2044844D01*
X-1073654Y-2029978D01*
Y-2015800D01*
X-779800D01*
Y-1969247D01*
X-647398D01*
Y-1986800D01*
X-645426Y-1996711D01*
X-639813Y-2005112D01*
X-631411Y-2010726D01*
X-621500Y-2012698D01*
X-521500D01*
X-511589Y-2010726D01*
X-503187Y-2005112D01*
X-497574Y-1996711D01*
X-495602Y-1986800D01*
Y-1978146D01*
X-413591D01*
X-243369Y-2148369D01*
X-230766Y-2156789D01*
X-215900Y-2159747D01*
X677020D01*
X686000Y-2168727D01*
X686000Y-2183300D01*
X686000Y-2196000D01*
Y-2310300D01*
X1015800D01*
Y-2196000D01*
X1015800Y-2185500D01*
X1015800Y-2172800D01*
Y-2069000D01*
X1015800Y-2058500D01*
X1015800Y-2045800D01*
Y-1942000D01*
X1015800Y-1931500D01*
X1015800Y-1918800D01*
Y-1804500D01*
X686000D01*
Y-1815513D01*
X409905D01*
X215886Y-1621493D01*
X211393Y-1610647D01*
X195673Y-1594927D01*
X175135Y-1586420D01*
D02*
G37*
%LPD*%
G36*
X366326Y1540877D02*
X364000Y1541209D01*
X361681Y1541268D01*
X359369Y1541054D01*
X357064Y1540567D01*
X354765Y1539807D01*
X352472Y1538774D01*
X350186Y1537467D01*
X347907Y1535887D01*
X345635Y1534035D01*
X343369Y1531909D01*
X329215Y1553676D01*
X331339Y1555893D01*
X335046Y1560350D01*
X336630Y1562589D01*
X338033Y1564835D01*
X339256Y1567089D01*
X340299Y1569349D01*
X341163Y1571617D01*
X341846Y1573893D01*
X342349Y1576175D01*
X366326Y1540877D01*
D02*
G37*
G36*
X473814Y1543807D02*
X471405Y1543719D01*
X469015Y1543405D01*
X466643Y1542866D01*
X464291Y1542101D01*
X461958Y1541111D01*
X459643Y1539896D01*
X457348Y1538455D01*
X455071Y1536789D01*
X452813Y1534898D01*
X450574Y1532782D01*
X432614Y1550742D01*
X434731Y1552981D01*
X436622Y1555238D01*
X438288Y1557515D01*
X439729Y1559811D01*
X440944Y1562125D01*
X441934Y1564459D01*
X442698Y1566811D01*
X443238Y1569182D01*
X443552Y1571572D01*
X443640Y1573981D01*
X473814Y1543807D01*
D02*
G37*
G36*
X492455Y1455422D02*
X490046Y1455333D01*
X487656Y1455019D01*
X485285Y1454480D01*
X482933Y1453715D01*
X480599Y1452726D01*
X478285Y1451510D01*
X475989Y1450069D01*
X473713Y1448404D01*
X471455Y1446512D01*
X469216Y1444396D01*
X451256Y1462356D01*
X453372Y1464595D01*
X455264Y1466853D01*
X456929Y1469129D01*
X458370Y1471425D01*
X459586Y1473739D01*
X460575Y1476073D01*
X461340Y1478425D01*
X461879Y1480796D01*
X462193Y1483186D01*
X462282Y1485595D01*
X492455Y1455422D01*
D02*
G37*
G36*
X101992Y1438959D02*
X103114Y1438114D01*
X104518Y1437369D01*
X106206Y1436723D01*
X108176Y1436176D01*
X110430Y1435728D01*
X112966Y1435380D01*
X118887Y1434983D01*
X122272Y1434933D01*
X115086Y1399933D01*
X111642Y1399912D01*
X98939Y1399166D01*
X97302Y1398889D01*
X95967Y1398569D01*
X94932Y1398207D01*
X94199Y1397802D01*
X101153Y1439904D01*
X101992Y1438959D01*
D02*
G37*
G36*
X631963Y1394464D02*
X629553Y1394389D01*
X627163Y1394088D01*
X624791Y1393561D01*
X622439Y1392805D01*
X620105Y1391824D01*
X617790Y1390615D01*
X615494Y1389179D01*
X613216Y1387516D01*
X610958Y1385626D01*
X608718Y1383509D01*
X590882Y1401595D01*
X592999Y1403832D01*
X594892Y1406089D01*
X596561Y1408365D01*
X598006Y1410660D01*
X599228Y1412974D01*
X600226Y1415307D01*
X601000Y1417658D01*
X601550Y1420029D01*
X601877Y1422419D01*
X601980Y1424827D01*
X631963Y1394464D01*
D02*
G37*
G36*
X511469Y1367132D02*
X509125Y1366737D01*
X506795Y1366152D01*
X504479Y1365374D01*
X502176Y1364405D01*
X499886Y1363244D01*
X497610Y1361892D01*
X495348Y1360348D01*
X493099Y1358612D01*
X490864Y1356684D01*
X488642Y1354565D01*
X467961Y1369805D01*
X470083Y1372063D01*
X471945Y1374334D01*
X473547Y1376616D01*
X474889Y1378910D01*
X475971Y1381217D01*
X476792Y1383535D01*
X477353Y1385865D01*
X477655Y1388207D01*
X477696Y1390561D01*
X477476Y1392927D01*
X511469Y1367132D01*
D02*
G37*
G36*
X676605Y1338522D02*
X674780Y1339633D01*
X672810Y1340627D01*
X670694Y1341505D01*
X668433Y1342265D01*
X666026Y1342908D01*
X663475Y1343434D01*
X660778Y1343844D01*
X654948Y1344312D01*
X651815Y1344370D01*
X645870Y1369770D01*
X648920Y1369866D01*
X651768Y1370153D01*
X654413Y1370631D01*
X656856Y1371301D01*
X659096Y1372162D01*
X661134Y1373214D01*
X662969Y1374457D01*
X664601Y1375892D01*
X666031Y1377519D01*
X667259Y1379336D01*
X676605Y1338522D01*
D02*
G37*
G36*
X776951Y1295143D02*
X774972Y1296312D01*
X772871Y1297358D01*
X770649Y1298281D01*
X768306Y1299081D01*
X765841Y1299758D01*
X763255Y1300312D01*
X760547Y1300742D01*
X754767Y1301235D01*
X751695Y1301296D01*
X745214Y1326696D01*
X748325Y1326796D01*
X751239Y1327098D01*
X753955Y1327600D01*
X756472Y1328303D01*
X758792Y1329207D01*
X760915Y1330312D01*
X762839Y1331617D01*
X764566Y1333123D01*
X766095Y1334831D01*
X767426Y1336739D01*
X776951Y1295143D01*
D02*
G37*
G36*
X3186953Y954189D02*
Y769620D01*
X3182095Y767176D01*
X3174253Y765726D01*
X3160194Y779786D01*
X3139656Y788293D01*
X3129049D01*
Y809801D01*
X3120542Y830339D01*
X3104823Y846059D01*
X3086416Y853683D01*
X3091180Y865185D01*
Y887415D01*
X3082673Y907953D01*
X3066953Y923673D01*
X3046415Y932180D01*
X3024185D01*
X3003647Y923673D01*
X2987927Y907953D01*
X2979420Y887415D01*
Y875357D01*
X2960789Y856727D01*
X2528151D01*
X2458051Y926826D01*
X2460529Y939282D01*
X2470053Y943227D01*
X2485773Y958947D01*
X2488677Y965957D01*
X2502423D01*
X2505327Y958947D01*
X2521047Y943227D01*
X2541585Y934720D01*
X2563815D01*
X2584353Y943227D01*
X2600073Y958947D01*
X2602977Y965957D01*
X2616723D01*
X2619627Y958947D01*
X2635347Y943227D01*
X2655885Y934720D01*
X2678115D01*
X2698653Y943227D01*
X2714373Y958947D01*
X2722880Y979485D01*
Y1001715D01*
X2714373Y1022253D01*
X2710466Y1026160D01*
X2714373Y1030067D01*
X2722880Y1050605D01*
Y1072835D01*
X2719542Y1080894D01*
X2726598Y1091453D01*
X3049689D01*
X3186953Y954189D01*
D02*
G37*
G36*
X3102895Y585488D02*
X3105153Y583596D01*
X3107429Y581931D01*
X3109725Y580490D01*
X3112039Y579274D01*
X3114373Y578285D01*
X3116725Y577520D01*
X3119096Y576981D01*
X3121486Y576667D01*
X3123895Y576578D01*
X3093722Y546405D01*
X3093633Y548814D01*
X3093319Y551204D01*
X3092780Y553575D01*
X3092015Y555927D01*
X3091026Y558261D01*
X3089810Y560575D01*
X3088369Y562871D01*
X3086704Y565147D01*
X3084812Y567405D01*
X3082696Y569644D01*
X3100656Y587604D01*
X3102895Y585488D01*
D02*
G37*
G36*
X2569033Y537464D02*
X2567267Y539105D01*
X2565355Y540573D01*
X2563297Y541868D01*
X2561093Y542991D01*
X2558743Y543941D01*
X2556247Y544718D01*
X2553606Y545323D01*
X2550818Y545755D01*
X2547884Y546014D01*
X2544804Y546100D01*
Y571500D01*
X2547884Y571586D01*
X2550818Y571845D01*
X2553606Y572277D01*
X2556247Y572882D01*
X2558743Y573659D01*
X2561093Y574609D01*
X2563297Y575732D01*
X2565355Y577027D01*
X2567267Y578495D01*
X2569033Y580136D01*
Y537464D01*
D02*
G37*
G36*
X906983Y494209D02*
X904563Y491759D01*
X896108Y482249D01*
X895146Y480896D01*
X894428Y479726D01*
X893953Y478738D01*
X893721Y477934D01*
X868868Y512621D01*
X870129Y512547D01*
X871519Y512742D01*
X873040Y513208D01*
X874690Y513945D01*
X876470Y514951D01*
X878380Y516228D01*
X880419Y517776D01*
X884887Y521681D01*
X887316Y524040D01*
X906983Y494209D01*
D02*
G37*
G36*
X2629281Y401690D02*
X2627827Y403550D01*
X2626190Y405215D01*
X2624370Y406683D01*
X2622366Y407956D01*
X2620180Y409032D01*
X2617810Y409914D01*
X2615257Y410599D01*
X2612521Y411088D01*
X2609602Y411382D01*
X2606500Y411480D01*
X2611255Y436880D01*
X2614324Y436949D01*
X2620092Y437500D01*
X2622791Y437982D01*
X2625367Y438601D01*
X2627819Y439359D01*
X2630148Y440254D01*
X2632353Y441287D01*
X2634435Y442457D01*
X2636393Y443765D01*
X2629281Y401690D01*
D02*
G37*
G36*
X3102433Y397764D02*
X3100667Y399405D01*
X3098755Y400873D01*
X3096697Y402168D01*
X3094493Y403291D01*
X3092143Y404241D01*
X3089647Y405018D01*
X3087006Y405623D01*
X3084218Y406055D01*
X3081284Y406314D01*
X3078204Y406400D01*
Y431800D01*
X3081284Y431886D01*
X3084218Y432145D01*
X3087006Y432577D01*
X3089647Y433182D01*
X3092143Y433959D01*
X3094493Y434909D01*
X3096697Y436032D01*
X3098755Y437327D01*
X3100667Y438795D01*
X3102433Y440436D01*
Y397764D01*
D02*
G37*
G36*
X1517473Y346964D02*
X1515707Y348605D01*
X1513795Y350073D01*
X1511737Y351368D01*
X1509533Y352491D01*
X1507183Y353441D01*
X1504687Y354218D01*
X1502046Y354823D01*
X1499258Y355255D01*
X1496324Y355514D01*
X1493244Y355600D01*
Y381000D01*
X1496324Y381086D01*
X1499258Y381345D01*
X1502046Y381777D01*
X1504687Y382382D01*
X1507183Y383159D01*
X1509533Y384109D01*
X1511737Y385232D01*
X1513795Y386527D01*
X1515707Y387995D01*
X1517473Y389636D01*
Y346964D01*
D02*
G37*
G36*
X1629233Y283464D02*
X1627467Y285105D01*
X1625555Y286573D01*
X1623497Y287868D01*
X1621293Y288991D01*
X1618943Y289941D01*
X1616447Y290718D01*
X1613806Y291323D01*
X1611018Y291755D01*
X1608084Y292014D01*
X1605004Y292100D01*
Y317500D01*
X1608084Y317586D01*
X1611018Y317845D01*
X1613806Y318277D01*
X1616447Y318882D01*
X1618943Y319659D01*
X1621293Y320609D01*
X1623497Y321732D01*
X1625555Y323027D01*
X1627467Y324495D01*
X1629233Y326136D01*
Y283464D01*
D02*
G37*
G36*
X3186953Y298846D02*
Y162407D01*
X3174253Y159880D01*
X3173853Y160847D01*
X3158134Y176566D01*
X3137596Y185073D01*
X3115365D01*
X3094827Y176566D01*
X3094432Y176171D01*
X3090213Y176524D01*
X3078480Y179385D01*
Y201615D01*
X3069973Y222153D01*
X3054253Y237873D01*
X3033715Y246380D01*
X3011497D01*
X2984029Y273849D01*
X2983127Y274451D01*
X2980691Y291353D01*
X2982842Y293932D01*
X3086599D01*
X3095125Y285406D01*
X3115663Y276898D01*
X3137894D01*
X3158432Y285406D01*
X3174151Y301125D01*
X3174253Y301372D01*
X3186953Y298846D01*
D02*
G37*
G36*
X1680033Y212344D02*
X1678267Y213985D01*
X1676355Y215453D01*
X1674297Y216748D01*
X1672093Y217871D01*
X1669743Y218821D01*
X1667247Y219598D01*
X1664606Y220203D01*
X1661818Y220635D01*
X1658884Y220894D01*
X1655804Y220980D01*
Y246380D01*
X1658884Y246466D01*
X1661818Y246725D01*
X1664606Y247157D01*
X1667247Y247762D01*
X1669743Y248539D01*
X1672093Y249489D01*
X1674297Y250612D01*
X1676355Y251907D01*
X1678267Y253375D01*
X1680033Y255016D01*
Y212344D01*
D02*
G37*
G36*
X2582802Y156464D02*
X2581036Y158105D01*
X2579124Y159573D01*
X2577066Y160868D01*
X2574862Y161991D01*
X2572512Y162941D01*
X2570016Y163718D01*
X2567374Y164323D01*
X2564586Y164755D01*
X2561652Y165014D01*
X2558573Y165100D01*
Y190500D01*
X2561652Y190586D01*
X2564586Y190845D01*
X2567374Y191277D01*
X2570016Y191882D01*
X2572512Y192659D01*
X2574862Y193609D01*
X2577066Y194732D01*
X2579124Y196027D01*
X2581036Y197495D01*
X2582802Y199136D01*
Y156464D01*
D02*
G37*
G36*
X1421362Y159711D02*
X1420380Y157639D01*
X1419942Y155383D01*
X1420047Y152943D01*
X1420695Y150320D01*
X1421886Y147512D01*
X1423620Y144521D01*
X1425898Y141345D01*
X1428719Y137986D01*
X1432082Y134442D01*
X1414122Y116482D01*
X1410578Y119846D01*
X1407219Y122666D01*
X1404043Y124944D01*
X1401052Y126678D01*
X1398244Y127869D01*
X1395621Y128517D01*
X1393181Y128622D01*
X1390925Y128184D01*
X1388853Y127202D01*
X1386965Y125678D01*
X1422886Y161599D01*
X1421362Y159711D01*
D02*
G37*
G36*
X3104981Y107588D02*
X3103195Y109208D01*
X3101266Y110657D01*
X3099193Y111936D01*
X3096977Y113044D01*
X3094617Y113982D01*
X3092113Y114750D01*
X3089466Y115346D01*
X3086675Y115773D01*
X3083740Y116028D01*
X3080661Y116114D01*
X3080314Y141514D01*
X3083395Y141601D01*
X3086328Y141864D01*
X3089112Y142301D01*
X3091748Y142913D01*
X3094236Y143699D01*
X3096575Y144661D01*
X3098767Y145798D01*
X3100809Y147109D01*
X3102704Y148595D01*
X3104449Y150256D01*
X3104981Y107588D01*
D02*
G37*
G36*
X2329651Y-2069D02*
X2342254Y-10489D01*
X2357120Y-13447D01*
X3006509D01*
X3030220Y-37157D01*
Y-49215D01*
X3038727Y-69753D01*
X3054447Y-85473D01*
X3074985Y-93980D01*
X3097215D01*
X3117753Y-85473D01*
X3133473Y-69753D01*
X3141980Y-49215D01*
Y-26985D01*
X3134144Y-8067D01*
X3145063Y-3545D01*
X3160782Y12175D01*
X3169289Y32713D01*
Y54944D01*
X3160782Y75481D01*
X3165269Y88955D01*
X3173853Y97540D01*
X3174253Y98506D01*
X3186953Y95979D01*
Y-194828D01*
X3175220Y-199688D01*
X3113163Y-137631D01*
X3100561Y-129211D01*
X3085695Y-126253D01*
X1729755D01*
X1451156Y152346D01*
X1467943Y169134D01*
X1479307Y175731D01*
X1491909Y167311D01*
X1506775Y164353D01*
X1583616D01*
X1597660Y150309D01*
Y146365D01*
X1606167Y125827D01*
X1621887Y110107D01*
X1642425Y101600D01*
X1664655D01*
X1685193Y110107D01*
X1700913Y125827D01*
X1709420Y146365D01*
Y168595D01*
X1718411Y180076D01*
X1733453Y186307D01*
X1749173Y202027D01*
X1757680Y222565D01*
Y244795D01*
X1749173Y265333D01*
X1733453Y281053D01*
X1718039Y287438D01*
X1706880Y293685D01*
Y315915D01*
X1698373Y336453D01*
X1682653Y352173D01*
X1662115Y360680D01*
X1639885D01*
X1619347Y352173D01*
X1613369Y346195D01*
X1611606Y345109D01*
X1602506Y346233D01*
X1595120Y357185D01*
Y379415D01*
X1591782Y387474D01*
X1598838Y398033D01*
X1929549D01*
X2329651Y-2069D01*
D02*
G37*
G36*
X3075116Y67153D02*
X3077339Y65257D01*
X3079414Y63724D01*
X3081344Y62555D01*
X3083128Y61749D01*
X3084765Y61306D01*
X3086257Y61227D01*
X3087602Y61512D01*
X3088801Y62160D01*
X3089854Y63171D01*
X3089864Y24472D01*
X3061135Y45104D01*
X3072748Y69413D01*
X3075116Y67153D01*
D02*
G37*
G36*
X2438781Y-296810D02*
X2437327Y-294950D01*
X2435690Y-293285D01*
X2433870Y-291817D01*
X2431866Y-290544D01*
X2429680Y-289468D01*
X2427310Y-288586D01*
X2424757Y-287901D01*
X2422021Y-287412D01*
X2419102Y-287118D01*
X2416000Y-287020D01*
X2420755Y-261620D01*
X2423824Y-261551D01*
X2429592Y-261000D01*
X2432291Y-260518D01*
X2434867Y-259899D01*
X2437319Y-259141D01*
X2439648Y-258246D01*
X2441853Y-257213D01*
X2443935Y-256043D01*
X2445893Y-254735D01*
X2438781Y-296810D01*
D02*
G37*
G36*
X1471753Y-458216D02*
X1469987Y-456575D01*
X1468075Y-455107D01*
X1466017Y-453812D01*
X1463813Y-452689D01*
X1461463Y-451739D01*
X1458967Y-450962D01*
X1456326Y-450357D01*
X1453538Y-449925D01*
X1450604Y-449666D01*
X1447524Y-449580D01*
Y-424180D01*
X1450604Y-424094D01*
X1453538Y-423835D01*
X1456326Y-423403D01*
X1458967Y-422798D01*
X1461463Y-422021D01*
X1463813Y-421071D01*
X1466017Y-419948D01*
X1468075Y-418653D01*
X1469987Y-417185D01*
X1471753Y-415544D01*
Y-458216D01*
D02*
G37*
G36*
X1582939Y-502081D02*
X1580649Y-501673D01*
X1578360Y-501547D01*
X1576074Y-501703D01*
X1573790Y-502140D01*
X1571508Y-502860D01*
X1569229Y-503862D01*
X1566951Y-505145D01*
X1564676Y-506710D01*
X1562403Y-508557D01*
X1560132Y-510686D01*
X1546755Y-488142D01*
X1548883Y-485927D01*
X1552622Y-481492D01*
X1554232Y-479273D01*
X1555669Y-477053D01*
X1556934Y-474831D01*
X1558025Y-472608D01*
X1558944Y-470385D01*
X1559690Y-468160D01*
X1560263Y-465933D01*
X1582939Y-502081D01*
D02*
G37*
G36*
X1414635Y-684853D02*
X1412831Y-683255D01*
X1410885Y-681826D01*
X1408798Y-680564D01*
X1406569Y-679471D01*
X1404199Y-678546D01*
X1401688Y-677789D01*
X1399035Y-677200D01*
X1396240Y-676780D01*
X1393305Y-676527D01*
X1390227Y-676443D01*
X1389524Y-651043D01*
X1392607Y-650955D01*
X1395539Y-650690D01*
X1398320Y-650247D01*
X1400950Y-649628D01*
X1403429Y-648831D01*
X1405757Y-647858D01*
X1407935Y-646708D01*
X1409961Y-645380D01*
X1411837Y-643876D01*
X1413562Y-642195D01*
X1414635Y-684853D01*
D02*
G37*
G36*
X1309414Y-772828D02*
X1307988Y-770955D01*
X1306376Y-769279D01*
X1304577Y-767801D01*
X1302592Y-766520D01*
X1300420Y-765436D01*
X1298061Y-764549D01*
X1295517Y-763859D01*
X1292785Y-763366D01*
X1289868Y-763071D01*
X1286763Y-762972D01*
X1291914Y-737572D01*
X1294984Y-737505D01*
X1300755Y-736967D01*
X1303456Y-736497D01*
X1306035Y-735892D01*
X1308491Y-735153D01*
X1310825Y-734279D01*
X1313036Y-733271D01*
X1315125Y-732129D01*
X1317091Y-730852D01*
X1309414Y-772828D01*
D02*
G37*
G36*
X499966Y-881021D02*
X499162Y-881253D01*
X498174Y-881728D01*
X497004Y-882446D01*
X495651Y-883408D01*
X492396Y-886060D01*
X488409Y-889685D01*
X483691Y-894283D01*
X453860Y-874616D01*
X456219Y-872187D01*
X460124Y-867719D01*
X461672Y-865680D01*
X462949Y-863770D01*
X463955Y-861990D01*
X464692Y-860340D01*
X465158Y-858819D01*
X465353Y-857429D01*
X465279Y-856168D01*
X499966Y-881021D01*
D02*
G37*
G36*
X3038933Y-902716D02*
X3037167Y-901075D01*
X3035255Y-899607D01*
X3033197Y-898312D01*
X3030993Y-897189D01*
X3028643Y-896239D01*
X3026147Y-895462D01*
X3023506Y-894857D01*
X3020718Y-894425D01*
X3017784Y-894166D01*
X3014704Y-894080D01*
Y-868680D01*
X3017784Y-868594D01*
X3020718Y-868335D01*
X3023506Y-867903D01*
X3026147Y-867298D01*
X3028643Y-866521D01*
X3030993Y-865571D01*
X3033197Y-864448D01*
X3035255Y-863153D01*
X3037167Y-861685D01*
X3038933Y-860044D01*
Y-902716D01*
D02*
G37*
G36*
X877731Y-1099886D02*
X877407Y-1099266D01*
X876848Y-1098711D01*
X876052Y-1098222D01*
X875020Y-1097797D01*
X873753Y-1097438D01*
X872249Y-1097144D01*
X870510Y-1096916D01*
X866323Y-1096655D01*
X863875Y-1096622D01*
X865091Y-1071222D01*
X868564Y-1071208D01*
X883413Y-1070330D01*
X884183Y-1070092D01*
X884614Y-1069827D01*
X877731Y-1099886D01*
D02*
G37*
G36*
X766550Y-1074763D02*
X768823Y-1076611D01*
X771099Y-1078179D01*
X773378Y-1079468D01*
X775661Y-1080476D01*
X777947Y-1081205D01*
X780236Y-1081653D01*
X782529Y-1081822D01*
X784824Y-1081710D01*
X787123Y-1081319D01*
X764154Y-1117282D01*
X763596Y-1115042D01*
X762864Y-1112805D01*
X761957Y-1110571D01*
X760876Y-1108339D01*
X759621Y-1106110D01*
X758191Y-1103883D01*
X756587Y-1101659D01*
X752855Y-1097220D01*
X750728Y-1095004D01*
X764280Y-1072635D01*
X766550Y-1074763D01*
D02*
G37*
G36*
X3004820Y-718344D02*
Y-719775D01*
X3013327Y-740313D01*
X3015256Y-742242D01*
X3013645Y-758592D01*
X3011641Y-759931D01*
X2992539Y-779033D01*
X2192020D01*
X2177154Y-781991D01*
X2164551Y-790411D01*
X1528229Y-1426733D01*
X1446417D01*
X1441557Y-1415000D01*
X2139531Y-717027D01*
X3003503D01*
X3004820Y-718344D01*
D02*
G37*
G36*
X1397047Y-1843913D02*
X1397818Y-1846072D01*
X1399104Y-1847977D01*
X1400903Y-1849628D01*
X1403216Y-1851025D01*
X1406044Y-1852168D01*
X1409386Y-1853057D01*
X1413241Y-1853692D01*
X1417611Y-1854073D01*
X1422495Y-1854200D01*
Y-1879600D01*
X1417611Y-1879727D01*
X1413241Y-1880108D01*
X1409386Y-1880743D01*
X1406044Y-1881632D01*
X1403216Y-1882775D01*
X1400903Y-1884172D01*
X1399104Y-1885823D01*
X1397818Y-1887728D01*
X1397047Y-1889887D01*
X1396790Y-1892300D01*
Y-1841500D01*
X1397047Y-1843913D01*
D02*
G37*
G36*
Y-2351913D02*
X1397818Y-2354072D01*
X1399104Y-2355977D01*
X1400903Y-2357628D01*
X1403216Y-2359025D01*
X1406044Y-2360168D01*
X1409386Y-2361057D01*
X1413241Y-2361692D01*
X1417611Y-2362073D01*
X1422495Y-2362200D01*
Y-2387600D01*
X1417611Y-2387727D01*
X1413241Y-2388108D01*
X1409386Y-2388743D01*
X1406044Y-2389632D01*
X1403216Y-2390775D01*
X1400903Y-2392172D01*
X1399104Y-2393823D01*
X1397818Y-2395728D01*
X1397047Y-2397887D01*
X1396790Y-2400300D01*
Y-2349500D01*
X1397047Y-2351913D01*
D02*
G37*
G36*
X-604331Y1340419D02*
X-607310Y1325439D01*
X-615821Y1321914D01*
X-631540Y1306194D01*
X-640047Y1285656D01*
Y1263425D01*
X-635065Y1251396D01*
X-638359Y1239202D01*
X-641917Y1237279D01*
X-659033Y1230189D01*
X-674753Y1214470D01*
X-680673Y1217256D01*
X-681190Y1217774D01*
X-701728Y1226281D01*
X-723958D01*
X-744497Y1217774D01*
X-760216Y1202054D01*
X-768723Y1181516D01*
X-771766Y1179483D01*
X-775669Y1181100D01*
X-797899D01*
X-818437Y1172593D01*
X-834157Y1156873D01*
X-842664Y1136335D01*
Y1114105D01*
X-834157Y1093567D01*
X-818437Y1077847D01*
X-797899Y1069340D01*
X-783330D01*
X-774473Y1058562D01*
X-776167Y1049719D01*
X-788990Y1043411D01*
X-790266Y1043940D01*
X-812497D01*
X-833035Y1035433D01*
X-848754Y1019713D01*
X-854952Y1004752D01*
X-860105Y993140D01*
X-882335D01*
X-891140Y989493D01*
X-901700Y996549D01*
Y1092200D01*
X-952500Y1143000D01*
X-952500Y1308100D01*
X-1155700Y1511300D01*
X-1358900D01*
X-1606550Y1263650D01*
X-1930400Y939800D01*
X-1930400Y850900D01*
X-1620297Y540797D01*
X-1690447Y470647D01*
X-2216569D01*
X-2346982Y601059D01*
Y613117D01*
X-2355489Y633656D01*
X-2371209Y649375D01*
X-2379267Y652713D01*
X-2381745Y665169D01*
X-2135784Y911130D01*
X-2105177D01*
X-2090311Y914087D01*
X-2077709Y922508D01*
X-1405843Y1594373D01*
X-858285D01*
X-604331Y1340419D01*
D02*
G37*
G36*
X-2053996Y1204644D02*
X-2056112Y1202405D01*
X-2058004Y1200147D01*
X-2059669Y1197871D01*
X-2061110Y1195575D01*
X-2062326Y1193261D01*
X-2063315Y1190927D01*
X-2064080Y1188575D01*
X-2064619Y1186204D01*
X-2064933Y1183814D01*
X-2065022Y1181405D01*
X-2095195Y1211578D01*
X-2092786Y1211667D01*
X-2090396Y1211981D01*
X-2088025Y1212520D01*
X-2085673Y1213285D01*
X-2083339Y1214274D01*
X-2081025Y1215490D01*
X-2078729Y1216931D01*
X-2076453Y1218596D01*
X-2074195Y1220488D01*
X-2071956Y1222604D01*
X-2053996Y1204644D01*
D02*
G37*
G36*
X-249905Y1151871D02*
X-247647Y1149980D01*
X-245371Y1148314D01*
X-243075Y1146873D01*
X-240761Y1145658D01*
X-238427Y1144668D01*
X-236075Y1143903D01*
X-233704Y1143364D01*
X-231314Y1143050D01*
X-228905Y1142962D01*
X-259078Y1112788D01*
X-259167Y1115197D01*
X-259481Y1117587D01*
X-260020Y1119958D01*
X-260785Y1122310D01*
X-261774Y1124644D01*
X-262990Y1126958D01*
X-264431Y1129254D01*
X-266096Y1131531D01*
X-267988Y1133788D01*
X-270104Y1136027D01*
X-252144Y1153988D01*
X-249905Y1151871D01*
D02*
G37*
G36*
X-770944Y991701D02*
X-770232Y989447D01*
X-769344Y987197D01*
X-768279Y984952D01*
X-767037Y982712D01*
X-765619Y980477D01*
X-764024Y978246D01*
X-760303Y973799D01*
X-758177Y971583D01*
X-771990Y949475D01*
X-774259Y951602D01*
X-776531Y953452D01*
X-778809Y955026D01*
X-781091Y956322D01*
X-783378Y957341D01*
X-785670Y958083D01*
X-787967Y958548D01*
X-790268Y958736D01*
X-792574Y958647D01*
X-794885Y958281D01*
X-771478Y993960D01*
X-770944Y991701D01*
D02*
G37*
G36*
X-1183538Y945138D02*
X-1179747Y941886D01*
X-1176263Y939300D01*
X-1173086Y937380D01*
X-1170217Y936127D01*
X-1167655Y935541D01*
X-1165400Y935621D01*
X-1163453Y936368D01*
X-1161813Y937782D01*
X-1160481Y939862D01*
X-1179049Y901846D01*
X-1179228Y902539D01*
X-1179767Y903537D01*
X-1180665Y904841D01*
X-1181922Y906449D01*
X-1187849Y913106D01*
X-1197009Y922509D01*
X-1187637Y949058D01*
X-1183538Y945138D01*
D02*
G37*
G36*
X-841987Y927869D02*
X-842113Y925580D01*
X-841957Y923294D01*
X-841520Y921010D01*
X-840800Y918728D01*
X-839798Y916449D01*
X-838515Y914171D01*
X-836950Y911896D01*
X-835103Y909623D01*
X-832974Y907352D01*
X-855518Y893975D01*
X-857733Y896103D01*
X-862168Y899842D01*
X-864387Y901452D01*
X-866607Y902889D01*
X-868829Y904154D01*
X-871052Y905245D01*
X-873275Y906164D01*
X-875500Y906910D01*
X-877727Y907483D01*
X-841579Y930159D01*
X-841987Y927869D01*
D02*
G37*
G36*
X-2990332Y904621D02*
X-2988637Y902986D01*
X-2986767Y901543D01*
X-2984722Y900293D01*
X-2982502Y899234D01*
X-2980106Y898369D01*
X-2977534Y897695D01*
X-2974787Y897215D01*
X-2971865Y896926D01*
X-2968768Y896830D01*
X-2972600Y871430D01*
X-2975670Y871357D01*
X-2981431Y870776D01*
X-2984122Y870268D01*
X-2986687Y869614D01*
X-2989127Y868816D01*
X-2991440Y867872D01*
X-2993628Y866783D01*
X-2995689Y865548D01*
X-2997624Y864169D01*
X-2991851Y906449D01*
X-2990332Y904621D01*
D02*
G37*
G36*
X-1282473Y845950D02*
X-1274720Y839609D01*
X-1271191Y837317D01*
X-1267894Y835609D01*
X-1264829Y834486D01*
X-1261996Y833948D01*
X-1259395Y833995D01*
X-1257025Y834627D01*
X-1254888Y835844D01*
X-1294524Y806250D01*
X-1293217Y807916D01*
X-1292425Y809786D01*
X-1292149Y811858D01*
X-1292389Y814132D01*
X-1293144Y816610D01*
X-1294415Y819290D01*
X-1296202Y822173D01*
X-1298505Y825258D01*
X-1301323Y828546D01*
X-1304658Y832037D01*
X-1286697Y849998D01*
X-1282473Y845950D01*
D02*
G37*
G36*
X-3069159Y838554D02*
X-3067219Y837117D01*
X-3065137Y835850D01*
X-3062912Y834751D01*
X-3060545Y833822D01*
X-3058036Y833062D01*
X-3055385Y832470D01*
X-3052592Y832048D01*
X-3049657Y831794D01*
X-3046579Y831710D01*
X-3045996Y806310D01*
X-3049078Y806221D01*
X-3052010Y805957D01*
X-3054792Y805516D01*
X-3057425Y804899D01*
X-3059907Y804106D01*
X-3062239Y803137D01*
X-3064421Y801991D01*
X-3066453Y800669D01*
X-3068335Y799171D01*
X-3070067Y797496D01*
X-3070958Y840159D01*
X-3069159Y838554D01*
D02*
G37*
G36*
X-1235648Y825581D02*
X-1234464Y823818D01*
X-1232596Y822263D01*
X-1230044Y820915D01*
X-1226809Y819774D01*
X-1222890Y818841D01*
X-1218288Y818115D01*
X-1213002Y817597D01*
X-1200380Y817182D01*
X-1198182Y791782D01*
X-1204867Y791678D01*
X-1216076Y790849D01*
X-1220600Y790123D01*
X-1224403Y789190D01*
X-1227486Y788049D01*
X-1229848Y786701D01*
X-1231491Y785146D01*
X-1232412Y783383D01*
X-1232613Y781413D01*
X-1236149Y827551D01*
X-1235648Y825581D01*
D02*
G37*
G36*
X-411480Y862015D02*
X-424180Y846294D01*
X-448264Y816564D01*
X-464355Y777718D01*
X-506282D01*
X-517371Y816564D01*
X-586477D01*
X-534776Y868111D01*
X-411480Y862015D01*
D02*
G37*
G36*
X-1176496Y800933D02*
X-1172781Y797748D01*
X-1169295Y795145D01*
X-1166039Y793124D01*
X-1163012Y791686D01*
X-1160214Y790831D01*
X-1157646Y790558D01*
X-1155307Y790867D01*
X-1153197Y791759D01*
X-1151317Y793233D01*
X-1186933Y757617D01*
X-1185459Y759497D01*
X-1184567Y761607D01*
X-1184258Y763946D01*
X-1184531Y766514D01*
X-1185386Y769312D01*
X-1186824Y772339D01*
X-1188845Y775595D01*
X-1191448Y779081D01*
X-1194633Y782796D01*
X-1198401Y786740D01*
X-1180440Y804701D01*
X-1176496Y800933D01*
D02*
G37*
G36*
X-590833Y730481D02*
X-591672Y731425D01*
X-592794Y732270D01*
X-594198Y733016D01*
X-595886Y733662D01*
X-597856Y734209D01*
X-600110Y734656D01*
X-602646Y735004D01*
X-608567Y735402D01*
X-611952Y735451D01*
X-604766Y770451D01*
X-601322Y770472D01*
X-588619Y771218D01*
X-586982Y771495D01*
X-585647Y771815D01*
X-584612Y772177D01*
X-583879Y772582D01*
X-590833Y730481D01*
D02*
G37*
G36*
X-317631Y722884D02*
X-319397Y724525D01*
X-321309Y725993D01*
X-323367Y727288D01*
X-325571Y728411D01*
X-327921Y729361D01*
X-330417Y730138D01*
X-333059Y730743D01*
X-335847Y731175D01*
X-338781Y731434D01*
X-341860Y731520D01*
Y756920D01*
X-338781Y757006D01*
X-335847Y757265D01*
X-333059Y757697D01*
X-330417Y758302D01*
X-327921Y759079D01*
X-325571Y760029D01*
X-323367Y761152D01*
X-321309Y762447D01*
X-319397Y763915D01*
X-317631Y765556D01*
Y722884D01*
D02*
G37*
G36*
X-977900Y1295400D02*
Y1130300D01*
X-927100Y1079500D01*
Y926145D01*
X-918593Y905607D01*
X-902873Y889887D01*
X-882335Y881380D01*
Y834605D01*
X-871260Y823530D01*
X-876874Y815128D01*
X-878361Y807651D01*
X-885839Y806163D01*
X-894241Y800549D01*
X-906615Y788175D01*
X-912229Y779773D01*
X-913716Y772295D01*
X-921195Y770808D01*
X-929597Y765194D01*
X-941971Y752819D01*
X-947585Y744418D01*
X-949072Y736940D01*
X-956550Y735453D01*
X-964952Y729839D01*
X-973923Y720867D01*
X-986680Y724255D01*
X-987448Y724813D01*
X-994763Y735762D01*
X-1012221Y753219D01*
Y813703D01*
X-1015178Y828569D01*
X-1023599Y841172D01*
X-1079529Y897102D01*
X-1077010Y909007D01*
X-1067822Y911901D01*
X-1059420Y917515D01*
X-1048248Y928687D01*
X-1088480Y968920D01*
X-1128713Y1009152D01*
X-1139885Y997980D01*
X-1145499Y989578D01*
X-1148748Y979266D01*
X-1159060Y976017D01*
X-1167462Y970403D01*
X-1169734Y968131D01*
X-1222407Y1020804D01*
X-1224483Y1033691D01*
X-1087773Y1170401D01*
X-1293399Y1376027D01*
X-1470742Y1198685D01*
X-1303962Y1031905D01*
Y1008214D01*
X-1301005Y993349D01*
X-1292584Y980746D01*
X-1277705Y965867D01*
X-1276617Y965140D01*
X-1205808Y894331D01*
X-1202558Y890680D01*
X-1200052Y886931D01*
X-1199724Y886250D01*
X-1199412Y885972D01*
X-1197691Y883397D01*
X-1174003Y859709D01*
X-1165601Y854095D01*
X-1155691Y852124D01*
X-1144425D01*
X-1097532Y805231D01*
X-1098025Y802751D01*
X-1111806Y798571D01*
X-1125415Y812180D01*
X-1133817Y817794D01*
X-1143728Y819766D01*
X-1155819D01*
X-1158079Y819316D01*
X-1170713Y831951D01*
X-1183316Y840371D01*
X-1198182Y843329D01*
X-1207529D01*
X-1211312Y843453D01*
X-1215003Y843815D01*
X-1215380Y843874D01*
X-1226297Y854791D01*
X-1234699Y860405D01*
X-1244609Y862376D01*
X-1261651D01*
X-1264113Y864390D01*
X-1314749Y915026D01*
X-1327352Y923447D01*
X-1342218Y926404D01*
X-1409462D01*
X-1576242Y1093185D01*
X-1753585Y915842D01*
X-1547958Y710215D01*
X-1409462Y848711D01*
X-1358308D01*
X-1326362Y816765D01*
X-1330467Y803233D01*
X-1332478Y802599D01*
X-1340880Y796985D01*
X-1352052Y785813D01*
X-1311820Y745580D01*
X-1271587Y705348D01*
X-1260415Y716520D01*
X-1254801Y724922D01*
X-1251552Y735234D01*
X-1241240Y738483D01*
X-1232838Y744097D01*
X-1226166Y750769D01*
X-1222114Y750532D01*
X-1212716Y746258D01*
X-1211494Y740117D01*
X-1205880Y731715D01*
X-1171621Y697456D01*
X-1163219Y691842D01*
X-1152907Y688593D01*
X-1149658Y678281D01*
X-1144044Y669879D01*
X-1122035Y647870D01*
X-1127296Y635170D01*
X-1509833D01*
X-1524699Y632213D01*
X-1537302Y623792D01*
X-1601247Y559847D01*
X-1905000Y863600D01*
Y927100D01*
X-1587500Y1244600D01*
X-1346200Y1485900D01*
X-1168400D01*
X-977900Y1295400D01*
D02*
G37*
G36*
X-3016866Y631548D02*
X-3014765Y630502D01*
X-3012543Y629579D01*
X-3010199Y628779D01*
X-3007734Y628102D01*
X-3005148Y627548D01*
X-3002441Y627118D01*
X-2996661Y626625D01*
X-2993589Y626564D01*
X-2987108Y601164D01*
X-2990219Y601064D01*
X-2993132Y600762D01*
X-2995848Y600260D01*
X-2998366Y599557D01*
X-3000686Y598653D01*
X-3002808Y597548D01*
X-3004733Y596243D01*
X-3006460Y594737D01*
X-3007988Y593029D01*
X-3009319Y591121D01*
X-3018845Y632717D01*
X-3016866Y631548D01*
D02*
G37*
G36*
X-716107Y558787D02*
X-717438Y560695D01*
X-718967Y562402D01*
X-720694Y563909D01*
X-722618Y565214D01*
X-724740Y566319D01*
X-727061Y567223D01*
X-729578Y567926D01*
X-732294Y568428D01*
X-735208Y568729D01*
X-738319Y568829D01*
X-731837Y594229D01*
X-728766Y594291D01*
X-722986Y594783D01*
X-720278Y595214D01*
X-717692Y595768D01*
X-715227Y596444D01*
X-712884Y597244D01*
X-710662Y598167D01*
X-708561Y599213D01*
X-706582Y600382D01*
X-716107Y558787D01*
D02*
G37*
G36*
X-620707Y483730D02*
X-622137Y485601D01*
X-623753Y487275D01*
X-625555Y488752D01*
X-627543Y490032D01*
X-629717Y491115D01*
X-632077Y492001D01*
X-634623Y492690D01*
X-637355Y493182D01*
X-640273Y493478D01*
X-643377Y493576D01*
X-638286Y518976D01*
X-635216Y519044D01*
X-629446Y519583D01*
X-626745Y520055D01*
X-624166Y520662D01*
X-621711Y521404D01*
X-619378Y522281D01*
X-617167Y523293D01*
X-615080Y524440D01*
X-613115Y525722D01*
X-620707Y483730D01*
D02*
G37*
G36*
X-3017546Y522214D02*
X-3015634Y520745D01*
X-3013576Y519450D01*
X-3011372Y518327D01*
X-3009022Y517377D01*
X-3006526Y516600D01*
X-3003884Y515996D01*
X-3001096Y515564D01*
X-2998162Y515305D01*
X-2995083Y515218D01*
Y489818D01*
X-2998162Y489732D01*
X-3001096Y489473D01*
X-3003884Y489041D01*
X-3006526Y488437D01*
X-3009022Y487659D01*
X-3011372Y486709D01*
X-3013576Y485587D01*
X-3015634Y484291D01*
X-3017546Y482823D01*
X-3019312Y481182D01*
Y523854D01*
X-3017546Y522214D01*
D02*
G37*
G36*
X-927405Y388622D02*
X-928551Y388506D01*
X-929840Y388140D01*
X-931272Y387521D01*
X-932847Y386652D01*
X-934565Y385530D01*
X-936427Y384157D01*
X-940579Y380656D01*
X-945303Y376148D01*
X-970052Y400897D01*
X-967672Y403330D01*
X-962043Y409773D01*
X-960670Y411635D01*
X-959548Y413353D01*
X-958679Y414928D01*
X-958060Y416360D01*
X-957694Y417649D01*
X-957578Y418795D01*
X-927405Y388622D01*
D02*
G37*
G36*
X-947648Y373803D02*
X-950028Y371370D01*
X-955657Y364927D01*
X-957030Y363065D01*
X-958151Y361347D01*
X-959021Y359772D01*
X-959640Y358340D01*
X-960006Y357051D01*
X-960122Y355905D01*
X-990295Y386078D01*
X-989149Y386194D01*
X-987860Y386560D01*
X-986428Y387179D01*
X-984853Y388048D01*
X-983135Y389170D01*
X-981273Y390543D01*
X-977121Y394044D01*
X-972397Y398552D01*
X-947648Y373803D01*
D02*
G37*
G36*
X-990905Y325122D02*
X-992051Y325006D01*
X-993340Y324640D01*
X-994772Y324021D01*
X-996347Y323151D01*
X-998065Y322030D01*
X-999927Y320657D01*
X-1006370Y315028D01*
X-1008803Y312648D01*
X-1033552Y337397D01*
X-1029044Y342121D01*
X-1025543Y346273D01*
X-1024170Y348135D01*
X-1023048Y349853D01*
X-1022179Y351428D01*
X-1021560Y352860D01*
X-1021194Y354149D01*
X-1021078Y355295D01*
X-990905Y325122D01*
D02*
G37*
G36*
X-1504745Y240027D02*
X-1502730Y238695D01*
X-1500584Y237519D01*
X-1498305Y236501D01*
X-1495894Y235639D01*
X-1493351Y234934D01*
X-1490675Y234385D01*
X-1487867Y233993D01*
X-1484928Y233758D01*
X-1481856Y233680D01*
X-1479515Y208280D01*
X-1482605Y208187D01*
X-1485532Y207908D01*
X-1488296Y207444D01*
X-1490896Y206794D01*
X-1493334Y205958D01*
X-1495608Y204936D01*
X-1497718Y203729D01*
X-1499666Y202336D01*
X-1501450Y200757D01*
X-1503071Y198992D01*
X-1506627Y241516D01*
X-1504745Y240027D01*
D02*
G37*
G36*
X-3024467Y230515D02*
X-3022555Y229047D01*
X-3020497Y227752D01*
X-3018293Y226629D01*
X-3015943Y225679D01*
X-3013447Y224902D01*
X-3010806Y224297D01*
X-3008018Y223865D01*
X-3005084Y223606D01*
X-3002004Y223520D01*
Y198120D01*
X-3005084Y198034D01*
X-3008018Y197775D01*
X-3010806Y197343D01*
X-3013447Y196738D01*
X-3015943Y195961D01*
X-3018293Y195011D01*
X-3020497Y193888D01*
X-3022555Y192593D01*
X-3024467Y191125D01*
X-3026233Y189484D01*
Y232156D01*
X-3024467Y230515D01*
D02*
G37*
G36*
X-2560630Y200563D02*
X-2558846Y198984D01*
X-2556898Y197591D01*
X-2554788Y196384D01*
X-2552514Y195362D01*
X-2550076Y194526D01*
X-2547476Y193876D01*
X-2544712Y193412D01*
X-2541785Y193133D01*
X-2538695Y193040D01*
X-2541036Y167640D01*
X-2544108Y167562D01*
X-2547047Y167327D01*
X-2549855Y166935D01*
X-2552531Y166386D01*
X-2555074Y165681D01*
X-2557485Y164819D01*
X-2559764Y163801D01*
X-2561910Y162625D01*
X-2563925Y161293D01*
X-2565807Y159804D01*
X-2562251Y202328D01*
X-2560630Y200563D01*
D02*
G37*
G36*
X-3021125Y143507D02*
X-3019110Y142175D01*
X-3016964Y140999D01*
X-3014685Y139981D01*
X-3012274Y139119D01*
X-3009731Y138414D01*
X-3007055Y137865D01*
X-3004247Y137473D01*
X-3001308Y137238D01*
X-2998236Y137160D01*
X-2995895Y111760D01*
X-2998985Y111667D01*
X-3001912Y111388D01*
X-3004676Y110924D01*
X-3007276Y110274D01*
X-3009714Y109438D01*
X-3011988Y108416D01*
X-3014098Y107209D01*
X-3016046Y105816D01*
X-3017830Y104237D01*
X-3019451Y102472D01*
X-3023007Y144996D01*
X-3021125Y143507D01*
D02*
G37*
G36*
X-1277506Y36649D02*
X-1277140Y35360D01*
X-1276521Y33928D01*
X-1275652Y32353D01*
X-1274530Y30635D01*
X-1273157Y28773D01*
X-1269656Y24621D01*
X-1265148Y19897D01*
X-1289897Y-4852D01*
X-1292330Y-2472D01*
X-1298773Y3157D01*
X-1300635Y4530D01*
X-1302353Y5652D01*
X-1303928Y6521D01*
X-1305360Y7140D01*
X-1306649Y7506D01*
X-1307795Y7622D01*
X-1277622Y37795D01*
X-1277506Y36649D01*
D02*
G37*
G36*
X-3045579Y-212782D02*
X-3045385Y-215167D01*
X-3044950Y-217535D01*
X-3044274Y-219886D01*
X-3043359Y-222219D01*
X-3042202Y-224535D01*
X-3040805Y-226834D01*
X-3039168Y-229116D01*
X-3037290Y-231380D01*
X-3035172Y-233628D01*
X-3054300Y-250421D01*
X-3056530Y-248305D01*
X-3058780Y-246398D01*
X-3061047Y-244703D01*
X-3063333Y-243217D01*
X-3065637Y-241942D01*
X-3067959Y-240878D01*
X-3070300Y-240024D01*
X-3072659Y-239380D01*
X-3075036Y-238946D01*
X-3077432Y-238723D01*
X-3045532Y-210380D01*
X-3045579Y-212782D01*
D02*
G37*
G36*
X-1599127Y-251150D02*
X-1597490Y-252815D01*
X-1595670Y-254283D01*
X-1593666Y-255556D01*
X-1591480Y-256632D01*
X-1589110Y-257514D01*
X-1586557Y-258199D01*
X-1583821Y-258688D01*
X-1580902Y-258982D01*
X-1577800Y-259080D01*
X-1582555Y-284480D01*
X-1585624Y-284549D01*
X-1591392Y-285100D01*
X-1594091Y-285582D01*
X-1596667Y-286201D01*
X-1599119Y-286959D01*
X-1601448Y-287854D01*
X-1603653Y-288887D01*
X-1605735Y-290057D01*
X-1607693Y-291365D01*
X-1600581Y-249290D01*
X-1599127Y-251150D01*
D02*
G37*
G36*
X-1452412Y379691D02*
X-1457804Y366673D01*
Y347980D01*
X-1471615D01*
X-1492153Y339473D01*
X-1507873Y323753D01*
X-1516380Y303215D01*
Y280985D01*
X-1527366Y274320D01*
X-1537655D01*
X-1558193Y265813D01*
X-1573913Y250093D01*
X-1582420Y229555D01*
Y207325D01*
X-1573913Y186787D01*
X-1558193Y171067D01*
X-1537655Y162560D01*
X-1515425D01*
X-1494887Y171067D01*
X-1488913Y177041D01*
X-1476794Y176819D01*
X-1474885Y176110D01*
X-1473511Y175302D01*
X-1472301Y173491D01*
X-1375074Y76264D01*
X-1366672Y70650D01*
X-1360938Y56560D01*
X-1363980Y49215D01*
Y26985D01*
X-1355473Y6447D01*
X-1339753Y-9273D01*
X-1319215Y-17780D01*
X-1314171D01*
X-1313435Y-18424D01*
X-1288340Y-43518D01*
Y-130467D01*
X-1353219Y-195345D01*
X-1354195Y-196806D01*
X-1401590Y-244201D01*
X-1407204Y-252603D01*
X-1409175Y-262514D01*
Y-274888D01*
X-1407204Y-284799D01*
X-1401590Y-293200D01*
X-1389216Y-305575D01*
X-1388911Y-308669D01*
X-1406627Y-326385D01*
X-1471399D01*
X-1482243Y-319139D01*
X-1497109Y-316182D01*
X-1539169D01*
X-1543021Y-303482D01*
X-1536686Y-299249D01*
X-1509217Y-271780D01*
X-1470370D01*
X-1455505Y-268823D01*
X-1442902Y-260402D01*
X-1423883Y-241384D01*
X-1419329Y-240478D01*
X-1410927Y-234864D01*
X-1313700Y-137637D01*
X-1308086Y-129235D01*
X-1306115Y-119324D01*
Y-106950D01*
X-1308086Y-97039D01*
X-1313700Y-88637D01*
X-1326074Y-76263D01*
X-1334476Y-70649D01*
X-1344387Y-68678D01*
X-1356761D01*
X-1366672Y-70649D01*
X-1375073Y-76263D01*
X-1472301Y-173490D01*
X-1477914Y-181892D01*
X-1478821Y-186446D01*
X-1486461Y-194087D01*
X-1525308D01*
X-1540174Y-197044D01*
X-1552776Y-205465D01*
X-1580245Y-232933D01*
X-1580340D01*
X-1593947Y-219327D01*
X-1614485Y-210820D01*
X-1636715D01*
X-1657253Y-219327D01*
X-1672973Y-235047D01*
X-1681480Y-255585D01*
Y-277815D01*
X-1672973Y-298353D01*
X-1657254Y-314073D01*
X-1653039Y-329565D01*
X-1658982Y-343913D01*
Y-360506D01*
X-1674990D01*
X-1683273Y-363937D01*
X-1695973Y-355451D01*
Y5080D01*
X-1698931Y19946D01*
X-1707351Y32549D01*
X-1804563Y129760D01*
X-1799703Y141493D01*
X-1724660D01*
X-1709794Y144451D01*
X-1697191Y152871D01*
X-1463178Y386885D01*
X-1452412Y379691D01*
D02*
G37*
G36*
X-2524106Y-356512D02*
X-2522005Y-357558D01*
X-2519783Y-358481D01*
X-2517439Y-359281D01*
X-2514974Y-359958D01*
X-2512388Y-360512D01*
X-2509681Y-360942D01*
X-2503901Y-361435D01*
X-2500829Y-361496D01*
X-2494348Y-386896D01*
X-2497459Y-386996D01*
X-2500372Y-387298D01*
X-2503088Y-387800D01*
X-2505606Y-388503D01*
X-2507926Y-389407D01*
X-2510048Y-390512D01*
X-2511973Y-391817D01*
X-2513700Y-393323D01*
X-2515228Y-395031D01*
X-2516559Y-396939D01*
X-2526085Y-355343D01*
X-2524106Y-356512D01*
D02*
G37*
G36*
X-1500467Y-450205D02*
X-1498555Y-451673D01*
X-1496497Y-452968D01*
X-1494293Y-454091D01*
X-1491943Y-455041D01*
X-1489447Y-455818D01*
X-1486806Y-456423D01*
X-1484018Y-456855D01*
X-1481084Y-457114D01*
X-1478004Y-457200D01*
Y-482600D01*
X-1481084Y-482686D01*
X-1484018Y-482945D01*
X-1486806Y-483377D01*
X-1489447Y-483982D01*
X-1491943Y-484759D01*
X-1494293Y-485709D01*
X-1496497Y-486832D01*
X-1498555Y-488127D01*
X-1500467Y-489595D01*
X-1502233Y-491236D01*
Y-448564D01*
X-1500467Y-450205D01*
D02*
G37*
G36*
X-3055526Y-461361D02*
X-3055150Y-462024D01*
X-3054515Y-462913D01*
X-3053621Y-464027D01*
X-3049384Y-468721D01*
X-3042815Y-475442D01*
X-3060058Y-494120D01*
X-3061786Y-492435D01*
X-3066229Y-488629D01*
X-3067463Y-487777D01*
X-3068573Y-487134D01*
X-3069561Y-486700D01*
X-3070424Y-486473D01*
X-3071164Y-486456D01*
X-3071780Y-486647D01*
X-3055643Y-460923D01*
X-3055526Y-461361D01*
D02*
G37*
G36*
X-1571587Y-521325D02*
X-1569675Y-522793D01*
X-1567617Y-524088D01*
X-1565413Y-525211D01*
X-1563063Y-526161D01*
X-1560567Y-526938D01*
X-1557926Y-527543D01*
X-1555138Y-527975D01*
X-1552204Y-528234D01*
X-1549124Y-528320D01*
Y-553720D01*
X-1552204Y-553806D01*
X-1555138Y-554065D01*
X-1557926Y-554497D01*
X-1560567Y-555102D01*
X-1563063Y-555879D01*
X-1565413Y-556829D01*
X-1567617Y-557952D01*
X-1569675Y-559247D01*
X-1571587Y-560715D01*
X-1573353Y-562356D01*
Y-519684D01*
X-1571587Y-521325D01*
D02*
G37*
G36*
X-3070990Y-590080D02*
X-3070244Y-592305D01*
X-3069325Y-594528D01*
X-3068234Y-596751D01*
X-3066969Y-598973D01*
X-3065532Y-601193D01*
X-3063922Y-603412D01*
X-3060183Y-607847D01*
X-3058055Y-610062D01*
X-3071432Y-632606D01*
X-3073703Y-630477D01*
X-3075976Y-628630D01*
X-3078251Y-627065D01*
X-3080529Y-625782D01*
X-3082808Y-624780D01*
X-3085090Y-624060D01*
X-3087374Y-623623D01*
X-3089660Y-623467D01*
X-3091949Y-623593D01*
X-3094239Y-624001D01*
X-3071563Y-587853D01*
X-3070990Y-590080D01*
D02*
G37*
G36*
X-754599Y-634198D02*
X-755332Y-633793D01*
X-756367Y-633431D01*
X-757702Y-633111D01*
X-759339Y-632834D01*
X-763516Y-632408D01*
X-768899Y-632152D01*
X-775486Y-632067D01*
X-782672Y-597067D01*
X-779287Y-597017D01*
X-773366Y-596620D01*
X-770830Y-596272D01*
X-768576Y-595824D01*
X-766606Y-595277D01*
X-764918Y-594631D01*
X-763514Y-593886D01*
X-762392Y-593041D01*
X-761553Y-592096D01*
X-754599Y-634198D01*
D02*
G37*
G36*
X-2984805Y-1008378D02*
X-2987214Y-1008467D01*
X-2989604Y-1008781D01*
X-2991975Y-1009320D01*
X-2994327Y-1010085D01*
X-2996661Y-1011074D01*
X-2998975Y-1012290D01*
X-3001271Y-1013731D01*
X-3003547Y-1015396D01*
X-3005805Y-1017288D01*
X-3008044Y-1019404D01*
X-3026004Y-1001444D01*
X-3023888Y-999205D01*
X-3021996Y-996947D01*
X-3020331Y-994671D01*
X-3018890Y-992375D01*
X-3017674Y-990061D01*
X-3016685Y-987727D01*
X-3015920Y-985375D01*
X-3015381Y-983004D01*
X-3015067Y-980614D01*
X-3014978Y-978205D01*
X-2984805Y-1008378D01*
D02*
G37*
G36*
X-1076873Y-1087294D02*
X-1076559Y-1089684D01*
X-1076020Y-1092055D01*
X-1075255Y-1094407D01*
X-1074266Y-1096741D01*
X-1073050Y-1099055D01*
X-1071609Y-1101351D01*
X-1069944Y-1103627D01*
X-1068052Y-1105885D01*
X-1065936Y-1108124D01*
X-1083896Y-1126084D01*
X-1086135Y-1123968D01*
X-1088393Y-1122076D01*
X-1090669Y-1120411D01*
X-1092965Y-1118970D01*
X-1095279Y-1117754D01*
X-1097613Y-1116765D01*
X-1099965Y-1116000D01*
X-1102336Y-1115461D01*
X-1104726Y-1115147D01*
X-1107135Y-1115058D01*
X-1076962Y-1084885D01*
X-1076873Y-1087294D01*
D02*
G37*
G36*
X-808297Y-1144455D02*
X-810423Y-1146721D01*
X-812275Y-1148994D01*
X-813854Y-1151273D01*
X-815159Y-1153558D01*
X-816191Y-1155850D01*
X-816949Y-1158148D01*
X-817433Y-1160452D01*
X-817644Y-1162763D01*
X-817581Y-1165081D01*
X-817245Y-1167405D01*
X-852590Y-1143496D01*
X-850310Y-1142989D01*
X-848037Y-1142303D01*
X-845771Y-1141436D01*
X-843512Y-1140390D01*
X-841260Y-1139165D01*
X-839016Y-1137760D01*
X-836777Y-1136175D01*
X-834546Y-1134410D01*
X-830105Y-1130342D01*
X-808297Y-1144455D01*
D02*
G37*
G36*
X-693315Y-1383838D02*
X-695443Y-1386053D01*
X-699182Y-1390488D01*
X-700792Y-1392707D01*
X-702229Y-1394927D01*
X-703494Y-1397149D01*
X-704585Y-1399372D01*
X-705504Y-1401595D01*
X-706250Y-1403820D01*
X-706823Y-1406047D01*
X-729499Y-1369899D01*
X-727209Y-1370307D01*
X-724920Y-1370433D01*
X-722634Y-1370277D01*
X-720350Y-1369840D01*
X-718068Y-1369120D01*
X-715789Y-1368118D01*
X-713511Y-1366835D01*
X-711236Y-1365270D01*
X-708963Y-1363423D01*
X-706692Y-1361294D01*
X-693315Y-1383838D01*
D02*
G37*
G36*
X-97487Y-1408719D02*
X-93019Y-1412624D01*
X-90980Y-1414172D01*
X-89070Y-1415449D01*
X-87290Y-1416455D01*
X-85640Y-1417192D01*
X-84119Y-1417658D01*
X-82729Y-1417853D01*
X-81468Y-1417779D01*
X-106321Y-1452466D01*
X-106553Y-1451662D01*
X-107028Y-1450674D01*
X-107746Y-1449504D01*
X-108708Y-1448151D01*
X-111360Y-1444896D01*
X-114985Y-1440909D01*
X-119583Y-1436191D01*
X-99916Y-1406360D01*
X-97487Y-1408719D01*
D02*
G37*
G36*
X-1853729Y-1035849D02*
X-1841126Y-1044269D01*
X-1826260Y-1047227D01*
X-1165706D01*
X-1157712Y-1059927D01*
X-1163320Y-1073465D01*
Y-1095695D01*
X-1154813Y-1116233D01*
X-1139093Y-1131953D01*
X-1134773Y-1133742D01*
X-1133191Y-1148144D01*
X-1144886Y-1159840D01*
X-1153393Y-1180378D01*
Y-1202609D01*
X-1144886Y-1223147D01*
X-1129167Y-1238866D01*
X-1108629Y-1247373D01*
X-1086398D01*
X-1065860Y-1238866D01*
X-1057334Y-1230340D01*
X-994415D01*
X-987359Y-1240900D01*
X-990600Y-1248725D01*
Y-1270955D01*
X-982093Y-1291493D01*
X-966373Y-1307213D01*
X-945835Y-1315720D01*
X-923605D01*
X-910253Y-1310190D01*
X-897553Y-1318293D01*
Y-1321755D01*
X-889046Y-1342293D01*
X-873327Y-1358013D01*
X-852788Y-1366520D01*
X-830558D01*
X-810020Y-1358013D01*
X-794300Y-1342293D01*
X-785793Y-1321755D01*
Y-1319320D01*
X-782940Y-1316467D01*
X-772094D01*
X-757228Y-1313510D01*
X-749299Y-1323486D01*
X-746203Y-1330960D01*
X-746674Y-1334911D01*
X-750962Y-1345005D01*
X-768253Y-1352167D01*
X-783973Y-1367887D01*
X-792480Y-1388425D01*
Y-1410655D01*
X-783973Y-1431193D01*
X-768253Y-1446913D01*
X-747715Y-1455420D01*
X-725485D01*
X-704947Y-1446913D01*
X-689227Y-1431193D01*
X-688963Y-1430555D01*
X-687076Y-1430268D01*
X-675739Y-1431818D01*
X-668508Y-1449275D01*
X-669686Y-1455194D01*
X-682697Y-1460584D01*
X-698416Y-1476303D01*
X-706923Y-1496841D01*
Y-1519072D01*
X-703253Y-1527934D01*
X-710308Y-1538493D01*
X-1810169D01*
X-2177951Y-1170711D01*
X-2190554Y-1162291D01*
X-2205420Y-1159333D01*
X-2366102D01*
X-2373158Y-1148774D01*
X-2369820Y-1140715D01*
Y-1118485D01*
X-2378327Y-1097946D01*
X-2384424Y-1091850D01*
X-2378327Y-1085753D01*
X-2369820Y-1065215D01*
Y-1042985D01*
X-2378327Y-1022447D01*
X-2394047Y-1006727D01*
X-2414585Y-998220D01*
X-2436815D01*
X-2457353Y-1006727D01*
X-2473073Y-1022447D01*
X-2475977Y-1029457D01*
X-2489723D01*
X-2492627Y-1022447D01*
X-2508347Y-1006727D01*
X-2528885Y-998220D01*
X-2551115D01*
X-2571653Y-1006727D01*
X-2587373Y-1022447D01*
X-2595880Y-1042985D01*
Y-1065215D01*
X-2587373Y-1085753D01*
X-2581276Y-1091850D01*
X-2587373Y-1097946D01*
X-2595880Y-1118485D01*
Y-1140715D01*
X-2595213Y-1142326D01*
X-2603372Y-1154537D01*
X-2603628D01*
X-2611787Y-1142326D01*
X-2611120Y-1140715D01*
Y-1118485D01*
X-2619627Y-1097946D01*
X-2625724Y-1091850D01*
X-2619627Y-1085753D01*
X-2611120Y-1065215D01*
Y-1042985D01*
X-2619627Y-1022447D01*
X-2635347Y-1006727D01*
X-2655885Y-998220D01*
X-2678115D01*
X-2698653Y-1006727D01*
X-2714373Y-1022447D01*
X-2722880Y-1042985D01*
Y-1065215D01*
X-2714373Y-1085753D01*
X-2708276Y-1091850D01*
X-2714373Y-1097946D01*
X-2722880Y-1118485D01*
Y-1140715D01*
X-2719542Y-1148774D01*
X-2726598Y-1159333D01*
X-2969109D01*
X-2983753Y-1144689D01*
Y-1034234D01*
X-2981839Y-1033780D01*
X-2973385D01*
X-2952847Y-1025273D01*
X-2937127Y-1009553D01*
X-2928620Y-989015D01*
Y-966785D01*
X-2937127Y-946247D01*
X-2952847Y-930527D01*
X-2973385Y-922020D01*
X-2995615D01*
X-3016153Y-930527D01*
X-3019313Y-933687D01*
X-3032013Y-928427D01*
Y-773011D01*
X-3010843Y-751840D01*
X-2998785D01*
X-2978247Y-743333D01*
X-2962527Y-727613D01*
X-2954020Y-707075D01*
Y-684845D01*
X-2957358Y-676786D01*
X-2950302Y-666227D01*
X-2223351D01*
X-1853729Y-1035849D01*
D02*
G37*
%LPC*%
G36*
X-1071191Y1035794D02*
X-1091344D01*
X-1101254Y1033823D01*
X-1109656Y1028209D01*
X-1110752Y1027113D01*
X-1079500Y995861D01*
X-1050015Y1025345D01*
X-1052879Y1028209D01*
X-1061281Y1033823D01*
X-1071191Y1035794D01*
D02*
G37*
G36*
X-1032055Y1007385D02*
X-1061539Y977900D01*
X-1030287Y946648D01*
X-1029191Y947744D01*
X-1023577Y956146D01*
X-1021606Y966056D01*
Y986209D01*
X-1023577Y996119D01*
X-1029191Y1004521D01*
X-1032055Y1007385D01*
D02*
G37*
G36*
X-1370013Y767852D02*
X-1371109Y766756D01*
X-1376723Y758354D01*
X-1378694Y748444D01*
Y728291D01*
X-1376723Y718381D01*
X-1371109Y709979D01*
X-1368245Y707115D01*
X-1338761Y736600D01*
X-1370013Y767852D01*
D02*
G37*
G36*
X-1320800Y718639D02*
X-1350285Y689155D01*
X-1347421Y686291D01*
X-1339019Y680677D01*
X-1329109Y678706D01*
X-1308956D01*
X-1299046Y680677D01*
X-1290644Y686291D01*
X-1289548Y687387D01*
X-1320800Y718639D01*
D02*
G37*
%LPD*%
G36*
X1426947Y-57329D02*
X1427142Y-58719D01*
X1427608Y-60240D01*
X1428345Y-61890D01*
X1429351Y-63670D01*
X1430628Y-65580D01*
X1432176Y-67619D01*
X1436081Y-72087D01*
X1438440Y-74516D01*
X1408609Y-94183D01*
X1406159Y-91763D01*
X1396649Y-83308D01*
X1395296Y-82346D01*
X1394126Y-81628D01*
X1393138Y-81153D01*
X1392334Y-80921D01*
X1427021Y-56068D01*
X1426947Y-57329D01*
D02*
G37*
G36*
X1426355Y-136351D02*
X1423697Y-139150D01*
X1421469Y-141803D01*
X1421157Y-142237D01*
X1423331Y-144411D01*
X1422089Y-144695D01*
X1420607Y-145322D01*
X1418883Y-146290D01*
X1418291Y-146684D01*
X1417354Y-148887D01*
X1416840Y-150957D01*
X1416754Y-152882D01*
X1417096Y-154660D01*
X1417868Y-156293D01*
X1419068Y-157780D01*
X1412448Y-151160D01*
X1409580Y-153579D01*
X1400071Y-162634D01*
X1385929Y-148492D01*
X1389289Y-145082D01*
X1397230Y-135942D01*
X1390784Y-129496D01*
X1392271Y-130696D01*
X1393903Y-131467D01*
X1395682Y-131810D01*
X1397606Y-131724D01*
X1399676Y-131210D01*
X1401879Y-130272D01*
X1402274Y-129680D01*
X1403242Y-127957D01*
X1403868Y-126474D01*
X1404153Y-125233D01*
X1406327Y-127407D01*
X1406761Y-127095D01*
X1409414Y-124866D01*
X1412212Y-122209D01*
X1426355Y-136351D01*
D02*
G37*
G36*
X-620865Y-1955800D02*
X-621042Y-1953387D01*
X-621750Y-1951228D01*
X-622990Y-1949323D01*
X-624763Y-1947672D01*
X-627067Y-1946275D01*
X-629904Y-1945132D01*
X-633272Y-1944243D01*
X-637173Y-1943608D01*
X-641606Y-1943227D01*
X-646570Y-1943100D01*
Y-1917700D01*
X-641426Y-1917575D01*
X-636814Y-1917201D01*
X-632734Y-1916576D01*
X-629187Y-1915703D01*
X-626171Y-1914579D01*
X-623688Y-1913205D01*
X-621737Y-1911583D01*
X-620319Y-1909710D01*
X-619432Y-1907587D01*
X-619078Y-1905216D01*
X-620865Y-1955800D01*
D02*
G37*
G36*
X-805553Y-1907413D02*
X-804781Y-1909572D01*
X-803496Y-1911477D01*
X-801697Y-1913128D01*
X-799383Y-1914525D01*
X-796556Y-1915668D01*
X-793214Y-1916557D01*
X-789359Y-1917192D01*
X-784989Y-1917573D01*
X-780105Y-1917700D01*
Y-1943100D01*
X-784989Y-1943227D01*
X-789359Y-1943608D01*
X-793214Y-1944243D01*
X-796556Y-1945132D01*
X-799383Y-1946275D01*
X-801697Y-1947672D01*
X-803496Y-1949323D01*
X-804781Y-1951228D01*
X-805553Y-1953387D01*
X-805810Y-1955800D01*
Y-1905000D01*
X-805553Y-1907413D01*
D02*
G37*
G36*
X-521576Y-1916313D02*
X-520814Y-1918472D01*
X-519544Y-1920377D01*
X-517766Y-1922028D01*
X-515480Y-1923425D01*
X-512686Y-1924568D01*
X-509384Y-1925457D01*
X-505574Y-1926092D01*
X-501256Y-1926473D01*
X-496430Y-1926600D01*
Y-1952000D01*
X-501256Y-1952127D01*
X-505574Y-1952508D01*
X-509384Y-1953143D01*
X-512686Y-1954032D01*
X-515480Y-1955175D01*
X-517766Y-1956572D01*
X-519544Y-1958223D01*
X-520814Y-1960128D01*
X-521576Y-1962287D01*
X-521830Y-1964700D01*
Y-1913900D01*
X-521576Y-1916313D01*
D02*
G37*
G36*
X-1089513Y-1990349D02*
X-1091672Y-1991111D01*
X-1093577Y-1992381D01*
X-1095228Y-1994159D01*
X-1096625Y-1996445D01*
X-1097768Y-1999239D01*
X-1098657Y-2002541D01*
X-1099292Y-2006351D01*
X-1099673Y-2010669D01*
X-1099800Y-2015495D01*
X-1125200D01*
X-1124895Y-1990095D01*
X-1087100D01*
X-1089513Y-1990349D01*
D02*
G37*
G36*
X711705Y-2146300D02*
X711451Y-2143887D01*
X710689Y-2141728D01*
X709419Y-2139823D01*
X707641Y-2138172D01*
X705355Y-2136775D01*
X702561Y-2135632D01*
X699259Y-2134743D01*
X695449Y-2134108D01*
X691131Y-2133727D01*
X686305Y-2133600D01*
Y-2108200D01*
X691131Y-2108073D01*
X695449Y-2107692D01*
X699259Y-2107057D01*
X702561Y-2106168D01*
X705355Y-2105025D01*
X707641Y-2103628D01*
X709419Y-2101977D01*
X710689Y-2100072D01*
X711451Y-2097913D01*
X711705Y-2095500D01*
Y-2146300D01*
D02*
G37*
D10*
X2992585Y-932237D02*
G03*
X2992558Y-932211I-17987J-17935D01*
G01*
X-3096747Y-686245D02*
Y-684804D01*
X-3144520Y-1219200D02*
Y-734018D01*
X-3096747Y-686245D01*
X-2855838Y416305D02*
X-2844534Y405001D01*
X-2673946D02*
X-2484120Y594827D01*
X-3036049Y416305D02*
X-2855838D01*
X-2677317Y334970D02*
X-2642067Y299720D01*
X-3004456Y334970D02*
X-2677317D01*
X-2844534Y405001D02*
X-2673946D01*
X-3041079Y502518D02*
X-2878361D01*
X-3028496Y613864D02*
X-2759723D01*
X-3035300Y607060D02*
X-3028496Y613864D01*
X2953834Y-558505D02*
X3002616D01*
X3009419Y-551701D01*
X2928139Y-584200D02*
X2953834Y-558505D01*
X2029460Y-584200D02*
X2928139D01*
X2454456Y728164D02*
X3124291D01*
X2268220Y914400D02*
X2454456Y728164D01*
X3124291D02*
X3128541Y732413D01*
X2512060Y817880D02*
X2976880D01*
X3035300Y876300D01*
X2486660Y769620D02*
X3037737D01*
X3066803Y798686D02*
X3073169D01*
X3037737Y769620D02*
X3066803Y798686D01*
X3039740Y-312781D02*
X3086100D01*
X2961361Y-391160D02*
X3039740Y-312781D01*
X1925320Y-391160D02*
X2961361D01*
X1968500Y-426720D02*
X3044993D01*
X3072573Y-399141D01*
X3086100D01*
X2016546Y-465034D02*
X3056010D01*
X3081606Y-490629D01*
X3085764D01*
X1158240Y-1323340D02*
X2016546Y-465034D01*
X2492207Y-347980D02*
X2517607Y-322580D01*
X2667000D01*
X1107440Y-1287780D02*
X1968500Y-426720D01*
X1064260Y-1252220D02*
X1925320Y-391160D01*
X1328420Y-1394460D02*
X2097224Y-625656D01*
X3057344D01*
X3060700Y-622300D01*
X3039913Y-698500D02*
X3060700D01*
X3019593Y-678180D02*
X3039913Y-698500D01*
X2257848Y-924772D02*
X2985119D01*
X3035452Y-977179D02*
X3045546Y-977467D01*
X2992584Y-932237D02*
X2992817Y-932470D01*
X2985119Y-924772D02*
X2992558Y-932211D01*
X3045546Y-977467D02*
X3060700Y-977900D01*
X3028049Y-969776D02*
X3035452Y-977179D01*
X2992817Y-932470D02*
X3028049Y-969776D01*
X3060700Y-881380D02*
X3061165D01*
X3058160Y-878840D02*
X3060700Y-881380D01*
X1645920Y-1536700D02*
X2257848Y-924772D01*
X1661160Y-1572260D02*
X2255520Y-977900D01*
X2963713D01*
X3052613Y-1066800D01*
X2209800Y-881380D02*
X3055620D01*
X3058160Y-878840D01*
X-2745696Y678180D02*
X-1612856Y1811020D01*
X-3088173Y721360D02*
X-3044993Y678180D01*
X-2745696D01*
X-1816100Y-566420D02*
X-1686560Y-695960D01*
X-1816100Y-566420D02*
Y-38100D01*
X-1686560Y-695960D02*
X-1297000D01*
X-1676400Y-645160D02*
X-1316912D01*
X-1770380Y-551180D02*
Y-17780D01*
Y-551180D02*
X-1676400Y-645160D01*
X-687884Y1925320D02*
X-155564Y1393000D01*
X-1660695Y1925320D02*
X-687884D01*
X-1612856Y1811020D02*
X-744872D01*
X-759601Y1775460D02*
X-355600Y1371459D01*
X-1651000Y1882140D02*
X-715414D01*
X-730143Y1846580D02*
X-284480Y1400917D01*
X-744872Y1811020D02*
X-320040Y1386188D01*
X-1598127Y1775460D02*
X-759601D01*
X-355600Y1310194D02*
Y1371459D01*
X-715414Y1882140D02*
X-190919Y1357645D01*
X-1635760Y1846580D02*
X-730143D01*
X-284480Y1380495D02*
Y1400917D01*
X-320040Y1345345D02*
Y1386188D01*
X-284480Y1380495D02*
X-226274Y1322290D01*
X-320040Y1345345D02*
X-261629Y1286934D01*
X-355600Y1310194D02*
X-296985Y1251579D01*
X-685894Y862670D02*
X-634861Y811638D01*
X-591404D01*
X-827315Y721249D02*
X-750019Y643953D01*
X-661733D02*
X-604520Y586740D01*
X-750019Y643953D02*
X-661733D01*
X-1355914Y-401320D02*
X-1251579Y-296985D01*
X-1552407Y-401320D02*
X-1355914D01*
X-1297000Y-695960D02*
X-1074802Y-473762D01*
X-1261849Y-731520D02*
X-1039447Y-509117D01*
X-1713989Y-731520D02*
X-1261849D01*
X-592760Y-1193800D02*
X-473762Y-1074802D01*
X-688274Y-1193800D02*
X-592760D01*
X-628995Y-1300746D02*
X-438406Y-1110157D01*
X-698234Y-1300746D02*
X-628995D01*
X-669827Y-1369326D02*
X-644161Y-1343660D01*
X-601198D02*
X-403051Y-1145513D01*
X-644161Y-1343660D02*
X-601198D01*
X-552556Y-1446028D02*
Y-1436440D01*
X-621136Y-1417621D02*
X-611513D01*
X-644240Y-1501153D02*
X-607680D01*
X-552556Y-1446028D01*
X-611513Y-1417621D02*
X-596763Y-1402872D01*
X2603500Y-2120900D02*
X3190240Y-1534160D01*
X1257900Y-2120900D02*
X2603500D01*
X756604Y-791960D02*
X901008Y-936363D01*
X910290D02*
X949286Y-975360D01*
X901008Y-936363D02*
X910290D01*
X949286Y-975360D02*
X975786D01*
X872682Y-1004943D02*
X881883D01*
X828789Y-961050D02*
Y-934855D01*
X721249Y-827315D02*
X828789Y-934855D01*
X579827Y-968736D02*
X637540Y-1026449D01*
X673100Y-1087120D02*
X767080Y-1181100D01*
X673100Y-1087120D02*
Y-991298D01*
X615183Y-933381D02*
X673100Y-991298D01*
X637540Y-1101849D02*
Y-1026449D01*
Y-1101849D02*
X752351Y-1216660D01*
X651180Y-1252220D02*
X1064260D01*
X473762Y-1074802D02*
X651180Y-1252220D01*
X616029Y-1287780D02*
X1107440D01*
X438406Y-1110157D02*
X616029Y-1287780D01*
X510576Y-1394460D02*
X1328420D01*
X332340Y-1216224D02*
X510576Y-1394460D01*
X296985Y-1251579D02*
X475426Y-1430020D01*
X1371600D01*
X440275Y-1465580D02*
X1544320D01*
X261629Y-1286934D02*
X440275Y-1465580D01*
X226274Y-1322290D02*
X405125Y-1501140D01*
X1590040D01*
X1287155Y-499755D02*
X1287780Y-500380D01*
X1145514Y-403051D02*
X1242218Y-499755D01*
X1287155D01*
X942136Y-906780D02*
X999478D01*
X791960Y-756604D02*
X942136Y-906780D01*
X2182064Y766876D02*
X2461260Y487680D01*
X3017536D01*
X3037335Y507479D01*
X3042920Y627380D02*
X3124200Y546100D01*
X2448560Y558800D02*
X2590800D01*
X2600423D01*
X2443480Y627380D02*
X3042920D01*
X2232864Y837996D02*
X2443480Y627380D01*
X3100374Y668020D02*
X3129494Y638900D01*
X3132140D01*
X2255724Y873556D02*
X2461260Y668020D01*
X3100374D01*
X3037335Y507479D02*
X3046957D01*
X770055Y1161029D02*
X785862Y1176836D01*
X885897Y1079500D02*
X911297Y1104900D01*
X799625Y1079500D02*
X885897D01*
X544472Y1004091D02*
X665850Y1125469D01*
X911297Y1104900D02*
X2225040D01*
X803945Y1125469D02*
X814354Y1115060D01*
X871168D02*
X896568Y1140460D01*
X1076960Y1186180D02*
X2481409D01*
X665850Y1125469D02*
X803945D01*
X579827Y968736D02*
X701000Y1089909D01*
X741399Y1229360D02*
X741648Y1229609D01*
X785862Y1176836D02*
X835957D01*
X896568Y1140460D02*
X2239769D01*
X3116069Y1130300D02*
X3187700D01*
X2498289Y1169300D02*
X3077069D01*
X2481409Y1186180D02*
X2498289Y1169300D01*
X835957Y1176836D02*
X842761Y1183640D01*
X2239769Y1140460D02*
X2249929Y1130300D01*
X701000Y1089909D02*
X789216D01*
X509117Y1039447D02*
X630699Y1161029D01*
X628319Y1229360D02*
X741399D01*
X789216Y1089909D02*
X799625Y1079500D01*
X2225040Y1104900D02*
X2512060Y817880D01*
X814354Y1115060D02*
X871168D01*
X630699Y1161029D02*
X770055D01*
X2249929Y1130300D02*
X3065780D01*
X3077069Y1169300D02*
X3116069Y1130300D01*
X1066821Y-877136D02*
X1102169D01*
X1108693Y-883660D01*
X1019053Y-1018627D02*
X1028676D01*
X-2402862Y602002D02*
X-2232660Y431800D01*
X-1674357D02*
X-1509833Y596324D01*
X-2232660Y431800D02*
X-1674357D01*
X-2613660Y368300D02*
X-1687568D01*
X-1495104Y560764D01*
X-2642067Y299720D02*
X-1705859D01*
X-1480375Y525204D01*
X-2757975Y828040D02*
X-1660695Y1925320D01*
X-2908300Y828040D02*
X-2757975D01*
X1247950Y-151935D02*
X1322289Y-226274D01*
X1176566Y-164635D02*
X1183369Y-157831D01*
X1218392D01*
X1224288Y-151935D01*
X1247950D01*
X1866900Y-203200D02*
X3073506D01*
X1709887Y-360213D02*
X1866900Y-203200D01*
X1524000Y-360213D02*
X1709887D01*
X1401613Y-294640D02*
X1458427D01*
X1524000Y-360213D01*
X1383592Y-312662D02*
X1401613Y-294640D01*
X-1390536Y-365231D02*
X-1286934Y-261629D01*
X-1620520Y-271780D02*
X-1564154D01*
X-1470370Y-232933D02*
X-1393000Y-155563D01*
X-1497109Y-355028D02*
X-1486906Y-365231D01*
X-1390536D01*
X-1603102Y-355028D02*
X-1497109D01*
X-1564154Y-271780D02*
X-1525308Y-232933D01*
X-1470370D01*
X-1575267Y-424180D02*
X-1552407Y-401320D01*
X-1625600Y-266700D02*
X-1620520Y-271780D01*
X-375920Y744220D02*
X-295864D01*
X-448264Y816564D02*
X-375920Y744220D01*
X-586477Y816564D02*
X-448264D01*
X-591404Y811638D02*
X-586477Y816564D01*
X968736Y-579827D02*
X976094D01*
X1145567Y-749300D02*
X1168126D01*
X862670Y-685893D02*
X973241Y-796464D01*
X976094Y-579827D02*
X1145567Y-749300D01*
X1027885Y-838200D02*
X1066821Y-877136D01*
X973241Y-796464D02*
X1083136D01*
X944266Y-838200D02*
X1027885D01*
X975786Y-975360D02*
X1019053Y-1018627D01*
X-332340Y1216224D02*
X-228600Y1112483D01*
X-2759723Y613864D02*
X-1598127Y1775460D01*
X-2753360Y728980D02*
X-1635760Y1846580D01*
X-2981960Y728980D02*
X-2753360D01*
X-2950503Y792480D02*
X-2740660D01*
X-1651000Y1882140D01*
X-2195275Y1032510D02*
X-2147103D01*
X-2190397Y985536D02*
X-2143788D01*
X-2095500Y1181100D02*
X-1536700Y1739900D01*
X-1475273Y1704340D02*
X-812735D01*
X-1460544Y1668780D02*
X-827465D01*
X-2147103Y1032510D02*
X-1475273Y1704340D01*
X-2143788Y985536D02*
X-1460544Y1668780D01*
X-925097Y-1259840D02*
X-907317Y-1242060D01*
X-934720Y-1259840D02*
X-925097D01*
X-907317Y-1242060D02*
X-808046D01*
X-1112500Y-2029978D02*
Y-1977700D01*
X-1143000Y-2060477D02*
X-1112500Y-2029978D01*
X-1405500Y-2070100D02*
X-1143000D01*
Y-2060477D01*
X-1065200Y-1930400D02*
X-580400D01*
X-1112500Y-1977700D02*
X-1065200Y-1930400D01*
X-847113Y-1173480D02*
Y-1165311D01*
X-615183Y-933381D01*
X3225800Y-1587500D02*
Y970280D01*
X3065780Y1130300D02*
X3225800Y970280D01*
X-3093720Y-1270000D02*
X-2582411D01*
X-2581711Y-1269300D02*
X-2498289D01*
X-2260600Y-1270000D02*
X-1882140Y-1648460D01*
X-3144520Y-1219200D02*
X-3093720Y-1270000D01*
X-2497589D02*
X-2260600D01*
X-2498289Y-1269300D02*
X-2497589Y-1270000D01*
X-2582411D02*
X-2581711Y-1269300D01*
X-1882140Y-1648460D02*
X-567173D01*
X-3013140Y-1233740D02*
X-2233360D01*
X-1854200Y-1612900D01*
X-587595D01*
X-1826260Y-1577340D02*
X-623440D01*
X-2985200Y-1198180D02*
X-2205420D01*
X-1826260Y-1577340D01*
X686722Y1357070D02*
X693526Y1363874D01*
X266700Y1562100D02*
X355600Y1651000D01*
X612140D02*
X1076960Y1186180D01*
X355600Y1651000D02*
X612140D01*
X431800Y1424940D02*
X492760Y1485900D01*
X304800Y1511300D02*
X364256Y1570757D01*
X372343D01*
X359312Y1459480D02*
X474118Y1574286D01*
X266700Y1433426D02*
Y1562100D01*
X190919Y1357645D02*
X266700Y1433426D01*
X431800Y1386394D02*
Y1424940D01*
X296985Y1251579D02*
X431800Y1386394D01*
X304800Y1400815D02*
Y1511300D01*
X226274Y1322290D02*
X304800Y1400815D01*
X359312Y1384618D02*
Y1459480D01*
X261629Y1286934D02*
X359312Y1384618D01*
X1493250Y317303D02*
X1510833Y299720D01*
X1567647D01*
X1572727Y304800D01*
X1452787Y241300D02*
X1468675D01*
X1452135Y241952D02*
X1452787Y241300D01*
X1357645Y190919D02*
X1408678Y241952D01*
X1452135D01*
X1468675Y241300D02*
X1506775Y203200D01*
X1373527Y277512D02*
X1482752D01*
X1322290Y226274D02*
X1373527Y277512D01*
X1482752D02*
X1506264Y254000D01*
X1251579Y296985D02*
X1322894Y368300D01*
X1539240D01*
X1216224Y332340D02*
X1320763Y436880D01*
X1945640D01*
X1180868Y367696D02*
X1285612Y472440D01*
X1986280D01*
X1145513Y403051D02*
X1250462Y508000D01*
X2019300D01*
X1110158Y438406D02*
X1217851Y546100D01*
X2044700D01*
X1185240Y584200D02*
X2080260D01*
X1074802Y473762D02*
X1185240Y584200D01*
X1039448Y509117D02*
X1150091Y619760D01*
X2100580D01*
X933381Y615183D02*
X1003998Y685800D01*
X2123440D01*
X2458720Y350520D01*
X898026Y650538D02*
X978803Y731316D01*
X2141424D01*
X943652Y766876D02*
X2182064D01*
X862670Y685894D02*
X943652Y766876D01*
X908501Y802436D02*
X2204924D01*
X827315Y721249D02*
X908501Y802436D01*
X756604Y791960D02*
X838200Y873556D01*
X2204924Y802436D02*
X2448560Y558800D01*
X883392Y837996D02*
X2232864D01*
X838200Y873556D02*
X2255724D01*
X802000Y756604D02*
X883392Y837996D01*
X2141424Y731316D02*
X2448560Y424180D01*
X721249Y827315D02*
X808334Y914400D01*
X2268220D01*
X773183Y949960D02*
X2306320D01*
X685894Y862671D02*
X773183Y949960D01*
X473762Y1074803D02*
X628319Y1229360D01*
X623543Y1295294D02*
X721932D01*
X438406Y1110158D02*
X623543Y1295294D01*
X632188Y1424939D02*
X632460D01*
X507631Y1391514D02*
Y1397369D01*
X588392Y1330854D02*
X619654D01*
X332340Y1216224D02*
X507631Y1391514D01*
X403051Y1145513D02*
X588392Y1330854D01*
X502547Y1315720D02*
X522968D01*
X632188Y1424939D01*
X619654Y1330854D02*
X645870Y1357070D01*
X686722D01*
X367695Y1180868D02*
X502547Y1315720D01*
X786602Y1313996D02*
X793406Y1320800D01*
X721932Y1295294D02*
X740634Y1313996D01*
X786602D01*
X1619516Y233680D02*
X1701800D01*
X1342608Y317303D02*
X1493250D01*
X1286934Y261629D02*
X1342608Y317303D01*
X1572727Y304800D02*
X1651000D01*
X1599707Y203200D02*
X1645427Y157480D01*
X1506775Y203200D02*
X1599707D01*
X1506264Y254000D02*
X1599196D01*
X1619516Y233680D01*
X1645427Y157480D02*
X1653540D01*
X-306213Y-1484487D02*
X-301466Y-1479740D01*
X-319891Y-1415907D02*
X-226274Y-1322289D01*
X-567173Y-1648460D02*
X-334620Y-1415907D01*
X-301466Y-1479740D02*
Y-1468192D01*
X-334620Y-1415907D02*
X-319891D01*
X-301466Y-1468192D02*
X-190919Y-1357645D01*
X3154680Y-1480820D02*
Y-284374D01*
X1257900Y-1866900D02*
X2768600D01*
X3154680Y-1480820D01*
X3190240Y-1534160D02*
Y-269645D01*
X1257900Y-2374900D02*
X2438400D01*
X3225800Y-1587500D01*
X-215900Y-2120900D02*
X850900D01*
X-397500Y-1939300D02*
X-215900Y-2120900D01*
X-571500Y-1939300D02*
X-397500D01*
X-580400Y-1930400D02*
X-571500Y-1939300D01*
X3085695Y-165100D02*
X3190240Y-269645D01*
X1393000Y155564D02*
X1713664Y-165100D01*
X3085695D01*
X3073506Y-203200D02*
X3154680Y-284374D01*
X2458720Y-274320D02*
X2463800Y-279400D01*
X1938020Y-274320D02*
X2458720D01*
X1049531Y-1216660D02*
X1918211Y-347980D01*
X2492207D01*
X1031240Y-1181100D02*
X1938020Y-274320D01*
X2123440Y-678180D02*
X3019593D01*
X3060700Y-795020D02*
Y-787400D01*
Y-708660D02*
Y-698500D01*
X1590040Y-1501140D02*
X2209800Y-881380D01*
X3039110Y-787400D02*
X3060700D01*
X2192020Y-817880D02*
X3008630D01*
X3039110Y-787400D01*
X3052613Y-1066800D02*
X3060700D01*
X2458720Y350520D02*
X2728595D01*
X2100580Y619760D02*
X2405380Y314960D01*
X2649220Y424180D02*
X2654300Y419100D01*
X2448560Y424180D02*
X2649220D01*
X2752358Y314960D02*
X2770177Y332778D01*
X2405380Y314960D02*
X2752358D01*
X2728595Y350520D02*
X2753995Y375920D01*
X2770177Y332778D02*
X3126778D01*
X2753995Y375920D02*
X3023870D01*
X3067050Y419100D01*
X3124200D01*
X3038307Y109220D02*
X3057900Y128814D01*
X3126101D02*
X3126480Y129193D01*
X2418080Y109220D02*
X3038307D01*
X3057900Y128814D02*
X3126101D01*
X3012440Y190500D02*
X3022600D01*
X2019300Y508000D02*
X2418080Y109220D01*
X2956560Y246380D02*
X3012440Y190500D01*
X2080260Y584200D02*
X2418080Y246380D01*
X2956560D01*
X2385060Y73660D02*
X3050540D01*
X1986280Y472440D02*
X2385060Y73660D01*
X3086100Y38100D02*
X3107681D01*
X3050540Y73660D02*
X3086100Y38100D01*
X3107681D02*
X3113409Y43828D01*
X2413000Y177800D02*
X2604569D01*
X2044700Y546100D02*
X2413000Y177800D01*
X3022600Y25400D02*
X3086100Y-38100D01*
X2357120Y25400D02*
X3022600D01*
X1945640Y436880D02*
X2357120Y25400D01*
X-1545200Y-1930400D02*
X-1405500Y-2070100D01*
X-1645200Y-1930400D02*
X-1545200D01*
X-3016304Y888254D02*
X-3012180Y884130D01*
X-2964390D01*
X-3091639Y819010D02*
X-2977032D01*
X-3092275Y818374D02*
X-3091639Y819010D01*
X-2977032D02*
X-2950503Y792480D01*
X-3003410Y750430D02*
X-2981960Y728980D01*
X-3008446Y750430D02*
X-3003410D01*
X1348008Y-312662D02*
X1383592D01*
X1296975Y-261629D02*
X1348008Y-312662D01*
X1286934Y-261629D02*
X1296975D01*
X767080Y-1181100D02*
X1031240D01*
X1254760Y-1358900D02*
X2029460Y-584200D01*
X752351Y-1216660D02*
X1049531D01*
X545727Y-1358900D02*
X1254760D01*
X580878Y-1323340D02*
X1158240D01*
X2306320Y949960D02*
X2486660Y769620D01*
X791960Y756604D02*
X802000D01*
X155563Y-1393000D02*
X334823Y-1572260D01*
X190919Y-1357645D02*
X369974Y-1536700D01*
X403051Y-1145513D02*
X580878Y-1323340D01*
X367695Y-1180868D02*
X545727Y-1358900D01*
X1371600Y-1430020D02*
X2123440Y-678180D01*
X1544320Y-1465580D02*
X2192020Y-817880D01*
X828789Y-961050D02*
X872682Y-1004943D01*
X767463Y-987510D02*
X863875Y-1083922D01*
X716538Y-1042854D02*
X784702Y-1111017D01*
X369974Y-1536700D02*
X1645920D01*
X334823Y-1572260D02*
X1661160D01*
X767463Y-987510D02*
Y-944240D01*
X863875Y-1083922D02*
X899998D01*
X784702Y-1111017D02*
X793983D01*
X716538Y-1042854D02*
Y-964026D01*
X650538Y-898025D02*
X716538Y-964026D01*
X899998Y-1083922D02*
X906802Y-1090726D01*
X685893Y-862670D02*
X767463Y-944240D01*
X827315Y-721248D02*
X944266Y-838200D01*
X1435092Y-663743D02*
X1435859Y-662977D01*
X1329181Y-750272D02*
X1334665Y-755755D01*
X1350010Y-663743D02*
X1435092D01*
X1266085Y-750272D02*
X1329181D01*
X1168126Y-749300D02*
X1228898Y-810072D01*
X1173360Y-713740D02*
X1206033D01*
X1257493Y-741680D02*
X1266085Y-750272D01*
X1206033Y-713740D02*
X1233973Y-741680D01*
X1257493D01*
X1004091Y-544472D02*
X1173360Y-713740D01*
X1196626Y-666296D02*
X1255576D01*
X1039447Y-509117D02*
X1196626Y-666296D01*
X1255576D02*
X1262380Y-673100D01*
X1205561Y-604520D02*
X1290787D01*
X1251579Y-296985D02*
X1315274Y-360680D01*
X1244973Y-431800D02*
X1346100D01*
X1290787Y-604520D02*
X1350010Y-663743D01*
X1110158Y-438406D02*
X1240712Y-568960D01*
X1371613Y-588360D02*
X1378417Y-595163D01*
X1315274Y-360680D02*
X1427480D01*
X1324915Y-588360D02*
X1371613D01*
X1427480Y-360680D02*
X1430020Y-363220D01*
X1074802Y-473761D02*
X1205561Y-604520D01*
X1346100Y-431800D02*
X1419760Y-505460D01*
X1216224Y-332340D02*
X1280124Y-396240D01*
X1180868Y-367695D02*
X1244973Y-431800D01*
X1240712Y-568960D02*
X1305516D01*
X1360829Y-396240D02*
X1401469Y-436880D01*
X1305516Y-568960D02*
X1324915Y-588360D01*
X1280124Y-396240D02*
X1360829D01*
X1580417Y-472440D02*
X1590040D01*
X1547397Y-505460D02*
X1580417Y-472440D01*
X1419760Y-505460D02*
X1547397D01*
X1401469Y-436880D02*
X1493520D01*
X-1631928Y-423189D02*
X-1630937Y-424180D01*
X-1524000Y-469900D02*
X-1353784D01*
X-1663875Y-416386D02*
X-1657071Y-423189D01*
X-1630937Y-424180D02*
X-1575267D01*
X-1657071Y-423189D02*
X-1631928D01*
X-1354193Y-541020D02*
X-1180869Y-367695D01*
X-1595120Y-541020D02*
X-1354193D01*
X-1352063Y-609600D02*
X-1145513Y-403051D01*
X-1635760Y-609600D02*
X-1352063D01*
X-1737360Y-774700D02*
X-1234319D01*
X-1004092Y-544472D01*
X-1762760Y-889000D02*
X-1207198D01*
X-933381Y-615183D01*
X-1742440Y-845820D02*
X-1234729D01*
X-968736Y-579827D01*
X-1783080Y-927100D02*
X-1033166D01*
X-827315Y-721249D01*
X-937874Y-1043940D02*
X-721249Y-827315D01*
X-970817Y-1043940D02*
X-937874D01*
X-587595Y-1612900D02*
X-261629Y-1286934D01*
X-3070860Y-756920D02*
X-3009900Y-695960D01*
X-3070860Y-1176020D02*
Y-756920D01*
Y-1176020D02*
X-3013140Y-1233740D01*
X-3022600Y-1160780D02*
X-2985200Y-1198180D01*
X-2194560Y-576580D02*
X-1803400Y-967740D01*
X-2992657Y-576580D02*
X-2194560D01*
X-1871980Y-573529D02*
Y-421640D01*
X-3009900Y-276860D02*
X-2016760D01*
X-1871980Y-421640D01*
X-3075940Y-312420D02*
X-2049780D01*
X-1922780Y-439420D01*
Y-589280D02*
Y-439420D01*
X-1958340Y-629920D02*
Y-467360D01*
X-2535736Y-374196D02*
X-2051504D01*
X-1958340Y-467360D01*
X-1996440Y-655320D02*
Y-497840D01*
X-2966720Y-449580D02*
X-2044700D01*
X-1996440Y-497840D01*
X-1856273Y68113D02*
X-1770380Y-17780D01*
X-2667467Y68113D02*
X-1856273D01*
X-2583180Y180340D02*
X-1724660D01*
X-1703829Y251460D02*
X-1465646Y489644D01*
X-2639060Y136693D02*
X-2616667Y114300D01*
X-2649687Y251460D02*
X-1703829D01*
X-2616667Y114300D02*
X-1844040D01*
X-2585720Y182880D02*
X-2583180Y180340D01*
X-2690327Y210820D02*
X-2649687Y251460D01*
X-1844040Y114300D02*
X-1734820Y5080D01*
X-1724660Y180340D02*
X-1450916Y454084D01*
X-2676138Y551647D02*
X-2195275Y1032510D01*
X-2964390Y884130D02*
X-2908300Y828040D01*
X-3093720Y721360D02*
X-3088173D01*
X-758307Y581529D02*
X-696931D01*
X-690127Y574726D01*
X-3051077Y-485140D02*
X-2075180D01*
X-3015517Y-553720D02*
X-2992657Y-576580D01*
X-3025140Y-553720D02*
X-3015517D01*
X-3086100Y-459740D02*
X-3076477D01*
X-3051077Y-485140D01*
X-3022600Y-1160780D02*
Y-1016000D01*
X-2984500Y-977900D01*
X-3091717Y-594360D02*
X-3058697Y-627380D01*
X-2207260D01*
X-1826260Y-1008380D01*
X-3101340Y-594360D02*
X-3091717D01*
X-3020060Y-398780D02*
X-3017520D01*
X-3078480Y-314960D02*
X-3075940Y-312420D01*
X-2542540Y-381000D02*
X-2535736Y-374196D01*
X-2075180Y-485140D02*
X-2039620Y-520700D01*
X-3017520Y-398780D02*
X-2966720Y-449580D01*
X-3075940Y-210820D02*
X-3009900Y-276860D01*
X-3075940Y-210820D02*
Y-208280D01*
X-3020060Y27940D02*
X-2981960D01*
X-3022600Y30480D02*
X-3020060Y27940D01*
X-2981260Y27240D02*
X-2723580D01*
X-2981960Y27940D02*
X-2981260Y27240D01*
X-2723580D02*
X-2695873Y-467D01*
X-2639060D01*
X-2613193Y25400D01*
X-1879600D02*
X-1816100Y-38100D01*
X-2613193Y25400D02*
X-1879600D01*
X-3040380Y124460D02*
X-2742277D01*
X-2730044Y136693D02*
X-2639060D01*
X-2742277Y124460D02*
X-2730044Y136693D01*
X-3048000Y210820D02*
X-2690327D01*
X-2829233Y551647D02*
X-2676138D01*
X-3042920Y121920D02*
X-3040380Y124460D01*
X-2692867Y483067D02*
X-2190397Y985536D01*
X-2878361Y502518D02*
X-2829233Y551647D01*
X-2484120Y594827D02*
Y617731D01*
X-2613660Y368300D02*
X-2613660Y368300D01*
X-2151875Y949976D02*
X-2105177D01*
X-2484120Y617731D02*
X-2151875Y949976D01*
X-2105177D02*
X-1421933Y1633220D01*
X-842194D01*
X-1196546Y454084D02*
X-1145513Y403051D01*
X-1450916Y454084D02*
X-1196546D01*
X-1161395Y489644D02*
X-1110158Y438406D01*
X-1465646Y489644D02*
X-1161395D01*
X-1480375Y525204D02*
X-1126244D01*
X-1074802Y473762D01*
X-1091094Y560764D02*
X-1039447Y509117D01*
X-1495104Y560764D02*
X-1091094D01*
X-1055943Y596324D02*
X-1004092Y544472D01*
X-1509833Y596324D02*
X-1055943D01*
X-434299Y1247471D02*
Y1325903D01*
X-812735Y1704340D02*
X-434299Y1325903D01*
Y1247471D02*
X-367695Y1180868D01*
X-398739Y1282622D02*
Y1340633D01*
X-798006Y1739900D02*
X-398739Y1340633D01*
X-842194Y1633220D02*
X-505419Y1296445D01*
X-827465Y1668780D02*
X-469859Y1311174D01*
X-398739Y1282622D02*
X-332340Y1216224D01*
X-1536700Y1739900D02*
X-798006D01*
X-469859Y1212321D02*
Y1311174D01*
X-505419Y1177170D02*
Y1296445D01*
X-469859Y1212321D02*
X-403051Y1145513D01*
X-584167Y1268584D02*
Y1274541D01*
Y1268584D02*
X-558800Y1243217D01*
X-505419Y1177170D02*
X-438406Y1110158D01*
X-623440Y-1577340D02*
X-297679Y-1251579D01*
X-296985D01*
X-1826260Y-1008380D02*
X-973024D01*
X-1046480Y-1145540D02*
X-968763D01*
X-1003837Y-1076960D02*
X-970817Y-1043940D01*
X-973024Y-1008380D02*
X-756604Y-791960D01*
X-968763Y-1145540D02*
X-685893Y-862670D01*
X-962113Y-1191493D02*
X-815379Y-1044760D01*
X-1097513Y-1191493D02*
X-962113D01*
X-1803400Y-967740D02*
X-1003096D01*
X-1107440Y-1084580D02*
X-1046480Y-1145540D01*
X-1003096Y-967740D02*
X-791960Y-756604D01*
X-1013460Y-1076960D02*
X-1003837D01*
X-1996440Y-655320D02*
X-1762760Y-889000D01*
X-1958340Y-629920D02*
X-1742440Y-845820D01*
X-815379Y-1044760D02*
X-797272D01*
X-650538Y-898026D01*
X-2039620Y-670560D02*
X-1783080Y-927100D01*
X-726977Y-1399540D02*
X-696764Y-1369326D01*
X-736600Y-1399540D02*
X-726977D01*
X-552556Y-1436440D02*
X-332340Y-1216224D01*
X-696764Y-1369326D02*
X-669827D01*
X-589699Y-1402872D02*
X-367695Y-1180868D01*
X-596763Y-1402872D02*
X-589699D01*
X-832051Y-1310640D02*
X-799031Y-1277620D01*
X-772094D01*
X-718820Y-1152834D02*
Y-1107729D01*
X-772094Y-1277620D02*
X-688274Y-1193800D01*
X-808046Y-1242060D02*
X-718820Y-1152834D01*
Y-1107729D02*
X-579827Y-968736D01*
X-651043Y-1507957D02*
X-644240Y-1501153D01*
X-841673Y-1310640D02*
X-832051D01*
X-1871980Y-573529D02*
X-1713989Y-731520D01*
X-2039620Y-670560D02*
Y-520700D01*
X-1734820Y-510540D02*
X-1635760Y-609600D01*
X-1734820Y-510540D02*
Y5080D01*
X-1922780Y-589280D02*
X-1737360Y-774700D01*
X-1316912Y-645160D02*
X-1110158Y-438406D01*
X-1353784Y-469900D02*
X-1216224Y-332340D01*
X-1526540Y218440D02*
X-1524000Y220980D01*
X-1458417D01*
X-1393001Y155564D01*
X-1460500Y292100D02*
X-1458826D01*
X-1357645Y190919D01*
X-1401924Y345935D02*
X-1373322Y317333D01*
Y277307D02*
X-1322290Y226274D01*
X-1401924Y345935D02*
Y355558D01*
X-1373322Y277307D02*
Y317333D01*
X-862671Y685893D02*
X-758307Y581529D01*
X-791960Y756604D02*
X-719961Y684605D01*
X-605398D01*
X-535940Y602008D02*
Y615147D01*
X-605398Y684605D02*
X-535940Y615147D01*
X-666737Y506276D02*
X-600914D01*
X-595491Y500853D01*
X-838346Y873702D02*
X-756604Y791960D01*
X-838346Y873702D02*
Y894763D01*
X-871220Y927637D02*
X-838346Y894763D01*
X-871220Y927637D02*
Y937260D01*
X-801382Y988060D02*
X-792615D01*
X-655787Y1114236D02*
X-640325D01*
X-590858Y1121189D02*
Y1136672D01*
X-753762Y1101821D02*
X-693660D01*
X-711951Y1170401D02*
X-655787Y1114236D01*
X-627380Y1173194D02*
X-590858Y1136672D01*
X-640325Y1114236D02*
X-604520Y1078431D01*
X-558800Y1159841D02*
X-473762Y1074802D01*
X-693660Y1101821D02*
X-652797Y1060957D01*
Y1041706D02*
Y1060957D01*
X-590858Y1121189D02*
X-509117Y1039447D01*
X-712843Y1170401D02*
X-711951D01*
X-627380Y1173194D02*
Y1182816D01*
X-558800Y1159841D02*
Y1243217D01*
X-761752Y957196D02*
X-709709D01*
X-777161Y1125220D02*
X-753762Y1101821D01*
X-786784Y1125220D02*
X-777161D01*
X-792615Y988060D02*
X-761752Y957196D01*
X-604520Y1064139D02*
Y1078431D01*
X-721377Y1031458D02*
X-713260D01*
X-615183Y933381D01*
X-652797Y1041706D02*
X-579827Y968736D01*
X-709709Y957196D02*
X-650538Y898026D01*
X-604520Y1064139D02*
X-544472Y1004092D01*
X-750407Y502920D02*
X-670093D01*
X-666737Y506276D01*
X-898026Y650538D02*
X-750407Y502920D01*
X-1147382Y910018D02*
X-1051067Y813703D01*
Y737129D02*
X-1022232Y708293D01*
X-1051067Y737129D02*
Y813703D01*
X-1022232Y704034D02*
X-933381Y615183D01*
X-1022232Y704034D02*
Y708293D01*
X-1265115Y1008214D02*
X-1250236Y993335D01*
X-1279257Y1184543D02*
X-1265115Y1170401D01*
X-1249875Y993335D02*
X-1166558Y910018D01*
X-1265115Y1008214D02*
Y1170401D01*
X-1250236Y993335D02*
X-1249875D01*
X-1166558Y910018D02*
X-1147382D01*
X-1083659Y689959D02*
X-975920Y582220D01*
X-972260D01*
X-1198182Y804482D02*
X-1151541Y757841D01*
X-1252918Y804482D02*
X-1198182D01*
X-1259142D02*
X-1252918D01*
X-1342218Y887558D02*
X-1259142Y804482D01*
X-1547958Y887558D02*
X-1342218D01*
X-1562100Y901700D02*
X-1547958Y887558D01*
D11*
X850900Y-1866900D02*
D03*
X1257900D02*
D03*
X850900Y-1993900D02*
D03*
X1257900D02*
D03*
X850900Y-2120900D02*
D03*
X1257900D02*
D03*
X850900Y-2247900D02*
D03*
X1257900D02*
D03*
X850900Y-2374900D02*
D03*
X1257900D02*
D03*
D12*
X-571500Y-2099300D02*
D03*
D13*
Y-1939300D02*
D03*
D14*
X-1562100Y901700D02*
D03*
X-1279257Y1184543D02*
D03*
D15*
X-1151541Y757841D02*
D03*
D16*
X-1083659Y689959D02*
D03*
D17*
X155564Y1393001D02*
D03*
X190919Y1357645D02*
D03*
X226274Y1322290D02*
D03*
X261629Y1286934D02*
D03*
X296985Y1251579D02*
D03*
X332340Y1216224D02*
D03*
X367695Y1180868D02*
D03*
X403051Y1145513D02*
D03*
X438406Y1110158D02*
D03*
X473762Y1074803D02*
D03*
X509117Y1039447D02*
D03*
X544472Y1004091D02*
D03*
X579827Y968736D02*
D03*
X615183Y933381D02*
D03*
X650538Y898026D02*
D03*
X685893Y862671D02*
D03*
X721249Y827315D02*
D03*
X756604Y791960D02*
D03*
X791960Y756604D02*
D03*
X827315Y721249D02*
D03*
X862670Y685894D02*
D03*
X898026Y650538D02*
D03*
X933381Y615183D02*
D03*
X968736Y579828D02*
D03*
X1004092Y544473D02*
D03*
X1039447Y509117D02*
D03*
X1074802Y473762D02*
D03*
X1110158Y438406D02*
D03*
X1145513Y403051D02*
D03*
X1180868Y367696D02*
D03*
X1216224Y332340D02*
D03*
X1251579Y296985D02*
D03*
X1286934Y261629D02*
D03*
X1322290Y226274D02*
D03*
X1357645Y190919D02*
D03*
X1393000Y155564D02*
D03*
D18*
Y-155563D02*
D03*
X1357645Y-190919D02*
D03*
X1322289Y-226274D02*
D03*
X1286934Y-261629D02*
D03*
X1251579Y-296985D02*
D03*
X1216224Y-332340D02*
D03*
X1180868Y-367695D02*
D03*
X1145514Y-403051D02*
D03*
X1110158Y-438406D02*
D03*
X1074802Y-473761D02*
D03*
X1039447Y-509117D02*
D03*
X1004091Y-544472D02*
D03*
X968736Y-579827D02*
D03*
X933381Y-615183D02*
D03*
X898026Y-650538D02*
D03*
X862670Y-685893D02*
D03*
X827315Y-721248D02*
D03*
X791960Y-756604D02*
D03*
X756604Y-791960D02*
D03*
X721249Y-827315D02*
D03*
X685893Y-862670D02*
D03*
X650538Y-898025D02*
D03*
X615183Y-933381D02*
D03*
X579827Y-968736D02*
D03*
X544472Y-1004091D02*
D03*
X509117Y-1039447D02*
D03*
X473762Y-1074802D02*
D03*
X438406Y-1110157D02*
D03*
X403051Y-1145513D02*
D03*
X367695Y-1180868D02*
D03*
X332340Y-1216224D02*
D03*
X296985Y-1251579D02*
D03*
X261629Y-1286934D02*
D03*
X226274Y-1322290D02*
D03*
X190919Y-1357645D02*
D03*
X155563Y-1393000D02*
D03*
X-1393001Y155564D02*
D03*
X-1357645Y190919D02*
D03*
X-1322290Y226274D02*
D03*
X-1286934Y261630D02*
D03*
X-1251580Y296985D02*
D03*
X-1216224Y332340D02*
D03*
X-1180868Y367696D02*
D03*
X-1145513Y403051D02*
D03*
X-1110158Y438406D02*
D03*
X-1074802Y473762D02*
D03*
X-1039447Y509117D02*
D03*
X-1004092Y544472D02*
D03*
X-968736Y579828D02*
D03*
X-933381Y615183D02*
D03*
X-898026Y650538D02*
D03*
X-862671Y685893D02*
D03*
X-827315Y721249D02*
D03*
X-791960Y756604D02*
D03*
X-756604Y791960D02*
D03*
X-721249Y827315D02*
D03*
X-685894Y862670D02*
D03*
X-650538Y898026D02*
D03*
X-615183Y933381D02*
D03*
X-579827Y968736D02*
D03*
X-544472Y1004092D02*
D03*
X-509117Y1039447D02*
D03*
X-473762Y1074803D02*
D03*
X-438406Y1110158D02*
D03*
X-403051Y1145513D02*
D03*
X-367695Y1180868D02*
D03*
X-332340Y1216224D02*
D03*
X-296985Y1251579D02*
D03*
X-261629Y1286934D02*
D03*
X-226274Y1322290D02*
D03*
X-190919Y1357645D02*
D03*
X-155564Y1393000D02*
D03*
D19*
X-155563Y-1393000D02*
D03*
X-190919Y-1357645D02*
D03*
X-226274Y-1322289D02*
D03*
X-261629Y-1286934D02*
D03*
X-296985Y-1251579D02*
D03*
X-332340Y-1216224D02*
D03*
X-367695Y-1180868D02*
D03*
X-403051Y-1145513D02*
D03*
X-438406Y-1110157D02*
D03*
X-473762Y-1074802D02*
D03*
X-509117Y-1039447D02*
D03*
X-544472Y-1004092D02*
D03*
X-579827Y-968736D02*
D03*
X-615183Y-933381D02*
D03*
X-650538Y-898026D02*
D03*
X-685893Y-862670D02*
D03*
X-721249Y-827315D02*
D03*
X-756604Y-791960D02*
D03*
X-791960Y-756604D02*
D03*
X-827315Y-721249D02*
D03*
X-862670Y-685893D02*
D03*
X-898026Y-650538D02*
D03*
X-933381Y-615183D02*
D03*
X-968736Y-579827D02*
D03*
X-1004092Y-544472D02*
D03*
X-1039447Y-509117D02*
D03*
X-1074802Y-473762D02*
D03*
X-1110158Y-438406D02*
D03*
X-1145513Y-403051D02*
D03*
X-1180869Y-367695D02*
D03*
X-1216224Y-332340D02*
D03*
X-1251579Y-296985D02*
D03*
X-1286934Y-261629D02*
D03*
X-1322290Y-226274D02*
D03*
X-1357645Y-190919D02*
D03*
X-1393000Y-155563D02*
D03*
D20*
X-1320800Y736600D02*
D03*
D21*
X-1252918Y804482D02*
D03*
D22*
X-1079500Y977900D02*
D03*
D23*
X-1147382Y910018D02*
D03*
D24*
X-1645200Y-2330400D02*
D03*
Y-1930400D02*
D03*
X-965200Y-2330400D02*
D03*
Y-1930400D02*
D03*
D25*
X475677Y877548D02*
X559350D01*
X-86360Y-1236980D02*
X-69827Y-1253513D01*
Y-1307264D02*
Y-1253513D01*
X-155563Y-1393000D02*
X-69827Y-1307264D01*
X-1218147Y192843D02*
X-1203384Y178080D01*
X-1201105D02*
X-1188125Y165100D01*
X-1181100D01*
X-1203384Y178080D02*
X-1201105D01*
X-1286934Y261630D02*
X-1218147Y192843D01*
X-1218147D01*
X-990600Y355600D02*
X-927100Y419100D01*
X-1034337Y311863D02*
X-990600Y355600D01*
X-1244600Y101600D02*
X-1181100Y165100D01*
X-721249Y827315D02*
X-646885Y752951D01*
X-570847D01*
X-565880Y747984D01*
X925089Y537064D02*
X925973D01*
X968736Y579828D01*
X870625Y482600D02*
X925089Y537064D01*
X863600Y482600D02*
X870625D01*
X559350Y877548D02*
X615183Y933381D01*
X451525Y901700D02*
X475677Y877548D01*
X444500Y901700D02*
X451525D01*
X81167Y1417433D02*
X131131D01*
X155564Y1393001D01*
X76200Y1422400D02*
X81167Y1417433D01*
X-1177616Y367696D02*
X-1121783Y311863D01*
X-1034337D01*
X-1180868Y367696D02*
X-1177616D01*
X-1176133Y188583D02*
X-1170494Y194221D01*
Y215900D01*
X-1251580Y296985D02*
X-1170494Y215900D01*
X-1244600Y101600D02*
Y108625D01*
X-1308100Y38100D02*
X-1244600Y-25400D01*
Y-148585D02*
Y-25400D01*
X-1322290Y-226274D02*
X-1244600Y-148585D01*
X-791344Y-614567D02*
X-741567D01*
X-736600Y-609600D01*
X-862670Y-685893D02*
X-791344Y-614567D01*
X-422170Y-952500D02*
X-381000D01*
X-509117Y-1039447D02*
X-422170Y-952500D01*
X-83225Y-1447800D02*
X-76200D01*
X-137689Y-1393336D02*
X-83225Y-1447800D01*
X457788Y-895437D02*
X495300Y-857925D01*
X457788Y-917407D02*
X544472Y-1004091D01*
X495300Y-857925D02*
Y-850900D01*
X457788Y-917407D02*
Y-895437D01*
X868567Y-550369D02*
Y-487567D01*
X863600Y-482600D02*
X868567Y-487567D01*
Y-550369D02*
X933381Y-615183D01*
X1432885Y-115679D02*
Y-93709D01*
X1421564Y-127000D02*
X1432885Y-115679D01*
X1397000Y-57825D02*
Y-50800D01*
Y-57825D02*
X1432885Y-93709D01*
D26*
X164020Y-1642300D02*
X388620Y-1866900D01*
X444500Y901700D02*
X508000Y838200D01*
X388620Y-1866900D02*
X850900D01*
D27*
X1393000Y-155563D02*
X1421564Y-127000D01*
D28*
X2500000Y1900000D02*
D03*
X-2500000Y-2100000D02*
D03*
D29*
X-2540000Y1270000D02*
D03*
Y-1370000D02*
D03*
X2540000Y1270000D02*
D03*
Y-1370000D02*
D03*
D30*
X-86360Y-1236980D02*
D03*
X-3096747Y-684804D02*
D03*
X-3116580Y-71120D02*
D03*
X-3129280Y568960D02*
D03*
X-3111500Y307340D02*
D03*
X-3004456Y334970D02*
D03*
X-3036049Y416305D02*
D03*
X-3041079Y502518D02*
D03*
X-3035300Y607060D02*
D03*
X3009419Y-551701D02*
D03*
X1512526Y-248940D02*
D03*
X3126740Y231140D02*
D03*
X1143000Y2207260D02*
D03*
X1125220Y1734820D02*
D03*
X1381760Y1488440D02*
D03*
X3086100Y-399141D02*
D03*
X3085764Y-490629D02*
D03*
X3086100Y-312781D02*
D03*
X2667000Y-322580D02*
D03*
X3060700Y-622300D02*
D03*
X3061165Y-881380D02*
D03*
X-625218Y-1120117D02*
D03*
X-621136Y-1417621D02*
D03*
X164020Y-1642300D02*
D03*
X881883Y-1004943D02*
D03*
X2590800Y558800D02*
D03*
X2326640Y1584960D02*
D03*
X2705100Y1587500D02*
D03*
X2712720Y1275080D02*
D03*
X2354580Y1280160D02*
D03*
X-960120Y-353060D02*
D03*
X1794598Y1026207D02*
D03*
X741648Y1229609D02*
D03*
X842761Y1183640D02*
D03*
X1921033Y1024831D02*
D03*
X1108693Y-883660D02*
D03*
X1028676Y-1018627D02*
D03*
X-1805165Y572765D02*
D03*
X3009900Y1054100D02*
D03*
X3136900Y901700D02*
D03*
X-1562100Y1371600D02*
D03*
X-1447800Y1485900D02*
D03*
X-787400Y1384300D02*
D03*
X-939800Y1397000D02*
D03*
X-889000Y1524000D02*
D03*
X-2540000Y-1129600D02*
D03*
Y-1054100D02*
D03*
X2552700Y990600D02*
D03*
Y1061720D02*
D03*
X2540000Y-1168400D02*
D03*
Y-1079500D02*
D03*
X-2703895Y979107D02*
D03*
X-2708097Y1107984D02*
D03*
X-2644860Y1043687D02*
D03*
X-2576461Y1112085D02*
D03*
X1176566Y-164635D02*
D03*
X2413000Y-749300D02*
D03*
X2667000D02*
D03*
X2540000D02*
D03*
X-2222500Y1854200D02*
D03*
X-2006600Y2133600D02*
D03*
X-990600Y2209800D02*
D03*
X-152400D02*
D03*
X749300D02*
D03*
X1524000Y2159000D02*
D03*
X1536700Y1346200D02*
D03*
X787400Y1752600D02*
D03*
X-3289300Y1231900D02*
D03*
Y1816100D02*
D03*
X-3378200Y838200D02*
D03*
Y-12700D02*
D03*
Y-1066800D02*
D03*
X-3289300Y-1841500D02*
D03*
X3048000Y1524000D02*
D03*
X3302000Y1016000D02*
D03*
Y0D02*
D03*
Y-1016000D02*
D03*
Y-2032000D02*
D03*
X2794000Y2032000D02*
D03*
X2032000Y1524000D02*
D03*
X2286000Y-2032000D02*
D03*
X2032000Y-2540000D02*
D03*
X1778000Y2032000D02*
D03*
X1524000Y-2540000D02*
D03*
X1016000D02*
D03*
X508000D02*
D03*
X0Y508000D02*
D03*
X254000Y0D02*
D03*
X0Y-508000D02*
D03*
X254000Y-2032000D02*
D03*
X0Y-2540000D02*
D03*
X-254000Y0D02*
D03*
X-508000Y-2540000D02*
D03*
X-1016000Y1524000D02*
D03*
Y-2540000D02*
D03*
X-1524000D02*
D03*
X-1778000Y2032000D02*
D03*
X-2032000Y-2540000D02*
D03*
X-2286000Y2032000D02*
D03*
X-2540000Y-2540000D02*
D03*
X-2794000Y2032000D02*
D03*
X-3048000Y1524000D02*
D03*
X-2336800Y1600200D02*
D03*
X-2438400D02*
D03*
X-2540000D02*
D03*
X-2641600D02*
D03*
X-2743200D02*
D03*
X-2311400Y1435100D02*
D03*
X-2781300Y1371600D02*
D03*
Y1460500D02*
D03*
X-1562100Y-1409700D02*
D03*
X-1765300Y-1231900D02*
D03*
X1765300Y-1993900D02*
D03*
X1511300Y-1981200D02*
D03*
X1752600Y-2247900D02*
D03*
X1498600D02*
D03*
X622300Y-2374900D02*
D03*
Y-2489200D02*
D03*
X-685800Y-2336800D02*
D03*
X-863600Y-2451100D02*
D03*
X-876300Y-2209800D02*
D03*
X-1917700Y-2324100D02*
D03*
X-1739900Y-2451100D02*
D03*
Y-2209800D02*
D03*
X-2768600Y-1485900D02*
D03*
Y-1574800D02*
D03*
X-2298700Y-1485900D02*
D03*
Y-1574800D02*
D03*
X-2400300Y-1701800D02*
D03*
X-2489200D02*
D03*
X-2578100D02*
D03*
X-2667000D02*
D03*
X-2654300Y-889000D02*
D03*
X-2438400D02*
D03*
Y-736600D02*
D03*
X-2667000D02*
D03*
X-2997200Y-101600D02*
D03*
X-1993900Y-177800D02*
D03*
X-2070100Y-101600D02*
D03*
X-2400300Y-139700D02*
D03*
X-2514600D02*
D03*
X-2603500D02*
D03*
X-2692400D02*
D03*
X2298700Y1384300D02*
D03*
Y1473200D02*
D03*
X2768600Y1384300D02*
D03*
Y1473200D02*
D03*
X63500Y1727200D02*
D03*
X203200Y1714500D02*
D03*
X190500Y1549400D02*
D03*
X2311400Y-1498600D02*
D03*
Y-1574800D02*
D03*
X2781300Y-1498600D02*
D03*
Y-1574800D02*
D03*
X2679700Y-1701800D02*
D03*
X2590800D02*
D03*
X2489200D02*
D03*
X2400300D02*
D03*
X3149600Y-114300D02*
D03*
X2997200Y-88900D02*
D03*
X2654300Y-76200D02*
D03*
X2565400D02*
D03*
X2476500D02*
D03*
X2387600D02*
D03*
X2095500Y-88900D02*
D03*
X1524000Y127000D02*
D03*
X1752600Y76200D02*
D03*
X0Y-1765300D02*
D03*
X-63500Y-1854200D02*
D03*
X-241300Y-1841500D02*
D03*
X139700Y457200D02*
D03*
X25400Y355600D02*
D03*
X-165100Y165100D02*
D03*
X-419100Y-25400D02*
D03*
X-203200Y-215900D02*
D03*
X0Y-38100D02*
D03*
X190500Y114300D02*
D03*
X330200Y266700D02*
D03*
X533400Y63500D02*
D03*
X368300Y-76200D02*
D03*
X165100Y-279400D02*
D03*
X-12700Y-406400D02*
D03*
X76200Y-571500D02*
D03*
X444500Y-381000D02*
D03*
X355600Y-457200D02*
D03*
X571500Y-381000D02*
D03*
X508000Y-292100D02*
D03*
X596900Y-203200D02*
D03*
X673100Y-139700D02*
D03*
X749300Y-203200D02*
D03*
X889000Y-63500D02*
D03*
X812800Y12700D02*
D03*
X889000Y101600D02*
D03*
X762000Y215900D02*
D03*
X673100Y139700D02*
D03*
X571500Y215900D02*
D03*
X495300Y304800D02*
D03*
X571500Y381000D02*
D03*
X469900Y482600D02*
D03*
X406400Y406400D02*
D03*
X317500Y482600D02*
D03*
X241300Y558800D02*
D03*
X152400Y635000D02*
D03*
X88900Y698500D02*
D03*
X152400Y800100D02*
D03*
X38100Y850900D02*
D03*
X-127000Y774700D02*
D03*
X-165100Y647700D02*
D03*
X-228600Y546100D02*
D03*
X-254000Y457200D02*
D03*
X-330200Y368300D02*
D03*
X-495300Y279400D02*
D03*
X-571500Y203200D02*
D03*
X-635000Y139700D02*
D03*
X-711200Y63500D02*
D03*
X-774700Y0D02*
D03*
X-850900Y-63500D02*
D03*
X-927100Y-127000D02*
D03*
X-1612900Y0D02*
D03*
X-1663700Y-88900D02*
D03*
X-1625600Y-165100D02*
D03*
X-1445008Y-296651D02*
D03*
X-990600Y-190500D02*
D03*
X-723900Y-203200D02*
D03*
X-635000Y-127000D02*
D03*
X-558800Y-190500D02*
D03*
X-482600Y-254000D02*
D03*
X-393700Y-317500D02*
D03*
X-317500Y-393700D02*
D03*
X-279400Y-482600D02*
D03*
X-355600Y-558800D02*
D03*
X-266700Y-685800D02*
D03*
X-101600Y-698500D02*
D03*
X-889000Y-469900D02*
D03*
X-596900Y-762000D02*
D03*
X-508000Y-850900D02*
D03*
X190500Y-609600D02*
D03*
X38100Y-977900D02*
D03*
X203200Y-1117600D02*
D03*
X292100Y-1016000D02*
D03*
X733111Y-623271D02*
D03*
X1257300Y-76200D02*
D03*
X957597Y401307D02*
D03*
X593063Y760617D02*
D03*
X-295864Y744220D02*
D03*
X-355600Y850900D02*
D03*
X-565880Y747984D02*
D03*
X-1100562Y238368D02*
D03*
X1018100Y-718820D02*
D03*
X1083136Y-796464D02*
D03*
X999478Y-906780D02*
D03*
X733372Y1009392D02*
D03*
X-1016000Y-800100D02*
D03*
X914400Y-228600D02*
D03*
Y292100D02*
D03*
X-990600Y355600D02*
D03*
X-228600Y1112483D02*
D03*
X673100Y508000D02*
D03*
X609600Y-558800D02*
D03*
X457200Y-723900D02*
D03*
X304800Y-876300D02*
D03*
X-215900Y-965200D02*
D03*
X-88900Y-1079500D02*
D03*
X-457200Y-711200D02*
D03*
X-927100Y419100D02*
D03*
X-228600Y939800D02*
D03*
X76200Y1422400D02*
D03*
X1397000Y-50800D02*
D03*
X863600Y-482600D02*
D03*
X596900Y-749300D02*
D03*
X495300Y-850900D02*
D03*
X-76200Y-1447800D02*
D03*
X-381000Y-952500D02*
D03*
X-736600Y-609600D02*
D03*
X-1308100Y38100D02*
D03*
X-1244600Y101600D02*
D03*
X-1181100Y165100D02*
D03*
X444500Y901700D02*
D03*
X508000Y838200D02*
D03*
X863600Y482600D02*
D03*
X-2095500Y1181100D02*
D03*
X-1143000Y-2070100D02*
D03*
X2667000Y1061720D02*
D03*
X2438400D02*
D03*
Y990600D02*
D03*
X2667000D02*
D03*
X3187700Y1130300D02*
D03*
X2654300Y-1168400D02*
D03*
X2438400D02*
D03*
X2654300Y-1079500D02*
D03*
X2438400D02*
D03*
X-2425700Y-1129600D02*
D03*
X-2667000D02*
D03*
X-2425700Y-1054100D02*
D03*
X-2667000D02*
D03*
X693526Y1363874D02*
D03*
X474118Y1574286D02*
D03*
X372343Y1570757D02*
D03*
X492760Y1485900D02*
D03*
X1539240Y368300D02*
D03*
X507631Y1397369D02*
D03*
X632460Y1424939D02*
D03*
X793406Y1320800D02*
D03*
X1701800Y233680D02*
D03*
X1651000Y304800D02*
D03*
X1653540Y157480D02*
D03*
X-306213Y-1484487D02*
D03*
X3128541Y732413D02*
D03*
X-1625600Y-266700D02*
D03*
X2463800Y-279400D02*
D03*
X3060700Y-795020D02*
D03*
Y-708660D02*
D03*
Y-977900D02*
D03*
Y-1066800D02*
D03*
X3035300Y876300D02*
D03*
X3073169Y798686D02*
D03*
X3133033Y638900D02*
D03*
X3124200Y546100D02*
D03*
X3046957Y507479D02*
D03*
X2654300Y419100D02*
D03*
X3124200D02*
D03*
X3126778Y332778D02*
D03*
X3022600Y190500D02*
D03*
X2604569Y177800D02*
D03*
X3126480Y129193D02*
D03*
X3113409Y43828D02*
D03*
X3086100Y-38100D02*
D03*
X-3016304Y888254D02*
D03*
X-3008446Y750430D02*
D03*
X-1659657Y719857D02*
D03*
X-1143000Y1346200D02*
D03*
X-1003300Y939800D02*
D03*
X-1244600Y673100D02*
D03*
X793983Y-1111017D02*
D03*
X906802Y-1090726D02*
D03*
X1435859Y-662977D02*
D03*
X1334665Y-755755D02*
D03*
X1228898Y-810072D02*
D03*
X1262380Y-673100D02*
D03*
X1287780Y-500380D02*
D03*
X1378417Y-595163D02*
D03*
X1590040Y-472440D02*
D03*
X1493520Y-436880D02*
D03*
X1430020Y-363220D02*
D03*
X-1663875Y-416386D02*
D03*
X-1524000Y-469900D02*
D03*
X-1603102Y-355028D02*
D03*
X-2585720Y182880D02*
D03*
X-3093720Y721360D02*
D03*
X-690127Y574726D02*
D03*
X-3009900Y-695960D02*
D03*
X-3025140Y-553720D02*
D03*
X-2984500Y-977900D02*
D03*
X-3101340Y-594360D02*
D03*
X-3086100Y-459740D02*
D03*
X-3020060Y-398780D02*
D03*
X-3078480Y-314960D02*
D03*
X-2542540Y-381000D02*
D03*
X-3075940Y-208280D02*
D03*
X-3022600Y30480D02*
D03*
X-2667467Y68113D02*
D03*
X-2613660Y368300D02*
D03*
X-2692867Y483067D02*
D03*
X-3042920Y121920D02*
D03*
X-3048000Y210820D02*
D03*
X-2402862Y602002D02*
D03*
X-3092275Y818374D02*
D03*
X-584167Y1274541D02*
D03*
X-1107440Y-1084580D02*
D03*
X-1013460Y-1076960D02*
D03*
X-1097513Y-1191493D02*
D03*
X-736600Y-1399540D02*
D03*
X-698234Y-1300746D02*
D03*
X-651043Y-1507957D02*
D03*
X-841673Y-1310640D02*
D03*
X-847113Y-1173480D02*
D03*
X-934720Y-1259840D02*
D03*
X-1595120Y-541020D02*
D03*
X-1526540Y218440D02*
D03*
X-1460500Y292100D02*
D03*
X-1401924Y355558D02*
D03*
X-595491Y500853D02*
D03*
X-604520Y586740D02*
D03*
X-515620Y589280D02*
D03*
X-801382Y988060D02*
D03*
X-871220Y937260D02*
D03*
X-712843Y1170401D02*
D03*
X-627380Y1182816D02*
D03*
X-786784Y1125220D02*
D03*
X-721377Y1031458D02*
D03*
%TF.MD5,60ac79b2a5eff0b39cf4f50dc733c48a*%
M02*
