%TF.GenerationSoftware,Altium Limited,Altium Designer,23.0.1 (38)*%
G04 Layer_Color=0*
%FSLAX45Y45*%
%MOMM*%
%TF.SameCoordinates,98E3409A-FA71-4B7D-AABF-4CEB4AF68500*%
%TF.FilePolarity,Positive*%
%TF.FileFunction,Plated,1,4,PTH,Drill*%
%TF.Part,Single*%
G01*
G75*
%TA.AperFunction,ComponentDrill*%
%ADD56C,3.50000*%
%ADD57C,1.10000*%
%TA.AperFunction,ViaDrill,NotFilled*%
%ADD58C,0.30480*%
D56*
X2500000Y1900000D02*
D03*
X-2500000Y-2100000D02*
D03*
D57*
X-2540000Y1270000D02*
D03*
Y-1370000D02*
D03*
X2540000Y1270000D02*
D03*
Y-1370000D02*
D03*
D58*
X-86360Y-1236980D02*
D03*
X-3096747Y-684804D02*
D03*
X-3116580Y-71120D02*
D03*
X-3129280Y568960D02*
D03*
X-3111500Y307340D02*
D03*
X-3004456Y334970D02*
D03*
X-3036049Y416305D02*
D03*
X-3041079Y502518D02*
D03*
X-3035300Y607060D02*
D03*
X3009419Y-551701D02*
D03*
X1512526Y-248940D02*
D03*
X3126740Y231140D02*
D03*
X1143000Y2207260D02*
D03*
X1125220Y1734820D02*
D03*
X1381760Y1488440D02*
D03*
X3086100Y-399141D02*
D03*
X3085764Y-490629D02*
D03*
X3086100Y-312781D02*
D03*
X2667000Y-322580D02*
D03*
X3060700Y-622300D02*
D03*
X3061165Y-881380D02*
D03*
X-625218Y-1120117D02*
D03*
X-621136Y-1417621D02*
D03*
X164020Y-1642300D02*
D03*
X881883Y-1004943D02*
D03*
X2590800Y558800D02*
D03*
X2326640Y1584960D02*
D03*
X2705100Y1587500D02*
D03*
X2712720Y1275080D02*
D03*
X2354580Y1280160D02*
D03*
X-960120Y-353060D02*
D03*
X1794598Y1026207D02*
D03*
X741648Y1229609D02*
D03*
X842761Y1183640D02*
D03*
X1921033Y1024831D02*
D03*
X1108693Y-883660D02*
D03*
X1028676Y-1018627D02*
D03*
X-1805165Y572765D02*
D03*
X3009900Y1054100D02*
D03*
X3136900Y901700D02*
D03*
X-1562100Y1371600D02*
D03*
X-1447800Y1485900D02*
D03*
X-787400Y1384300D02*
D03*
X-939800Y1397000D02*
D03*
X-889000Y1524000D02*
D03*
X-2540000Y-1129600D02*
D03*
Y-1054100D02*
D03*
X2552700Y990600D02*
D03*
Y1061720D02*
D03*
X2540000Y-1168400D02*
D03*
Y-1079500D02*
D03*
X-2703895Y979107D02*
D03*
X-2708097Y1107984D02*
D03*
X-2644860Y1043687D02*
D03*
X-2576461Y1112085D02*
D03*
X1176566Y-164635D02*
D03*
X2413000Y-749300D02*
D03*
X2667000D02*
D03*
X2540000D02*
D03*
X-2222500Y1854200D02*
D03*
X-2006600Y2133600D02*
D03*
X-990600Y2209800D02*
D03*
X-152400D02*
D03*
X749300D02*
D03*
X1524000Y2159000D02*
D03*
X1536700Y1346200D02*
D03*
X787400Y1752600D02*
D03*
X-3289300Y1231900D02*
D03*
Y1816100D02*
D03*
X-3378200Y838200D02*
D03*
Y-12700D02*
D03*
Y-1066800D02*
D03*
X-3289300Y-1841500D02*
D03*
X3048000Y1524000D02*
D03*
X3302000Y1016000D02*
D03*
Y0D02*
D03*
Y-1016000D02*
D03*
Y-2032000D02*
D03*
X2794000Y2032000D02*
D03*
X2032000Y1524000D02*
D03*
X2286000Y-2032000D02*
D03*
X2032000Y-2540000D02*
D03*
X1778000Y2032000D02*
D03*
X1524000Y-2540000D02*
D03*
X1016000D02*
D03*
X508000D02*
D03*
X0Y508000D02*
D03*
X254000Y0D02*
D03*
X0Y-508000D02*
D03*
X254000Y-2032000D02*
D03*
X0Y-2540000D02*
D03*
X-254000Y0D02*
D03*
X-508000Y-2540000D02*
D03*
X-1016000Y1524000D02*
D03*
Y-2540000D02*
D03*
X-1524000D02*
D03*
X-1778000Y2032000D02*
D03*
X-2032000Y-2540000D02*
D03*
X-2286000Y2032000D02*
D03*
X-2540000Y-2540000D02*
D03*
X-2794000Y2032000D02*
D03*
X-3048000Y1524000D02*
D03*
X-2336800Y1600200D02*
D03*
X-2438400D02*
D03*
X-2540000D02*
D03*
X-2641600D02*
D03*
X-2743200D02*
D03*
X-2311400Y1435100D02*
D03*
X-2781300Y1371600D02*
D03*
Y1460500D02*
D03*
X-1562100Y-1409700D02*
D03*
X-1765300Y-1231900D02*
D03*
X1765300Y-1993900D02*
D03*
X1511300Y-1981200D02*
D03*
X1752600Y-2247900D02*
D03*
X1498600D02*
D03*
X622300Y-2374900D02*
D03*
Y-2489200D02*
D03*
X-685800Y-2336800D02*
D03*
X-863600Y-2451100D02*
D03*
X-876300Y-2209800D02*
D03*
X-1917700Y-2324100D02*
D03*
X-1739900Y-2451100D02*
D03*
Y-2209800D02*
D03*
X-2768600Y-1485900D02*
D03*
Y-1574800D02*
D03*
X-2298700Y-1485900D02*
D03*
Y-1574800D02*
D03*
X-2400300Y-1701800D02*
D03*
X-2489200D02*
D03*
X-2578100D02*
D03*
X-2667000D02*
D03*
X-2654300Y-889000D02*
D03*
X-2438400D02*
D03*
Y-736600D02*
D03*
X-2667000D02*
D03*
X-2997200Y-101600D02*
D03*
X-1993900Y-177800D02*
D03*
X-2070100Y-101600D02*
D03*
X-2400300Y-139700D02*
D03*
X-2514600D02*
D03*
X-2603500D02*
D03*
X-2692400D02*
D03*
X2298700Y1384300D02*
D03*
Y1473200D02*
D03*
X2768600Y1384300D02*
D03*
Y1473200D02*
D03*
X63500Y1727200D02*
D03*
X203200Y1714500D02*
D03*
X190500Y1549400D02*
D03*
X2311400Y-1498600D02*
D03*
Y-1574800D02*
D03*
X2781300Y-1498600D02*
D03*
Y-1574800D02*
D03*
X2679700Y-1701800D02*
D03*
X2590800D02*
D03*
X2489200D02*
D03*
X2400300D02*
D03*
X3149600Y-114300D02*
D03*
X2997200Y-88900D02*
D03*
X2654300Y-76200D02*
D03*
X2565400D02*
D03*
X2476500D02*
D03*
X2387600D02*
D03*
X2095500Y-88900D02*
D03*
X1524000Y127000D02*
D03*
X1752600Y76200D02*
D03*
X0Y-1765300D02*
D03*
X-63500Y-1854200D02*
D03*
X-241300Y-1841500D02*
D03*
X139700Y457200D02*
D03*
X25400Y355600D02*
D03*
X-165100Y165100D02*
D03*
X-419100Y-25400D02*
D03*
X-203200Y-215900D02*
D03*
X0Y-38100D02*
D03*
X190500Y114300D02*
D03*
X330200Y266700D02*
D03*
X533400Y63500D02*
D03*
X368300Y-76200D02*
D03*
X165100Y-279400D02*
D03*
X-12700Y-406400D02*
D03*
X76200Y-571500D02*
D03*
X444500Y-381000D02*
D03*
X355600Y-457200D02*
D03*
X571500Y-381000D02*
D03*
X508000Y-292100D02*
D03*
X596900Y-203200D02*
D03*
X673100Y-139700D02*
D03*
X749300Y-203200D02*
D03*
X889000Y-63500D02*
D03*
X812800Y12700D02*
D03*
X889000Y101600D02*
D03*
X762000Y215900D02*
D03*
X673100Y139700D02*
D03*
X571500Y215900D02*
D03*
X495300Y304800D02*
D03*
X571500Y381000D02*
D03*
X469900Y482600D02*
D03*
X406400Y406400D02*
D03*
X317500Y482600D02*
D03*
X241300Y558800D02*
D03*
X152400Y635000D02*
D03*
X88900Y698500D02*
D03*
X152400Y800100D02*
D03*
X38100Y850900D02*
D03*
X-127000Y774700D02*
D03*
X-165100Y647700D02*
D03*
X-228600Y546100D02*
D03*
X-254000Y457200D02*
D03*
X-330200Y368300D02*
D03*
X-495300Y279400D02*
D03*
X-571500Y203200D02*
D03*
X-635000Y139700D02*
D03*
X-711200Y63500D02*
D03*
X-774700Y0D02*
D03*
X-850900Y-63500D02*
D03*
X-927100Y-127000D02*
D03*
X-1612900Y0D02*
D03*
X-1663700Y-88900D02*
D03*
X-1625600Y-165100D02*
D03*
X-1445008Y-296651D02*
D03*
X-990600Y-190500D02*
D03*
X-723900Y-203200D02*
D03*
X-635000Y-127000D02*
D03*
X-558800Y-190500D02*
D03*
X-482600Y-254000D02*
D03*
X-393700Y-317500D02*
D03*
X-317500Y-393700D02*
D03*
X-279400Y-482600D02*
D03*
X-355600Y-558800D02*
D03*
X-266700Y-685800D02*
D03*
X-101600Y-698500D02*
D03*
X-889000Y-469900D02*
D03*
X-596900Y-762000D02*
D03*
X-508000Y-850900D02*
D03*
X190500Y-609600D02*
D03*
X38100Y-977900D02*
D03*
X203200Y-1117600D02*
D03*
X292100Y-1016000D02*
D03*
X733111Y-623271D02*
D03*
X1257300Y-76200D02*
D03*
X957597Y401307D02*
D03*
X593063Y760617D02*
D03*
X-295864Y744220D02*
D03*
X-355600Y850900D02*
D03*
X-565880Y747984D02*
D03*
X-1100562Y238368D02*
D03*
X1018100Y-718820D02*
D03*
X1083136Y-796464D02*
D03*
X999478Y-906780D02*
D03*
X733372Y1009392D02*
D03*
X-1016000Y-800100D02*
D03*
X914400Y-228600D02*
D03*
Y292100D02*
D03*
X-990600Y355600D02*
D03*
X-228600Y1112483D02*
D03*
X673100Y508000D02*
D03*
X609600Y-558800D02*
D03*
X457200Y-723900D02*
D03*
X304800Y-876300D02*
D03*
X-215900Y-965200D02*
D03*
X-88900Y-1079500D02*
D03*
X-457200Y-711200D02*
D03*
X-927100Y419100D02*
D03*
X-228600Y939800D02*
D03*
X76200Y1422400D02*
D03*
X1397000Y-50800D02*
D03*
X863600Y-482600D02*
D03*
X596900Y-749300D02*
D03*
X495300Y-850900D02*
D03*
X-76200Y-1447800D02*
D03*
X-381000Y-952500D02*
D03*
X-736600Y-609600D02*
D03*
X-1308100Y38100D02*
D03*
X-1244600Y101600D02*
D03*
X-1181100Y165100D02*
D03*
X444500Y901700D02*
D03*
X508000Y838200D02*
D03*
X863600Y482600D02*
D03*
X-2095500Y1181100D02*
D03*
X-1143000Y-2070100D02*
D03*
X2667000Y1061720D02*
D03*
X2438400D02*
D03*
Y990600D02*
D03*
X2667000D02*
D03*
X3187700Y1130300D02*
D03*
X2654300Y-1168400D02*
D03*
X2438400D02*
D03*
X2654300Y-1079500D02*
D03*
X2438400D02*
D03*
X-2425700Y-1129600D02*
D03*
X-2667000D02*
D03*
X-2425700Y-1054100D02*
D03*
X-2667000D02*
D03*
X693526Y1363874D02*
D03*
X474118Y1574286D02*
D03*
X372343Y1570757D02*
D03*
X492760Y1485900D02*
D03*
X1539240Y368300D02*
D03*
X507631Y1397369D02*
D03*
X632460Y1424939D02*
D03*
X793406Y1320800D02*
D03*
X1701800Y233680D02*
D03*
X1651000Y304800D02*
D03*
X1653540Y157480D02*
D03*
X-306213Y-1484487D02*
D03*
X3128541Y732413D02*
D03*
X-1625600Y-266700D02*
D03*
X2463800Y-279400D02*
D03*
X3060700Y-795020D02*
D03*
Y-708660D02*
D03*
Y-977900D02*
D03*
Y-1066800D02*
D03*
X3035300Y876300D02*
D03*
X3073169Y798686D02*
D03*
X3133033Y638900D02*
D03*
X3124200Y546100D02*
D03*
X3046957Y507479D02*
D03*
X2654300Y419100D02*
D03*
X3124200D02*
D03*
X3126778Y332778D02*
D03*
X3022600Y190500D02*
D03*
X2604569Y177800D02*
D03*
X3126480Y129193D02*
D03*
X3113409Y43828D02*
D03*
X3086100Y-38100D02*
D03*
X-3016304Y888254D02*
D03*
X-3008446Y750430D02*
D03*
X-1659657Y719857D02*
D03*
X-1143000Y1346200D02*
D03*
X-1003300Y939800D02*
D03*
X-1244600Y673100D02*
D03*
X793983Y-1111017D02*
D03*
X906802Y-1090726D02*
D03*
X1435859Y-662977D02*
D03*
X1334665Y-755755D02*
D03*
X1228898Y-810072D02*
D03*
X1262380Y-673100D02*
D03*
X1287780Y-500380D02*
D03*
X1378417Y-595163D02*
D03*
X1590040Y-472440D02*
D03*
X1493520Y-436880D02*
D03*
X1430020Y-363220D02*
D03*
X-1663875Y-416386D02*
D03*
X-1524000Y-469900D02*
D03*
X-1603102Y-355028D02*
D03*
X-2585720Y182880D02*
D03*
X-3093720Y721360D02*
D03*
X-690127Y574726D02*
D03*
X-3009900Y-695960D02*
D03*
X-3025140Y-553720D02*
D03*
X-2984500Y-977900D02*
D03*
X-3101340Y-594360D02*
D03*
X-3086100Y-459740D02*
D03*
X-3020060Y-398780D02*
D03*
X-3078480Y-314960D02*
D03*
X-2542540Y-381000D02*
D03*
X-3075940Y-208280D02*
D03*
X-3022600Y30480D02*
D03*
X-2667467Y68113D02*
D03*
X-2613660Y368300D02*
D03*
X-2692867Y483067D02*
D03*
X-3042920Y121920D02*
D03*
X-3048000Y210820D02*
D03*
X-2402862Y602002D02*
D03*
X-3092275Y818374D02*
D03*
X-584167Y1274541D02*
D03*
X-1107440Y-1084580D02*
D03*
X-1013460Y-1076960D02*
D03*
X-1097513Y-1191493D02*
D03*
X-736600Y-1399540D02*
D03*
X-698234Y-1300746D02*
D03*
X-651043Y-1507957D02*
D03*
X-841673Y-1310640D02*
D03*
X-847113Y-1173480D02*
D03*
X-934720Y-1259840D02*
D03*
X-1595120Y-541020D02*
D03*
X-1526540Y218440D02*
D03*
X-1460500Y292100D02*
D03*
X-1401924Y355558D02*
D03*
X-595491Y500853D02*
D03*
X-604520Y586740D02*
D03*
X-515620Y589280D02*
D03*
X-801382Y988060D02*
D03*
X-871220Y937260D02*
D03*
X-712843Y1170401D02*
D03*
X-627380Y1182816D02*
D03*
X-786784Y1125220D02*
D03*
X-721377Y1031458D02*
D03*
%TF.MD5,97a4bfe29eed4e57b1cce66319a857df*%
M02*
