%TF.GenerationSoftware,Altium Limited,Altium Designer,23.0.1 (38)*%
G04 Layer_Physical_Order=3*
G04 Layer_Color=16440176*
%FSLAX45Y45*%
%MOMM*%
%TF.SameCoordinates,98E3409A-FA71-4B7D-AABF-4CEB4AF68500*%
%TF.FilePolarity,Positive*%
%TF.FileFunction,Copper,L3,Inr,Signal*%
%TF.Part,Single*%
G01*
G75*
%TA.AperFunction,ComponentPad*%
%ADD28C,5.00000*%
%ADD29C,1.10000*%
%TA.AperFunction,ViaPad*%
%ADD30C,0.60960*%
G36*
X3402687Y2029423D02*
X3413984Y2025423D01*
X3434968Y2013842D01*
X3453778Y1998988D01*
X3469909Y1981262D01*
X3482929Y1961139D01*
X3492487Y1939160D01*
X3498326Y1915915D01*
X3500261Y1892390D01*
X3499311Y1880118D01*
X3499308Y1880084D01*
X3500000Y1867670D01*
X3500000Y-1855968D01*
X3502020D01*
X3502218Y-1873979D01*
X3497453Y-1909687D01*
X3487626Y-1944345D01*
X3472939Y-1977239D01*
X3453694Y-2007692D01*
X3430289Y-2035077D01*
X3403204Y-2058829D01*
X3372999Y-2078460D01*
X3356646Y-2086012D01*
X3356646Y-2086012D01*
X3356646Y-2086013D01*
X2500000Y-2600000D01*
X-2500000D01*
X-3405191Y-2065299D01*
X-3416906Y-2058186D01*
X-3438148Y-2040864D01*
X-3456796Y-2020776D01*
X-3472494Y-1998306D01*
X-3484941Y-1973886D01*
X-3493899Y-1947981D01*
X-3499196Y-1921088D01*
X-3500732Y-1893721D01*
X-3499604Y-1880062D01*
X-3500000D01*
X-3500000Y1879600D01*
X-3499189Y1879664D01*
X-3500120Y1891538D01*
X-3498046Y1915269D01*
X-3492092Y1938335D01*
X-3482421Y1960106D01*
X-3469297Y1979987D01*
X-3453079Y1997435D01*
X-3434210Y2011975D01*
X-3415786Y2021829D01*
X-3411733Y2023599D01*
X-3401919Y2027021D01*
X-3389908Y2031109D01*
X-2500000Y2300000D01*
X2500000D01*
X3402687Y2029423D01*
D02*
G37*
%LPC*%
G36*
X485234Y1630166D02*
X463003D01*
X442465Y1621659D01*
X429763Y1608957D01*
X425475Y1606163D01*
X413933Y1608193D01*
X403997Y1618129D01*
X383458Y1626637D01*
X361228D01*
X340690Y1618129D01*
X324970Y1602410D01*
X316463Y1581872D01*
Y1559641D01*
X324970Y1539103D01*
X340690Y1523384D01*
X361228Y1514877D01*
X383458D01*
X403997Y1523384D01*
X416699Y1536086D01*
X420986Y1538880D01*
X432529Y1536849D01*
X442465Y1526913D01*
X443621Y1526434D01*
X445387Y1517553D01*
X436880Y1497015D01*
Y1474785D01*
X445387Y1454247D01*
X461106Y1438527D01*
X462543Y1431307D01*
X460258Y1429023D01*
X451751Y1408484D01*
Y1386254D01*
X460258Y1365716D01*
X475977Y1349996D01*
X496515Y1341489D01*
X518746D01*
X539284Y1349996D01*
X555003Y1365716D01*
X563511Y1386254D01*
Y1408484D01*
X555003Y1429023D01*
X539284Y1444742D01*
X537848Y1451962D01*
X540133Y1454247D01*
X548640Y1474785D01*
Y1497015D01*
X540133Y1517553D01*
X524413Y1533273D01*
X523258Y1533752D01*
X521491Y1542633D01*
X529998Y1563171D01*
Y1585401D01*
X521491Y1605939D01*
X505772Y1621659D01*
X485234Y1630166D01*
D02*
G37*
G36*
X-573052Y1330421D02*
X-595283D01*
X-615821Y1321914D01*
X-631540Y1306194D01*
X-640047Y1285656D01*
Y1263425D01*
X-635065Y1251396D01*
X-638359Y1239202D01*
X-641917Y1237279D01*
X-659033Y1230189D01*
X-674753Y1214470D01*
X-680673Y1217256D01*
X-681190Y1217774D01*
X-701728Y1226281D01*
X-723958D01*
X-744497Y1217774D01*
X-760216Y1202054D01*
X-768723Y1181516D01*
X-771766Y1179483D01*
X-775669Y1181100D01*
X-797899D01*
X-818437Y1172593D01*
X-834157Y1156873D01*
X-842664Y1136335D01*
Y1114105D01*
X-834157Y1093567D01*
X-818437Y1077847D01*
X-797899Y1069340D01*
X-783330D01*
X-774473Y1058562D01*
X-776167Y1049719D01*
X-788990Y1043411D01*
X-790266Y1043940D01*
X-812497D01*
X-833035Y1035433D01*
X-848754Y1019713D01*
X-854952Y1004752D01*
X-860105Y993140D01*
X-882335D01*
X-902873Y984633D01*
X-918593Y968913D01*
X-927100Y948375D01*
Y926145D01*
X-918593Y905607D01*
X-902873Y889887D01*
X-882335Y881380D01*
X-860105D01*
X-839567Y889887D01*
X-823847Y905607D01*
X-817650Y920568D01*
X-812497Y932180D01*
X-790266D01*
X-769728Y940687D01*
X-754009Y956407D01*
X-748940Y968644D01*
X-733768Y976107D01*
X-732492Y975578D01*
X-710262D01*
X-689724Y984085D01*
X-674004Y999804D01*
X-665497Y1020343D01*
Y1042573D01*
X-674004Y1063111D01*
X-689724Y1078831D01*
X-710262Y1087338D01*
X-729046D01*
X-735784Y1095665D01*
X-737131Y1099071D01*
X-730904Y1114104D01*
X-727861Y1116137D01*
X-723958Y1114521D01*
X-701728D01*
X-681190Y1123028D01*
X-665470Y1138747D01*
X-659551Y1135961D01*
X-659033Y1135443D01*
X-638495Y1126936D01*
X-616265D01*
X-595727Y1135443D01*
X-580007Y1151163D01*
X-571500Y1171701D01*
Y1193932D01*
X-576483Y1205961D01*
X-573189Y1218155D01*
X-569630Y1220078D01*
X-552514Y1227168D01*
X-536795Y1242887D01*
X-528287Y1263425D01*
Y1285656D01*
X-536795Y1306194D01*
X-552514Y1321914D01*
X-573052Y1330421D01*
D02*
G37*
G36*
X643575Y1480819D02*
X621344D01*
X600806Y1472312D01*
X585087Y1456593D01*
X576580Y1436055D01*
Y1413824D01*
X585087Y1393286D01*
X600806Y1377567D01*
X621344Y1369059D01*
X637646D01*
Y1352759D01*
X646153Y1332221D01*
X661872Y1316501D01*
X682410Y1307994D01*
X704641D01*
X725179Y1316501D01*
X725793Y1317115D01*
X737526Y1312255D01*
Y1309685D01*
X742288Y1298189D01*
X733802Y1285489D01*
X730533D01*
X709995Y1276982D01*
X694275Y1261263D01*
X685768Y1240724D01*
Y1218494D01*
X694275Y1197956D01*
X709995Y1182236D01*
X730533Y1173729D01*
X752764D01*
X773302Y1182236D01*
X774181Y1183116D01*
X786881Y1177855D01*
Y1172525D01*
X795388Y1151987D01*
X811108Y1136267D01*
X831646Y1127760D01*
X853876D01*
X874415Y1136267D01*
X890134Y1151987D01*
X898641Y1172525D01*
Y1194755D01*
X890134Y1215293D01*
X874415Y1231013D01*
X853876Y1239520D01*
X831646D01*
X811108Y1231013D01*
X810228Y1230133D01*
X797528Y1235394D01*
Y1240724D01*
X792767Y1252220D01*
X801253Y1264920D01*
X804522D01*
X825060Y1273427D01*
X840779Y1289147D01*
X849286Y1309685D01*
Y1331915D01*
X840779Y1352453D01*
X825060Y1368173D01*
X804522Y1376680D01*
X782291D01*
X761753Y1368173D01*
X761139Y1367559D01*
X749406Y1372419D01*
Y1374989D01*
X740898Y1395528D01*
X725179Y1411247D01*
X704641Y1419754D01*
X688340D01*
Y1436055D01*
X679833Y1456593D01*
X664113Y1472312D01*
X643575Y1480819D01*
D02*
G37*
G36*
X3198815Y1186180D02*
X3176585D01*
X3156047Y1177673D01*
X3140327Y1161953D01*
X3131820Y1141415D01*
Y1119185D01*
X3140327Y1098647D01*
X3156047Y1082927D01*
X3176585Y1074420D01*
X3198815D01*
X3219353Y1082927D01*
X3235073Y1098647D01*
X3243580Y1119185D01*
Y1141415D01*
X3235073Y1161953D01*
X3219353Y1177673D01*
X3198815Y1186180D01*
D02*
G37*
G36*
X1320800Y2134098D02*
X-1498600D01*
X-1508511Y2132126D01*
X-1516912Y2126512D01*
X-2449127Y1194298D01*
X-2484921D01*
X-2488459Y1201339D01*
X-2489300Y1206998D01*
X-2475664Y1220633D01*
X-2465079Y1238967D01*
X-2459600Y1259415D01*
Y1280585D01*
X-2465079Y1301033D01*
X-2475664Y1319367D01*
X-2490633Y1334336D01*
X-2508967Y1344921D01*
X-2529415Y1350400D01*
X-2550585D01*
X-2571033Y1344921D01*
X-2589367Y1334336D01*
X-2604336Y1319367D01*
X-2614921Y1301033D01*
X-2620400Y1280585D01*
Y1259415D01*
X-2614921Y1238967D01*
X-2604336Y1220633D01*
X-2590700Y1206998D01*
X-2591541Y1201339D01*
X-2595079Y1194298D01*
X-2921000D01*
X-2930911Y1192326D01*
X-2939312Y1186712D01*
X-2952012Y1174012D01*
X-2957626Y1165611D01*
X-2959598Y1155700D01*
Y928034D01*
X-2972298Y923273D01*
X-2984651Y935627D01*
X-3005189Y944134D01*
X-3027420D01*
X-3047958Y935627D01*
X-3063677Y919907D01*
X-3072184Y899369D01*
Y884283D01*
X-3080381Y875123D01*
X-3083918Y874254D01*
X-3103390D01*
X-3123928Y865747D01*
X-3139648Y850027D01*
X-3148155Y829489D01*
Y807258D01*
X-3139648Y786720D01*
X-3131813Y778886D01*
X-3125624Y769128D01*
X-3131813Y762293D01*
X-3141093Y753013D01*
X-3149600Y732475D01*
Y710245D01*
X-3141093Y689707D01*
X-3125373Y673987D01*
X-3104835Y665480D01*
X-3082605D01*
X-3062067Y673987D01*
X-3046347Y689707D01*
X-3045467Y691831D01*
X-3028979Y698450D01*
X-3019561Y694550D01*
X-2997330D01*
X-2976792Y703057D01*
X-2961073Y718776D01*
X-2952566Y739314D01*
Y761545D01*
X-2961073Y782083D01*
X-2976792Y797802D01*
X-2997330Y806310D01*
X-3019561D01*
X-3023067Y804857D01*
X-3033522Y811930D01*
X-3034298Y824688D01*
X-3028198Y831505D01*
X-3024661Y832374D01*
X-3005189D01*
X-2984651Y840881D01*
X-2968932Y856601D01*
X-2960424Y877139D01*
Y886539D01*
X-2947724Y891800D01*
X-2939312Y883388D01*
X-2930911Y877774D01*
X-2921000Y875802D01*
X-2171700D01*
X-2161789Y877774D01*
X-2153388Y883388D01*
X-2147774Y891789D01*
X-2145802Y901700D01*
Y903673D01*
X-2127988Y921488D01*
X-2122374Y929889D01*
X-2120402Y939800D01*
Y1119501D01*
X-2109843Y1126557D01*
X-2106615Y1125220D01*
X-2084385D01*
X-2063847Y1133727D01*
X-2048127Y1149447D01*
X-2039620Y1169985D01*
Y1192215D01*
X-2048127Y1212753D01*
X-2063847Y1228473D01*
X-2070919Y1231402D01*
X-2068393Y1244102D01*
X-2019300D01*
X-2009389Y1246074D01*
X-2000988Y1251688D01*
X-1487873Y1764802D01*
X-455227D01*
X-424712Y1734288D01*
X-228049Y1537624D01*
X-216269Y1419823D01*
X-216131Y1419372D01*
X-216160Y1418901D01*
X-181128Y1161998D01*
X-193133Y1156043D01*
X-196947Y1159856D01*
X-217485Y1168363D01*
X-239715D01*
X-260253Y1159856D01*
X-275973Y1144137D01*
X-284480Y1123598D01*
Y1101368D01*
X-275973Y1080830D01*
X-260253Y1065110D01*
X-241742Y1057443D01*
X-236355Y1044870D01*
X-252027Y1029198D01*
X-406400D01*
X-416311Y1027226D01*
X-424712Y1021612D01*
X-475512Y970812D01*
X-481126Y962411D01*
X-483098Y952500D01*
Y861627D01*
X-493327Y851398D01*
X-609600D01*
X-619511Y849426D01*
X-627912Y843812D01*
X-653312Y818412D01*
X-658926Y810011D01*
X-660898Y800100D01*
Y749300D01*
X-658926Y739389D01*
X-653312Y730988D01*
X-568287Y645962D01*
X-575481Y635196D01*
X-593405Y642620D01*
X-615635D01*
X-636173Y634113D01*
X-651893Y618394D01*
X-657678Y621303D01*
X-658473Y622098D01*
X-679011Y630606D01*
X-701242D01*
X-721780Y622098D01*
X-737499Y606379D01*
X-746007Y585841D01*
Y563610D01*
X-737499Y543072D01*
X-721780Y527353D01*
X-701242Y518846D01*
X-679011D01*
X-658801Y527217D01*
X-657519Y526643D01*
X-648170Y519695D01*
X-651371Y511968D01*
Y489738D01*
X-647734Y480957D01*
X-654790Y470398D01*
X-763973D01*
X-794488Y500912D01*
X-802889Y506526D01*
X-812800Y508498D01*
X-939800D01*
X-949711Y506526D01*
X-958112Y500912D01*
X-1085112Y373912D01*
X-1086205Y372277D01*
X-1087658Y370950D01*
X-1088987Y368114D01*
X-1090726Y365511D01*
X-1091110Y363581D01*
X-1091945Y361799D01*
X-1092087Y358671D01*
X-1092698Y355600D01*
X-1092314Y353670D01*
X-1092403Y351705D01*
X-1091337Y348761D01*
X-1090726Y345689D01*
X-1089633Y344053D01*
X-1088964Y342204D01*
X-1054737Y285578D01*
X-1056846Y224767D01*
X-1077916Y203697D01*
X-1119573Y203698D01*
X-1251688Y335812D01*
X-1260089Y341426D01*
X-1270000Y343398D01*
X-1308100D01*
X-1318011Y341426D01*
X-1326412Y335812D01*
X-1342561Y319664D01*
X-1353327Y326858D01*
X-1346044Y344442D01*
Y366673D01*
X-1354551Y387211D01*
X-1370270Y402930D01*
X-1390808Y411438D01*
X-1413039D01*
X-1433577Y402930D01*
X-1449297Y387211D01*
X-1457804Y366673D01*
Y347980D01*
X-1471615D01*
X-1492153Y339473D01*
X-1507873Y323753D01*
X-1516380Y303215D01*
Y280985D01*
X-1527366Y274320D01*
X-1537655D01*
X-1558193Y265813D01*
X-1573913Y250093D01*
X-1582420Y229555D01*
Y207325D01*
X-1573913Y186787D01*
X-1558193Y171067D01*
X-1537655Y162560D01*
X-1517625D01*
X-1513336Y156472D01*
X-1511398Y150827D01*
X-1555012Y107212D01*
X-1560626Y98811D01*
X-1562598Y88900D01*
Y25400D01*
X-1560626Y15489D01*
X-1555012Y7088D01*
X-1313712Y-234212D01*
X-1135912Y-412012D01*
X-1127511Y-417626D01*
X-1117600Y-419598D01*
X-887027D01*
X-800598Y-506027D01*
Y-522673D01*
X-856512Y-578588D01*
X-862126Y-586989D01*
X-864098Y-596900D01*
Y-622300D01*
X-862126Y-632211D01*
X-856512Y-640612D01*
X-793012Y-704112D01*
X-784611Y-709726D01*
X-774700Y-711698D01*
X-582227D01*
X-457698Y-836227D01*
Y-965201D01*
X-455726Y-975111D01*
X-450112Y-983513D01*
X-373912Y-1059712D01*
X-365511Y-1065326D01*
X-355600Y-1067298D01*
X-315527D01*
X-203698Y-1179127D01*
Y-1219200D01*
X-201726Y-1229111D01*
X-196112Y-1237512D01*
X-151736Y-1281889D01*
X-144709Y-1345127D01*
X-185225Y-1405900D01*
X-242943Y-1463618D01*
X-255400Y-1461141D01*
X-258840Y-1452834D01*
X-274560Y-1437114D01*
X-295098Y-1428607D01*
X-317329D01*
X-337867Y-1437114D01*
X-353586Y-1452834D01*
X-362093Y-1473372D01*
Y-1495602D01*
X-353586Y-1516140D01*
X-337867Y-1531860D01*
X-337293Y-1545844D01*
X-339803Y-1548902D01*
X-596369D01*
X-602259Y-1536202D01*
X-595163Y-1519072D01*
Y-1496841D01*
X-600731Y-1483400D01*
X-595778Y-1467602D01*
X-589482Y-1464994D01*
X-573763Y-1449275D01*
X-565256Y-1428737D01*
Y-1406506D01*
X-573763Y-1385968D01*
X-589482Y-1370249D01*
X-610020Y-1361741D01*
X-632251D01*
X-652789Y-1370249D01*
X-668508Y-1385968D01*
X-668773Y-1386607D01*
X-670660Y-1386894D01*
X-681996Y-1385343D01*
X-688631Y-1369326D01*
X-688160Y-1365375D01*
X-683872Y-1355282D01*
X-666580Y-1348119D01*
X-650861Y-1332400D01*
X-642354Y-1311862D01*
Y-1289631D01*
X-650861Y-1269093D01*
X-666580Y-1253374D01*
X-687119Y-1244866D01*
X-709349D01*
X-729887Y-1253374D01*
X-745607Y-1269093D01*
X-754114Y-1289631D01*
Y-1311862D01*
X-746203Y-1330960D01*
X-746674Y-1334911D01*
X-750962Y-1345005D01*
X-768253Y-1352167D01*
X-783973Y-1367887D01*
X-792480Y-1388425D01*
Y-1410655D01*
X-783973Y-1431193D01*
X-768253Y-1446913D01*
X-747715Y-1455420D01*
X-725485D01*
X-704947Y-1446913D01*
X-689227Y-1431193D01*
X-688963Y-1430555D01*
X-687076Y-1430268D01*
X-675739Y-1431818D01*
X-668508Y-1449275D01*
X-669686Y-1455194D01*
X-682697Y-1460584D01*
X-698416Y-1476303D01*
X-706923Y-1496841D01*
Y-1519072D01*
X-699828Y-1536202D01*
X-705717Y-1548902D01*
X-1564073D01*
X-2127988Y-984988D01*
X-2136389Y-979374D01*
X-2146300Y-977402D01*
X-2921000D01*
X-2928620Y-971149D01*
Y-966785D01*
X-2937127Y-946247D01*
X-2952847Y-930527D01*
X-2973385Y-922020D01*
X-2995615D01*
X-3016153Y-930527D01*
X-3031873Y-946247D01*
X-3040380Y-966785D01*
Y-989015D01*
X-3031873Y-1009553D01*
X-3016153Y-1025273D01*
X-2995615Y-1033780D01*
X-2991251D01*
X-2984998Y-1041400D01*
Y-1219200D01*
X-2983026Y-1229111D01*
X-2977412Y-1237512D01*
X-2939312Y-1275612D01*
X-2930911Y-1281226D01*
X-2921000Y-1283198D01*
X-2580232D01*
X-2578998Y-1285013D01*
X-2582865Y-1301910D01*
X-2589367Y-1305664D01*
X-2604336Y-1320633D01*
X-2614921Y-1338967D01*
X-2620400Y-1359415D01*
Y-1380585D01*
X-2614921Y-1401033D01*
X-2604336Y-1419367D01*
X-2589367Y-1434336D01*
X-2571033Y-1444921D01*
X-2550585Y-1450400D01*
X-2529415D01*
X-2508967Y-1444921D01*
X-2490633Y-1434336D01*
X-2475664Y-1419367D01*
X-2465079Y-1401033D01*
X-2459600Y-1380585D01*
Y-1359415D01*
X-2465079Y-1338967D01*
X-2475664Y-1320633D01*
X-2490633Y-1305664D01*
X-2497135Y-1301910D01*
X-2501002Y-1285013D01*
X-2499768Y-1283198D01*
X-2360227D01*
X-1885212Y-1758212D01*
X-1876811Y-1763826D01*
X-1866900Y-1765798D01*
X-139700D01*
X-129789Y-1763826D01*
X-121388Y-1758212D01*
X-40073Y-1676898D01*
X40073D01*
X121388Y-1758212D01*
X129789Y-1763826D01*
X139700Y-1765798D01*
X1866900D01*
X1876811Y-1763826D01*
X1885212Y-1758212D01*
X2347527Y-1295898D01*
X2483551D01*
X2487700Y-1308598D01*
X2475664Y-1320633D01*
X2465079Y-1338967D01*
X2459600Y-1359415D01*
Y-1380585D01*
X2465079Y-1401033D01*
X2475664Y-1419367D01*
X2490633Y-1434336D01*
X2508967Y-1444921D01*
X2529415Y-1450400D01*
X2550585D01*
X2571033Y-1444921D01*
X2589367Y-1434336D01*
X2604336Y-1419367D01*
X2614921Y-1401033D01*
X2620400Y-1380585D01*
Y-1359415D01*
X2614921Y-1338967D01*
X2604336Y-1320633D01*
X2592300Y-1308598D01*
X2596449Y-1295898D01*
X2908300D01*
X2918211Y-1293926D01*
X2926612Y-1288312D01*
X2964712Y-1250212D01*
X2970326Y-1241811D01*
X2972298Y-1231900D01*
Y-1041400D01*
X2970326Y-1031489D01*
X2964712Y-1023088D01*
X2926612Y-984988D01*
X2918210Y-979374D01*
X2908300Y-977402D01*
X2133600D01*
X2130321Y-978055D01*
X2126983Y-978262D01*
X2125408Y-979032D01*
X2123689Y-979374D01*
X2120909Y-981232D01*
X2117905Y-982700D01*
X2116745Y-984014D01*
X2115288Y-984988D01*
X1627573Y-1472702D01*
X201227D01*
X127498Y-1398973D01*
Y-1219200D01*
Y-1168400D01*
X125526Y-1158489D01*
X119912Y-1150088D01*
X-33225Y-996950D01*
X95250Y-868475D01*
X146338Y-919563D01*
X151945Y-925751D01*
X152722Y-926327D01*
X153278Y-927117D01*
X166060Y-939285D01*
X184887Y-958112D01*
X193289Y-963726D01*
X203199Y-965698D01*
X457200D01*
X467111Y-963726D01*
X475512Y-958112D01*
X678712Y-754912D01*
X684326Y-746511D01*
X686298Y-736600D01*
Y-620327D01*
X734627Y-571998D01*
X850900D01*
X860811Y-570026D01*
X869212Y-564412D01*
X932712Y-500912D01*
X938326Y-492511D01*
X940298Y-482600D01*
Y-431800D01*
X938326Y-421889D01*
X932712Y-413488D01*
X889498Y-370273D01*
Y-366327D01*
X1026727Y-229098D01*
X1041400D01*
X1051311Y-227126D01*
X1059712Y-221512D01*
X1108952Y-172272D01*
X1121491Y-177694D01*
X1129193Y-196288D01*
X1144912Y-212007D01*
X1165450Y-220515D01*
X1187681D01*
X1208219Y-212007D01*
X1223938Y-196288D01*
X1232446Y-175750D01*
Y-153519D01*
X1223938Y-132981D01*
X1208219Y-117262D01*
X1189625Y-109560D01*
X1184203Y-97021D01*
X1247900Y-33325D01*
X1304303Y-70927D01*
X1400912Y-167537D01*
X1400996Y-167593D01*
X1401053Y-167677D01*
X1442646Y-208635D01*
X1446737Y-211324D01*
X1450807Y-214068D01*
X1450960Y-214099D01*
X1451090Y-214185D01*
X1455905Y-215104D01*
X1460709Y-216080D01*
X1536594Y-216396D01*
X1536647Y-216386D01*
X1536701Y-216396D01*
X1541591Y-215424D01*
X1546512Y-214466D01*
X1546558Y-214436D01*
X1546612Y-214425D01*
X1550768Y-211648D01*
X1554937Y-208887D01*
X1554968Y-208842D01*
X1555014Y-208811D01*
X1631212Y-132612D01*
X1636826Y-124211D01*
X1638798Y-114300D01*
Y-76200D01*
X1636826Y-66289D01*
X1631212Y-57888D01*
X1504213Y69112D01*
X1495811Y74726D01*
X1485901Y76697D01*
X1433127D01*
X1339113Y170712D01*
X1330711Y176326D01*
X1320801Y178297D01*
X1229927Y178298D01*
X1047012Y361212D01*
X1038611Y366826D01*
X1028700Y368798D01*
X937827D01*
X927598Y379027D01*
Y495300D01*
X925626Y505211D01*
X920012Y513612D01*
X881912Y551712D01*
X873511Y557326D01*
X863600Y559298D01*
X771846D01*
X555238Y751838D01*
X560432Y777807D01*
X602512Y819888D01*
X608126Y828289D01*
X610098Y838200D01*
Y901700D01*
X608126Y911611D01*
X602512Y920012D01*
X564412Y958112D01*
X556011Y963726D01*
X546100Y965698D01*
X457200D01*
X447289Y963726D01*
X445616Y962608D01*
X127498Y1280727D01*
Y1297373D01*
X208812Y1378688D01*
X214426Y1387089D01*
X216398Y1397000D01*
Y1409700D01*
X214426Y1419611D01*
X208812Y1428012D01*
X25898Y1610927D01*
Y1741873D01*
X112327Y1828302D01*
X1170373D01*
X2089888Y908788D01*
X2115288Y883388D01*
X2123689Y877774D01*
X2133600Y875802D01*
X2908300D01*
X2918211Y877774D01*
X2926612Y883388D01*
X2964712Y921488D01*
X2970326Y929889D01*
X2972298Y939800D01*
Y1117600D01*
X2970326Y1127511D01*
X2964712Y1135912D01*
X2926612Y1174012D01*
X2918211Y1179626D01*
X2908300Y1181598D01*
X2569788D01*
X2568116Y1194298D01*
X2571033Y1195079D01*
X2589367Y1205664D01*
X2604336Y1220633D01*
X2614921Y1238967D01*
X2620400Y1259415D01*
Y1280585D01*
X2614921Y1301033D01*
X2604336Y1319367D01*
X2589367Y1334336D01*
X2571033Y1344921D01*
X2550585Y1350400D01*
X2529415D01*
X2508967Y1344921D01*
X2490633Y1334336D01*
X2475664Y1319367D01*
X2465079Y1301033D01*
X2459600Y1280585D01*
Y1259415D01*
X2465079Y1238967D01*
X2475664Y1220633D01*
X2490633Y1205664D01*
X2508967Y1195079D01*
X2511884Y1194298D01*
X2510212Y1181598D01*
X2284027D01*
X1339112Y2126512D01*
X1330711Y2132126D01*
X1320800Y2134098D01*
D02*
G37*
G36*
X3046415Y932180D02*
X3024185D01*
X3003647Y923673D01*
X2987927Y907953D01*
X2979420Y887415D01*
Y865185D01*
X2987927Y844647D01*
X3003647Y828927D01*
X3022053Y821303D01*
X3017289Y809801D01*
Y787570D01*
X3025796Y767032D01*
X3041516Y751313D01*
X3062054Y742806D01*
X3072661D01*
Y721298D01*
X3081168Y700760D01*
X3096887Y685041D01*
X3097428Y682321D01*
X3085660Y670554D01*
X3077153Y650016D01*
Y627785D01*
X3085660Y607247D01*
X3088437Y604470D01*
X3087963Y588890D01*
X3076827Y577753D01*
X3068991Y558836D01*
X3058072Y563359D01*
X3035842D01*
X3015304Y554851D01*
X2999584Y539132D01*
X2991077Y518594D01*
Y496363D01*
X2999584Y475825D01*
X3015304Y460106D01*
X3035842Y451599D01*
X3058072D01*
X3064540Y454278D01*
X3074261Y444557D01*
X3068320Y430215D01*
Y407985D01*
X3076827Y387447D01*
X3089624Y374650D01*
X3079406Y364432D01*
X3070898Y343894D01*
Y321663D01*
X3079406Y301125D01*
X3095125Y285406D01*
X3115663Y276898D01*
X3137894D01*
X3158432Y285406D01*
X3174151Y301125D01*
X3182658Y321663D01*
Y343894D01*
X3174151Y364432D01*
X3161355Y377228D01*
X3171573Y387447D01*
X3180080Y407985D01*
Y430215D01*
X3171573Y450753D01*
X3155853Y466473D01*
X3135315Y474980D01*
X3113085D01*
X3106617Y472301D01*
X3096896Y482021D01*
X3102166Y494743D01*
X3113085Y490220D01*
X3135315D01*
X3155853Y498727D01*
X3171573Y514447D01*
X3180080Y534985D01*
Y557215D01*
X3171573Y577753D01*
X3168796Y580530D01*
X3169270Y596111D01*
X3180406Y607247D01*
X3188913Y627785D01*
Y650016D01*
X3180406Y670554D01*
X3164687Y686273D01*
X3164146Y688992D01*
X3175913Y700760D01*
X3184421Y721298D01*
Y743528D01*
X3175913Y764067D01*
X3160194Y779786D01*
X3139656Y788293D01*
X3129049D01*
Y809801D01*
X3120542Y830339D01*
X3104823Y846059D01*
X3086416Y853683D01*
X3091180Y865185D01*
Y887415D01*
X3082673Y907953D01*
X3066953Y923673D01*
X3046415Y932180D01*
D02*
G37*
G36*
X-2391747Y657882D02*
X-2413977D01*
X-2434516Y649375D01*
X-2450235Y633656D01*
X-2458742Y613117D01*
Y590887D01*
X-2450235Y570349D01*
X-2434516Y554629D01*
X-2413977Y546122D01*
X-2391747D01*
X-2371209Y554629D01*
X-2355489Y570349D01*
X-2346982Y590887D01*
Y613117D01*
X-2355489Y633656D01*
X-2371209Y649375D01*
X-2391747Y657882D01*
D02*
G37*
G36*
X2601915Y614680D02*
X2579685D01*
X2559147Y606173D01*
X2543427Y590453D01*
X2534920Y569915D01*
Y547685D01*
X2543427Y527147D01*
X2559147Y511427D01*
X2579685Y502920D01*
X2601915D01*
X2622453Y511427D01*
X2638173Y527147D01*
X2646680Y547685D01*
Y569915D01*
X2638173Y590453D01*
X2622453Y606173D01*
X2601915Y614680D01*
D02*
G37*
G36*
X-2681751Y538947D02*
X-2703982D01*
X-2724520Y530439D01*
X-2740239Y514720D01*
X-2748747Y494182D01*
Y471951D01*
X-2740239Y451413D01*
X-2724520Y435694D01*
X-2703982Y427187D01*
X-2681751D01*
X-2661213Y435694D01*
X-2645494Y451413D01*
X-2636987Y471951D01*
Y494182D01*
X-2645494Y514720D01*
X-2661213Y530439D01*
X-2681751Y538947D01*
D02*
G37*
G36*
X2665415Y474980D02*
X2643185D01*
X2622647Y466473D01*
X2606927Y450753D01*
X2598420Y430215D01*
Y407985D01*
X2606927Y387447D01*
X2622647Y371727D01*
X2643185Y363220D01*
X2665415D01*
X2685953Y371727D01*
X2701673Y387447D01*
X2710180Y407985D01*
Y430215D01*
X2701673Y450753D01*
X2685953Y466473D01*
X2665415Y474980D01*
D02*
G37*
G36*
X1550355Y424180D02*
X1528125D01*
X1507587Y415673D01*
X1491867Y399953D01*
X1483360Y379415D01*
Y357185D01*
X1491867Y336647D01*
X1507587Y320927D01*
X1528125Y312420D01*
X1550355D01*
X1570893Y320927D01*
X1586613Y336647D01*
X1595120Y357185D01*
Y379415D01*
X1586613Y399953D01*
X1570893Y415673D01*
X1550355Y424180D01*
D02*
G37*
G36*
X-2602545Y424180D02*
X-2624776D01*
X-2645314Y415673D01*
X-2661033Y399953D01*
X-2669540Y379415D01*
Y357184D01*
X-2661033Y336646D01*
X-2645314Y320927D01*
X-2624776Y312420D01*
X-2602545D01*
X-2582007Y320927D01*
X-2566287Y336646D01*
X-2557780Y357184D01*
Y379415D01*
X-2566287Y399953D01*
X-2582007Y415673D01*
X-2602545Y424180D01*
D02*
G37*
G36*
X-3024185Y662940D02*
X-3046415D01*
X-3066953Y654433D01*
X-3082673Y638713D01*
X-3091180Y618175D01*
Y595945D01*
X-3082673Y575407D01*
X-3071439Y564173D01*
X-3072698Y550273D01*
X-3073242Y549382D01*
X-3088452Y534172D01*
X-3096959Y513634D01*
Y491403D01*
X-3088452Y470865D01*
X-3074484Y456897D01*
X-3083422Y447958D01*
X-3091929Y427420D01*
Y405190D01*
X-3083422Y384652D01*
X-3067703Y368932D01*
X-3053337Y362982D01*
X-3060336Y346085D01*
Y323855D01*
X-3051829Y303316D01*
X-3036109Y287597D01*
X-3015571Y279090D01*
X-2993340D01*
X-2972802Y287597D01*
X-2957083Y303316D01*
X-2948576Y323855D01*
Y346085D01*
X-2957083Y366623D01*
X-2972802Y382343D01*
X-2987168Y388293D01*
X-2980169Y405190D01*
Y427420D01*
X-2988676Y447958D01*
X-3002644Y461926D01*
X-2993706Y470865D01*
X-2985199Y491403D01*
Y513634D01*
X-2993706Y534172D01*
X-3004939Y545405D01*
X-3003681Y559305D01*
X-3003137Y560196D01*
X-2987927Y575407D01*
X-2979420Y595945D01*
Y618175D01*
X-2987927Y638713D01*
X-3003647Y654433D01*
X-3024185Y662940D01*
D02*
G37*
G36*
X-2574605Y238760D02*
X-2596835D01*
X-2617373Y230253D01*
X-2633093Y214533D01*
X-2641600Y193995D01*
Y171765D01*
X-2633093Y151227D01*
X-2617373Y135507D01*
X-2596835Y127000D01*
X-2574605D01*
X-2554067Y135507D01*
X-2538347Y151227D01*
X-2529840Y171765D01*
Y193995D01*
X-2538347Y214533D01*
X-2554067Y230253D01*
X-2574605Y238760D01*
D02*
G37*
G36*
X2615684Y233680D02*
X2593454D01*
X2572915Y225173D01*
X2557196Y209453D01*
X2548689Y188915D01*
Y166685D01*
X2557196Y146147D01*
X2572915Y130427D01*
X2593454Y121920D01*
X2615684D01*
X2636222Y130427D01*
X2651942Y146147D01*
X2660449Y166685D01*
Y188915D01*
X2651942Y209453D01*
X2636222Y225173D01*
X2615684Y233680D01*
D02*
G37*
G36*
X1662115Y360680D02*
X1639885D01*
X1619347Y352173D01*
X1603627Y336453D01*
X1595120Y315915D01*
Y293685D01*
X1603627Y273147D01*
X1619347Y257427D01*
X1634761Y251042D01*
X1645920Y244795D01*
Y222565D01*
X1636929Y211084D01*
X1621887Y204853D01*
X1606167Y189133D01*
X1597660Y168595D01*
Y146365D01*
X1606167Y125827D01*
X1621887Y110107D01*
X1642425Y101600D01*
X1664655D01*
X1685193Y110107D01*
X1700913Y125827D01*
X1709420Y146365D01*
Y168595D01*
X1718411Y180076D01*
X1733453Y186307D01*
X1749173Y202027D01*
X1757680Y222565D01*
Y244795D01*
X1749173Y265333D01*
X1733453Y281053D01*
X1718039Y287438D01*
X1706880Y293685D01*
Y315915D01*
X1698373Y336453D01*
X1682653Y352173D01*
X1662115Y360680D01*
D02*
G37*
G36*
X-2656351Y123993D02*
X-2678582D01*
X-2699120Y115486D01*
X-2714839Y99767D01*
X-2723347Y79229D01*
Y56998D01*
X-2714839Y36460D01*
X-2699120Y20741D01*
X-2678582Y12233D01*
X-2656351D01*
X-2635813Y20741D01*
X-2620094Y36460D01*
X-2611587Y56998D01*
Y79229D01*
X-2620094Y99767D01*
X-2635813Y115486D01*
X-2656351Y123993D01*
D02*
G37*
G36*
X-3036885Y266700D02*
X-3059115D01*
X-3079653Y258193D01*
X-3095373Y242473D01*
X-3103880Y221935D01*
Y199705D01*
X-3095373Y179167D01*
X-3080036Y163830D01*
X-3090293Y153573D01*
X-3098800Y133035D01*
Y110805D01*
X-3090293Y90267D01*
X-3074573Y74547D01*
X-3072931Y73867D01*
X-3071118Y59369D01*
X-3078480Y41595D01*
Y19365D01*
X-3069973Y-1173D01*
X-3054253Y-16893D01*
X-3033715Y-25400D01*
X-3011485D01*
X-2990947Y-16893D01*
X-2975227Y-1173D01*
X-2966720Y19365D01*
Y41595D01*
X-2975227Y62133D01*
X-2990947Y77853D01*
X-2992589Y78533D01*
X-2994402Y93031D01*
X-2987040Y110805D01*
Y133035D01*
X-2995547Y153573D01*
X-3010884Y168910D01*
X-3000627Y179167D01*
X-2992120Y199705D01*
Y221935D01*
X-3000627Y242473D01*
X-3016347Y258193D01*
X-3036885Y266700D01*
D02*
G37*
G36*
X3033715Y246380D02*
X3011485D01*
X2990947Y237873D01*
X2975227Y222153D01*
X2966720Y201615D01*
Y179385D01*
X2975227Y158847D01*
X2990947Y143127D01*
X3011485Y134620D01*
X3033715D01*
X3054253Y143127D01*
X3060686Y149560D01*
X3071453Y142366D01*
X3070600Y140308D01*
Y118078D01*
X3079108Y97540D01*
X3082368Y94279D01*
X3081756Y91201D01*
X3066037Y75482D01*
X3057529Y54944D01*
Y32713D01*
X3065365Y13796D01*
X3054447Y9273D01*
X3038727Y-6447D01*
X3030220Y-26985D01*
Y-49215D01*
X3038727Y-69753D01*
X3054447Y-85473D01*
X3074985Y-93980D01*
X3097215D01*
X3117753Y-85473D01*
X3133473Y-69753D01*
X3141980Y-49215D01*
Y-26985D01*
X3134144Y-8067D01*
X3145063Y-3545D01*
X3160782Y12175D01*
X3169289Y32713D01*
Y54944D01*
X3160782Y75482D01*
X3157522Y78742D01*
X3158134Y81821D01*
X3173853Y97540D01*
X3182360Y118078D01*
Y140308D01*
X3173853Y160847D01*
X3158134Y176566D01*
X3137596Y185073D01*
X3115365D01*
X3094827Y176566D01*
X3088394Y170133D01*
X3077628Y177327D01*
X3078480Y179385D01*
Y201615D01*
X3069973Y222153D01*
X3054253Y237873D01*
X3033715Y246380D01*
D02*
G37*
G36*
X2474915Y-223520D02*
X2452685D01*
X2432147Y-232027D01*
X2416427Y-247747D01*
X2407920Y-268285D01*
Y-290515D01*
X2416427Y-311053D01*
X2432147Y-326773D01*
X2452685Y-335280D01*
X2474915D01*
X2495453Y-326773D01*
X2511173Y-311053D01*
X2519680Y-290515D01*
Y-268285D01*
X2511173Y-247747D01*
X2495453Y-232027D01*
X2474915Y-223520D01*
D02*
G37*
G36*
X2678115Y-266700D02*
X2655885D01*
X2635347Y-275207D01*
X2619627Y-290927D01*
X2611120Y-311465D01*
Y-333695D01*
X2619627Y-354233D01*
X2635347Y-369953D01*
X2655885Y-378460D01*
X2678115D01*
X2698653Y-369953D01*
X2714373Y-354233D01*
X2722880Y-333695D01*
Y-311465D01*
X2714373Y-290927D01*
X2698653Y-275207D01*
X2678115Y-266700D01*
D02*
G37*
G36*
X-2531425Y-325120D02*
X-2553655D01*
X-2574193Y-333627D01*
X-2589913Y-349347D01*
X-2598420Y-369885D01*
Y-392115D01*
X-2589913Y-412653D01*
X-2574193Y-428373D01*
X-2553655Y-436880D01*
X-2531425D01*
X-2510887Y-428373D01*
X-2495167Y-412653D01*
X-2486660Y-392115D01*
Y-369885D01*
X-2495167Y-349347D01*
X-2510887Y-333627D01*
X-2531425Y-325120D01*
D02*
G37*
G36*
X-1614485Y-210820D02*
X-1636715D01*
X-1657253Y-219327D01*
X-1672973Y-235047D01*
X-1681480Y-255585D01*
Y-277815D01*
X-1672973Y-298353D01*
X-1657254Y-314073D01*
X-1653039Y-329565D01*
X-1658982Y-343913D01*
Y-360506D01*
X-1674990D01*
X-1695528Y-369013D01*
X-1711248Y-384732D01*
X-1719755Y-405270D01*
Y-427501D01*
X-1711248Y-448039D01*
X-1695528Y-463758D01*
X-1674990Y-472266D01*
X-1652759D01*
X-1632221Y-463758D01*
X-1616502Y-448039D01*
X-1607995Y-427501D01*
Y-410908D01*
X-1591987D01*
X-1571448Y-402401D01*
X-1555729Y-386682D01*
X-1547222Y-366144D01*
Y-343913D01*
X-1555729Y-323375D01*
X-1571448Y-307656D01*
X-1575663Y-292163D01*
X-1569720Y-277815D01*
Y-255585D01*
X-1578227Y-235047D01*
X-1593947Y-219327D01*
X-1614485Y-210820D01*
D02*
G37*
G36*
X1441135Y-307340D02*
X1418905D01*
X1398367Y-315847D01*
X1382647Y-331567D01*
X1374140Y-352105D01*
Y-374335D01*
X1382647Y-394873D01*
X1398367Y-410593D01*
X1418905Y-419100D01*
X1433187D01*
X1437640Y-425765D01*
Y-447995D01*
X1446147Y-468533D01*
X1461867Y-484253D01*
X1482405Y-492760D01*
X1504635D01*
X1522250Y-485464D01*
X1526265Y-484820D01*
X1536993Y-490394D01*
X1542667Y-504093D01*
X1558387Y-519813D01*
X1578925Y-528320D01*
X1601155D01*
X1621693Y-519813D01*
X1637413Y-504093D01*
X1645920Y-483555D01*
Y-461325D01*
X1637413Y-440787D01*
X1621693Y-425067D01*
X1601155Y-416560D01*
X1578925D01*
X1561310Y-423856D01*
X1557295Y-424500D01*
X1546567Y-418926D01*
X1540893Y-405227D01*
X1525173Y-389507D01*
X1504635Y-381000D01*
X1490353D01*
X1485900Y-374335D01*
Y-352105D01*
X1477393Y-331567D01*
X1461673Y-315847D01*
X1441135Y-307340D01*
D02*
G37*
G36*
X-3064825Y-152400D02*
X-3087055D01*
X-3107593Y-160907D01*
X-3123313Y-176627D01*
X-3131820Y-197165D01*
Y-219395D01*
X-3123313Y-239933D01*
X-3109619Y-253627D01*
X-3109788Y-267444D01*
X-3110133Y-267587D01*
X-3125853Y-283307D01*
X-3134360Y-303845D01*
Y-326075D01*
X-3125853Y-346613D01*
X-3110133Y-362333D01*
X-3089595Y-370840D01*
X-3080401D01*
X-3073345Y-381400D01*
X-3075940Y-387665D01*
Y-403860D01*
X-3097215D01*
X-3117753Y-412367D01*
X-3133473Y-428087D01*
X-3141980Y-448625D01*
Y-470855D01*
X-3133473Y-491393D01*
X-3117753Y-507113D01*
X-3097215Y-515620D01*
X-3082660D01*
X-3075103Y-528320D01*
X-3080910Y-542339D01*
X-3090225Y-538480D01*
X-3112455D01*
X-3132993Y-546987D01*
X-3148713Y-562707D01*
X-3157220Y-583245D01*
Y-605475D01*
X-3148713Y-626013D01*
X-3132994Y-641733D01*
X-3132945Y-641976D01*
X-3144120Y-653151D01*
X-3152627Y-673689D01*
Y-695920D01*
X-3144120Y-716458D01*
X-3128401Y-732177D01*
X-3107862Y-740684D01*
X-3085632D01*
X-3065094Y-732177D01*
X-3059990Y-727073D01*
X-3057273Y-727614D01*
X-3041553Y-743333D01*
X-3021015Y-751840D01*
X-2998785D01*
X-2978247Y-743333D01*
X-2962527Y-727613D01*
X-2954020Y-707075D01*
Y-684845D01*
X-2962527Y-664307D01*
X-2978247Y-648587D01*
X-2998785Y-640080D01*
X-3021015D01*
X-3041553Y-648587D01*
X-3046657Y-653691D01*
X-3049375Y-653151D01*
X-3065093Y-637432D01*
X-3065142Y-637188D01*
X-3053967Y-626013D01*
X-3045570Y-605741D01*
X-3036255Y-609600D01*
X-3014025D01*
X-2993487Y-601093D01*
X-2977767Y-585373D01*
X-2969260Y-564835D01*
Y-542605D01*
X-2977767Y-522067D01*
X-2993487Y-506347D01*
X-3014025Y-497840D01*
X-3028580D01*
X-3036137Y-485140D01*
X-3030220Y-470855D01*
Y-454660D01*
X-3008945D01*
X-2988407Y-446153D01*
X-2972687Y-430433D01*
X-2964180Y-409895D01*
Y-387665D01*
X-2972687Y-367127D01*
X-2988407Y-351407D01*
X-3008945Y-342900D01*
X-3018139D01*
X-3025195Y-332340D01*
X-3022600Y-326075D01*
Y-303845D01*
X-3031107Y-283307D01*
X-3044801Y-269613D01*
X-3044632Y-255796D01*
X-3044287Y-255653D01*
X-3028567Y-239933D01*
X-3020060Y-219395D01*
Y-197165D01*
X-3028567Y-176627D01*
X-3044287Y-160907D01*
X-3064825Y-152400D01*
D02*
G37*
G36*
X1298895Y-444500D02*
X1276665D01*
X1256127Y-453007D01*
X1240407Y-468727D01*
X1231900Y-489265D01*
Y-511495D01*
X1240407Y-532033D01*
X1256127Y-547753D01*
X1276665Y-556260D01*
X1298895D01*
X1319433Y-547753D01*
X1335153Y-532033D01*
X1343660Y-511495D01*
Y-489265D01*
X1335153Y-468727D01*
X1319433Y-453007D01*
X1298895Y-444500D01*
D02*
G37*
G36*
X-1512885Y-414020D02*
X-1535115D01*
X-1555653Y-422527D01*
X-1571373Y-438247D01*
X-1579880Y-458785D01*
Y-473407D01*
X-1582932Y-482088D01*
X-1591613Y-485140D01*
X-1606235D01*
X-1626773Y-493647D01*
X-1642493Y-509367D01*
X-1651000Y-529905D01*
Y-552135D01*
X-1642493Y-572673D01*
X-1626773Y-588393D01*
X-1606235Y-596900D01*
X-1584005D01*
X-1563467Y-588393D01*
X-1547747Y-572673D01*
X-1539240Y-552135D01*
Y-537513D01*
X-1536188Y-528832D01*
X-1527507Y-525780D01*
X-1512885D01*
X-1492347Y-517273D01*
X-1476627Y-501553D01*
X-1468120Y-481015D01*
Y-458785D01*
X-1476627Y-438247D01*
X-1492347Y-422527D01*
X-1512885Y-414020D01*
D02*
G37*
G36*
X1389532Y-539283D02*
X1367301D01*
X1346763Y-547791D01*
X1331044Y-563510D01*
X1322537Y-584048D01*
Y-606279D01*
X1331044Y-626817D01*
X1346763Y-642536D01*
X1367301Y-651043D01*
X1379432D01*
X1379979Y-651862D01*
Y-674092D01*
X1388486Y-694630D01*
X1404205Y-710349D01*
X1424744Y-718857D01*
X1446974D01*
X1467512Y-710349D01*
X1483232Y-694630D01*
X1491739Y-674092D01*
Y-651861D01*
X1483232Y-631323D01*
X1467512Y-615604D01*
X1446974Y-607097D01*
X1434843D01*
X1434297Y-606278D01*
Y-584048D01*
X1425789Y-563510D01*
X1410070Y-547791D01*
X1389532Y-539283D01*
D02*
G37*
G36*
X1273495Y-617220D02*
X1251265D01*
X1230727Y-625727D01*
X1215007Y-641447D01*
X1206500Y-661985D01*
Y-684215D01*
X1215007Y-704753D01*
X1230727Y-720473D01*
X1251265Y-728980D01*
X1271525D01*
X1277293Y-734518D01*
X1280837Y-739686D01*
X1278785Y-744640D01*
Y-762972D01*
X1267047Y-769195D01*
X1260551Y-762699D01*
X1240013Y-754192D01*
X1217783D01*
X1197244Y-762699D01*
X1181525Y-778419D01*
X1173018Y-798957D01*
Y-821187D01*
X1181525Y-841726D01*
X1197244Y-857445D01*
X1217783Y-865952D01*
X1240013D01*
X1260551Y-857445D01*
X1276271Y-841726D01*
X1284778Y-821187D01*
Y-802856D01*
X1296515Y-796632D01*
X1303011Y-803128D01*
X1323549Y-811635D01*
X1345780D01*
X1366318Y-803128D01*
X1382037Y-787409D01*
X1390545Y-766871D01*
Y-744640D01*
X1382037Y-724102D01*
X1366318Y-708383D01*
X1345780Y-699875D01*
X1325520D01*
X1319752Y-694338D01*
X1316208Y-689170D01*
X1318260Y-684215D01*
Y-661985D01*
X1309753Y-641447D01*
X1294033Y-625727D01*
X1273495Y-617220D01*
D02*
G37*
G36*
X1094251Y-740584D02*
X1072020D01*
X1051482Y-749091D01*
X1035763Y-764811D01*
X1027256Y-785349D01*
Y-807580D01*
X1035763Y-828118D01*
X1051482Y-843837D01*
X1060433Y-847544D01*
X1061320Y-852007D01*
X1055571Y-865886D01*
X1041080Y-869355D01*
X1031132Y-859407D01*
X1010594Y-850900D01*
X988363D01*
X967825Y-859407D01*
X952106Y-875127D01*
X943598Y-895665D01*
Y-917895D01*
X952106Y-938433D01*
X967825Y-954153D01*
X988363Y-962660D01*
X992916Y-975360D01*
X981303Y-986973D01*
X972796Y-1007512D01*
Y-1029742D01*
X981303Y-1050280D01*
X997022Y-1066000D01*
X1017561Y-1074507D01*
X1039791D01*
X1060329Y-1066000D01*
X1076049Y-1050280D01*
X1084556Y-1029742D01*
Y-1007512D01*
X1076049Y-986973D01*
X1060329Y-971254D01*
X1039791Y-962747D01*
X1035238Y-950047D01*
X1046851Y-938433D01*
X1052600Y-924554D01*
X1067092Y-921085D01*
X1077040Y-931033D01*
X1097578Y-939540D01*
X1119809D01*
X1140347Y-931033D01*
X1156066Y-915313D01*
X1164573Y-894775D01*
Y-872545D01*
X1156066Y-852006D01*
X1140347Y-836287D01*
X1131396Y-832580D01*
X1130509Y-828117D01*
X1139016Y-807580D01*
Y-785349D01*
X1130509Y-764811D01*
X1114789Y-749091D01*
X1094251Y-740584D01*
D02*
G37*
G36*
X-1002345Y-1021080D02*
X-1024575D01*
X-1045113Y-1029587D01*
X-1055280Y-1039753D01*
X-1071821Y-1041173D01*
X-1075787Y-1037207D01*
X-1096325Y-1028700D01*
X-1118555D01*
X-1139093Y-1037207D01*
X-1154813Y-1052927D01*
X-1163320Y-1073465D01*
Y-1095695D01*
X-1154813Y-1116233D01*
X-1139093Y-1131953D01*
X-1134773Y-1133742D01*
X-1133191Y-1148144D01*
X-1144886Y-1159840D01*
X-1153393Y-1180378D01*
Y-1202609D01*
X-1144886Y-1223147D01*
X-1129167Y-1238866D01*
X-1108629Y-1247373D01*
X-1086398D01*
X-1065860Y-1238866D01*
X-1050141Y-1223147D01*
X-1041633Y-1202609D01*
Y-1180378D01*
X-1050141Y-1159840D01*
X-1065860Y-1144121D01*
X-1067402Y-1143482D01*
X-1069811Y-1130597D01*
X-1061924Y-1121469D01*
X-1049079Y-1120367D01*
X-1045113Y-1124333D01*
X-1024575Y-1132840D01*
X-1002345D01*
X-981807Y-1124333D01*
X-966087Y-1108613D01*
X-957580Y-1088075D01*
Y-1065845D01*
X-966087Y-1045307D01*
X-981807Y-1029587D01*
X-1002345Y-1021080D01*
D02*
G37*
G36*
X892998Y-949063D02*
X870768D01*
X850229Y-957571D01*
X834510Y-973290D01*
X826003Y-993828D01*
Y-1016059D01*
X834510Y-1036597D01*
X850229Y-1052316D01*
X850232Y-1052317D01*
X850814Y-1052628D01*
X859429Y-1059073D01*
X853053Y-1074466D01*
X849208Y-1076076D01*
X839189Y-1077196D01*
X825637Y-1063644D01*
X805098Y-1055137D01*
X782868D01*
X762330Y-1063644D01*
X746610Y-1079363D01*
X738103Y-1099902D01*
Y-1122132D01*
X746610Y-1142670D01*
X762330Y-1158390D01*
X782868Y-1166897D01*
X805098D01*
X825637Y-1158390D01*
X841356Y-1142670D01*
X847732Y-1127276D01*
X851577Y-1125667D01*
X861596Y-1124547D01*
X875148Y-1138099D01*
X895687Y-1146606D01*
X917917D01*
X938455Y-1138099D01*
X954175Y-1122380D01*
X962682Y-1101841D01*
Y-1079611D01*
X954175Y-1059073D01*
X938455Y-1043353D01*
X938453Y-1043352D01*
X937871Y-1043041D01*
X929256Y-1036597D01*
X937763Y-1016059D01*
Y-993828D01*
X929256Y-973290D01*
X913536Y-957571D01*
X892998Y-949063D01*
D02*
G37*
G36*
X3097215Y-256901D02*
X3074985D01*
X3054447Y-265408D01*
X3038727Y-281127D01*
X3030220Y-301666D01*
Y-323896D01*
X3038727Y-344434D01*
X3050253Y-355961D01*
X3038727Y-367487D01*
X3030220Y-388025D01*
Y-410256D01*
X3038727Y-430794D01*
X3052650Y-444717D01*
X3038391Y-458976D01*
X3029884Y-479514D01*
Y-489575D01*
X3020534Y-495821D01*
X2998304D01*
X2977766Y-504329D01*
X2962047Y-520048D01*
X2953539Y-540586D01*
Y-562817D01*
X2962047Y-583355D01*
X2977766Y-599074D01*
X2998304Y-607581D01*
X3002412D01*
X3004820Y-611185D01*
Y-633415D01*
X3013327Y-653953D01*
X3024854Y-665480D01*
X3013327Y-677007D01*
X3004820Y-697545D01*
Y-719775D01*
X3013327Y-740313D01*
X3024854Y-751840D01*
X3013327Y-763367D01*
X3004820Y-783905D01*
Y-806135D01*
X3013327Y-826673D01*
X3025086Y-838432D01*
X3013792Y-849726D01*
X3005285Y-870264D01*
Y-892495D01*
X3013792Y-913033D01*
X3021869Y-921111D01*
X3028551Y-929877D01*
X3021869Y-937704D01*
X3013327Y-946247D01*
X3004820Y-966785D01*
Y-989015D01*
X3013327Y-1009553D01*
X3026124Y-1022350D01*
X3013327Y-1035147D01*
X3004820Y-1055685D01*
Y-1077915D01*
X3013327Y-1098453D01*
X3029047Y-1114173D01*
X3049585Y-1122680D01*
X3071815D01*
X3092353Y-1114173D01*
X3108073Y-1098453D01*
X3116580Y-1077915D01*
Y-1055685D01*
X3108073Y-1035147D01*
X3095276Y-1022350D01*
X3108073Y-1009553D01*
X3116580Y-989015D01*
Y-966785D01*
X3108073Y-946247D01*
X3099995Y-938169D01*
X3093314Y-929403D01*
X3099995Y-921575D01*
X3108537Y-913033D01*
X3117045Y-892495D01*
Y-870264D01*
X3108537Y-849726D01*
X3096779Y-837968D01*
X3108073Y-826673D01*
X3116580Y-806135D01*
Y-783905D01*
X3108073Y-763367D01*
X3096546Y-751840D01*
X3108073Y-740313D01*
X3116580Y-719775D01*
Y-697545D01*
X3108073Y-677007D01*
X3096546Y-665480D01*
X3108073Y-653953D01*
X3116580Y-633415D01*
Y-611185D01*
X3108073Y-590647D01*
X3092353Y-574927D01*
X3071816Y-566420D01*
X3067916Y-553720D01*
X3068331Y-550730D01*
X3074649Y-546509D01*
X3096879D01*
X3117417Y-538002D01*
X3133136Y-522283D01*
X3141644Y-501744D01*
Y-479514D01*
X3133136Y-458976D01*
X3119214Y-445053D01*
X3133473Y-430794D01*
X3141980Y-410256D01*
Y-388025D01*
X3133473Y-367487D01*
X3121947Y-355961D01*
X3133473Y-344434D01*
X3141980Y-323896D01*
Y-301666D01*
X3133473Y-281127D01*
X3117753Y-265408D01*
X3097215Y-256901D01*
D02*
G37*
G36*
X-835998Y-1117600D02*
X-858228D01*
X-878767Y-1126107D01*
X-894486Y-1141827D01*
X-902993Y-1162365D01*
Y-1184595D01*
X-895392Y-1202946D01*
X-899114Y-1207564D01*
X-903320Y-1211203D01*
X-904372Y-1211926D01*
X-923605Y-1203960D01*
X-945835D01*
X-966373Y-1212467D01*
X-982093Y-1228187D01*
X-990600Y-1248725D01*
Y-1270955D01*
X-982093Y-1291493D01*
X-966373Y-1307213D01*
X-945835Y-1315720D01*
X-923605D01*
X-910253Y-1310190D01*
X-897553Y-1318293D01*
Y-1321755D01*
X-889046Y-1342293D01*
X-873327Y-1358013D01*
X-852788Y-1366520D01*
X-830558D01*
X-810020Y-1358013D01*
X-794300Y-1342293D01*
X-785793Y-1321755D01*
Y-1299525D01*
X-794300Y-1278987D01*
X-810020Y-1263267D01*
X-830558Y-1254760D01*
X-852788D01*
X-866140Y-1260290D01*
X-878840Y-1252187D01*
Y-1248725D01*
X-886441Y-1230374D01*
X-882719Y-1225756D01*
X-878513Y-1222117D01*
X-877461Y-1221394D01*
X-858228Y-1229360D01*
X-835998D01*
X-815460Y-1220853D01*
X-799740Y-1205133D01*
X-791233Y-1184595D01*
Y-1162365D01*
X-799740Y-1141827D01*
X-815460Y-1126107D01*
X-835998Y-1117600D01*
D02*
G37*
G36*
X-1131885Y-2014220D02*
X-1154115D01*
X-1174653Y-2022727D01*
X-1190373Y-2038447D01*
X-1198880Y-2058985D01*
Y-2081215D01*
X-1190373Y-2101753D01*
X-1174653Y-2117473D01*
X-1154115Y-2125980D01*
X-1131885D01*
X-1111347Y-2117473D01*
X-1095627Y-2101753D01*
X-1087120Y-2081215D01*
Y-2058985D01*
X-1095627Y-2038447D01*
X-1111347Y-2022727D01*
X-1131885Y-2014220D01*
D02*
G37*
%LPD*%
G36*
X2273300Y1155700D02*
X2908300D01*
X2946400Y1117600D01*
Y939800D01*
X2908300Y901700D01*
X2133600D01*
X2108200Y927100D01*
X1181100Y1854200D01*
X101600D01*
X0Y1752600D01*
Y1600200D01*
X190500Y1409700D01*
Y1397000D01*
X101600Y1308100D01*
Y1270000D01*
X444500Y927100D01*
X457200Y939800D01*
X546100D01*
X584200Y901700D01*
Y838200D01*
X536575Y790575D01*
X526930Y742351D01*
X762000Y533400D01*
X863600D01*
X901700Y495300D01*
Y368300D01*
X927100Y342900D01*
X1028700D01*
X1219200Y152400D01*
X1320800Y152400D01*
X1422399Y50799D01*
X1485901D01*
X1612900Y-76200D01*
Y-114300D01*
X1536701Y-190499D01*
X1460817Y-190183D01*
X1419224Y-149224D01*
X1320802Y-50802D01*
X1244600Y0D01*
X1193800Y-50800D01*
X1041400Y-203200D01*
X1016000D01*
X863600Y-355600D01*
Y-381000D01*
X914400Y-431800D01*
Y-482600D01*
X850900Y-546100D01*
X723900D01*
X660400Y-609600D01*
Y-736600D01*
X457200Y-939800D01*
X203199D01*
X184150Y-920750D01*
X171135Y-908360D01*
X165100Y-901701D01*
X95250Y-831851D01*
X-69850Y-996950D01*
X101600Y-1168400D01*
Y-1219200D01*
Y-1409700D01*
X114300Y-1422400D01*
X190500Y-1498600D01*
X1638300D01*
X2133600Y-1003300D01*
X2908300D01*
X2946400Y-1041400D01*
Y-1231900D01*
X2908300Y-1270000D01*
X2336800D01*
X1866900Y-1739900D01*
X139700D01*
X63500Y-1663700D01*
X50800Y-1651000D01*
X-50800D01*
X-139700Y-1739900D01*
X-1866900D01*
X-2349500Y-1257300D01*
X-2921000D01*
X-2959100Y-1219200D01*
Y-1041400D01*
X-2921000Y-1003300D01*
X-2146300D01*
X-1574800Y-1574800D01*
X-317500D01*
X-165100Y-1422400D01*
X-165100D01*
X-117929Y-1351643D01*
X-127000Y-1270000D01*
X-177800Y-1219200D01*
Y-1168400D01*
X-304800Y-1041400D01*
X-355600D01*
X-431800Y-965201D01*
Y-825500D01*
X-571500Y-685800D01*
X-774700D01*
X-838200Y-622300D01*
Y-596900D01*
X-774700Y-533400D01*
Y-495300D01*
X-876300Y-393700D01*
X-1117600D01*
X-1295400Y-215900D01*
X-1536700Y25400D01*
Y88900D01*
X-1308100Y317500D01*
X-1270000D01*
X-1130300Y177800D01*
X-1067189Y177800D01*
X-1031318Y213671D01*
X-1028588Y292380D01*
X-1066800Y355600D01*
X-939800Y482600D01*
X-812800D01*
X-774700Y444500D01*
X-558800D01*
X-444500Y558800D01*
Y609600D01*
X-482600Y647700D01*
X-533400D01*
X-635000Y749300D01*
Y800100D01*
X-609600Y825500D01*
X-482600D01*
X-457200Y850900D01*
Y901700D01*
Y952500D01*
X-406400Y1003300D01*
X-241300D01*
X-152400Y1092200D01*
Y1143000D01*
X-190500Y1422400D01*
X-203200Y1549400D01*
X-406400Y1752600D01*
X-444500Y1790700D01*
X-1498600D01*
X-2019300Y1270000D01*
X-2108200D01*
X-2159000Y1219200D01*
Y1168400D01*
X-2146300Y1155700D01*
Y939800D01*
X-2171700Y914400D01*
Y901700D01*
X-2921000D01*
X-2933700Y914400D01*
Y1155700D01*
X-2921000Y1168400D01*
X-2438400D01*
X-1498600Y2108200D01*
X1320800D01*
X2273300Y1155700D01*
D02*
G37*
%LPC*%
G36*
X38100Y1041400D02*
X0D01*
X-25400Y1016000D01*
X-241300Y800100D01*
X-355600D01*
Y723900D01*
X-393700Y685800D01*
X-342899Y634998D01*
X-342901Y495298D01*
X-495300Y342900D01*
X-711200Y342900D01*
X-1168400Y-114300D01*
X-977900Y-304800D01*
X-774700D01*
X-342900Y-736600D01*
X-190500Y-889000D01*
X-165100D01*
X38100Y-685800D01*
X101600D01*
X241300Y-825500D01*
X635000Y-431800D01*
X939800Y-127000D01*
X1079500Y12700D01*
Y63500D01*
X838200Y304800D01*
X774700D01*
X38100Y1041400D01*
D02*
G37*
%LPD*%
G36*
X756388Y286488D02*
X764789Y280874D01*
X774700Y278902D01*
X827473D01*
X1053602Y52773D01*
Y23427D01*
X921488Y-108688D01*
X616688Y-413488D01*
X241300Y-788875D01*
X119912Y-667488D01*
X111511Y-661874D01*
X101600Y-659902D01*
X38100D01*
X28189Y-661874D01*
X19788Y-667488D01*
X-175827Y-863102D01*
X-179773D01*
X-324588Y-718288D01*
X-756388Y-286488D01*
X-764789Y-280874D01*
X-774700Y-278902D01*
X-967173D01*
X-1131775Y-114300D01*
X-700473Y317002D01*
X-495300Y317002D01*
X-485390Y318973D01*
X-476988Y324587D01*
X-324589Y476986D01*
D01*
D01*
X-324589Y476986D01*
X-321801Y481158D01*
X-318975Y485387D01*
Y485388D01*
X-318975Y485388D01*
X-317788Y491355D01*
X-317004Y495298D01*
X-317001Y634998D01*
Y634998D01*
D01*
X-317491Y637458D01*
X-318972Y644908D01*
X-318972Y644909D01*
Y644909D01*
X-320385Y647023D01*
X-324586Y653310D01*
X-324587Y653311D01*
X-357075Y685800D01*
X-337288Y705588D01*
X-331674Y713989D01*
X-329702Y723900D01*
Y774202D01*
X-241300D01*
X-231389Y776174D01*
X-222988Y781788D01*
X-7088Y997688D01*
X10727Y1015502D01*
X27373D01*
X756388Y286488D01*
D02*
G37*
D28*
X2500000Y1900000D02*
D03*
X-2500000Y-2100000D02*
D03*
D29*
X-2540000Y1270000D02*
D03*
Y-1370000D02*
D03*
X2540000Y1270000D02*
D03*
Y-1370000D02*
D03*
D30*
X-86360Y-1236980D02*
D03*
X-3096747Y-684804D02*
D03*
X-3116580Y-71120D02*
D03*
X-3129280Y568960D02*
D03*
X-3111500Y307340D02*
D03*
X-3004456Y334970D02*
D03*
X-3036049Y416305D02*
D03*
X-3041079Y502518D02*
D03*
X-3035300Y607060D02*
D03*
X3009419Y-551701D02*
D03*
X1512526Y-248940D02*
D03*
X3126740Y231140D02*
D03*
X1143000Y2207260D02*
D03*
X1125220Y1734820D02*
D03*
X1381760Y1488440D02*
D03*
X3086100Y-399141D02*
D03*
X3085764Y-490629D02*
D03*
X3086100Y-312781D02*
D03*
X2667000Y-322580D02*
D03*
X3060700Y-622300D02*
D03*
X3061165Y-881380D02*
D03*
X-625218Y-1120117D02*
D03*
X-621136Y-1417621D02*
D03*
X164020Y-1642300D02*
D03*
X881883Y-1004943D02*
D03*
X2590800Y558800D02*
D03*
X2326640Y1584960D02*
D03*
X2705100Y1587500D02*
D03*
X2712720Y1275080D02*
D03*
X2354580Y1280160D02*
D03*
X-960120Y-353060D02*
D03*
X1794598Y1026207D02*
D03*
X741648Y1229609D02*
D03*
X842761Y1183640D02*
D03*
X1921033Y1024831D02*
D03*
X1108693Y-883660D02*
D03*
X1028676Y-1018627D02*
D03*
X-1805165Y572765D02*
D03*
X3009900Y1054100D02*
D03*
X3136900Y901700D02*
D03*
X-1562100Y1371600D02*
D03*
X-1447800Y1485900D02*
D03*
X-787400Y1384300D02*
D03*
X-939800Y1397000D02*
D03*
X-889000Y1524000D02*
D03*
X-2540000Y-1129600D02*
D03*
Y-1054100D02*
D03*
X2552700Y990600D02*
D03*
Y1061720D02*
D03*
X2540000Y-1168400D02*
D03*
Y-1079500D02*
D03*
X-2703895Y979107D02*
D03*
X-2708097Y1107984D02*
D03*
X-2644860Y1043687D02*
D03*
X-2576461Y1112085D02*
D03*
X1176566Y-164635D02*
D03*
X2413000Y-749300D02*
D03*
X2667000D02*
D03*
X2540000D02*
D03*
X-2222500Y1854200D02*
D03*
X-2006600Y2133600D02*
D03*
X-990600Y2209800D02*
D03*
X-152400D02*
D03*
X749300D02*
D03*
X1524000Y2159000D02*
D03*
X1536700Y1346200D02*
D03*
X787400Y1752600D02*
D03*
X-3289300Y1231900D02*
D03*
Y1816100D02*
D03*
X-3378200Y838200D02*
D03*
Y-12700D02*
D03*
Y-1066800D02*
D03*
X-3289300Y-1841500D02*
D03*
X3048000Y1524000D02*
D03*
X3302000Y1016000D02*
D03*
Y0D02*
D03*
Y-1016000D02*
D03*
Y-2032000D02*
D03*
X2794000Y2032000D02*
D03*
X2032000Y1524000D02*
D03*
X2286000Y-2032000D02*
D03*
X2032000Y-2540000D02*
D03*
X1778000Y2032000D02*
D03*
X1524000Y-2540000D02*
D03*
X1016000D02*
D03*
X508000D02*
D03*
X0Y508000D02*
D03*
X254000Y0D02*
D03*
X0Y-508000D02*
D03*
X254000Y-2032000D02*
D03*
X0Y-2540000D02*
D03*
X-254000Y0D02*
D03*
X-508000Y-2540000D02*
D03*
X-1016000Y1524000D02*
D03*
Y-2540000D02*
D03*
X-1524000D02*
D03*
X-1778000Y2032000D02*
D03*
X-2032000Y-2540000D02*
D03*
X-2286000Y2032000D02*
D03*
X-2540000Y-2540000D02*
D03*
X-2794000Y2032000D02*
D03*
X-3048000Y1524000D02*
D03*
X-2336800Y1600200D02*
D03*
X-2438400D02*
D03*
X-2540000D02*
D03*
X-2641600D02*
D03*
X-2743200D02*
D03*
X-2311400Y1435100D02*
D03*
X-2781300Y1371600D02*
D03*
Y1460500D02*
D03*
X-1562100Y-1409700D02*
D03*
X-1765300Y-1231900D02*
D03*
X1765300Y-1993900D02*
D03*
X1511300Y-1981200D02*
D03*
X1752600Y-2247900D02*
D03*
X1498600D02*
D03*
X622300Y-2374900D02*
D03*
Y-2489200D02*
D03*
X-685800Y-2336800D02*
D03*
X-863600Y-2451100D02*
D03*
X-876300Y-2209800D02*
D03*
X-1917700Y-2324100D02*
D03*
X-1739900Y-2451100D02*
D03*
Y-2209800D02*
D03*
X-2768600Y-1485900D02*
D03*
Y-1574800D02*
D03*
X-2298700Y-1485900D02*
D03*
Y-1574800D02*
D03*
X-2400300Y-1701800D02*
D03*
X-2489200D02*
D03*
X-2578100D02*
D03*
X-2667000D02*
D03*
X-2654300Y-889000D02*
D03*
X-2438400D02*
D03*
Y-736600D02*
D03*
X-2667000D02*
D03*
X-2997200Y-101600D02*
D03*
X-1993900Y-177800D02*
D03*
X-2070100Y-101600D02*
D03*
X-2400300Y-139700D02*
D03*
X-2514600D02*
D03*
X-2603500D02*
D03*
X-2692400D02*
D03*
X2298700Y1384300D02*
D03*
Y1473200D02*
D03*
X2768600Y1384300D02*
D03*
Y1473200D02*
D03*
X63500Y1727200D02*
D03*
X203200Y1714500D02*
D03*
X190500Y1549400D02*
D03*
X2311400Y-1498600D02*
D03*
Y-1574800D02*
D03*
X2781300Y-1498600D02*
D03*
Y-1574800D02*
D03*
X2679700Y-1701800D02*
D03*
X2590800D02*
D03*
X2489200D02*
D03*
X2400300D02*
D03*
X3149600Y-114300D02*
D03*
X2997200Y-88900D02*
D03*
X2654300Y-76200D02*
D03*
X2565400D02*
D03*
X2476500D02*
D03*
X2387600D02*
D03*
X2095500Y-88900D02*
D03*
X1524000Y127000D02*
D03*
X1752600Y76200D02*
D03*
X0Y-1765300D02*
D03*
X-63500Y-1854200D02*
D03*
X-241300Y-1841500D02*
D03*
X139700Y457200D02*
D03*
X25400Y355600D02*
D03*
X-165100Y165100D02*
D03*
X-419100Y-25400D02*
D03*
X-203200Y-215900D02*
D03*
X0Y-38100D02*
D03*
X190500Y114300D02*
D03*
X330200Y266700D02*
D03*
X533400Y63500D02*
D03*
X368300Y-76200D02*
D03*
X165100Y-279400D02*
D03*
X-12700Y-406400D02*
D03*
X76200Y-571500D02*
D03*
X444500Y-381000D02*
D03*
X355600Y-457200D02*
D03*
X571500Y-381000D02*
D03*
X508000Y-292100D02*
D03*
X596900Y-203200D02*
D03*
X673100Y-139700D02*
D03*
X749300Y-203200D02*
D03*
X889000Y-63500D02*
D03*
X812800Y12700D02*
D03*
X889000Y101600D02*
D03*
X762000Y215900D02*
D03*
X673100Y139700D02*
D03*
X571500Y215900D02*
D03*
X495300Y304800D02*
D03*
X571500Y381000D02*
D03*
X469900Y482600D02*
D03*
X406400Y406400D02*
D03*
X317500Y482600D02*
D03*
X241300Y558800D02*
D03*
X152400Y635000D02*
D03*
X88900Y698500D02*
D03*
X152400Y800100D02*
D03*
X38100Y850900D02*
D03*
X-127000Y774700D02*
D03*
X-165100Y647700D02*
D03*
X-228600Y546100D02*
D03*
X-254000Y457200D02*
D03*
X-330200Y368300D02*
D03*
X-495300Y279400D02*
D03*
X-571500Y203200D02*
D03*
X-635000Y139700D02*
D03*
X-711200Y63500D02*
D03*
X-774700Y0D02*
D03*
X-850900Y-63500D02*
D03*
X-927100Y-127000D02*
D03*
X-1612900Y0D02*
D03*
X-1663700Y-88900D02*
D03*
X-1625600Y-165100D02*
D03*
X-1445008Y-296651D02*
D03*
X-990600Y-190500D02*
D03*
X-723900Y-203200D02*
D03*
X-635000Y-127000D02*
D03*
X-558800Y-190500D02*
D03*
X-482600Y-254000D02*
D03*
X-393700Y-317500D02*
D03*
X-317500Y-393700D02*
D03*
X-279400Y-482600D02*
D03*
X-355600Y-558800D02*
D03*
X-266700Y-685800D02*
D03*
X-101600Y-698500D02*
D03*
X-889000Y-469900D02*
D03*
X-596900Y-762000D02*
D03*
X-508000Y-850900D02*
D03*
X190500Y-609600D02*
D03*
X38100Y-977900D02*
D03*
X203200Y-1117600D02*
D03*
X292100Y-1016000D02*
D03*
X733111Y-623271D02*
D03*
X1257300Y-76200D02*
D03*
X957597Y401307D02*
D03*
X593063Y760617D02*
D03*
X-295864Y744220D02*
D03*
X-355600Y850900D02*
D03*
X-565880Y747984D02*
D03*
X-1100562Y238368D02*
D03*
X1018100Y-718820D02*
D03*
X1083136Y-796464D02*
D03*
X999478Y-906780D02*
D03*
X733372Y1009392D02*
D03*
X-1016000Y-800100D02*
D03*
X914400Y-228600D02*
D03*
Y292100D02*
D03*
X-990600Y355600D02*
D03*
X-228600Y1112483D02*
D03*
X673100Y508000D02*
D03*
X609600Y-558800D02*
D03*
X457200Y-723900D02*
D03*
X304800Y-876300D02*
D03*
X-215900Y-965200D02*
D03*
X-88900Y-1079500D02*
D03*
X-457200Y-711200D02*
D03*
X-927100Y419100D02*
D03*
X-228600Y939800D02*
D03*
X76200Y1422400D02*
D03*
X1397000Y-50800D02*
D03*
X863600Y-482600D02*
D03*
X596900Y-749300D02*
D03*
X495300Y-850900D02*
D03*
X-76200Y-1447800D02*
D03*
X-381000Y-952500D02*
D03*
X-736600Y-609600D02*
D03*
X-1308100Y38100D02*
D03*
X-1244600Y101600D02*
D03*
X-1181100Y165100D02*
D03*
X444500Y901700D02*
D03*
X508000Y838200D02*
D03*
X863600Y482600D02*
D03*
X-2095500Y1181100D02*
D03*
X-1143000Y-2070100D02*
D03*
X2667000Y1061720D02*
D03*
X2438400D02*
D03*
Y990600D02*
D03*
X2667000D02*
D03*
X3187700Y1130300D02*
D03*
X2654300Y-1168400D02*
D03*
X2438400D02*
D03*
X2654300Y-1079500D02*
D03*
X2438400D02*
D03*
X-2425700Y-1129600D02*
D03*
X-2667000D02*
D03*
X-2425700Y-1054100D02*
D03*
X-2667000D02*
D03*
X693526Y1363874D02*
D03*
X474118Y1574286D02*
D03*
X372343Y1570757D02*
D03*
X492760Y1485900D02*
D03*
X1539240Y368300D02*
D03*
X507631Y1397369D02*
D03*
X632460Y1424939D02*
D03*
X793406Y1320800D02*
D03*
X1701800Y233680D02*
D03*
X1651000Y304800D02*
D03*
X1653540Y157480D02*
D03*
X-306213Y-1484487D02*
D03*
X3128541Y732413D02*
D03*
X-1625600Y-266700D02*
D03*
X2463800Y-279400D02*
D03*
X3060700Y-795020D02*
D03*
Y-708660D02*
D03*
Y-977900D02*
D03*
Y-1066800D02*
D03*
X3035300Y876300D02*
D03*
X3073169Y798686D02*
D03*
X3133033Y638900D02*
D03*
X3124200Y546100D02*
D03*
X3046957Y507479D02*
D03*
X2654300Y419100D02*
D03*
X3124200D02*
D03*
X3126778Y332778D02*
D03*
X3022600Y190500D02*
D03*
X2604569Y177800D02*
D03*
X3126480Y129193D02*
D03*
X3113409Y43828D02*
D03*
X3086100Y-38100D02*
D03*
X-3016304Y888254D02*
D03*
X-3008446Y750430D02*
D03*
X-1659657Y719857D02*
D03*
X-1143000Y1346200D02*
D03*
X-1003300Y939800D02*
D03*
X-1244600Y673100D02*
D03*
X793983Y-1111017D02*
D03*
X906802Y-1090726D02*
D03*
X1435859Y-662977D02*
D03*
X1334665Y-755755D02*
D03*
X1228898Y-810072D02*
D03*
X1262380Y-673100D02*
D03*
X1287780Y-500380D02*
D03*
X1378417Y-595163D02*
D03*
X1590040Y-472440D02*
D03*
X1493520Y-436880D02*
D03*
X1430020Y-363220D02*
D03*
X-1663875Y-416386D02*
D03*
X-1524000Y-469900D02*
D03*
X-1603102Y-355028D02*
D03*
X-2585720Y182880D02*
D03*
X-3093720Y721360D02*
D03*
X-690127Y574726D02*
D03*
X-3009900Y-695960D02*
D03*
X-3025140Y-553720D02*
D03*
X-2984500Y-977900D02*
D03*
X-3101340Y-594360D02*
D03*
X-3086100Y-459740D02*
D03*
X-3020060Y-398780D02*
D03*
X-3078480Y-314960D02*
D03*
X-2542540Y-381000D02*
D03*
X-3075940Y-208280D02*
D03*
X-3022600Y30480D02*
D03*
X-2667467Y68113D02*
D03*
X-2613660Y368300D02*
D03*
X-2692867Y483067D02*
D03*
X-3042920Y121920D02*
D03*
X-3048000Y210820D02*
D03*
X-2402862Y602002D02*
D03*
X-3092275Y818374D02*
D03*
X-584167Y1274541D02*
D03*
X-1107440Y-1084580D02*
D03*
X-1013460Y-1076960D02*
D03*
X-1097513Y-1191493D02*
D03*
X-736600Y-1399540D02*
D03*
X-698234Y-1300746D02*
D03*
X-651043Y-1507957D02*
D03*
X-841673Y-1310640D02*
D03*
X-847113Y-1173480D02*
D03*
X-934720Y-1259840D02*
D03*
X-1595120Y-541020D02*
D03*
X-1526540Y218440D02*
D03*
X-1460500Y292100D02*
D03*
X-1401924Y355558D02*
D03*
X-595491Y500853D02*
D03*
X-604520Y586740D02*
D03*
X-515620Y589280D02*
D03*
X-801382Y988060D02*
D03*
X-871220Y937260D02*
D03*
X-712843Y1170401D02*
D03*
X-627380Y1182816D02*
D03*
X-786784Y1125220D02*
D03*
X-721377Y1031458D02*
D03*
%TF.MD5,c406b813285bf29357c63d56aec44a89*%
M02*
