%TF.GenerationSoftware,Altium Limited,Altium Designer,23.0.1 (38)*%
G04 Layer_Color=65535*
%FSLAX45Y45*%
%MOMM*%
%TF.SameCoordinates,98E3409A-FA71-4B7D-AABF-4CEB4AF68500*%
%TF.FilePolarity,Positive*%
%TF.FileFunction,Legend,Top*%
%TF.Part,Single*%
G01*
G75*
%TA.AperFunction,NonConductor*%
%ADD44C,0.20000*%
%ADD45C,0.60000*%
%ADD46C,0.25000*%
G36*
X-2247900Y2032000D02*
X-2146300Y2184400D01*
X-2095500Y2260600D01*
X-1968500Y2032000D01*
X-2247900D01*
D02*
G37*
G36*
X575866Y1983186D02*
Y1783632D01*
X372846D01*
X405050Y1939933D01*
X423651D01*
X425595Y1948262D01*
X378676D01*
X377011Y1939933D01*
X396722D01*
X377288Y1844153D01*
X376733D01*
X326206Y1948262D01*
X259299D01*
X257356Y1939933D01*
X279010D01*
X248472Y1793071D01*
X229593D01*
X227928Y1784742D01*
X274568D01*
X276234Y1793071D01*
X257356D01*
X287339Y1939933D01*
X287894D01*
X364240Y1783632D01*
X-85785D01*
X-79955Y1783909D01*
X-74403Y1784742D01*
X-69406Y1785853D01*
X-65241Y1786963D01*
X-61910Y1788074D01*
X-59411Y1789184D01*
X-57745Y1790017D01*
X-57190Y1790295D01*
X-61077Y1797790D01*
X-65241Y1796402D01*
X-66907Y1795847D01*
X-68295Y1795569D01*
X-69406D01*
X-70238Y1795292D01*
X-71071D01*
X-72737Y1795569D01*
X-74403Y1795847D01*
X-77457Y1797235D01*
X-78567Y1797790D01*
X-79400Y1798346D01*
X-79955Y1798623D01*
X-80233Y1798901D01*
X-81066Y1799734D01*
X-81621Y1800844D01*
X-83009Y1803898D01*
X-83842Y1807785D01*
X-84397Y1811672D01*
X-84952Y1815558D01*
X-85230Y1818612D01*
X-85508Y1820000D01*
Y1820833D01*
Y1821388D01*
Y1821666D01*
X-86063Y1828606D01*
X-87173Y1834714D01*
X-88839Y1839989D01*
X-90505Y1844153D01*
X-91893Y1847762D01*
X-93281Y1850261D01*
X-94391Y1851649D01*
X-94669Y1852204D01*
X-96335Y1854425D01*
X-98278Y1856369D01*
X-102443Y1859978D01*
X-107162Y1863309D01*
X-111604Y1865808D01*
X-116046Y1868029D01*
X-117712Y1869139D01*
X-119377Y1869695D01*
X-120766Y1870250D01*
X-121876Y1870805D01*
X-122431Y1871083D01*
X-122709D01*
Y1871360D01*
X-117156Y1871915D01*
X-111882Y1872748D01*
X-107162Y1873581D01*
X-102720Y1874692D01*
X-98833Y1875802D01*
X-94947Y1876913D01*
X-91615Y1878301D01*
X-88839Y1879411D01*
X-86063Y1880522D01*
X-83842Y1881632D01*
X-81898Y1882465D01*
X-80510Y1883576D01*
X-79122Y1884131D01*
X-78289Y1884686D01*
X-78012Y1885241D01*
X-77734D01*
X-75236Y1887462D01*
X-73015Y1889683D01*
X-71071Y1891904D01*
X-69406Y1894403D01*
X-66907Y1898845D01*
X-64964Y1903287D01*
X-64131Y1907173D01*
X-63575Y1909950D01*
X-63298Y1911060D01*
Y1911893D01*
Y1912448D01*
Y1912726D01*
X-63853Y1917723D01*
X-64964Y1922165D01*
X-66629Y1926329D01*
X-68573Y1929938D01*
X-70794Y1932992D01*
X-72459Y1935213D01*
X-73570Y1936601D01*
X-74125Y1937157D01*
X-76346Y1939100D01*
X-79122Y1940766D01*
X-81898Y1942431D01*
X-85230Y1943542D01*
X-92171Y1945485D01*
X-99111Y1946873D01*
X-105496Y1947706D01*
X-108273Y1947984D01*
X-110771D01*
X-112715Y1948262D01*
X-207106D01*
X-208772Y1939933D01*
X-187395D01*
X-217933Y1793071D01*
X-236256D01*
X-237922Y1784742D01*
X-157967D01*
X-156301Y1793071D01*
X-179066D01*
X-163519Y1868029D01*
X-152414D01*
X-149638Y1867751D01*
X-144919Y1866641D01*
X-141310Y1865253D01*
X-138533Y1863587D01*
X-136312Y1861643D01*
X-134924Y1860255D01*
X-134369Y1859145D01*
X-134091Y1858867D01*
X-132703Y1855258D01*
X-131593Y1850816D01*
X-130760Y1846374D01*
X-130205Y1841932D01*
X-129927Y1837768D01*
X-129649Y1834437D01*
Y1833048D01*
Y1832216D01*
Y1831660D01*
Y1831383D01*
X-129372Y1824997D01*
X-128817Y1819167D01*
X-128261Y1814448D01*
X-127428Y1810561D01*
X-126596Y1807785D01*
X-126040Y1805564D01*
X-125763Y1804453D01*
X-125485Y1803898D01*
X-123542Y1800844D01*
X-121598Y1797790D01*
X-119100Y1795292D01*
X-116879Y1793348D01*
X-114658Y1791405D01*
X-112992Y1790295D01*
X-111882Y1789462D01*
X-111326Y1789184D01*
X-107440Y1787241D01*
X-102998Y1785853D01*
X-98833Y1785020D01*
X-94669Y1784465D01*
X-91338Y1783909D01*
X-88284Y1783632D01*
X-575866D01*
Y1983186D01*
Y2153369D01*
X-323291D01*
X-327455Y2153091D01*
X-331619Y2152813D01*
X-339115Y2151148D01*
X-345778Y2148649D01*
X-351608Y2146150D01*
X-353829Y2144762D01*
X-356050Y2143374D01*
X-357993Y2141986D01*
X-359659Y2140876D01*
X-360770Y2140043D01*
X-361603Y2139210D01*
X-362158Y2138932D01*
X-362435Y2138655D01*
X-365212Y2135878D01*
X-367710Y2133102D01*
X-369931Y2130048D01*
X-371597Y2127272D01*
X-373263Y2124218D01*
X-374651Y2121442D01*
X-376594Y2115890D01*
X-377705Y2111170D01*
X-377982Y2109227D01*
X-378260Y2107283D01*
X-378537Y2105895D01*
Y2104785D01*
Y2104229D01*
Y2103952D01*
X-378260Y2098399D01*
X-377149Y2093402D01*
X-375761Y2088683D01*
X-373818Y2084796D01*
X-372152Y2081464D01*
X-370764Y2078966D01*
X-369654Y2077300D01*
X-369376Y2077023D01*
Y2076745D01*
X-367433Y2074524D01*
X-365489Y2072303D01*
X-360492Y2068416D01*
X-355217Y2064807D01*
X-349942Y2061753D01*
X-344945Y2059255D01*
X-342724Y2058144D01*
X-340781Y2057311D01*
X-339393Y2056478D01*
X-338282Y2056201D01*
X-337449Y2055646D01*
X-337172D01*
X-333007Y2053980D01*
X-329398Y2052314D01*
X-326067Y2050926D01*
X-323013Y2049538D01*
X-320237Y2048150D01*
X-318016Y2046762D01*
X-315795Y2045651D01*
X-314129Y2044541D01*
X-311353Y2042597D01*
X-309687Y2041209D01*
X-308577Y2040376D01*
X-308299Y2040099D01*
X-306356Y2037600D01*
X-304968Y2035102D01*
X-303857Y2032603D01*
X-303302Y2030382D01*
X-302747Y2028439D01*
X-302469Y2026773D01*
Y2025662D01*
Y2025385D01*
X-303024Y2020665D01*
X-304135Y2016223D01*
X-305801Y2012059D01*
X-307466Y2008728D01*
X-309410Y2005951D01*
X-311075Y2003730D01*
X-312186Y2002342D01*
X-312741Y2001787D01*
X-316905Y1998455D01*
X-321347Y1995957D01*
X-326067Y1994014D01*
X-330231Y1992903D01*
X-334118Y1992070D01*
X-337449Y1991793D01*
X-338560Y1991515D01*
X-340226D01*
X-346611Y1992070D01*
X-352441Y1993181D01*
X-357993Y1995124D01*
X-362435Y1997345D01*
X-366044Y1999288D01*
X-368821Y2001232D01*
X-369931Y2001787D01*
X-370764Y2002342D01*
X-371042Y2002897D01*
X-371319D01*
X-375761Y2007617D01*
X-379648Y2013169D01*
X-382424Y2019000D01*
X-384645Y2024552D01*
X-386311Y2029549D01*
X-386866Y2031770D01*
X-387144Y2033713D01*
X-387699Y2035102D01*
Y2036212D01*
X-387977Y2037045D01*
Y2037323D01*
X-396305D01*
X-407133Y1986240D01*
X-397693D01*
X-396028Y1988739D01*
X-393807Y1990682D01*
X-391863Y1992070D01*
X-389920Y1993181D01*
X-388254Y1993736D01*
X-386866Y1994014D01*
X-385756D01*
X-382702Y1993736D01*
X-379093Y1992903D01*
X-375206Y1991515D01*
X-371042Y1990127D01*
X-367433Y1988739D01*
X-364379Y1987351D01*
X-363268Y1987073D01*
X-362435Y1986518D01*
X-361880Y1986240D01*
X-361603D01*
X-358271Y1985130D01*
X-354940Y1984574D01*
X-351331Y1984019D01*
X-348277Y1983464D01*
X-345223D01*
X-343002Y1983186D01*
X-341058D01*
X-336339Y1983464D01*
X-331619Y1984019D01*
X-327177Y1984852D01*
X-323013Y1985963D01*
X-315240Y1988461D01*
X-311908Y1990127D01*
X-308854Y1991793D01*
X-305801Y1993181D01*
X-303302Y1994846D01*
X-301359Y1996235D01*
X-299415Y1997623D01*
X-298027Y1998455D01*
X-296917Y1999288D01*
X-296361Y1999844D01*
X-296084Y2000121D01*
X-292752Y2003453D01*
X-289698Y2006784D01*
X-287200Y2010393D01*
X-284979Y2014002D01*
X-283036Y2017611D01*
X-281647Y2020943D01*
X-280259Y2024552D01*
X-279426Y2027606D01*
X-278594Y2030660D01*
X-278038Y2033436D01*
X-277483Y2035934D01*
X-277205Y2038155D01*
X-276928Y2039821D01*
Y2041209D01*
Y2042042D01*
Y2042320D01*
X-277205Y2047872D01*
X-278038Y2053147D01*
X-278871Y2057589D01*
X-279982Y2061198D01*
X-281370Y2064252D01*
X-282203Y2066473D01*
X-283036Y2067583D01*
X-283313Y2068139D01*
X-285812Y2071748D01*
X-288310Y2074802D01*
X-291087Y2077578D01*
X-293585Y2079799D01*
X-295528Y2081464D01*
X-297194Y2082575D01*
X-298582Y2083408D01*
X-298860Y2083685D01*
X-302469Y2085906D01*
X-306633Y2087850D01*
X-310798Y2089793D01*
X-314684Y2091736D01*
X-318293Y2093402D01*
X-321070Y2094513D01*
X-322180Y2095068D01*
X-322735Y2095346D01*
X-323291Y2095623D01*
X-323568D01*
X-329121Y2098122D01*
X-333563Y2100343D01*
X-337449Y2102564D01*
X-340503Y2104507D01*
X-343002Y2106173D01*
X-344668Y2107283D01*
X-345778Y2108116D01*
X-346056Y2108394D01*
X-348277Y2110892D01*
X-349942Y2113391D01*
X-351331Y2115890D01*
X-352163Y2118388D01*
X-352719Y2120332D01*
X-352996Y2121720D01*
Y2122830D01*
Y2123108D01*
X-352719Y2126439D01*
X-351608Y2129493D01*
X-350220Y2131992D01*
X-348832Y2134213D01*
X-347166Y2136156D01*
X-346056Y2137544D01*
X-344945Y2138377D01*
X-344668Y2138655D01*
X-341336Y2140876D01*
X-337727Y2142264D01*
X-334118Y2143374D01*
X-330786Y2144207D01*
X-327733Y2144762D01*
X-325512Y2145040D01*
X-323291D01*
X-316628Y2144485D01*
X-310798Y2143374D01*
X-305523Y2141153D01*
X-301081Y2138377D01*
X-297194Y2135323D01*
X-293863Y2131714D01*
X-291087Y2127827D01*
X-288866Y2123941D01*
X-286922Y2120054D01*
X-285534Y2116167D01*
X-284424Y2112558D01*
X-283868Y2109504D01*
X-283313Y2106728D01*
X-283036Y2104785D01*
X-282758Y2103397D01*
Y2102841D01*
X-274152D01*
X-264157Y2150870D01*
X-272763D01*
X-274429Y2148649D01*
X-276095Y2146983D01*
X-278038Y2145873D01*
X-279426Y2145040D01*
X-280815Y2144485D01*
X-281925Y2144207D01*
X-283036D01*
X-284146Y2144485D01*
X-285812Y2144762D01*
X-289421Y2145873D01*
X-291364Y2146428D01*
X-293030Y2146706D01*
X-294140Y2147261D01*
X-294418D01*
X-297749Y2148371D01*
X-300526Y2149482D01*
X-303024Y2150315D01*
X-305245Y2150870D01*
X-306911Y2151425D01*
X-308021Y2151703D01*
X-308854Y2151980D01*
X-309132D01*
X-311353Y2152536D01*
X-313574Y2152813D01*
X-318293Y2153091D01*
X-320237Y2153369D01*
X575866D01*
Y1983186D01*
D02*
G37*
G36*
X-127706Y1939655D02*
X-122987Y1939100D01*
X-119377Y1938267D01*
X-116601Y1937434D01*
X-114380Y1936601D01*
X-112992Y1935769D01*
X-112159Y1935213D01*
X-111882Y1934936D01*
X-110216Y1932992D01*
X-108828Y1931049D01*
X-107995Y1928828D01*
X-107162Y1926607D01*
X-106884Y1924664D01*
X-106607Y1923276D01*
Y1922165D01*
Y1921887D01*
X-106884Y1917723D01*
X-107162Y1913281D01*
X-107995Y1909394D01*
X-108550Y1905508D01*
X-109383Y1902176D01*
X-110216Y1899678D01*
X-110494Y1898012D01*
X-110771Y1897734D01*
Y1897457D01*
X-112437Y1893015D01*
X-114103Y1889128D01*
X-116046Y1886074D01*
X-117712Y1883853D01*
X-119100Y1882187D01*
X-120210Y1881077D01*
X-121043Y1880522D01*
X-121321Y1880244D01*
X-124097Y1878856D01*
X-127706Y1878023D01*
X-131315Y1877190D01*
X-135202Y1876913D01*
X-138811Y1876635D01*
X-141587Y1876357D01*
X-161576D01*
X-147973Y1939933D01*
X-133259D01*
X-127706Y1939655D01*
D02*
G37*
G36*
X1618664Y1984816D02*
X1620885D01*
X1623384Y1984539D01*
X1629214Y1983984D01*
X1635599Y1982595D01*
X1641985Y1980930D01*
X1648370Y1978431D01*
X1651146Y1976765D01*
X1653922Y1975100D01*
X1654200Y1974822D01*
X1655033Y1974267D01*
X1656143Y1973156D01*
X1657254Y1971768D01*
X1658642Y1969825D01*
X1660030Y1967604D01*
X1661418Y1964828D01*
X1662251Y1961774D01*
Y1961496D01*
X1662529Y1960386D01*
X1662806Y1958720D01*
Y1956499D01*
Y1953723D01*
X1662529Y1950669D01*
X1661973Y1947615D01*
X1661140Y1944006D01*
Y1943728D01*
X1660863Y1942896D01*
X1660030Y1941785D01*
X1659197Y1940119D01*
X1658087Y1937898D01*
X1656421Y1935400D01*
X1654200Y1932346D01*
X1651701Y1929292D01*
X1648647Y1925683D01*
X1645038Y1921796D01*
X1640874Y1917632D01*
X1635877Y1913468D01*
X1630324Y1908748D01*
X1623939Y1904028D01*
X1616999Y1899031D01*
X1608948Y1894034D01*
X1608670Y1893756D01*
X1607559Y1892924D01*
X1606171Y1891535D01*
X1604506Y1889870D01*
X1602840Y1887926D01*
X1601452Y1886261D01*
X1600064Y1884317D01*
X1599231Y1882929D01*
Y1882652D01*
Y1881541D01*
X1599508Y1880153D01*
X1600341Y1878765D01*
X1600619Y1878487D01*
X1601729Y1877932D01*
X1603395Y1877377D01*
X1605616Y1877099D01*
X1607282D01*
X1609225Y1877654D01*
X1612001Y1878210D01*
X1615055Y1879042D01*
X1618387Y1880431D01*
X1622273Y1882374D01*
X1626160Y1884873D01*
X1626438Y1885150D01*
X1627271Y1885705D01*
X1628381Y1886261D01*
X1629769Y1887371D01*
X1632545Y1889037D01*
X1633656Y1889870D01*
X1634766Y1890425D01*
X1635044Y1890703D01*
X1636154Y1890980D01*
X1637820Y1891258D01*
X1640041Y1891535D01*
X1640596D01*
X1641985Y1891258D01*
X1643928Y1890425D01*
X1646149Y1889037D01*
X1646982Y1887926D01*
X1647815Y1886261D01*
X1648370Y1884595D01*
X1648647Y1882652D01*
Y1880153D01*
X1648370Y1877377D01*
X1647815Y1874045D01*
X1646704Y1870436D01*
X1646426Y1869881D01*
X1646149Y1868770D01*
X1645316Y1866827D01*
X1644205Y1864329D01*
X1642540Y1861275D01*
X1640874Y1857666D01*
X1638653Y1854056D01*
X1636154Y1850447D01*
X1635877Y1849892D01*
X1634766Y1848782D01*
X1633378Y1846838D01*
X1631435Y1844617D01*
X1628936Y1841841D01*
X1626438Y1839065D01*
X1623384Y1836011D01*
X1620052Y1833235D01*
X1619497Y1832957D01*
X1618387Y1831847D01*
X1616443Y1830736D01*
X1613945Y1829071D01*
X1610891Y1827682D01*
X1607559Y1826294D01*
X1604228Y1825184D01*
X1600896Y1824906D01*
X1600341D01*
X1598675Y1825184D01*
X1596455Y1825739D01*
X1594789Y1826572D01*
X1594511Y1826850D01*
X1593956Y1827960D01*
X1592845Y1829626D01*
X1592013Y1832402D01*
X1591735Y1832957D01*
X1591457Y1833790D01*
X1590624Y1835178D01*
X1589514Y1836011D01*
X1589236D01*
X1588126Y1836289D01*
X1587293D01*
X1586183Y1836566D01*
X1497066D01*
X1495678Y1836844D01*
X1493457Y1837122D01*
X1491236Y1837677D01*
X1489015Y1838787D01*
X1487349Y1840453D01*
X1486794Y1841286D01*
Y1842396D01*
Y1843784D01*
X1487071Y1845450D01*
Y1845728D01*
X1487349Y1846283D01*
X1488182Y1847949D01*
X1489848Y1850170D01*
X1492069Y1852668D01*
X1492346Y1852946D01*
X1492902Y1853501D01*
X1494290Y1854334D01*
X1496233Y1856000D01*
X1499009Y1857943D01*
X1502618Y1860719D01*
X1505117Y1862385D01*
X1507615Y1864051D01*
X1510392Y1865994D01*
X1513446Y1868215D01*
X1513723Y1868493D01*
X1514834Y1869326D01*
X1516499Y1870436D01*
X1518720Y1872102D01*
X1521219Y1874045D01*
X1524273Y1876266D01*
X1527604Y1878765D01*
X1531213Y1881541D01*
X1538987Y1887371D01*
X1546760Y1893756D01*
X1554534Y1900419D01*
X1557865Y1903473D01*
X1561197Y1906527D01*
Y1906805D01*
X1561752Y1907082D01*
X1562862Y1908748D01*
X1564528Y1910969D01*
X1566749Y1914023D01*
X1568970Y1917077D01*
X1570913Y1920408D01*
X1572857Y1923462D01*
X1573967Y1926238D01*
Y1926516D01*
X1574245Y1927071D01*
X1574522Y1928182D01*
X1574800Y1929292D01*
Y1931791D01*
X1574522Y1933179D01*
X1573967Y1934289D01*
Y1934567D01*
X1573690Y1934844D01*
X1572301Y1935955D01*
X1570358Y1936788D01*
X1568692Y1937343D01*
X1565361D01*
X1564250Y1937065D01*
X1561474Y1936788D01*
X1558976Y1935955D01*
X1558698D01*
X1558420Y1935677D01*
X1557310Y1935122D01*
X1555922Y1934289D01*
X1553701Y1933179D01*
X1550925Y1931513D01*
X1547315Y1929014D01*
X1542873Y1926238D01*
X1542596D01*
X1542041Y1925683D01*
X1541208Y1925405D01*
X1540097Y1924850D01*
X1536766Y1924017D01*
X1532879Y1923462D01*
X1531769D01*
X1530380Y1923740D01*
X1528992Y1924017D01*
X1527327Y1924572D01*
X1525383Y1925683D01*
X1523718Y1926793D01*
X1522052Y1928459D01*
X1521774Y1928737D01*
X1521497Y1929292D01*
X1520941Y1930403D01*
X1520386Y1932068D01*
X1519831Y1933734D01*
Y1935677D01*
Y1937898D01*
X1520386Y1940397D01*
Y1940675D01*
X1520941Y1941507D01*
X1521497Y1942618D01*
X1522329Y1944006D01*
X1523440Y1945949D01*
X1525106Y1947893D01*
X1527049Y1950114D01*
X1529548Y1952612D01*
X1529825Y1952890D01*
X1530936Y1953723D01*
X1532324Y1955111D01*
X1534267Y1956777D01*
X1536488Y1958442D01*
X1538987Y1960386D01*
X1544817Y1964272D01*
X1545372Y1964550D01*
X1546483Y1965105D01*
X1548426Y1966216D01*
X1550925Y1967604D01*
X1554256Y1968992D01*
X1558143Y1970935D01*
X1562307Y1972879D01*
X1567027Y1974822D01*
X1572301Y1976765D01*
X1577576Y1978431D01*
X1583406Y1980374D01*
X1589514Y1981763D01*
X1595622Y1983151D01*
X1602007Y1984261D01*
X1608115Y1984816D01*
X1614500Y1985094D01*
X1616999D01*
X1618664Y1984816D01*
D02*
G37*
G36*
X1937430Y1854057D02*
X1939744Y1853594D01*
X1942521Y1852206D01*
X1945298Y1849892D01*
X1948075Y1846190D01*
X1950389Y1841099D01*
X1951314Y1838322D01*
X1952240Y1834620D01*
X1952702Y1834157D01*
X1953628Y1831843D01*
X1954554Y1828604D01*
X1955479Y1823976D01*
X1955942Y1818423D01*
Y1811018D01*
X1954554Y1802225D01*
X1951777Y1792506D01*
Y1792044D01*
X1950851Y1790193D01*
X1949463Y1787416D01*
X1948075Y1784176D01*
X1945761Y1780474D01*
X1942984Y1776309D01*
X1940207Y1772144D01*
X1936505Y1768441D01*
X1936042Y1767979D01*
X1934654Y1767053D01*
X1932803Y1765665D01*
X1930026Y1763814D01*
X1926786Y1761962D01*
X1923084Y1760574D01*
X1918919Y1759649D01*
X1914291Y1759186D01*
X1911514D01*
X1909663Y1759649D01*
X1905498Y1760574D01*
X1902259Y1762425D01*
X1901796Y1763351D01*
X1900870Y1764276D01*
X1899945Y1765665D01*
X1899019Y1767516D01*
X1897631Y1769830D01*
X1896705Y1773069D01*
X1895317Y1776772D01*
Y1777234D01*
X1894391Y1778623D01*
X1893466Y1780937D01*
X1891614Y1783713D01*
X1889763Y1786490D01*
X1886987Y1789267D01*
X1883747Y1791581D01*
X1879582Y1793432D01*
X1879119D01*
X1877268Y1794358D01*
X1874491Y1794820D01*
X1869863Y1795746D01*
X1863847Y1796672D01*
X1856443Y1797134D01*
X1847650Y1798060D01*
X1833303D01*
X1829601Y1797597D01*
X1824973Y1797134D01*
X1820345Y1796672D01*
X1816180Y1795283D01*
X1812015Y1793895D01*
X1809238Y1791581D01*
X1808775Y1791118D01*
X1807387Y1788804D01*
X1805536Y1785565D01*
X1803222Y1780937D01*
Y1780474D01*
X1802759Y1779548D01*
X1801834Y1777234D01*
X1800445Y1773532D01*
X1798594Y1768441D01*
X1797668Y1765665D01*
X1796280Y1761962D01*
X1794892Y1757797D01*
X1793041Y1753169D01*
X1791189Y1748079D01*
X1789338Y1742063D01*
Y1741600D01*
X1788876Y1740211D01*
X1788413Y1738823D01*
X1787950Y1736509D01*
X1787024Y1732344D01*
Y1730493D01*
X1787487Y1729567D01*
X1787950Y1729104D01*
X1788876D01*
X1790727Y1728642D01*
X1793041Y1728179D01*
X1796280D01*
X1800445Y1727716D01*
X1807387D01*
X1810164Y1728179D01*
X1813403Y1728642D01*
X1816643Y1730030D01*
X1817106Y1730493D01*
X1818957Y1732344D01*
X1821271Y1735584D01*
X1822659Y1737897D01*
X1824047Y1740674D01*
X1824510Y1741137D01*
X1824973Y1742525D01*
X1825899Y1744839D01*
X1827287Y1747616D01*
X1830526Y1753169D01*
X1831915Y1755946D01*
X1833303Y1758260D01*
Y1758723D01*
X1833766Y1759186D01*
X1836080Y1761500D01*
X1838857Y1764276D01*
X1842559Y1767053D01*
X1843022Y1767516D01*
X1843947Y1767979D01*
X1845336Y1768904D01*
X1847650Y1769830D01*
X1852277Y1771681D01*
X1855054Y1772607D01*
X1859682D01*
X1861533Y1772144D01*
X1863847Y1771681D01*
X1866161Y1770755D01*
X1868475Y1768904D01*
X1870326Y1767053D01*
X1871715Y1764276D01*
Y1763814D01*
X1872177Y1762888D01*
X1872640Y1760574D01*
X1873103Y1757797D01*
X1873566Y1754095D01*
X1874029Y1749930D01*
X1873566Y1744839D01*
X1873103Y1739286D01*
Y1738823D01*
X1872640Y1736509D01*
X1872177Y1733270D01*
X1871252Y1729567D01*
X1870326Y1724477D01*
X1868938Y1718923D01*
X1865236Y1706891D01*
Y1706428D01*
X1864773Y1705502D01*
X1863847Y1703651D01*
X1863384Y1701337D01*
X1861996Y1698560D01*
X1860608Y1694858D01*
X1857368Y1687454D01*
X1852740Y1678198D01*
X1847650Y1668942D01*
X1842096Y1659686D01*
X1835617Y1650893D01*
X1835154Y1650431D01*
X1833766Y1648579D01*
X1830989Y1646728D01*
X1828212Y1643952D01*
X1824047Y1641638D01*
X1819882Y1639324D01*
X1814792Y1637472D01*
X1809701Y1637010D01*
X1808313D01*
X1806461Y1637472D01*
X1804610D01*
X1800908Y1638861D01*
X1799057Y1640249D01*
X1798131Y1641638D01*
Y1642100D01*
Y1642563D01*
X1797668Y1643952D01*
Y1645803D01*
Y1648117D01*
Y1651356D01*
X1798131Y1655058D01*
X1799057Y1659224D01*
Y1659686D01*
Y1660149D01*
X1799520Y1662463D01*
Y1665703D01*
X1798594Y1669405D01*
X1796743Y1672644D01*
X1793966Y1675884D01*
X1791652Y1677272D01*
X1788876Y1678198D01*
X1786099Y1679123D01*
X1781471D01*
X1778694Y1678661D01*
X1774992Y1677272D01*
X1771752Y1674958D01*
X1770827Y1674033D01*
X1770364Y1672644D01*
X1768976Y1670793D01*
X1767587Y1668479D01*
X1766199Y1665240D01*
X1764348Y1660612D01*
X1762497Y1655521D01*
Y1655058D01*
X1762034Y1653670D01*
X1761108Y1651356D01*
X1760183Y1648579D01*
X1759257Y1644877D01*
X1757869Y1640712D01*
X1756480Y1635621D01*
X1755092Y1630068D01*
Y1629605D01*
X1754629Y1627754D01*
X1754166Y1624977D01*
X1753241Y1622200D01*
X1751852Y1616184D01*
X1751390Y1613407D01*
Y1611556D01*
Y1610631D01*
X1751852Y1608780D01*
X1752778Y1607854D01*
X1753704Y1606466D01*
X1755092Y1605540D01*
X1757406Y1604615D01*
X1757869D01*
X1758794Y1604152D01*
X1760645D01*
X1762959Y1603689D01*
X1766662Y1603226D01*
X1771290D01*
X1776843Y1602763D01*
X1788413D01*
X1793966Y1603226D01*
X1800908Y1603689D01*
X1808313Y1604615D01*
X1816180Y1606003D01*
X1824047Y1607854D01*
X1830989Y1610168D01*
X1831915Y1610631D01*
X1834229Y1611556D01*
X1837468Y1613407D01*
X1841633Y1616184D01*
X1847187Y1619887D01*
X1852740Y1624977D01*
X1858757Y1630531D01*
X1864773Y1637472D01*
X1865236Y1637935D01*
X1866624Y1639786D01*
X1868475Y1641638D01*
X1870789Y1644414D01*
X1876342Y1650431D01*
X1879582Y1653207D01*
X1882359Y1655058D01*
X1882821Y1655521D01*
X1883747Y1655984D01*
X1885135Y1656910D01*
X1887449Y1657835D01*
X1892540Y1659224D01*
X1895780Y1660149D01*
X1900870D01*
X1902721Y1659686D01*
X1905035Y1659224D01*
X1907349Y1657835D01*
X1910126Y1656447D01*
X1911977Y1654133D01*
X1913828Y1650893D01*
Y1650431D01*
X1914291Y1649505D01*
X1914754Y1647654D01*
X1915217Y1644877D01*
Y1641638D01*
Y1638398D01*
X1914754Y1634233D01*
X1913365Y1629605D01*
Y1629142D01*
X1912440Y1627291D01*
X1911052Y1624514D01*
X1909200Y1620349D01*
X1906886Y1615721D01*
X1903647Y1610168D01*
X1899945Y1603689D01*
X1895317Y1596747D01*
X1894854Y1595822D01*
X1893003Y1593508D01*
X1890226Y1589805D01*
X1886987Y1585177D01*
X1882359Y1579624D01*
X1877731Y1573608D01*
X1872177Y1567591D01*
X1866161Y1561112D01*
X1865698Y1560650D01*
X1865236Y1560187D01*
X1862459Y1557873D01*
X1858757Y1555096D01*
X1854591Y1552319D01*
X1853666Y1551857D01*
X1851352Y1550931D01*
X1847650Y1549543D01*
X1843022Y1549080D01*
X1840245D01*
X1837005Y1549543D01*
X1833766Y1550468D01*
X1833303D01*
X1830989Y1550931D01*
X1827750Y1551394D01*
X1823585Y1551857D01*
X1818494Y1552319D01*
X1812015Y1552782D01*
X1805073D01*
X1797206Y1553245D01*
X1618107D01*
X1615793Y1553708D01*
X1613479Y1554171D01*
X1607463Y1555559D01*
X1605149Y1556947D01*
X1602835Y1558799D01*
Y1559261D01*
X1601909Y1559724D01*
X1601446Y1561112D01*
X1600521Y1562964D01*
X1600058Y1565278D01*
Y1568054D01*
Y1571294D01*
X1600984Y1574996D01*
Y1575459D01*
X1601446Y1576384D01*
X1602835Y1579624D01*
X1605149Y1583326D01*
X1608388Y1586566D01*
X1609314Y1587029D01*
X1612091Y1588880D01*
X1616256Y1591194D01*
X1622272Y1593970D01*
X1622735D01*
X1623660Y1594433D01*
X1626437Y1595822D01*
X1630139Y1597673D01*
X1633379Y1599987D01*
X1633842Y1600449D01*
X1635693Y1602301D01*
X1638469Y1605540D01*
X1641246Y1610168D01*
Y1610631D01*
X1642172Y1611556D01*
X1643097Y1613407D01*
X1644023Y1615721D01*
X1645874Y1618961D01*
X1647725Y1622663D01*
X1649576Y1627291D01*
X1651890Y1632382D01*
X1654667Y1637935D01*
X1657444Y1644414D01*
X1660220Y1651356D01*
X1663460Y1658761D01*
X1666699Y1666628D01*
X1669939Y1675421D01*
X1673179Y1684214D01*
X1676418Y1693933D01*
Y1694395D01*
X1676881Y1694858D01*
X1677806Y1697635D01*
X1678732Y1701337D01*
X1680583Y1706891D01*
X1682897Y1712907D01*
X1684748Y1720312D01*
X1687525Y1728179D01*
X1689839Y1736509D01*
X1694467Y1753169D01*
X1696318Y1761500D01*
X1698169Y1769830D01*
X1699557Y1777234D01*
X1700483Y1783713D01*
X1700946Y1789267D01*
Y1793895D01*
Y1794358D01*
X1700483Y1795746D01*
X1700020Y1797134D01*
X1699095Y1798060D01*
X1698632Y1798523D01*
X1697706Y1798985D01*
X1694930Y1800374D01*
X1693078Y1800837D01*
X1690764Y1801762D01*
X1690302D01*
X1688913Y1802688D01*
X1687062Y1804076D01*
X1684748Y1805927D01*
X1683360Y1808241D01*
X1681971Y1811944D01*
Y1816109D01*
X1682897Y1821662D01*
Y1822125D01*
X1683360Y1823050D01*
X1684285Y1824439D01*
X1685211Y1826290D01*
X1687988Y1830918D01*
X1692616Y1835546D01*
X1693078Y1836009D01*
X1694004Y1836471D01*
X1695392Y1837860D01*
X1697243Y1839248D01*
X1700020Y1840636D01*
X1702797Y1842025D01*
X1710202Y1844339D01*
X1710664D01*
X1711590Y1844801D01*
X1713904D01*
X1716681Y1845264D01*
X1720846Y1845727D01*
X1726399D01*
X1733341Y1846190D01*
X1867087D01*
X1874491Y1846653D01*
X1882359D01*
X1889763Y1847115D01*
X1896242Y1847578D01*
X1896705D01*
X1899019Y1848041D01*
X1901796D01*
X1905498Y1848967D01*
X1910126Y1849429D01*
X1915217Y1850355D01*
X1926324Y1853132D01*
X1926786D01*
X1927249Y1853594D01*
X1929563Y1854057D01*
X1932340Y1854520D01*
X1935579D01*
X1937430Y1854057D01*
D02*
G37*
G36*
X1401094Y1853594D02*
X1405259Y1853132D01*
X1410812Y1851743D01*
X1416829Y1849892D01*
X1422845Y1846653D01*
X1429324Y1842488D01*
X1434877Y1836471D01*
X1435340Y1836009D01*
X1435803Y1835083D01*
X1436728Y1833695D01*
X1438117Y1831381D01*
X1439968Y1827678D01*
X1441819Y1823513D01*
X1444133Y1817960D01*
X1446447Y1811018D01*
X1448761Y1803151D01*
X1451538Y1793895D01*
X1454314Y1783251D01*
X1457554Y1770755D01*
X1460331Y1756872D01*
X1463107Y1740674D01*
X1464496Y1732344D01*
X1465884Y1723088D01*
X1467272Y1713832D01*
X1468661Y1703651D01*
X1479305Y1618961D01*
Y1618498D01*
X1479768Y1617110D01*
Y1615259D01*
X1480230Y1612945D01*
X1481156Y1608317D01*
X1482082Y1606466D01*
X1482544Y1605077D01*
X1483007Y1604615D01*
X1484396Y1603689D01*
X1487635Y1602301D01*
X1491800Y1600912D01*
X1492726D01*
X1494114Y1600449D01*
X1496891Y1599061D01*
X1499668Y1597673D01*
X1501982Y1594896D01*
X1503370Y1591656D01*
X1503833Y1587491D01*
Y1584715D01*
X1502907Y1581938D01*
X1502444Y1581012D01*
X1501519Y1579161D01*
X1499668Y1575922D01*
X1496891Y1572219D01*
X1493189Y1567591D01*
X1488098Y1563426D01*
X1482082Y1559724D01*
X1474214Y1556485D01*
X1473751D01*
X1473289Y1556022D01*
X1471900D01*
X1470049Y1555559D01*
X1467735Y1555096D01*
X1464958Y1554171D01*
X1461256Y1553708D01*
X1457554Y1553245D01*
X1452926Y1552319D01*
X1448298Y1551857D01*
X1442745Y1551394D01*
X1436728Y1550468D01*
X1430712Y1550006D01*
X1423770D01*
X1416366Y1549543D01*
X1396929D01*
X1392301Y1550006D01*
X1382119D01*
X1370550Y1550468D01*
X1359443Y1551394D01*
X1348799Y1552319D01*
X1343708Y1552782D01*
X1339543Y1553708D01*
X1339080D01*
X1337692Y1554171D01*
X1335841Y1554633D01*
X1333527Y1555096D01*
X1327973Y1557410D01*
X1325659Y1559261D01*
X1323345Y1561575D01*
Y1562038D01*
X1322883Y1562964D01*
X1321957Y1564352D01*
X1321494Y1566203D01*
X1321031Y1568980D01*
Y1571757D01*
Y1574996D01*
X1321957Y1578698D01*
Y1579161D01*
X1322420Y1580087D01*
X1323345Y1581475D01*
X1324271Y1583326D01*
X1326585Y1587029D01*
X1330287Y1590731D01*
X1330750D01*
X1331213Y1591656D01*
X1332601Y1592582D01*
X1334452Y1593508D01*
X1336766Y1594896D01*
X1339543Y1595822D01*
X1343245Y1597210D01*
X1346948Y1598598D01*
X1347410D01*
X1348336Y1599061D01*
X1351113Y1600449D01*
X1354352Y1602763D01*
X1355278Y1604152D01*
X1356203Y1606003D01*
Y1606466D01*
X1356666Y1607854D01*
Y1609705D01*
X1356203Y1611556D01*
X1355278Y1613870D01*
X1353889Y1615721D01*
X1350650Y1617573D01*
X1346485Y1618498D01*
X1345559D01*
X1343245Y1618961D01*
X1339543Y1619424D01*
X1333989Y1619887D01*
X1327048D01*
X1318717Y1620349D01*
X1308999Y1620812D01*
X1288636D01*
X1283546Y1620349D01*
X1277992D01*
X1272901Y1619887D01*
X1268274Y1618961D01*
X1266885Y1618498D01*
X1265497Y1618035D01*
X1265034D01*
X1264108Y1617110D01*
X1261795Y1615259D01*
X1259481Y1612482D01*
X1259018Y1611556D01*
X1257629Y1609705D01*
X1256241Y1606928D01*
X1254853Y1603689D01*
Y1603226D01*
X1254390Y1602301D01*
X1253927Y1601375D01*
Y1600449D01*
X1254853Y1599987D01*
X1257167Y1599061D01*
X1258555Y1598598D01*
X1260869Y1597673D01*
X1261795Y1597210D01*
X1263183Y1596747D01*
X1265960Y1595359D01*
X1268274Y1593508D01*
X1270588Y1590731D01*
X1272439Y1587491D01*
X1272901Y1583326D01*
Y1581012D01*
X1271976Y1578236D01*
Y1577773D01*
X1271513Y1576847D01*
X1270588Y1575459D01*
X1269662Y1573608D01*
X1267811Y1571757D01*
X1265497Y1568980D01*
X1262720Y1566666D01*
X1259018Y1563889D01*
X1254853Y1561112D01*
X1249762Y1558799D01*
X1243746Y1556022D01*
X1236804Y1554171D01*
X1228474Y1552319D01*
X1219681Y1550931D01*
X1209499Y1550006D01*
X1197930Y1549543D01*
X1189600D01*
X1186360Y1550006D01*
X1178955D01*
X1170625Y1550931D01*
X1161832Y1551857D01*
X1153965Y1552782D01*
X1147023Y1554633D01*
X1146560Y1555096D01*
X1145172Y1555559D01*
X1142858Y1556947D01*
X1141007Y1559261D01*
X1139156Y1562038D01*
X1137767Y1566203D01*
Y1571294D01*
X1138230Y1574071D01*
X1139156Y1577310D01*
Y1577773D01*
X1139618Y1578698D01*
X1140544Y1580087D01*
X1141470Y1581938D01*
X1143784Y1586103D01*
X1147486Y1589805D01*
X1147949D01*
X1148411Y1590731D01*
X1149800Y1591656D01*
X1151651Y1592582D01*
X1153965Y1593970D01*
X1156742Y1594896D01*
X1159981Y1596284D01*
X1163683Y1597673D01*
X1164146D01*
X1165997Y1598598D01*
X1168774Y1599524D01*
X1172014Y1600912D01*
X1179418Y1605077D01*
X1186823Y1610168D01*
X1187286Y1610631D01*
X1188674Y1612019D01*
X1190988Y1614333D01*
X1194227Y1617573D01*
X1198393Y1622200D01*
X1203946Y1628679D01*
X1210425Y1636084D01*
X1214127Y1640712D01*
X1218292Y1645803D01*
X1269662Y1710593D01*
X1270125Y1711056D01*
X1271050Y1711981D01*
X1272439Y1713832D01*
X1274290Y1716146D01*
X1276604Y1719386D01*
X1278918Y1722625D01*
X1284934Y1730493D01*
X1291413Y1738823D01*
X1297892Y1747616D01*
X1303908Y1755946D01*
X1308999Y1762888D01*
X1309462Y1763814D01*
X1310850Y1766128D01*
X1313164Y1769367D01*
X1315478Y1773532D01*
X1318255Y1779086D01*
X1321031Y1784639D01*
X1323808Y1790655D01*
X1326122Y1796672D01*
X1326585Y1797597D01*
X1327048Y1799911D01*
X1328436Y1803151D01*
X1329824Y1806853D01*
X1333527Y1815646D01*
X1335378Y1819348D01*
X1337229Y1822588D01*
X1337692Y1823050D01*
X1338155Y1823976D01*
X1339543Y1825364D01*
X1340931Y1827678D01*
X1343245Y1829992D01*
X1346022Y1832306D01*
X1348799Y1835083D01*
X1352501Y1837860D01*
X1352964D01*
X1353427Y1838785D01*
X1356203Y1840636D01*
X1360368Y1842950D01*
X1365922Y1846190D01*
X1372401Y1848967D01*
X1380268Y1851743D01*
X1388598Y1853594D01*
X1397391Y1854057D01*
X1398317D01*
X1401094Y1853594D01*
D02*
G37*
G36*
X-907831Y-1601991D02*
X-913386D01*
Y-1601806D01*
Y-1601436D01*
Y-1600695D01*
Y-1599769D01*
X-913571Y-1598843D01*
Y-1597547D01*
X-913942Y-1594585D01*
X-914497Y-1591622D01*
X-915423Y-1588474D01*
X-916534Y-1585511D01*
X-918015Y-1582919D01*
X-918201Y-1582734D01*
X-918941Y-1581993D01*
X-920052Y-1581067D01*
X-921904Y-1579956D01*
X-924126Y-1578845D01*
X-927274Y-1577920D01*
X-928940Y-1577549D01*
X-930977Y-1577179D01*
X-933014Y-1576994D01*
X-958011D01*
X-967084Y-1619582D01*
X-961900D01*
X-959863Y-1619397D01*
X-957456Y-1619212D01*
X-954678Y-1618841D01*
X-951716Y-1618101D01*
X-948938Y-1617360D01*
X-946531Y-1616249D01*
X-946346Y-1616064D01*
X-945605Y-1615508D01*
X-944494Y-1614582D01*
X-943013Y-1613101D01*
X-941532Y-1611064D01*
X-940050Y-1608287D01*
X-938569Y-1605139D01*
X-937828Y-1603102D01*
X-937273Y-1601065D01*
X-931533D01*
X-940976Y-1646616D01*
X-946531D01*
Y-1646431D01*
X-946346Y-1646061D01*
Y-1645505D01*
X-946161Y-1644765D01*
X-945976Y-1642913D01*
Y-1640691D01*
Y-1640506D01*
Y-1639950D01*
X-946161Y-1639024D01*
Y-1637913D01*
X-946531Y-1636617D01*
X-946901Y-1635136D01*
X-947272Y-1633655D01*
X-948012Y-1631988D01*
Y-1631803D01*
X-948383Y-1631247D01*
X-948753Y-1630507D01*
X-949494Y-1629581D01*
X-951160Y-1627729D01*
X-952271Y-1626989D01*
X-953382Y-1626433D01*
X-953567D01*
X-953938Y-1626248D01*
X-954678Y-1626063D01*
X-955789Y-1625692D01*
X-957085Y-1625507D01*
X-958752Y-1625322D01*
X-960604Y-1625137D01*
X-968195D01*
X-978565Y-1674947D01*
X-960418D01*
X-958196Y-1674761D01*
X-955789Y-1674576D01*
X-953012Y-1674391D01*
X-950234Y-1674021D01*
X-947457Y-1673465D01*
X-947086D01*
X-946161Y-1673095D01*
X-944679Y-1672539D01*
X-942828Y-1671799D01*
X-940421Y-1670688D01*
X-937828Y-1669206D01*
X-934866Y-1667355D01*
X-931903Y-1665133D01*
X-931718D01*
X-931533Y-1664762D01*
X-930422Y-1663837D01*
X-928940Y-1662170D01*
X-926718Y-1659948D01*
X-924311Y-1656986D01*
X-921719Y-1653282D01*
X-918941Y-1648838D01*
X-916164Y-1643839D01*
X-910609D01*
X-919312Y-1680502D01*
X-1018561D01*
X-1017450Y-1674947D01*
X-1004673D01*
X-984120Y-1576994D01*
X-999118D01*
X-998007Y-1571439D01*
X-901350D01*
X-907831Y-1601991D01*
D02*
G37*
G36*
X-1132067D02*
X-1137622D01*
Y-1601806D01*
Y-1601436D01*
Y-1600695D01*
Y-1599769D01*
X-1137807Y-1598843D01*
Y-1597547D01*
X-1138178Y-1594585D01*
X-1138733Y-1591622D01*
X-1139659Y-1588474D01*
X-1140770Y-1585511D01*
X-1142251Y-1582919D01*
X-1142437Y-1582734D01*
X-1143177Y-1581993D01*
X-1144288Y-1581067D01*
X-1146140Y-1579956D01*
X-1148362Y-1578845D01*
X-1151510Y-1577920D01*
X-1153176Y-1577549D01*
X-1155213Y-1577179D01*
X-1157250Y-1576994D01*
X-1182247D01*
X-1191320Y-1619582D01*
X-1186136D01*
X-1184099Y-1619397D01*
X-1181692Y-1619212D01*
X-1178914Y-1618841D01*
X-1175952Y-1618101D01*
X-1173174Y-1617360D01*
X-1170767Y-1616249D01*
X-1170582Y-1616064D01*
X-1169841Y-1615508D01*
X-1168730Y-1614582D01*
X-1167249Y-1613101D01*
X-1165768Y-1611064D01*
X-1164286Y-1608287D01*
X-1162805Y-1605139D01*
X-1162064Y-1603102D01*
X-1161509Y-1601065D01*
X-1155769D01*
X-1165212Y-1646616D01*
X-1170767D01*
Y-1646431D01*
X-1170582Y-1646061D01*
Y-1645505D01*
X-1170397Y-1644765D01*
X-1170212Y-1642913D01*
Y-1640691D01*
Y-1640506D01*
Y-1639950D01*
X-1170397Y-1639024D01*
Y-1637913D01*
X-1170767Y-1636617D01*
X-1171137Y-1635136D01*
X-1171508Y-1633655D01*
X-1172248Y-1631988D01*
Y-1631803D01*
X-1172619Y-1631247D01*
X-1172989Y-1630507D01*
X-1173730Y-1629581D01*
X-1175396Y-1627729D01*
X-1176507Y-1626989D01*
X-1177618Y-1626433D01*
X-1177803D01*
X-1178174Y-1626248D01*
X-1178914Y-1626063D01*
X-1180025Y-1625692D01*
X-1181321Y-1625507D01*
X-1182988Y-1625322D01*
X-1184840Y-1625137D01*
X-1192431D01*
X-1202801Y-1674947D01*
X-1184654D01*
X-1182432Y-1674761D01*
X-1180025Y-1674576D01*
X-1177248Y-1674391D01*
X-1174470Y-1674021D01*
X-1171693Y-1673465D01*
X-1171323D01*
X-1170397Y-1673095D01*
X-1168915Y-1672539D01*
X-1167064Y-1671799D01*
X-1164657Y-1670688D01*
X-1162064Y-1669206D01*
X-1159102Y-1667355D01*
X-1156139Y-1665133D01*
X-1155954D01*
X-1155769Y-1664762D01*
X-1154658Y-1663837D01*
X-1153176Y-1662170D01*
X-1150954Y-1659948D01*
X-1148547Y-1656986D01*
X-1145955Y-1653282D01*
X-1143177Y-1648838D01*
X-1140400Y-1643839D01*
X-1134845D01*
X-1143548Y-1680502D01*
X-1242797D01*
X-1241686Y-1674947D01*
X-1228909D01*
X-1208356Y-1576994D01*
X-1223354D01*
X-1222243Y-1571439D01*
X-1125587D01*
X-1132067Y-1601991D01*
D02*
G37*
G36*
X-1058556Y-1569032D02*
X-1055409Y-1569217D01*
X-1053927Y-1569402D01*
X-1052446Y-1569772D01*
X-1052261D01*
X-1051705Y-1569957D01*
X-1050965Y-1570143D01*
X-1049854Y-1570513D01*
X-1048372Y-1570883D01*
X-1046706Y-1571439D01*
X-1044854Y-1572179D01*
X-1042632Y-1572920D01*
X-1042447D01*
X-1041706Y-1573290D01*
X-1040595Y-1573476D01*
X-1039299Y-1573846D01*
X-1036892Y-1574587D01*
X-1035781Y-1574772D01*
X-1035040Y-1574957D01*
X-1034300D01*
X-1033559Y-1574772D01*
X-1032633Y-1574401D01*
X-1031707Y-1573846D01*
X-1030411Y-1573105D01*
X-1029300Y-1571994D01*
X-1028189Y-1570513D01*
X-1022449D01*
X-1029115Y-1602547D01*
X-1034855D01*
Y-1602176D01*
X-1035040Y-1601251D01*
X-1035226Y-1599954D01*
X-1035596Y-1598103D01*
X-1035966Y-1596066D01*
X-1036707Y-1593659D01*
X-1037633Y-1591066D01*
X-1038929Y-1588474D01*
X-1040410Y-1585882D01*
X-1042262Y-1583289D01*
X-1044484Y-1580882D01*
X-1047076Y-1578845D01*
X-1050039Y-1576994D01*
X-1053557Y-1575512D01*
X-1057445Y-1574772D01*
X-1061889Y-1574401D01*
X-1063371D01*
X-1064852Y-1574587D01*
X-1066889Y-1574957D01*
X-1069111Y-1575512D01*
X-1071518Y-1576253D01*
X-1073925Y-1577179D01*
X-1076147Y-1578660D01*
X-1076332Y-1578845D01*
X-1077073Y-1579401D01*
X-1077814Y-1580327D01*
X-1078925Y-1581623D01*
X-1079851Y-1583104D01*
X-1080776Y-1584771D01*
X-1081517Y-1586808D01*
X-1081702Y-1589030D01*
Y-1589215D01*
Y-1589955D01*
X-1081517Y-1590881D01*
X-1081147Y-1592177D01*
X-1080591Y-1593844D01*
X-1079665Y-1595510D01*
X-1078554Y-1597177D01*
X-1077073Y-1598843D01*
X-1076888Y-1599029D01*
X-1076147Y-1599584D01*
X-1075036Y-1600325D01*
X-1073370Y-1601436D01*
X-1071333Y-1602732D01*
X-1068741Y-1604213D01*
X-1065778Y-1605695D01*
X-1062075Y-1607361D01*
X-1061889D01*
X-1061519Y-1607546D01*
X-1061149Y-1607731D01*
X-1060408Y-1608102D01*
X-1058556Y-1608842D01*
X-1056149Y-1609953D01*
X-1053557Y-1611250D01*
X-1050779Y-1612546D01*
X-1048002Y-1613842D01*
X-1045595Y-1615323D01*
X-1045410Y-1615508D01*
X-1044484Y-1616064D01*
X-1043373Y-1616804D01*
X-1042077Y-1617915D01*
X-1040410Y-1619397D01*
X-1038559Y-1621248D01*
X-1036892Y-1623285D01*
X-1035226Y-1625692D01*
X-1035040Y-1626063D01*
X-1034485Y-1626803D01*
X-1033929Y-1628285D01*
X-1033004Y-1630322D01*
X-1032263Y-1632729D01*
X-1031707Y-1635691D01*
X-1031152Y-1639210D01*
X-1030967Y-1642913D01*
Y-1643098D01*
Y-1643654D01*
Y-1644579D01*
X-1031152Y-1645690D01*
X-1031337Y-1647172D01*
X-1031707Y-1648838D01*
X-1032078Y-1650690D01*
X-1032633Y-1652727D01*
X-1033189Y-1654764D01*
X-1034115Y-1657171D01*
X-1035040Y-1659393D01*
X-1036337Y-1661800D01*
X-1037818Y-1664207D01*
X-1039484Y-1666614D01*
X-1041521Y-1668836D01*
X-1043743Y-1671058D01*
X-1043928Y-1671243D01*
X-1044299Y-1671614D01*
X-1045039Y-1672169D01*
X-1045965Y-1672725D01*
X-1047261Y-1673650D01*
X-1048557Y-1674576D01*
X-1050224Y-1675687D01*
X-1052261Y-1676613D01*
X-1054298Y-1677724D01*
X-1056520Y-1678835D01*
X-1061704Y-1680502D01*
X-1064482Y-1681242D01*
X-1067444Y-1681798D01*
X-1070592Y-1682168D01*
X-1073740Y-1682353D01*
X-1075036D01*
X-1076518Y-1682168D01*
X-1078554D01*
X-1080591Y-1681798D01*
X-1082998Y-1681427D01*
X-1085220Y-1681057D01*
X-1087442Y-1680316D01*
X-1087627D01*
X-1087998Y-1680131D01*
X-1088553Y-1679761D01*
X-1089294Y-1679576D01*
X-1091331Y-1678650D01*
X-1093738Y-1677724D01*
X-1096515Y-1676798D01*
X-1099108Y-1675872D01*
X-1101515Y-1675317D01*
X-1103552Y-1675132D01*
X-1104292D01*
X-1105218Y-1675317D01*
X-1106329Y-1675687D01*
X-1107625Y-1676428D01*
X-1108922Y-1677354D01*
X-1110403Y-1678650D01*
X-1111514Y-1680316D01*
X-1117810D01*
X-1110588Y-1646246D01*
X-1105033D01*
Y-1646431D01*
X-1104848Y-1646987D01*
Y-1647727D01*
X-1104478Y-1648653D01*
X-1104292Y-1649949D01*
X-1103922Y-1651431D01*
X-1102811Y-1654764D01*
X-1101330Y-1658467D01*
X-1099478Y-1662355D01*
X-1096886Y-1666059D01*
X-1093923Y-1669206D01*
X-1093738D01*
X-1093553Y-1669577D01*
X-1092997Y-1669947D01*
X-1092257Y-1670317D01*
X-1090405Y-1671614D01*
X-1087998Y-1672910D01*
X-1085035Y-1674391D01*
X-1081332Y-1675687D01*
X-1077443Y-1676428D01*
X-1073185Y-1676798D01*
X-1072074D01*
X-1071333Y-1676613D01*
X-1069111Y-1676428D01*
X-1066519Y-1675872D01*
X-1063741Y-1675132D01*
X-1060593Y-1673836D01*
X-1057631Y-1672169D01*
X-1054853Y-1669947D01*
X-1054483Y-1669577D01*
X-1053742Y-1668651D01*
X-1052631Y-1667170D01*
X-1051335Y-1665318D01*
X-1050224Y-1663096D01*
X-1049113Y-1660318D01*
X-1048372Y-1657356D01*
X-1048002Y-1654208D01*
Y-1654023D01*
Y-1653282D01*
X-1048187Y-1652171D01*
X-1048557Y-1650875D01*
X-1048928Y-1649394D01*
X-1049668Y-1647727D01*
X-1050594Y-1646061D01*
X-1051890Y-1644394D01*
X-1052076Y-1644209D01*
X-1052816Y-1643654D01*
X-1053927Y-1642728D01*
X-1055779Y-1641432D01*
X-1056890Y-1640691D01*
X-1058371Y-1639950D01*
X-1059853Y-1639024D01*
X-1061704Y-1638099D01*
X-1063741Y-1637173D01*
X-1065963Y-1636247D01*
X-1068370Y-1635136D01*
X-1071148Y-1634025D01*
X-1071333D01*
X-1071888Y-1633655D01*
X-1072629Y-1633469D01*
X-1073555Y-1632914D01*
X-1074851Y-1632358D01*
X-1076332Y-1631618D01*
X-1079665Y-1629951D01*
X-1083184Y-1627914D01*
X-1086702Y-1625507D01*
X-1090035Y-1622915D01*
X-1091331Y-1621434D01*
X-1092627Y-1619952D01*
Y-1619767D01*
X-1092812Y-1619582D01*
X-1093553Y-1618471D01*
X-1094479Y-1616804D01*
X-1095590Y-1614582D01*
X-1096886Y-1611990D01*
X-1097812Y-1608842D01*
X-1098552Y-1605509D01*
X-1098737Y-1601806D01*
Y-1601621D01*
Y-1601251D01*
Y-1600510D01*
X-1098552Y-1599584D01*
X-1098367Y-1598288D01*
X-1098182Y-1596992D01*
X-1097441Y-1593844D01*
X-1096145Y-1590141D01*
X-1095219Y-1588289D01*
X-1094108Y-1586252D01*
X-1092997Y-1584400D01*
X-1091516Y-1582364D01*
X-1089849Y-1580512D01*
X-1087998Y-1578660D01*
X-1087813Y-1578475D01*
X-1087442Y-1578290D01*
X-1086887Y-1577734D01*
X-1086146Y-1577179D01*
X-1085035Y-1576438D01*
X-1083739Y-1575512D01*
X-1082258Y-1574587D01*
X-1080776Y-1573661D01*
X-1076888Y-1571994D01*
X-1072444Y-1570328D01*
X-1067444Y-1569217D01*
X-1064667Y-1569032D01*
X-1061889Y-1568846D01*
X-1059853D01*
X-1058556Y-1569032D01*
D02*
G37*
G36*
X-784881Y-1607731D02*
X-790806D01*
Y-1607546D01*
X-790621Y-1606806D01*
Y-1605695D01*
X-790436Y-1604398D01*
X-790251Y-1601621D01*
Y-1600325D01*
Y-1599029D01*
Y-1598843D01*
Y-1598103D01*
X-790436Y-1596992D01*
X-790621Y-1595510D01*
X-790992Y-1593844D01*
X-791362Y-1591992D01*
X-792103Y-1590141D01*
X-793028Y-1587919D01*
X-794139Y-1585882D01*
X-795621Y-1584030D01*
X-797472Y-1582178D01*
X-799509Y-1580512D01*
X-802102Y-1579031D01*
X-805064Y-1577920D01*
X-808397Y-1577179D01*
X-812286Y-1576994D01*
X-817285D01*
X-838209Y-1674947D01*
X-821174D01*
X-822470Y-1680502D01*
X-881538D01*
X-880427Y-1674947D01*
X-864132D01*
X-843208Y-1576994D01*
X-845245D01*
X-846356Y-1577179D01*
X-847652D01*
X-850615Y-1577549D01*
X-853948Y-1578290D01*
X-857466Y-1579216D01*
X-860984Y-1580697D01*
X-864317Y-1582549D01*
X-864688Y-1582919D01*
X-865799Y-1583660D01*
X-866539Y-1584400D01*
X-867465Y-1585326D01*
X-868576Y-1586437D01*
X-869872Y-1587919D01*
X-871354Y-1589400D01*
X-872835Y-1591252D01*
X-874501Y-1593288D01*
X-876168Y-1595510D01*
X-878020Y-1598103D01*
X-880056Y-1601065D01*
X-882093Y-1604213D01*
X-884130Y-1607731D01*
X-890241D01*
X-877464Y-1571439D01*
X-777104D01*
X-784881Y-1607731D01*
D02*
G37*
G36*
X-1406854Y-1576994D02*
X-1419260D01*
X-1440739Y-1681242D01*
X-1446479D01*
X-1497400Y-1576994D01*
X-1497770D01*
X-1517768Y-1674947D01*
X-1505177D01*
X-1506288Y-1680502D01*
X-1537396D01*
X-1536285Y-1674947D01*
X-1523693D01*
X-1503325Y-1576994D01*
X-1517768D01*
X-1516472Y-1571439D01*
X-1471847D01*
X-1438147Y-1640876D01*
X-1437776D01*
X-1424815Y-1576994D01*
X-1437962D01*
X-1436851Y-1571439D01*
X-1405558D01*
X-1406854Y-1576994D01*
D02*
G37*
G36*
X-1704971Y-1571624D02*
X-1703119D01*
X-1700897Y-1571809D01*
X-1698490Y-1572179D01*
X-1696083Y-1572550D01*
X-1690898Y-1573476D01*
X-1685899Y-1574957D01*
X-1683492Y-1575883D01*
X-1681455Y-1576994D01*
X-1679418Y-1578290D01*
X-1677937Y-1579771D01*
X-1677566Y-1580142D01*
X-1676826Y-1581253D01*
X-1675530Y-1582919D01*
X-1674048Y-1585141D01*
X-1672752Y-1587733D01*
X-1671456Y-1590696D01*
X-1670715Y-1594214D01*
X-1670345Y-1597732D01*
Y-1597918D01*
Y-1598288D01*
Y-1599029D01*
X-1670530Y-1599954D01*
X-1670715Y-1601251D01*
X-1671086Y-1602547D01*
X-1672011Y-1605695D01*
X-1672567Y-1607546D01*
X-1673493Y-1609398D01*
X-1674604Y-1611250D01*
X-1675715Y-1613286D01*
X-1677381Y-1615323D01*
X-1679048Y-1617175D01*
X-1681085Y-1619212D01*
X-1683307Y-1621063D01*
X-1683492Y-1621248D01*
X-1683862Y-1621434D01*
X-1684788Y-1621989D01*
X-1685714Y-1622545D01*
X-1687195Y-1623285D01*
X-1689047Y-1624026D01*
X-1691083Y-1624952D01*
X-1693676Y-1625878D01*
X-1696453Y-1626803D01*
X-1699601Y-1627729D01*
X-1703304Y-1628470D01*
X-1707193Y-1629211D01*
X-1711637Y-1629766D01*
X-1716266Y-1630322D01*
X-1721451Y-1630507D01*
X-1727006Y-1630692D01*
X-1738486D01*
X-1747744Y-1674947D01*
X-1732190D01*
X-1733487Y-1680502D01*
X-1788296D01*
X-1787185Y-1674947D01*
X-1773853D01*
X-1753484Y-1576994D01*
X-1769038D01*
X-1767927Y-1571439D01*
X-1706452D01*
X-1704971Y-1571624D01*
D02*
G37*
G36*
X-1284459D02*
X-1282792D01*
X-1280941Y-1571809D01*
X-1276682Y-1572365D01*
X-1272053Y-1573290D01*
X-1267424Y-1574587D01*
X-1265202Y-1575327D01*
X-1263350Y-1576438D01*
X-1261498Y-1577549D01*
X-1260017Y-1578845D01*
X-1259647Y-1579216D01*
X-1258906Y-1580142D01*
X-1257795Y-1581623D01*
X-1256314Y-1583660D01*
X-1255018Y-1586067D01*
X-1253907Y-1588844D01*
X-1253166Y-1591807D01*
X-1252796Y-1595140D01*
Y-1595325D01*
Y-1595696D01*
Y-1596251D01*
X-1252981Y-1596992D01*
X-1253351Y-1598843D01*
X-1253907Y-1601436D01*
X-1255203Y-1604398D01*
X-1256869Y-1607361D01*
X-1257980Y-1609028D01*
X-1259276Y-1610509D01*
X-1260758Y-1611990D01*
X-1262424Y-1613471D01*
X-1262609D01*
X-1262795Y-1613842D01*
X-1263350Y-1614212D01*
X-1264276Y-1614582D01*
X-1265202Y-1615323D01*
X-1266498Y-1615879D01*
X-1267979Y-1616619D01*
X-1269831Y-1617360D01*
X-1271682Y-1618101D01*
X-1273904Y-1619026D01*
X-1276497Y-1619767D01*
X-1279089Y-1620508D01*
X-1282052Y-1621248D01*
X-1285200Y-1621804D01*
X-1288718Y-1622359D01*
X-1292421Y-1622730D01*
Y-1622915D01*
X-1292236D01*
X-1291866Y-1623100D01*
X-1291125Y-1623470D01*
X-1290199Y-1623841D01*
X-1289088Y-1624211D01*
X-1287977Y-1624952D01*
X-1285014Y-1626433D01*
X-1282052Y-1628100D01*
X-1278904Y-1630322D01*
X-1276126Y-1632729D01*
X-1274830Y-1634025D01*
X-1273719Y-1635506D01*
X-1273534Y-1635877D01*
X-1272793Y-1636802D01*
X-1271868Y-1638469D01*
X-1270942Y-1640876D01*
X-1269831Y-1643654D01*
X-1268720Y-1647172D01*
X-1267979Y-1651245D01*
X-1267609Y-1655875D01*
Y-1656060D01*
Y-1656430D01*
Y-1656986D01*
X-1267424Y-1657911D01*
X-1267239Y-1659948D01*
X-1266868Y-1662540D01*
X-1266498Y-1665133D01*
X-1265942Y-1667725D01*
X-1265017Y-1669762D01*
X-1264646Y-1670503D01*
X-1264091Y-1671058D01*
X-1263906Y-1671243D01*
X-1263535Y-1671428D01*
X-1262980Y-1671799D01*
X-1262239Y-1672169D01*
X-1260202Y-1673095D01*
X-1259091Y-1673280D01*
X-1257980Y-1673465D01*
X-1257425D01*
X-1256869Y-1673280D01*
X-1256129D01*
X-1255203Y-1673095D01*
X-1254092Y-1672725D01*
X-1251314Y-1671799D01*
X-1248722Y-1676798D01*
X-1249092Y-1676983D01*
X-1250203Y-1677539D01*
X-1251870Y-1678280D01*
X-1254092Y-1679020D01*
X-1256869Y-1679761D01*
X-1260202Y-1680502D01*
X-1263906Y-1681057D01*
X-1267794Y-1681242D01*
X-1269461D01*
X-1271497Y-1681057D01*
X-1273719Y-1680687D01*
X-1276497Y-1680316D01*
X-1279274Y-1679761D01*
X-1282237Y-1678835D01*
X-1284829Y-1677539D01*
X-1285200Y-1677354D01*
X-1285940Y-1676798D01*
X-1287051Y-1676058D01*
X-1288533Y-1674761D01*
X-1290014Y-1673465D01*
X-1291680Y-1671799D01*
X-1292977Y-1669762D01*
X-1294273Y-1667725D01*
X-1294458Y-1667355D01*
X-1294643Y-1666614D01*
X-1295013Y-1665133D01*
X-1295569Y-1663281D01*
X-1296124Y-1660689D01*
X-1296495Y-1657541D01*
X-1296865Y-1653653D01*
X-1297050Y-1649394D01*
Y-1649209D01*
Y-1648838D01*
Y-1648283D01*
Y-1647357D01*
X-1297235Y-1645135D01*
X-1297421Y-1642357D01*
X-1297791Y-1639395D01*
X-1298346Y-1636432D01*
X-1299087Y-1633469D01*
X-1300013Y-1631062D01*
X-1300198Y-1630877D01*
X-1300568Y-1630136D01*
X-1301494Y-1629211D01*
X-1302976Y-1627914D01*
X-1304827Y-1626803D01*
X-1307234Y-1625878D01*
X-1310382Y-1625137D01*
X-1312234Y-1624952D01*
X-1319640D01*
X-1330010Y-1674947D01*
X-1314826D01*
X-1315937Y-1680502D01*
X-1369265D01*
X-1368154Y-1674947D01*
X-1355933D01*
X-1335565Y-1576994D01*
X-1349823D01*
X-1348712Y-1571439D01*
X-1285755D01*
X-1284459Y-1571624D01*
D02*
G37*
G36*
X-1584428Y-1569032D02*
X-1582761Y-1569217D01*
X-1580725Y-1569402D01*
X-1578503Y-1569772D01*
X-1576095Y-1570328D01*
X-1570911Y-1571624D01*
X-1568318Y-1572550D01*
X-1565726Y-1573661D01*
X-1562949Y-1574957D01*
X-1560356Y-1576623D01*
X-1557949Y-1578290D01*
X-1555727Y-1580327D01*
X-1555542Y-1580512D01*
X-1555172Y-1580882D01*
X-1554616Y-1581438D01*
X-1553875Y-1582364D01*
X-1552950Y-1583475D01*
X-1552024Y-1584956D01*
X-1550913Y-1586622D01*
X-1549802Y-1588474D01*
X-1548876Y-1590511D01*
X-1547765Y-1592733D01*
X-1546839Y-1595325D01*
X-1545913Y-1598103D01*
X-1545173Y-1601065D01*
X-1544617Y-1604213D01*
X-1544247Y-1607546D01*
X-1544062Y-1611064D01*
Y-1611250D01*
Y-1611805D01*
Y-1612546D01*
X-1544247Y-1613842D01*
X-1544432Y-1615138D01*
X-1544617Y-1616990D01*
X-1544802Y-1618841D01*
X-1545173Y-1621063D01*
X-1545728Y-1623470D01*
X-1546284Y-1625878D01*
X-1547950Y-1631433D01*
X-1549061Y-1634580D01*
X-1550357Y-1637543D01*
X-1551839Y-1640691D01*
X-1553505Y-1644024D01*
X-1553690Y-1644209D01*
X-1553875Y-1644765D01*
X-1554431Y-1645690D01*
X-1555172Y-1646987D01*
X-1556097Y-1648468D01*
X-1557394Y-1650134D01*
X-1558690Y-1651986D01*
X-1560171Y-1654023D01*
X-1562023Y-1656245D01*
X-1563874Y-1658467D01*
X-1568318Y-1663096D01*
X-1573503Y-1667725D01*
X-1579243Y-1671984D01*
X-1579428Y-1672169D01*
X-1579984Y-1672354D01*
X-1580910Y-1672910D01*
X-1582021Y-1673650D01*
X-1583502Y-1674391D01*
X-1585354Y-1675317D01*
X-1587391Y-1676243D01*
X-1589798Y-1677169D01*
X-1592390Y-1678094D01*
X-1595167Y-1679020D01*
X-1598130Y-1679946D01*
X-1601278Y-1680687D01*
X-1607944Y-1681983D01*
X-1611462Y-1682168D01*
X-1615165Y-1682353D01*
X-1617202D01*
X-1618498Y-1682168D01*
X-1620350Y-1681983D01*
X-1622387Y-1681798D01*
X-1624609Y-1681427D01*
X-1627016Y-1680872D01*
X-1632201Y-1679391D01*
X-1634793Y-1678465D01*
X-1637571Y-1677354D01*
X-1640163Y-1675872D01*
X-1642755Y-1674206D01*
X-1645347Y-1672354D01*
X-1647569Y-1670317D01*
X-1647755Y-1670132D01*
X-1648125Y-1669762D01*
X-1648680Y-1669021D01*
X-1649421Y-1668095D01*
X-1650162Y-1666984D01*
X-1651273Y-1665503D01*
X-1652199Y-1664022D01*
X-1653310Y-1662170D01*
X-1654421Y-1660133D01*
X-1655346Y-1658097D01*
X-1657198Y-1653282D01*
X-1657939Y-1650505D01*
X-1658494Y-1647912D01*
X-1658865Y-1644950D01*
X-1659050Y-1641987D01*
Y-1641617D01*
Y-1640876D01*
X-1658865Y-1639395D01*
X-1658679Y-1637543D01*
X-1658494Y-1635136D01*
X-1657939Y-1632544D01*
X-1657383Y-1629396D01*
X-1656457Y-1626063D01*
X-1655532Y-1622359D01*
X-1654050Y-1618471D01*
X-1652569Y-1614212D01*
X-1650532Y-1609953D01*
X-1648310Y-1605695D01*
X-1645533Y-1601251D01*
X-1642385Y-1596807D01*
X-1638867Y-1592363D01*
X-1638682Y-1592177D01*
X-1637941Y-1591437D01*
X-1636830Y-1590141D01*
X-1635163Y-1588659D01*
X-1633127Y-1586993D01*
X-1630719Y-1584956D01*
X-1627942Y-1582734D01*
X-1624794Y-1580512D01*
X-1621276Y-1578475D01*
X-1617387Y-1576253D01*
X-1613314Y-1574216D01*
X-1608685Y-1572550D01*
X-1603870Y-1571068D01*
X-1598686Y-1569772D01*
X-1593316Y-1569032D01*
X-1587761Y-1568846D01*
X-1585724D01*
X-1584428Y-1569032D01*
D02*
G37*
G36*
X1565079Y-1639212D02*
X1562305D01*
Y-1639119D01*
Y-1638934D01*
Y-1638565D01*
Y-1638102D01*
X1562213Y-1637640D01*
Y-1636993D01*
X1562028Y-1635514D01*
X1561750Y-1634034D01*
X1561288Y-1632463D01*
X1560733Y-1630983D01*
X1559994Y-1629689D01*
X1559901Y-1629596D01*
X1559532Y-1629227D01*
X1558977Y-1628764D01*
X1558052Y-1628210D01*
X1556943Y-1627655D01*
X1555371Y-1627193D01*
X1554539Y-1627008D01*
X1553522Y-1626823D01*
X1552505Y-1626730D01*
X1540023D01*
X1535493Y-1647995D01*
X1538082D01*
X1539099Y-1647903D01*
X1540301Y-1647810D01*
X1541688Y-1647625D01*
X1543167Y-1647256D01*
X1544554Y-1646886D01*
X1545756Y-1646331D01*
X1545848Y-1646239D01*
X1546218Y-1645961D01*
X1546773Y-1645499D01*
X1547512Y-1644759D01*
X1548252Y-1643742D01*
X1548992Y-1642355D01*
X1549731Y-1640784D01*
X1550101Y-1639767D01*
X1550378Y-1638750D01*
X1553245D01*
X1548529Y-1661494D01*
X1545756D01*
Y-1661401D01*
X1545848Y-1661216D01*
Y-1660939D01*
X1545941Y-1660569D01*
X1546033Y-1659645D01*
Y-1658535D01*
Y-1658443D01*
Y-1658165D01*
X1545941Y-1657703D01*
Y-1657148D01*
X1545756Y-1656501D01*
X1545571Y-1655761D01*
X1545386Y-1655022D01*
X1545016Y-1654190D01*
Y-1654097D01*
X1544831Y-1653820D01*
X1544646Y-1653450D01*
X1544276Y-1652988D01*
X1543444Y-1652063D01*
X1542889Y-1651693D01*
X1542335Y-1651416D01*
X1542242D01*
X1542057Y-1651324D01*
X1541688Y-1651231D01*
X1541133Y-1651046D01*
X1540486Y-1650954D01*
X1539654Y-1650861D01*
X1538729Y-1650769D01*
X1534938D01*
X1529761Y-1675640D01*
X1538821D01*
X1539931Y-1675547D01*
X1541133Y-1675455D01*
X1542520Y-1675362D01*
X1543906Y-1675177D01*
X1545293Y-1674900D01*
X1545478D01*
X1545941Y-1674715D01*
X1546680Y-1674438D01*
X1547605Y-1674068D01*
X1548807Y-1673513D01*
X1550101Y-1672773D01*
X1551580Y-1671849D01*
X1553060Y-1670739D01*
X1553152D01*
X1553245Y-1670554D01*
X1553799Y-1670092D01*
X1554539Y-1669260D01*
X1555648Y-1668151D01*
X1556850Y-1666671D01*
X1558145Y-1664822D01*
X1559532Y-1662603D01*
X1560918Y-1660107D01*
X1563692D01*
X1559347Y-1678413D01*
X1509790D01*
X1510345Y-1675640D01*
X1516724D01*
X1526987Y-1626730D01*
X1519498D01*
X1520053Y-1623957D01*
X1568315D01*
X1565079Y-1639212D01*
D02*
G37*
G36*
X1378410D02*
X1375637D01*
Y-1639119D01*
Y-1638934D01*
Y-1638565D01*
Y-1638102D01*
X1375544Y-1637640D01*
Y-1636993D01*
X1375359Y-1635514D01*
X1375082Y-1634034D01*
X1374620Y-1632463D01*
X1374065Y-1630983D01*
X1373325Y-1629689D01*
X1373233Y-1629596D01*
X1372863Y-1629227D01*
X1372308Y-1628764D01*
X1371384Y-1628210D01*
X1370274Y-1627655D01*
X1368702Y-1627193D01*
X1367870Y-1627008D01*
X1366853Y-1626823D01*
X1365836Y-1626730D01*
X1353355D01*
X1348824Y-1647995D01*
X1351413D01*
X1352430Y-1647903D01*
X1353632Y-1647810D01*
X1355019Y-1647625D01*
X1356498Y-1647256D01*
X1357885Y-1646886D01*
X1359087Y-1646331D01*
X1359179Y-1646239D01*
X1359549Y-1645961D01*
X1360104Y-1645499D01*
X1360844Y-1644759D01*
X1361583Y-1643742D01*
X1362323Y-1642355D01*
X1363063Y-1640784D01*
X1363432Y-1639767D01*
X1363710Y-1638750D01*
X1366576D01*
X1361861Y-1661494D01*
X1359087D01*
Y-1661401D01*
X1359179Y-1661216D01*
Y-1660939D01*
X1359272Y-1660569D01*
X1359364Y-1659645D01*
Y-1658535D01*
Y-1658443D01*
Y-1658165D01*
X1359272Y-1657703D01*
Y-1657148D01*
X1359087Y-1656501D01*
X1358902Y-1655761D01*
X1358717Y-1655022D01*
X1358347Y-1654190D01*
Y-1654097D01*
X1358162Y-1653820D01*
X1357977Y-1653450D01*
X1357608Y-1652988D01*
X1356776Y-1652063D01*
X1356221Y-1651693D01*
X1355666Y-1651416D01*
X1355574D01*
X1355389Y-1651324D01*
X1355019Y-1651231D01*
X1354464Y-1651046D01*
X1353817Y-1650954D01*
X1352985Y-1650861D01*
X1352060Y-1650769D01*
X1348270D01*
X1343092Y-1675640D01*
X1352153D01*
X1353262Y-1675547D01*
X1354464Y-1675455D01*
X1355851Y-1675362D01*
X1357238Y-1675177D01*
X1358625Y-1674900D01*
X1358810D01*
X1359272Y-1674715D01*
X1360012Y-1674438D01*
X1360936Y-1674068D01*
X1362138Y-1673513D01*
X1363432Y-1672773D01*
X1364912Y-1671849D01*
X1366391Y-1670739D01*
X1366483D01*
X1366576Y-1670554D01*
X1367131Y-1670092D01*
X1367870Y-1669260D01*
X1368980Y-1668151D01*
X1370182Y-1666671D01*
X1371476Y-1664822D01*
X1372863Y-1662603D01*
X1374250Y-1660107D01*
X1377023D01*
X1372678Y-1678413D01*
X1323122D01*
X1323676Y-1675640D01*
X1330056D01*
X1340318Y-1626730D01*
X1332829D01*
X1333384Y-1623957D01*
X1381646D01*
X1378410Y-1639212D01*
D02*
G37*
G36*
X1210418Y-1622847D02*
X1211712Y-1623032D01*
X1213284Y-1623402D01*
X1215133Y-1623864D01*
X1217259Y-1624604D01*
X1219571Y-1625621D01*
X1219663D01*
X1219848Y-1625713D01*
X1220126Y-1625806D01*
X1220495Y-1625898D01*
X1221328Y-1626176D01*
X1222252Y-1626268D01*
X1222622D01*
X1223084Y-1626083D01*
X1223639Y-1625898D01*
X1224286Y-1625621D01*
X1224933Y-1625159D01*
X1225488Y-1624511D01*
X1226043Y-1623679D01*
X1228816D01*
X1225580Y-1639397D01*
X1222807D01*
Y-1639304D01*
Y-1639119D01*
X1222714Y-1638750D01*
X1222622Y-1638287D01*
X1222437Y-1637733D01*
X1222345Y-1637085D01*
X1221882Y-1635606D01*
X1221235Y-1633942D01*
X1220495Y-1632185D01*
X1219478Y-1630521D01*
X1218184Y-1629042D01*
X1217999Y-1628857D01*
X1217537Y-1628487D01*
X1216705Y-1627932D01*
X1215688Y-1627193D01*
X1214301Y-1626545D01*
X1212729Y-1625991D01*
X1210880Y-1625621D01*
X1208846Y-1625436D01*
X1208199D01*
X1207644Y-1625528D01*
X1206997D01*
X1206350Y-1625621D01*
X1204685Y-1625991D01*
X1202836Y-1626453D01*
X1200895Y-1627285D01*
X1198953Y-1628302D01*
X1198029Y-1629042D01*
X1197104Y-1629781D01*
X1197012Y-1629874D01*
X1196919Y-1629966D01*
X1196642Y-1630244D01*
X1196364Y-1630613D01*
X1195995Y-1631168D01*
X1195532Y-1631815D01*
X1195070Y-1632647D01*
X1194515Y-1633572D01*
X1193961Y-1634682D01*
X1193313Y-1635976D01*
X1192759Y-1637455D01*
X1192111Y-1639027D01*
X1191464Y-1640876D01*
X1190909Y-1642910D01*
X1190262Y-1645129D01*
X1189708Y-1647533D01*
Y-1647718D01*
X1189615Y-1648088D01*
X1189430Y-1648827D01*
X1189245Y-1649752D01*
X1189060Y-1650769D01*
X1188783Y-1652063D01*
X1188506Y-1653450D01*
X1188228Y-1654929D01*
X1187674Y-1657980D01*
X1187211Y-1661031D01*
X1187026Y-1662418D01*
X1186841Y-1663713D01*
X1186749Y-1664915D01*
Y-1665932D01*
Y-1666117D01*
X1186841Y-1666671D01*
X1186934Y-1667411D01*
X1187119Y-1668428D01*
X1187489Y-1669630D01*
X1188043Y-1670924D01*
X1188783Y-1672126D01*
X1189800Y-1673421D01*
X1189985Y-1673513D01*
X1190355Y-1673883D01*
X1191094Y-1674438D01*
X1192111Y-1674992D01*
X1193406Y-1675547D01*
X1194978Y-1676102D01*
X1196734Y-1676472D01*
X1198861Y-1676564D01*
X1199323D01*
X1199878Y-1676472D01*
X1200525D01*
X1201357Y-1676287D01*
X1202282Y-1676194D01*
X1204316Y-1675640D01*
X1205333Y-1675177D01*
X1206350Y-1674715D01*
X1207367Y-1674068D01*
X1208384Y-1673328D01*
X1209216Y-1672404D01*
X1209955Y-1671387D01*
X1210510Y-1670277D01*
X1210880Y-1668890D01*
Y-1668798D01*
X1210972Y-1668520D01*
Y-1668243D01*
X1211065Y-1667873D01*
X1211157Y-1667318D01*
X1211342Y-1666671D01*
X1212637Y-1660847D01*
X1205240D01*
X1205795Y-1658073D01*
X1231867D01*
X1231220Y-1660847D01*
X1225580D01*
X1223824Y-1669353D01*
X1223731Y-1669445D01*
X1223362Y-1669815D01*
X1222714Y-1670277D01*
X1221882Y-1670924D01*
X1220865Y-1671664D01*
X1219571Y-1672496D01*
X1218184Y-1673421D01*
X1216520Y-1674345D01*
X1214763Y-1675270D01*
X1212822Y-1676194D01*
X1210695Y-1677026D01*
X1208476Y-1677766D01*
X1206165Y-1678413D01*
X1203668Y-1678875D01*
X1201080Y-1679245D01*
X1198398Y-1679338D01*
X1197936D01*
X1197289Y-1679245D01*
X1196549D01*
X1195532Y-1679153D01*
X1194515Y-1678968D01*
X1193221Y-1678783D01*
X1191926Y-1678506D01*
X1190447Y-1678136D01*
X1189060Y-1677674D01*
X1187489Y-1677119D01*
X1186009Y-1676472D01*
X1184530Y-1675640D01*
X1183051Y-1674715D01*
X1181571Y-1673698D01*
X1180277Y-1672496D01*
X1180185Y-1672404D01*
X1180000Y-1672219D01*
X1179630Y-1671756D01*
X1179260Y-1671294D01*
X1178705Y-1670554D01*
X1178151Y-1669815D01*
X1177503Y-1668890D01*
X1176949Y-1667873D01*
X1176301Y-1666671D01*
X1175654Y-1665469D01*
X1175100Y-1664083D01*
X1174545Y-1662696D01*
X1174175Y-1661124D01*
X1173805Y-1659552D01*
X1173620Y-1657888D01*
X1173528Y-1656131D01*
Y-1655946D01*
Y-1655577D01*
X1173620Y-1654929D01*
X1173713Y-1654005D01*
X1173898Y-1652895D01*
X1174082Y-1651601D01*
X1174452Y-1650122D01*
X1174915Y-1648550D01*
X1175469Y-1646793D01*
X1176209Y-1644944D01*
X1177041Y-1643095D01*
X1178151Y-1641153D01*
X1179352Y-1639119D01*
X1180832Y-1637085D01*
X1182496Y-1635051D01*
X1184438Y-1633110D01*
X1184530Y-1633017D01*
X1184900Y-1632647D01*
X1185547Y-1632185D01*
X1186379Y-1631446D01*
X1187396Y-1630706D01*
X1188598Y-1629781D01*
X1189985Y-1628857D01*
X1191649Y-1627840D01*
X1193313Y-1626915D01*
X1195255Y-1625991D01*
X1197196Y-1625066D01*
X1199323Y-1624326D01*
X1201542Y-1623587D01*
X1203853Y-1623125D01*
X1206257Y-1622755D01*
X1208753Y-1622662D01*
X1209493D01*
X1210418Y-1622847D01*
D02*
G37*
G36*
X762561D02*
X763855Y-1623032D01*
X765427Y-1623402D01*
X767276Y-1623864D01*
X769403Y-1624604D01*
X771714Y-1625621D01*
X771806D01*
X771991Y-1625713D01*
X772269Y-1625806D01*
X772639Y-1625898D01*
X773471Y-1626176D01*
X774395Y-1626268D01*
X774765D01*
X775227Y-1626083D01*
X775782Y-1625898D01*
X776429Y-1625621D01*
X777076Y-1625159D01*
X777631Y-1624511D01*
X778186Y-1623679D01*
X780960D01*
X777724Y-1639397D01*
X774950D01*
Y-1639304D01*
Y-1639119D01*
X774857Y-1638750D01*
X774765Y-1638287D01*
X774580Y-1637733D01*
X774488Y-1637085D01*
X774025Y-1635606D01*
X773378Y-1633942D01*
X772639Y-1632185D01*
X771622Y-1630521D01*
X770327Y-1629042D01*
X770142Y-1628857D01*
X769680Y-1628487D01*
X768848Y-1627932D01*
X767831Y-1627193D01*
X766444Y-1626545D01*
X764872Y-1625991D01*
X763023Y-1625621D01*
X760989Y-1625436D01*
X760342D01*
X759787Y-1625528D01*
X759140D01*
X758493Y-1625621D01*
X756829Y-1625991D01*
X754979Y-1626453D01*
X753038Y-1627285D01*
X751096Y-1628302D01*
X750172Y-1629042D01*
X749247Y-1629781D01*
X749155Y-1629874D01*
X749062Y-1629966D01*
X748785Y-1630244D01*
X748508Y-1630613D01*
X748138Y-1631168D01*
X747675Y-1631815D01*
X747213Y-1632647D01*
X746658Y-1633572D01*
X746104Y-1634682D01*
X745456Y-1635976D01*
X744902Y-1637455D01*
X744255Y-1639027D01*
X743607Y-1640876D01*
X743053Y-1642910D01*
X742405Y-1645129D01*
X741851Y-1647533D01*
Y-1647718D01*
X741758Y-1648088D01*
X741573Y-1648827D01*
X741388Y-1649752D01*
X741203Y-1650769D01*
X740926Y-1652063D01*
X740649Y-1653450D01*
X740371Y-1654929D01*
X739817Y-1657980D01*
X739354Y-1661031D01*
X739169Y-1662418D01*
X738985Y-1663713D01*
X738892Y-1664915D01*
Y-1665932D01*
Y-1666117D01*
X738985Y-1666671D01*
X739077Y-1667411D01*
X739262Y-1668428D01*
X739632Y-1669630D01*
X740186Y-1670924D01*
X740926Y-1672126D01*
X741943Y-1673421D01*
X742128Y-1673513D01*
X742498Y-1673883D01*
X743238Y-1674438D01*
X744255Y-1674992D01*
X745549Y-1675547D01*
X747121Y-1676102D01*
X748877Y-1676472D01*
X751004Y-1676564D01*
X751466D01*
X752021Y-1676472D01*
X752668D01*
X753500Y-1676287D01*
X754425Y-1676194D01*
X756459Y-1675640D01*
X757476Y-1675177D01*
X758493Y-1674715D01*
X759510Y-1674068D01*
X760527Y-1673328D01*
X761359Y-1672404D01*
X762099Y-1671387D01*
X762653Y-1670277D01*
X763023Y-1668890D01*
Y-1668798D01*
X763116Y-1668520D01*
Y-1668243D01*
X763208Y-1667873D01*
X763300Y-1667318D01*
X763485Y-1666671D01*
X764780Y-1660847D01*
X757383D01*
X757938Y-1658073D01*
X784011D01*
X783363Y-1660847D01*
X777724D01*
X775967Y-1669353D01*
X775874Y-1669445D01*
X775505Y-1669815D01*
X774857Y-1670277D01*
X774025Y-1670924D01*
X773008Y-1671664D01*
X771714Y-1672496D01*
X770327Y-1673421D01*
X768663Y-1674345D01*
X766906Y-1675270D01*
X764965Y-1676194D01*
X762838Y-1677026D01*
X760619Y-1677766D01*
X758308Y-1678413D01*
X755812Y-1678875D01*
X753223Y-1679245D01*
X750542Y-1679338D01*
X750079D01*
X749432Y-1679245D01*
X748692D01*
X747675Y-1679153D01*
X746658Y-1678968D01*
X745364Y-1678783D01*
X744070Y-1678506D01*
X742590Y-1678136D01*
X741203Y-1677674D01*
X739632Y-1677119D01*
X738152Y-1676472D01*
X736673Y-1675640D01*
X735194Y-1674715D01*
X733715Y-1673698D01*
X732420Y-1672496D01*
X732328Y-1672404D01*
X732143Y-1672219D01*
X731773Y-1671756D01*
X731403Y-1671294D01*
X730848Y-1670554D01*
X730294Y-1669815D01*
X729646Y-1668890D01*
X729092Y-1667873D01*
X728445Y-1666671D01*
X727797Y-1665469D01*
X727243Y-1664083D01*
X726688Y-1662696D01*
X726318Y-1661124D01*
X725948Y-1659552D01*
X725763Y-1657888D01*
X725671Y-1656131D01*
Y-1655946D01*
Y-1655577D01*
X725763Y-1654929D01*
X725856Y-1654005D01*
X726041Y-1652895D01*
X726226Y-1651601D01*
X726595Y-1650122D01*
X727058Y-1648550D01*
X727612Y-1646793D01*
X728352Y-1644944D01*
X729184Y-1643095D01*
X730294Y-1641153D01*
X731496Y-1639119D01*
X732975Y-1637085D01*
X734639Y-1635051D01*
X736581Y-1633110D01*
X736673Y-1633017D01*
X737043Y-1632647D01*
X737690Y-1632185D01*
X738522Y-1631446D01*
X739539Y-1630706D01*
X740741Y-1629781D01*
X742128Y-1628857D01*
X743792Y-1627840D01*
X745456Y-1626915D01*
X747398Y-1625991D01*
X749340Y-1625066D01*
X751466Y-1624326D01*
X753685Y-1623587D01*
X755996Y-1623125D01*
X758400Y-1622755D01*
X760897Y-1622662D01*
X761636D01*
X762561Y-1622847D01*
D02*
G37*
G36*
X1325618Y-1626730D02*
X1319423D01*
X1309161Y-1675640D01*
X1316465D01*
X1315910Y-1678413D01*
X1289283D01*
X1289930Y-1675640D01*
X1296032D01*
X1301117Y-1651693D01*
X1280407D01*
X1275507Y-1675640D01*
X1282811D01*
X1282164Y-1678413D01*
X1255536D01*
X1256091Y-1675640D01*
X1262378D01*
X1272733Y-1626730D01*
X1265152D01*
X1265706Y-1623957D01*
X1292519D01*
X1291871Y-1626730D01*
X1285677D01*
X1281054Y-1648827D01*
X1301764D01*
X1306295Y-1626730D01*
X1298806D01*
X1299360Y-1623957D01*
X1326173D01*
X1325618Y-1626730D01*
D02*
G37*
G36*
X1168997D02*
X1162803D01*
X1152078Y-1678783D01*
X1149212D01*
X1123786Y-1626730D01*
X1123602D01*
X1113616Y-1675640D01*
X1119903D01*
X1119349Y-1678413D01*
X1103816D01*
X1104371Y-1675640D01*
X1110658D01*
X1120828Y-1626730D01*
X1113616D01*
X1114263Y-1623957D01*
X1136545D01*
X1153372Y-1658628D01*
X1153557D01*
X1160029Y-1626730D01*
X1153465D01*
X1154020Y-1623957D01*
X1169645D01*
X1168997Y-1626730D01*
D02*
G37*
G36*
X1074045D02*
X1067666D01*
X1057311Y-1675640D01*
X1064615D01*
X1064060Y-1678413D01*
X1036508D01*
X1037063Y-1675640D01*
X1044274D01*
X1054537Y-1626915D01*
X1054352Y-1626730D01*
X1024674Y-1678413D01*
X1021900D01*
X1013302Y-1627193D01*
X1013117D01*
X1003039Y-1675640D01*
X1011175D01*
X1010528Y-1678413D01*
X992222D01*
X992776Y-1675640D01*
X1000173D01*
X1010528Y-1626730D01*
X1003039D01*
X1003686Y-1623957D01*
X1025598D01*
X1031700Y-1660477D01*
X1031885D01*
X1052965Y-1623957D01*
X1074600D01*
X1074045Y-1626730D01*
D02*
G37*
G36*
X993331D02*
X986952D01*
X976596Y-1675640D01*
X983900D01*
X983346Y-1678413D01*
X955794D01*
X956349Y-1675640D01*
X963560D01*
X973823Y-1626915D01*
X973638Y-1626730D01*
X943960Y-1678413D01*
X941186D01*
X932587Y-1627193D01*
X932403D01*
X922325Y-1675640D01*
X930461D01*
X929814Y-1678413D01*
X911507D01*
X912062Y-1675640D01*
X919459D01*
X929814Y-1626730D01*
X922325D01*
X922972Y-1623957D01*
X944884D01*
X950986Y-1660477D01*
X951171D01*
X972251Y-1623957D01*
X993886D01*
X993331Y-1626730D01*
D02*
G37*
G36*
X1483440Y-1624049D02*
X1484827D01*
X1486306Y-1624142D01*
X1487693Y-1624326D01*
X1488895Y-1624511D01*
X1489080D01*
X1489450Y-1624604D01*
X1490097Y-1624789D01*
X1490929Y-1624974D01*
X1491946Y-1625343D01*
X1493056Y-1625806D01*
X1494350Y-1626360D01*
X1495737Y-1627100D01*
X1495922Y-1627193D01*
X1496384Y-1627470D01*
X1497124Y-1628025D01*
X1498048Y-1628764D01*
X1499158Y-1629689D01*
X1500360Y-1630798D01*
X1501654Y-1632185D01*
X1502856Y-1633849D01*
Y-1633942D01*
X1503041Y-1634034D01*
X1503133Y-1634312D01*
X1503411Y-1634682D01*
X1503596Y-1635144D01*
X1503873Y-1635699D01*
X1504150Y-1636346D01*
X1504520Y-1637085D01*
X1505075Y-1638842D01*
X1505630Y-1640969D01*
X1506000Y-1643372D01*
X1506092Y-1646054D01*
Y-1646146D01*
Y-1646423D01*
Y-1646793D01*
X1506000Y-1647440D01*
Y-1648088D01*
X1505907Y-1648920D01*
X1505815Y-1649844D01*
X1505630Y-1650861D01*
X1505260Y-1653173D01*
X1504613Y-1655577D01*
X1503781Y-1658165D01*
X1502579Y-1660754D01*
Y-1660847D01*
X1502394Y-1661031D01*
X1502209Y-1661401D01*
X1501931Y-1661864D01*
X1501654Y-1662418D01*
X1501192Y-1663158D01*
X1500175Y-1664637D01*
X1498973Y-1666394D01*
X1497494Y-1668243D01*
X1495829Y-1670092D01*
X1494073Y-1671849D01*
X1493980D01*
X1493888Y-1672034D01*
X1493610Y-1672219D01*
X1493241Y-1672496D01*
X1492224Y-1673236D01*
X1491022Y-1674160D01*
X1489542Y-1675085D01*
X1487878Y-1676009D01*
X1486121Y-1676749D01*
X1484365Y-1677304D01*
X1484180D01*
X1483903Y-1677396D01*
X1483533Y-1677489D01*
X1482608Y-1677674D01*
X1481314Y-1677858D01*
X1479742Y-1678043D01*
X1477893Y-1678228D01*
X1475859Y-1678321D01*
X1473732Y-1678413D01*
X1444146D01*
X1444701Y-1675640D01*
X1449324D01*
X1459494Y-1626730D01*
X1453022D01*
X1453669Y-1623957D01*
X1482146D01*
X1483440Y-1624049D01*
D02*
G37*
G36*
X1428244Y-1675640D02*
X1436010D01*
X1435456Y-1678413D01*
X1408089D01*
X1408736Y-1675640D01*
X1415578D01*
X1416317Y-1662696D01*
X1399120D01*
X1388211Y-1675640D01*
X1396624D01*
X1395977Y-1678413D01*
X1378503D01*
X1379057Y-1675640D01*
X1384605D01*
X1428429Y-1623217D01*
X1431110D01*
X1428244Y-1675640D01*
D02*
G37*
G36*
X1106775Y-1626730D02*
X1101135D01*
X1090595Y-1675640D01*
X1097159D01*
X1096604Y-1678413D01*
X1072196D01*
X1072751Y-1675640D01*
X1077558D01*
X1087913Y-1626730D01*
X1081811D01*
X1082459Y-1623957D01*
X1107422D01*
X1106775Y-1626730D01*
D02*
G37*
G36*
X897362Y-1675640D02*
X905128D01*
X904573Y-1678413D01*
X877206D01*
X877853Y-1675640D01*
X884695D01*
X885435Y-1662696D01*
X868238D01*
X857328Y-1675640D01*
X865742D01*
X865095Y-1678413D01*
X847620D01*
X848175Y-1675640D01*
X853722D01*
X897547Y-1623217D01*
X900228D01*
X897362Y-1675640D01*
D02*
G37*
G36*
X572286Y-1624049D02*
X573211D01*
X574320Y-1624142D01*
X575522Y-1624326D01*
X576724Y-1624511D01*
X579313Y-1624974D01*
X581809Y-1625713D01*
X583011Y-1626176D01*
X584028Y-1626730D01*
X585045Y-1627377D01*
X585785Y-1628117D01*
X585970Y-1628302D01*
X586340Y-1628857D01*
X586987Y-1629689D01*
X587727Y-1630798D01*
X588374Y-1632093D01*
X589021Y-1633572D01*
X589391Y-1635329D01*
X589576Y-1637085D01*
Y-1637178D01*
Y-1637363D01*
Y-1637733D01*
X589483Y-1638195D01*
X589391Y-1638842D01*
X589206Y-1639489D01*
X588744Y-1641061D01*
X588466Y-1641986D01*
X588004Y-1642910D01*
X587449Y-1643835D01*
X586894Y-1644852D01*
X586062Y-1645869D01*
X585230Y-1646793D01*
X584213Y-1647810D01*
X583104Y-1648735D01*
X583011Y-1648827D01*
X582826Y-1648920D01*
X582364Y-1649197D01*
X581902Y-1649474D01*
X581162Y-1649844D01*
X580238Y-1650214D01*
X579221Y-1650676D01*
X577926Y-1651139D01*
X576539Y-1651601D01*
X574968Y-1652063D01*
X573118Y-1652433D01*
X571177Y-1652803D01*
X568958Y-1653080D01*
X566647Y-1653358D01*
X564058Y-1653450D01*
X561284Y-1653543D01*
X555552D01*
X550929Y-1675640D01*
X558695D01*
X558048Y-1678413D01*
X530681D01*
X531236Y-1675640D01*
X537893D01*
X548063Y-1626730D01*
X540297D01*
X540851Y-1623957D01*
X571547D01*
X572286Y-1624049D01*
D02*
G37*
G36*
X1610475D02*
X1611307D01*
X1612231Y-1624142D01*
X1614358Y-1624419D01*
X1616669Y-1624881D01*
X1618981Y-1625528D01*
X1620090Y-1625898D01*
X1621015Y-1626453D01*
X1621939Y-1627008D01*
X1622679Y-1627655D01*
X1622864Y-1627840D01*
X1623234Y-1628302D01*
X1623788Y-1629042D01*
X1624528Y-1630059D01*
X1625175Y-1631261D01*
X1625730Y-1632647D01*
X1626100Y-1634127D01*
X1626285Y-1635791D01*
Y-1635883D01*
Y-1636068D01*
Y-1636346D01*
X1626192Y-1636716D01*
X1626007Y-1637640D01*
X1625730Y-1638934D01*
X1625083Y-1640414D01*
X1624251Y-1641893D01*
X1623696Y-1642725D01*
X1623049Y-1643465D01*
X1622309Y-1644204D01*
X1621477Y-1644944D01*
X1621385D01*
X1621292Y-1645129D01*
X1621015Y-1645314D01*
X1620553Y-1645499D01*
X1620090Y-1645869D01*
X1619443Y-1646146D01*
X1618703Y-1646516D01*
X1617779Y-1646886D01*
X1616854Y-1647256D01*
X1615745Y-1647718D01*
X1614450Y-1648088D01*
X1613156Y-1648457D01*
X1611677Y-1648827D01*
X1610105Y-1649105D01*
X1608348Y-1649382D01*
X1606499Y-1649567D01*
Y-1649659D01*
X1606592D01*
X1606777Y-1649752D01*
X1607146Y-1649937D01*
X1607609Y-1650122D01*
X1608163Y-1650307D01*
X1608718Y-1650676D01*
X1610197Y-1651416D01*
X1611677Y-1652248D01*
X1613248Y-1653358D01*
X1614635Y-1654560D01*
X1615283Y-1655207D01*
X1615837Y-1655946D01*
X1615930Y-1656131D01*
X1616300Y-1656594D01*
X1616762Y-1657426D01*
X1617224Y-1658628D01*
X1617779Y-1660014D01*
X1618334Y-1661771D01*
X1618703Y-1663805D01*
X1618888Y-1666117D01*
Y-1666209D01*
Y-1666394D01*
Y-1666671D01*
X1618981Y-1667134D01*
X1619073Y-1668151D01*
X1619258Y-1669445D01*
X1619443Y-1670739D01*
X1619720Y-1672034D01*
X1620183Y-1673051D01*
X1620368Y-1673421D01*
X1620645Y-1673698D01*
X1620737Y-1673790D01*
X1620922Y-1673883D01*
X1621200Y-1674068D01*
X1621570Y-1674253D01*
X1622587Y-1674715D01*
X1623141Y-1674807D01*
X1623696Y-1674900D01*
X1623973D01*
X1624251Y-1674807D01*
X1624621D01*
X1625083Y-1674715D01*
X1625638Y-1674530D01*
X1627024Y-1674068D01*
X1628319Y-1676564D01*
X1628134Y-1676657D01*
X1627579Y-1676934D01*
X1626747Y-1677304D01*
X1625638Y-1677674D01*
X1624251Y-1678043D01*
X1622587Y-1678413D01*
X1620737Y-1678691D01*
X1618796Y-1678783D01*
X1617964D01*
X1616947Y-1678691D01*
X1615837Y-1678506D01*
X1614450Y-1678321D01*
X1613064Y-1678043D01*
X1611584Y-1677581D01*
X1610290Y-1676934D01*
X1610105Y-1676841D01*
X1609735Y-1676564D01*
X1609180Y-1676194D01*
X1608441Y-1675547D01*
X1607701Y-1674900D01*
X1606869Y-1674068D01*
X1606222Y-1673051D01*
X1605575Y-1672034D01*
X1605482Y-1671849D01*
X1605390Y-1671479D01*
X1605205Y-1670739D01*
X1604927Y-1669815D01*
X1604650Y-1668520D01*
X1604465Y-1666949D01*
X1604280Y-1665007D01*
X1604188Y-1662881D01*
Y-1662788D01*
Y-1662603D01*
Y-1662326D01*
Y-1661864D01*
X1604095Y-1660754D01*
X1604003Y-1659367D01*
X1603818Y-1657888D01*
X1603541Y-1656409D01*
X1603171Y-1654929D01*
X1602709Y-1653727D01*
X1602616Y-1653635D01*
X1602431Y-1653265D01*
X1601969Y-1652803D01*
X1601229Y-1652156D01*
X1600305Y-1651601D01*
X1599103Y-1651139D01*
X1597531Y-1650769D01*
X1596606Y-1650676D01*
X1592908D01*
X1587731Y-1675640D01*
X1595312D01*
X1594757Y-1678413D01*
X1568130D01*
X1568685Y-1675640D01*
X1574787D01*
X1584957Y-1626730D01*
X1577838D01*
X1578393Y-1623957D01*
X1609828D01*
X1610475Y-1624049D01*
D02*
G37*
G36*
X829591D02*
X830424D01*
X831348Y-1624142D01*
X833475Y-1624419D01*
X835786Y-1624881D01*
X838097Y-1625528D01*
X839207Y-1625898D01*
X840131Y-1626453D01*
X841056Y-1627008D01*
X841796Y-1627655D01*
X841981Y-1627840D01*
X842350Y-1628302D01*
X842905Y-1629042D01*
X843645Y-1630059D01*
X844292Y-1631261D01*
X844847Y-1632647D01*
X845216Y-1634127D01*
X845401Y-1635791D01*
Y-1635883D01*
Y-1636068D01*
Y-1636346D01*
X845309Y-1636716D01*
X845124Y-1637640D01*
X844847Y-1638934D01*
X844199Y-1640414D01*
X843367Y-1641893D01*
X842813Y-1642725D01*
X842165Y-1643465D01*
X841426Y-1644204D01*
X840594Y-1644944D01*
X840501D01*
X840409Y-1645129D01*
X840131Y-1645314D01*
X839669Y-1645499D01*
X839207Y-1645869D01*
X838560Y-1646146D01*
X837820Y-1646516D01*
X836895Y-1646886D01*
X835971Y-1647256D01*
X834861Y-1647718D01*
X833567Y-1648088D01*
X832273Y-1648457D01*
X830793Y-1648827D01*
X829222Y-1649105D01*
X827465Y-1649382D01*
X825616Y-1649567D01*
Y-1649659D01*
X825708D01*
X825893Y-1649752D01*
X826263Y-1649937D01*
X826725Y-1650122D01*
X827280Y-1650307D01*
X827835Y-1650676D01*
X829314Y-1651416D01*
X830793Y-1652248D01*
X832365Y-1653358D01*
X833752Y-1654560D01*
X834399Y-1655207D01*
X834954Y-1655946D01*
X835046Y-1656131D01*
X835416Y-1656594D01*
X835878Y-1657426D01*
X836341Y-1658628D01*
X836895Y-1660014D01*
X837450Y-1661771D01*
X837820Y-1663805D01*
X838005Y-1666117D01*
Y-1666209D01*
Y-1666394D01*
Y-1666671D01*
X838097Y-1667134D01*
X838190Y-1668151D01*
X838375Y-1669445D01*
X838560Y-1670739D01*
X838837Y-1672034D01*
X839299Y-1673051D01*
X839484Y-1673421D01*
X839762Y-1673698D01*
X839854Y-1673790D01*
X840039Y-1673883D01*
X840316Y-1674068D01*
X840686Y-1674253D01*
X841703Y-1674715D01*
X842258Y-1674807D01*
X842813Y-1674900D01*
X843090D01*
X843367Y-1674807D01*
X843737D01*
X844199Y-1674715D01*
X844754Y-1674530D01*
X846141Y-1674068D01*
X847435Y-1676564D01*
X847251Y-1676657D01*
X846696Y-1676934D01*
X845864Y-1677304D01*
X844754Y-1677674D01*
X843367Y-1678043D01*
X841703Y-1678413D01*
X839854Y-1678691D01*
X837912Y-1678783D01*
X837080D01*
X836063Y-1678691D01*
X834954Y-1678506D01*
X833567Y-1678321D01*
X832180Y-1678043D01*
X830701Y-1677581D01*
X829407Y-1676934D01*
X829222Y-1676841D01*
X828852Y-1676564D01*
X828297Y-1676194D01*
X827557Y-1675547D01*
X826818Y-1674900D01*
X825986Y-1674068D01*
X825338Y-1673051D01*
X824691Y-1672034D01*
X824599Y-1671849D01*
X824506Y-1671479D01*
X824321Y-1670739D01*
X824044Y-1669815D01*
X823767Y-1668520D01*
X823582Y-1666949D01*
X823397Y-1665007D01*
X823304Y-1662881D01*
Y-1662788D01*
Y-1662603D01*
Y-1662326D01*
Y-1661864D01*
X823212Y-1660754D01*
X823120Y-1659367D01*
X822935Y-1657888D01*
X822657Y-1656409D01*
X822287Y-1654929D01*
X821825Y-1653727D01*
X821733Y-1653635D01*
X821548Y-1653265D01*
X821085Y-1652803D01*
X820346Y-1652156D01*
X819421Y-1651601D01*
X818219Y-1651139D01*
X816648Y-1650769D01*
X815723Y-1650676D01*
X812025D01*
X806847Y-1675640D01*
X814429D01*
X813874Y-1678413D01*
X787247D01*
X787801Y-1675640D01*
X793903D01*
X804074Y-1626730D01*
X796954D01*
X797509Y-1623957D01*
X828944D01*
X829591Y-1624049D01*
D02*
G37*
G36*
X630719D02*
X631551D01*
X632475Y-1624142D01*
X634602Y-1624419D01*
X636913Y-1624881D01*
X639225Y-1625528D01*
X640334Y-1625898D01*
X641259Y-1626453D01*
X642183Y-1627008D01*
X642923Y-1627655D01*
X643108Y-1627840D01*
X643478Y-1628302D01*
X644032Y-1629042D01*
X644772Y-1630059D01*
X645419Y-1631261D01*
X645974Y-1632647D01*
X646344Y-1634127D01*
X646529Y-1635791D01*
Y-1635883D01*
Y-1636068D01*
Y-1636346D01*
X646436Y-1636716D01*
X646251Y-1637640D01*
X645974Y-1638934D01*
X645327Y-1640414D01*
X644495Y-1641893D01*
X643940Y-1642725D01*
X643293Y-1643465D01*
X642553Y-1644204D01*
X641721Y-1644944D01*
X641628D01*
X641536Y-1645129D01*
X641259Y-1645314D01*
X640796Y-1645499D01*
X640334Y-1645869D01*
X639687Y-1646146D01*
X638947Y-1646516D01*
X638023Y-1646886D01*
X637098Y-1647256D01*
X635989Y-1647718D01*
X634694Y-1648088D01*
X633400Y-1648457D01*
X631921Y-1648827D01*
X630349Y-1649105D01*
X628592Y-1649382D01*
X626743Y-1649567D01*
Y-1649659D01*
X626835D01*
X627020Y-1649752D01*
X627390Y-1649937D01*
X627852Y-1650122D01*
X628407Y-1650307D01*
X628962Y-1650676D01*
X630441Y-1651416D01*
X631921Y-1652248D01*
X633492Y-1653358D01*
X634879Y-1654560D01*
X635526Y-1655207D01*
X636081Y-1655946D01*
X636173Y-1656131D01*
X636543Y-1656594D01*
X637006Y-1657426D01*
X637468Y-1658628D01*
X638023Y-1660014D01*
X638577Y-1661771D01*
X638947Y-1663805D01*
X639132Y-1666117D01*
Y-1666209D01*
Y-1666394D01*
Y-1666671D01*
X639225Y-1667134D01*
X639317Y-1668151D01*
X639502Y-1669445D01*
X639687Y-1670739D01*
X639964Y-1672034D01*
X640426Y-1673051D01*
X640611Y-1673421D01*
X640889Y-1673698D01*
X640981Y-1673790D01*
X641166Y-1673883D01*
X641443Y-1674068D01*
X641813Y-1674253D01*
X642830Y-1674715D01*
X643385Y-1674807D01*
X643940Y-1674900D01*
X644217D01*
X644495Y-1674807D01*
X644864D01*
X645327Y-1674715D01*
X645881Y-1674530D01*
X647268Y-1674068D01*
X648563Y-1676564D01*
X648378Y-1676657D01*
X647823Y-1676934D01*
X646991Y-1677304D01*
X645881Y-1677674D01*
X644495Y-1678043D01*
X642830Y-1678413D01*
X640981Y-1678691D01*
X639040Y-1678783D01*
X638208D01*
X637190Y-1678691D01*
X636081Y-1678506D01*
X634694Y-1678321D01*
X633307Y-1678043D01*
X631828Y-1677581D01*
X630534Y-1676934D01*
X630349Y-1676841D01*
X629979Y-1676564D01*
X629424Y-1676194D01*
X628685Y-1675547D01*
X627945Y-1674900D01*
X627113Y-1674068D01*
X626466Y-1673051D01*
X625818Y-1672034D01*
X625726Y-1671849D01*
X625633Y-1671479D01*
X625449Y-1670739D01*
X625171Y-1669815D01*
X624894Y-1668520D01*
X624709Y-1666949D01*
X624524Y-1665007D01*
X624432Y-1662881D01*
Y-1662788D01*
Y-1662603D01*
Y-1662326D01*
Y-1661864D01*
X624339Y-1660754D01*
X624247Y-1659367D01*
X624062Y-1657888D01*
X623784Y-1656409D01*
X623415Y-1654929D01*
X622952Y-1653727D01*
X622860Y-1653635D01*
X622675Y-1653265D01*
X622213Y-1652803D01*
X621473Y-1652156D01*
X620548Y-1651601D01*
X619346Y-1651139D01*
X617775Y-1650769D01*
X616850Y-1650676D01*
X613152D01*
X607974Y-1675640D01*
X615556D01*
X615001Y-1678413D01*
X588374D01*
X588928Y-1675640D01*
X595031D01*
X605201Y-1626730D01*
X598082D01*
X598636Y-1623957D01*
X630071D01*
X630719Y-1624049D01*
D02*
G37*
G36*
X695808Y-1622755D02*
X696640Y-1622847D01*
X697657Y-1622940D01*
X698766Y-1623125D01*
X699968Y-1623402D01*
X702557Y-1624049D01*
X703851Y-1624511D01*
X705146Y-1625066D01*
X706532Y-1625713D01*
X707827Y-1626545D01*
X709029Y-1627377D01*
X710138Y-1628395D01*
X710231Y-1628487D01*
X710416Y-1628672D01*
X710693Y-1628949D01*
X711063Y-1629412D01*
X711525Y-1629966D01*
X711987Y-1630706D01*
X712542Y-1631538D01*
X713097Y-1632463D01*
X713559Y-1633480D01*
X714114Y-1634589D01*
X714576Y-1635883D01*
X715038Y-1637270D01*
X715408Y-1638750D01*
X715686Y-1640321D01*
X715871Y-1641986D01*
X715963Y-1643742D01*
Y-1643835D01*
Y-1644112D01*
Y-1644482D01*
X715871Y-1645129D01*
X715778Y-1645776D01*
X715686Y-1646701D01*
X715593Y-1647625D01*
X715408Y-1648735D01*
X715131Y-1649937D01*
X714854Y-1651139D01*
X714021Y-1653912D01*
X713467Y-1655484D01*
X712820Y-1656963D01*
X712080Y-1658535D01*
X711248Y-1660199D01*
X711155Y-1660292D01*
X711063Y-1660569D01*
X710785Y-1661031D01*
X710416Y-1661679D01*
X709953Y-1662418D01*
X709306Y-1663250D01*
X708659Y-1664175D01*
X707919Y-1665192D01*
X706995Y-1666301D01*
X706070Y-1667411D01*
X703851Y-1669722D01*
X701263Y-1672034D01*
X698396Y-1674160D01*
X698304Y-1674253D01*
X698027Y-1674345D01*
X697564Y-1674623D01*
X697010Y-1674992D01*
X696270Y-1675362D01*
X695345Y-1675824D01*
X694328Y-1676287D01*
X693126Y-1676749D01*
X691832Y-1677211D01*
X690445Y-1677674D01*
X688966Y-1678136D01*
X687394Y-1678506D01*
X684066Y-1679153D01*
X682309Y-1679245D01*
X680460Y-1679338D01*
X679443D01*
X678796Y-1679245D01*
X677871Y-1679153D01*
X676854Y-1679060D01*
X675745Y-1678875D01*
X674543Y-1678598D01*
X671954Y-1677858D01*
X670660Y-1677396D01*
X669273Y-1676841D01*
X667978Y-1676102D01*
X666684Y-1675270D01*
X665390Y-1674345D01*
X664280Y-1673328D01*
X664188Y-1673236D01*
X664003Y-1673051D01*
X663725Y-1672681D01*
X663356Y-1672219D01*
X662986Y-1671664D01*
X662431Y-1670924D01*
X661969Y-1670185D01*
X661414Y-1669260D01*
X660859Y-1668243D01*
X660397Y-1667226D01*
X659472Y-1664822D01*
X659103Y-1663435D01*
X658825Y-1662141D01*
X658640Y-1660662D01*
X658548Y-1659182D01*
Y-1658997D01*
Y-1658628D01*
X658640Y-1657888D01*
X658733Y-1656963D01*
X658825Y-1655761D01*
X659103Y-1654467D01*
X659380Y-1652895D01*
X659842Y-1651231D01*
X660304Y-1649382D01*
X661044Y-1647440D01*
X661784Y-1645314D01*
X662801Y-1643187D01*
X663910Y-1641061D01*
X665297Y-1638842D01*
X666869Y-1636623D01*
X668626Y-1634404D01*
X668718Y-1634312D01*
X669088Y-1633942D01*
X669643Y-1633295D01*
X670475Y-1632555D01*
X671492Y-1631723D01*
X672694Y-1630706D01*
X674080Y-1629596D01*
X675652Y-1628487D01*
X677409Y-1627470D01*
X679350Y-1626360D01*
X681384Y-1625343D01*
X683696Y-1624511D01*
X686100Y-1623772D01*
X688688Y-1623125D01*
X691370Y-1622755D01*
X694143Y-1622662D01*
X695160D01*
X695808Y-1622755D01*
D02*
G37*
G36*
X-447365Y-1836545D02*
X-447647D01*
X-448210Y-1836827D01*
X-449338Y-1837109D01*
X-450466Y-1837391D01*
X-451876Y-1837814D01*
X-453285Y-1838378D01*
X-454695Y-1838800D01*
X-455964Y-1839364D01*
X-456105D01*
X-456528Y-1839646D01*
X-457092Y-1839928D01*
X-457796Y-1840210D01*
X-459347Y-1841197D01*
X-460052Y-1841761D01*
X-460757Y-1842325D01*
X-460898D01*
X-461039Y-1842607D01*
X-461744Y-1843312D01*
X-462448Y-1844298D01*
X-463153Y-1845567D01*
Y-1845708D01*
X-463294Y-1845849D01*
X-463435Y-1846272D01*
X-463576Y-1846836D01*
Y-1847541D01*
X-463717Y-1848527D01*
X-463858Y-1849514D01*
Y-1858818D01*
X-398871D01*
X-398730D01*
X-398307D01*
X-397602D01*
X-396756D01*
X-394783Y-1858677D01*
X-392950Y-1858395D01*
X-392809D01*
X-392527Y-1858254D01*
X-391681Y-1858113D01*
X-390554Y-1857690D01*
X-389426Y-1857127D01*
X-389285Y-1856986D01*
X-388721Y-1856563D01*
X-388016Y-1855858D01*
X-387311Y-1854871D01*
Y-1854730D01*
X-387170Y-1854589D01*
X-387029Y-1854166D01*
X-386888Y-1853743D01*
X-386748Y-1853038D01*
X-386466Y-1852193D01*
X-386325Y-1851347D01*
X-386043Y-1850219D01*
X-382941D01*
Y-1879259D01*
X-386043D01*
Y-1879118D01*
X-386184Y-1878977D01*
X-386325Y-1878131D01*
X-386607Y-1877003D01*
X-386888Y-1875876D01*
Y-1875735D01*
X-387029Y-1875594D01*
X-387311Y-1875030D01*
X-387734Y-1874184D01*
X-388157Y-1873479D01*
X-388298Y-1873338D01*
X-388721Y-1872915D01*
X-389285Y-1872351D01*
X-389990Y-1871928D01*
X-390272Y-1871787D01*
X-390836Y-1871646D01*
X-391822Y-1871365D01*
X-393091Y-1871083D01*
X-393232D01*
X-393514Y-1870942D01*
X-393937D01*
X-394501Y-1870801D01*
X-395347D01*
X-396333Y-1870660D01*
X-397602D01*
X-398871D01*
X-463858D01*
Y-1880387D01*
X-463576Y-1881937D01*
X-463294Y-1883629D01*
Y-1883770D01*
X-463153Y-1883911D01*
X-462730Y-1884757D01*
X-462025Y-1885884D01*
X-460898Y-1887153D01*
X-460757D01*
X-460616Y-1887435D01*
X-460193Y-1887717D01*
X-459629Y-1888140D01*
X-458783Y-1888563D01*
X-457937Y-1888986D01*
X-456951Y-1889550D01*
X-455682Y-1890114D01*
X-455541D01*
X-455118Y-1890396D01*
X-454413Y-1890677D01*
X-453426Y-1890959D01*
X-452299Y-1891382D01*
X-450748Y-1891805D01*
X-449197Y-1892228D01*
X-447365Y-1892651D01*
Y-1898995D01*
X-469356D01*
Y-1830342D01*
X-447365D01*
Y-1836545D01*
D02*
G37*
G36*
X-403664Y-1909567D02*
X-402113Y-1909708D01*
X-400422Y-1909990D01*
X-398448Y-1910272D01*
X-396615Y-1910836D01*
X-394783Y-1911541D01*
X-394642Y-1911682D01*
X-394078Y-1911964D01*
X-393232Y-1912387D01*
X-392104Y-1913092D01*
X-390977Y-1913937D01*
X-389708Y-1914924D01*
X-388439Y-1916052D01*
X-387311Y-1917321D01*
X-387170Y-1917462D01*
X-386888Y-1918026D01*
X-386325Y-1918730D01*
X-385761Y-1919858D01*
X-385056Y-1921127D01*
X-384351Y-1922678D01*
X-383787Y-1924369D01*
X-383223Y-1926202D01*
Y-1926484D01*
X-383082Y-1927048D01*
X-382800Y-1928175D01*
X-382659Y-1929585D01*
X-382377Y-1931277D01*
X-382096Y-1933109D01*
X-381955Y-1935224D01*
Y-1939171D01*
X-382096Y-1940158D01*
Y-1941286D01*
X-382236Y-1942695D01*
X-382377Y-1944105D01*
X-382518Y-1945656D01*
X-382800Y-1947488D01*
X-383364Y-1951436D01*
X-384069Y-1955806D01*
X-385197Y-1960458D01*
X-402536D01*
Y-1954114D01*
X-402254D01*
X-401690Y-1953832D01*
X-400563Y-1953550D01*
X-399435Y-1953268D01*
X-398025Y-1952704D01*
X-396474Y-1952140D01*
X-395065Y-1951436D01*
X-393796Y-1950731D01*
X-393655Y-1950590D01*
X-393232Y-1950308D01*
X-392668Y-1949885D01*
X-391963Y-1949180D01*
X-391259Y-1948475D01*
X-390413Y-1947488D01*
X-389708Y-1946502D01*
X-389003Y-1945233D01*
Y-1945092D01*
X-388721Y-1944528D01*
X-388580Y-1943823D01*
X-388298Y-1942836D01*
X-388016Y-1941568D01*
X-387734Y-1940017D01*
X-387593Y-1938325D01*
X-387452Y-1936352D01*
Y-1935083D01*
X-387593Y-1933814D01*
X-387875Y-1932123D01*
X-388439Y-1930290D01*
X-389003Y-1928316D01*
X-389990Y-1926484D01*
X-391259Y-1924933D01*
X-391400Y-1924792D01*
X-391963Y-1924369D01*
X-392950Y-1923664D01*
X-394219Y-1922960D01*
X-395770Y-1922255D01*
X-397743Y-1921550D01*
X-399999Y-1921127D01*
X-402536Y-1920986D01*
X-402818D01*
X-403382D01*
X-404228Y-1921127D01*
X-405356D01*
X-406624Y-1921409D01*
X-407893Y-1921691D01*
X-409303Y-1922114D01*
X-410571Y-1922678D01*
X-410712D01*
X-411135Y-1922960D01*
X-411699Y-1923382D01*
X-412545Y-1923946D01*
X-413532Y-1924651D01*
X-414519Y-1925638D01*
X-415505Y-1926766D01*
X-416633Y-1928034D01*
X-416774Y-1928175D01*
X-417197Y-1928739D01*
X-417761Y-1929585D01*
X-418466Y-1930854D01*
X-419453Y-1932405D01*
X-420580Y-1934378D01*
X-421849Y-1936775D01*
X-423259Y-1939453D01*
Y-1939594D01*
X-423400Y-1939735D01*
X-423682Y-1940158D01*
X-423964Y-1940722D01*
X-424668Y-1941991D01*
X-425655Y-1943682D01*
X-426642Y-1945515D01*
X-427911Y-1947488D01*
X-429179Y-1949462D01*
X-430448Y-1951154D01*
X-430589Y-1951295D01*
X-431012Y-1951858D01*
X-431717Y-1952704D01*
X-432704Y-1953550D01*
X-433831Y-1954678D01*
X-435100Y-1955665D01*
X-436510Y-1956792D01*
X-438061Y-1957638D01*
X-438202Y-1957779D01*
X-438765Y-1957920D01*
X-439611Y-1958343D01*
X-440739Y-1958625D01*
X-442149Y-1959048D01*
X-443699Y-1959471D01*
X-445391Y-1959612D01*
X-447224Y-1959753D01*
X-447365D01*
X-447506D01*
X-448351D01*
X-449761Y-1959612D01*
X-451453Y-1959330D01*
X-453285Y-1958907D01*
X-455400Y-1958343D01*
X-457514Y-1957638D01*
X-459488Y-1956510D01*
X-459770Y-1956369D01*
X-460334Y-1955806D01*
X-461321Y-1955101D01*
X-462448Y-1953973D01*
X-463717Y-1952563D01*
X-465127Y-1950872D01*
X-466396Y-1948898D01*
X-467523Y-1946643D01*
Y-1946502D01*
X-467664Y-1946361D01*
X-467946Y-1945515D01*
X-468510Y-1944105D01*
X-469074Y-1942413D01*
X-469497Y-1940158D01*
X-470061Y-1937620D01*
X-470343Y-1934801D01*
X-470484Y-1931841D01*
Y-1928880D01*
X-470343Y-1927471D01*
X-470202Y-1925920D01*
X-469920Y-1922537D01*
Y-1922255D01*
X-469779Y-1921691D01*
X-469638Y-1920704D01*
X-469497Y-1919294D01*
X-469074Y-1917603D01*
X-468792Y-1915629D01*
X-468228Y-1913515D01*
X-467664Y-1910977D01*
X-450466D01*
Y-1917180D01*
X-450748D01*
X-451453Y-1917462D01*
X-452440Y-1917744D01*
X-453708Y-1918167D01*
X-455118Y-1918730D01*
X-456528Y-1919435D01*
X-457937Y-1920140D01*
X-459206Y-1920986D01*
X-459347Y-1921127D01*
X-459770Y-1921409D01*
X-460193Y-1921832D01*
X-460898Y-1922396D01*
X-461603Y-1923242D01*
X-462307Y-1924087D01*
X-463012Y-1925074D01*
X-463576Y-1926202D01*
Y-1926343D01*
X-463717Y-1926766D01*
X-463999Y-1927330D01*
X-464281Y-1928316D01*
X-464422Y-1929303D01*
X-464704Y-1930713D01*
X-464845Y-1932123D01*
Y-1934519D01*
X-464704Y-1935224D01*
Y-1936211D01*
X-464422Y-1937479D01*
X-464140Y-1938748D01*
X-463858Y-1940017D01*
X-463294Y-1941286D01*
Y-1941427D01*
X-463012Y-1941850D01*
X-462589Y-1942413D01*
X-462166Y-1943118D01*
X-461462Y-1943964D01*
X-460616Y-1944810D01*
X-459770Y-1945656D01*
X-458642Y-1946502D01*
X-458501Y-1946643D01*
X-458078Y-1946784D01*
X-457373Y-1947065D01*
X-456528Y-1947347D01*
X-455541Y-1947770D01*
X-454272Y-1948052D01*
X-452862Y-1948193D01*
X-451312Y-1948334D01*
X-451171D01*
X-450607D01*
X-449761Y-1948193D01*
X-448633D01*
X-447506Y-1947911D01*
X-446237Y-1947629D01*
X-444968Y-1947347D01*
X-443699Y-1946784D01*
X-443558Y-1946643D01*
X-443136Y-1946502D01*
X-442572Y-1946079D01*
X-441867Y-1945515D01*
X-440880Y-1944810D01*
X-439893Y-1943964D01*
X-438906Y-1942836D01*
X-437920Y-1941709D01*
X-437779Y-1941568D01*
X-437497Y-1941004D01*
X-436933Y-1940299D01*
X-436228Y-1939171D01*
X-435241Y-1937620D01*
X-434254Y-1935929D01*
X-433127Y-1933955D01*
X-431999Y-1931559D01*
Y-1931418D01*
X-431858Y-1931136D01*
X-431576Y-1930713D01*
X-431294Y-1930149D01*
X-430589Y-1928739D01*
X-429461Y-1926907D01*
X-428334Y-1924933D01*
X-427065Y-1922819D01*
X-425796Y-1920845D01*
X-424387Y-1919012D01*
X-424246Y-1918871D01*
X-423823Y-1918308D01*
X-423118Y-1917462D01*
X-422131Y-1916475D01*
X-421003Y-1915347D01*
X-419594Y-1914078D01*
X-418184Y-1912951D01*
X-416492Y-1911964D01*
X-416351Y-1911823D01*
X-415646Y-1911541D01*
X-414801Y-1911118D01*
X-413532Y-1910695D01*
X-411981Y-1910272D01*
X-410149Y-1909849D01*
X-408175Y-1909567D01*
X-406060Y-1909426D01*
X-405919D01*
X-405778D01*
X-404933D01*
X-403664Y-1909567D01*
D02*
G37*
G36*
X-382941Y-1985127D02*
X-383082Y-1985268D01*
X-383505Y-1985550D01*
X-384210Y-1985973D01*
X-385056Y-1986537D01*
X-386043Y-1987242D01*
X-387311Y-1988088D01*
X-389990Y-1989779D01*
X-390131Y-1989920D01*
X-390695Y-1990202D01*
X-391400Y-1990625D01*
X-392527Y-1991048D01*
X-393655Y-1991753D01*
X-395065Y-1992458D01*
X-398025Y-1994008D01*
X-408598Y-1999506D01*
X-408880Y-1999647D01*
X-409444Y-1999929D01*
X-410290Y-2000352D01*
X-411276Y-2000916D01*
X-413532Y-2002326D01*
X-414660Y-2003031D01*
X-415646Y-2003735D01*
X-415787D01*
X-416069Y-2004017D01*
X-416915Y-2004722D01*
X-417902Y-2005568D01*
X-418748Y-2006696D01*
X-418889Y-2006978D01*
X-419312Y-2007542D01*
X-419734Y-2008387D01*
X-420016Y-2009515D01*
X-420157Y-2009797D01*
Y-2010220D01*
X-420298Y-2010643D01*
Y-2011348D01*
X-420439Y-2012194D01*
Y-2021216D01*
X-398871D01*
X-398730D01*
X-398166D01*
X-397320D01*
X-396333D01*
X-394219Y-2021075D01*
X-393091D01*
X-392245Y-2020934D01*
X-392104D01*
X-391963Y-2020793D01*
X-391118Y-2020652D01*
X-390131Y-2020229D01*
X-389144Y-2019806D01*
X-389003Y-2019665D01*
X-388580Y-2019242D01*
X-388016Y-2018678D01*
X-387452Y-2017973D01*
X-387311Y-2017691D01*
X-387029Y-2016987D01*
X-386748Y-2016423D01*
X-386607Y-2015718D01*
X-386325Y-2014731D01*
X-386043Y-2013744D01*
X-382941D01*
Y-2040529D01*
X-386043D01*
Y-2040388D01*
X-386184Y-2039824D01*
X-386466Y-2039260D01*
X-386748Y-2038414D01*
X-387311Y-2036722D01*
X-387734Y-2035877D01*
X-388157Y-2035313D01*
X-388439Y-2035031D01*
X-389144Y-2034608D01*
X-390131Y-2033903D01*
X-391681Y-2033480D01*
X-391822D01*
X-392104Y-2033339D01*
X-392668D01*
X-393514Y-2033198D01*
X-394501D01*
X-395629Y-2033057D01*
X-397038D01*
X-398730D01*
X-453567D01*
X-453708D01*
X-454272D01*
X-455118D01*
X-455964D01*
X-458078Y-2033198D01*
X-459065Y-2033339D01*
X-459911Y-2033480D01*
X-460052D01*
X-460193D01*
X-461039Y-2033762D01*
X-462025Y-2034044D01*
X-463012Y-2034467D01*
X-463153Y-2034608D01*
X-463717Y-2035031D01*
X-464140Y-2035595D01*
X-464704Y-2036440D01*
X-464845Y-2036722D01*
X-465127Y-2037427D01*
X-465409Y-2037991D01*
X-465691Y-2038696D01*
X-465973Y-2039542D01*
X-466255Y-2040529D01*
X-469356D01*
Y-2007683D01*
X-469215Y-2006696D01*
Y-2005427D01*
X-469074Y-2004017D01*
X-468933Y-2002467D01*
X-468651Y-2000775D01*
X-468087Y-1997110D01*
X-467100Y-1993445D01*
X-465832Y-1990061D01*
X-464986Y-1988370D01*
X-463999Y-1986960D01*
Y-1986819D01*
X-463717Y-1986678D01*
X-463012Y-1985832D01*
X-461744Y-1984704D01*
X-459911Y-1983295D01*
X-457514Y-1981885D01*
X-454695Y-1980757D01*
X-451171Y-1979911D01*
X-449338Y-1979770D01*
X-447224Y-1979630D01*
X-447083D01*
X-446801D01*
X-446378D01*
X-445814D01*
X-444122Y-1979911D01*
X-442149Y-1980193D01*
X-439893Y-1980757D01*
X-437356Y-1981603D01*
X-434818Y-1982872D01*
X-432422Y-1984422D01*
X-432140Y-1984704D01*
X-431435Y-1985268D01*
X-430307Y-1986396D01*
X-429039Y-1987947D01*
X-427488Y-1990061D01*
X-425937Y-1992458D01*
X-424387Y-1995418D01*
X-422977Y-1998801D01*
X-422554D01*
X-422413Y-1998660D01*
X-422272Y-1998097D01*
X-421849Y-1997392D01*
X-421285Y-1996546D01*
X-419875Y-1994290D01*
X-417902Y-1992176D01*
X-417761Y-1992035D01*
X-417338Y-1991612D01*
X-416633Y-1991048D01*
X-415646Y-1990343D01*
X-414378Y-1989356D01*
X-412827Y-1988370D01*
X-410994Y-1987242D01*
X-408739Y-1985973D01*
X-398448Y-1980334D01*
X-398307Y-1980193D01*
X-397743Y-1979911D01*
X-396897Y-1979489D01*
X-395770Y-1978784D01*
X-393514Y-1977515D01*
X-392386Y-1976810D01*
X-391400Y-1976105D01*
X-391259Y-1975964D01*
X-390977Y-1975823D01*
X-390554Y-1975400D01*
X-389990Y-1974978D01*
X-388862Y-1973850D01*
X-387734Y-1972440D01*
Y-1972299D01*
X-387593Y-1972158D01*
X-387311Y-1971735D01*
X-387029Y-1971171D01*
X-386748Y-1970466D01*
X-386466Y-1969621D01*
X-386043Y-1967506D01*
X-382941D01*
Y-1985127D01*
D02*
G37*
G36*
X-367717Y-2096212D02*
X-375047D01*
Y-2048141D01*
X-367717D01*
Y-2096212D01*
D02*
G37*
G36*
X-382941Y-2153305D02*
X-387452D01*
Y-2153023D01*
X-387593Y-2152177D01*
Y-2150908D01*
X-387734Y-2149357D01*
X-388016Y-2146115D01*
X-388157Y-2144564D01*
X-388298Y-2143296D01*
Y-2143155D01*
X-388439Y-2142732D01*
X-388580Y-2142168D01*
X-388721Y-2141604D01*
X-389285Y-2140053D01*
X-389567Y-2139349D01*
X-389990Y-2138644D01*
Y-2138503D01*
X-390131Y-2138362D01*
X-390836Y-2137798D01*
X-391681Y-2137093D01*
X-392950Y-2136388D01*
X-393091D01*
X-393373Y-2136247D01*
X-393796Y-2136106D01*
X-394501Y-2135965D01*
X-395347Y-2135824D01*
X-396474Y-2135683D01*
X-397884Y-2135542D01*
X-399435D01*
X-450889D01*
X-451030D01*
X-451312D01*
X-451735D01*
X-452299Y-2135683D01*
X-453567Y-2135965D01*
X-454554Y-2136529D01*
X-454695Y-2136670D01*
X-455118Y-2137093D01*
X-455541Y-2137939D01*
X-455682Y-2139067D01*
Y-2139489D01*
X-455541Y-2139912D01*
X-455400Y-2140476D01*
X-455118Y-2141322D01*
X-454836Y-2142309D01*
X-454272Y-2143437D01*
X-453567Y-2144846D01*
X-453426Y-2144987D01*
X-453144Y-2145551D01*
X-452721Y-2146397D01*
X-452158Y-2147384D01*
X-451312Y-2148794D01*
X-450325Y-2150344D01*
X-449197Y-2152177D01*
X-447788Y-2154150D01*
X-452721Y-2156829D01*
X-470484Y-2127225D01*
Y-2123701D01*
X-470202D01*
X-469356D01*
X-467946Y-2123842D01*
X-466114D01*
X-463576Y-2123983D01*
X-460757D01*
X-457373Y-2124124D01*
X-453567D01*
X-399435D01*
X-399294D01*
X-398871D01*
X-398166D01*
X-397320D01*
X-395488Y-2123983D01*
X-394642Y-2123842D01*
X-393796Y-2123701D01*
X-393655D01*
X-393514Y-2123560D01*
X-392809Y-2123419D01*
X-391822Y-2122855D01*
X-390836Y-2122291D01*
X-390695Y-2122009D01*
X-390131Y-2121445D01*
X-389567Y-2120459D01*
X-389003Y-2119190D01*
Y-2119049D01*
X-388862Y-2118767D01*
X-388721Y-2118344D01*
X-388580Y-2117780D01*
X-388298Y-2116229D01*
X-387875Y-2114256D01*
Y-2113692D01*
X-387734Y-2112987D01*
Y-2112141D01*
X-387593Y-2111014D01*
Y-2109604D01*
X-387452Y-2108053D01*
Y-2106362D01*
X-382941D01*
Y-2153305D01*
D02*
G37*
G36*
X-385056Y-2175437D02*
X-384774Y-2176142D01*
X-384492Y-2177410D01*
X-384210Y-2178961D01*
X-383787Y-2180794D01*
X-383505Y-2182767D01*
X-383082Y-2185023D01*
X-382800Y-2187419D01*
Y-2187701D01*
X-382659Y-2188547D01*
X-382518Y-2189816D01*
X-382377Y-2191507D01*
X-382236Y-2193481D01*
X-382096Y-2195737D01*
X-381955Y-2198415D01*
Y-2201798D01*
X-382096Y-2202644D01*
Y-2203772D01*
X-382236Y-2205041D01*
X-382518Y-2206591D01*
X-382800Y-2208283D01*
X-383364Y-2210115D01*
X-383928Y-2212089D01*
X-384633Y-2214063D01*
X-385479Y-2216177D01*
X-386607Y-2218151D01*
X-387734Y-2220124D01*
X-389285Y-2222098D01*
X-390836Y-2223790D01*
X-392809Y-2225481D01*
X-392950Y-2225622D01*
X-393373Y-2225763D01*
X-393937Y-2226186D01*
X-394783Y-2226750D01*
X-396052Y-2227314D01*
X-397320Y-2228019D01*
X-399012Y-2228864D01*
X-400985Y-2229569D01*
X-403100Y-2230274D01*
X-405497Y-2231120D01*
X-408175Y-2231825D01*
X-411135Y-2232389D01*
X-414237Y-2232953D01*
X-417620Y-2233235D01*
X-421285Y-2233516D01*
X-425232Y-2233657D01*
X-425373D01*
X-425796D01*
X-426501D01*
X-427488Y-2233516D01*
X-428757D01*
X-430166Y-2233376D01*
X-431717Y-2233235D01*
X-433409Y-2233094D01*
X-437074Y-2232671D01*
X-441021Y-2231825D01*
X-445109Y-2230838D01*
X-449056Y-2229428D01*
X-449197D01*
X-449479Y-2229287D01*
X-450043Y-2229005D01*
X-450748Y-2228583D01*
X-451594Y-2228160D01*
X-452581Y-2227596D01*
X-454836Y-2226186D01*
X-457373Y-2224353D01*
X-460052Y-2222239D01*
X-462589Y-2219701D01*
X-464845Y-2216741D01*
Y-2216600D01*
X-465127Y-2216318D01*
X-465409Y-2215895D01*
X-465691Y-2215190D01*
X-466114Y-2214486D01*
X-466678Y-2213499D01*
X-467100Y-2212371D01*
X-467664Y-2211102D01*
X-468651Y-2208283D01*
X-469638Y-2204900D01*
X-470202Y-2201093D01*
X-470484Y-2197005D01*
Y-2194891D01*
X-470343Y-2193481D01*
Y-2191789D01*
X-470202Y-2190098D01*
X-469779Y-2186292D01*
Y-2186010D01*
X-469638Y-2185446D01*
X-469497Y-2184459D01*
X-469356Y-2183049D01*
X-468933Y-2181358D01*
X-468651Y-2179525D01*
X-468087Y-2177410D01*
X-467523Y-2175155D01*
X-450043D01*
Y-2181358D01*
X-450325D01*
X-450889Y-2181640D01*
X-452017Y-2181921D01*
X-453144Y-2182485D01*
X-454554Y-2183049D01*
X-456105Y-2183613D01*
X-457514Y-2184459D01*
X-458783Y-2185305D01*
X-458924Y-2185446D01*
X-459347Y-2185728D01*
X-459911Y-2186151D01*
X-460616Y-2186855D01*
X-461321Y-2187701D01*
X-462166Y-2188547D01*
X-462871Y-2189675D01*
X-463435Y-2190803D01*
Y-2190944D01*
X-463717Y-2191366D01*
X-463858Y-2192071D01*
X-464140Y-2192917D01*
X-464422Y-2194045D01*
X-464563Y-2195314D01*
X-464845Y-2196723D01*
Y-2199402D01*
X-464563Y-2200530D01*
X-464281Y-2202080D01*
X-463717Y-2203913D01*
X-463012Y-2205886D01*
X-461885Y-2207860D01*
X-460475Y-2209834D01*
X-460334Y-2210115D01*
X-459629Y-2210679D01*
X-458642Y-2211525D01*
X-457233Y-2212794D01*
X-455400Y-2214063D01*
X-453144Y-2215331D01*
X-450466Y-2216600D01*
X-447365Y-2217869D01*
X-447224D01*
X-446942Y-2218010D01*
X-446519Y-2218151D01*
X-445814Y-2218292D01*
X-444968Y-2218574D01*
X-443981Y-2218856D01*
X-442854Y-2219138D01*
X-441585Y-2219279D01*
X-440034Y-2219560D01*
X-438484Y-2219842D01*
X-434818Y-2220406D01*
X-430871Y-2220688D01*
X-426360Y-2220829D01*
X-426219D01*
X-425796D01*
X-425091D01*
X-424246D01*
X-423259Y-2220688D01*
X-421990D01*
X-420580D01*
X-419030Y-2220547D01*
X-415646Y-2220265D01*
X-412122Y-2219842D01*
X-408598Y-2219279D01*
X-405074Y-2218433D01*
X-404933D01*
X-404651Y-2218292D01*
X-404228Y-2218151D01*
X-403664Y-2218010D01*
X-402113Y-2217446D01*
X-400140Y-2216600D01*
X-398025Y-2215613D01*
X-395770Y-2214486D01*
X-393655Y-2213076D01*
X-391822Y-2211384D01*
X-391681Y-2211102D01*
X-391118Y-2210538D01*
X-390413Y-2209552D01*
X-389708Y-2208142D01*
X-388862Y-2206450D01*
X-388157Y-2204477D01*
X-387593Y-2202221D01*
X-387452Y-2199684D01*
Y-2198838D01*
X-387593Y-2197851D01*
Y-2196723D01*
X-387734Y-2195455D01*
X-388016Y-2194045D01*
X-388439Y-2192635D01*
X-388862Y-2191366D01*
X-389003Y-2191225D01*
X-389144Y-2190803D01*
X-389567Y-2190239D01*
X-389990Y-2189393D01*
X-390695Y-2188547D01*
X-391540Y-2187560D01*
X-392527Y-2186573D01*
X-393655Y-2185728D01*
X-393796Y-2185587D01*
X-394219Y-2185305D01*
X-395065Y-2184882D01*
X-396052Y-2184318D01*
X-397320Y-2183613D01*
X-399012Y-2182908D01*
X-400985Y-2182203D01*
X-403100Y-2181358D01*
Y-2175155D01*
X-385056D01*
Y-2175437D01*
D02*
G37*
%LPC*%
G36*
X-70932Y2149482D02*
X-221403D01*
X-240559Y2095068D01*
X-231398D01*
X-228344Y2100343D01*
X-225290Y2105062D01*
X-222236Y2109504D01*
X-219460Y2113391D01*
X-216961Y2116722D01*
X-214463Y2119776D01*
X-212242Y2122553D01*
X-210021Y2124774D01*
X-208078Y2126994D01*
X-206412Y2128660D01*
X-205024Y2130048D01*
X-203913Y2131159D01*
X-202248Y2132269D01*
X-201692Y2132825D01*
X-196695Y2135601D01*
X-191420Y2137822D01*
X-186145Y2139210D01*
X-181148Y2140320D01*
X-176706Y2140876D01*
X-174763D01*
X-173097Y2141153D01*
X-170043D01*
X-201415Y1994291D01*
X-225845D01*
X-227511Y1985963D01*
X-138950D01*
X-137006Y1994291D01*
X-162548D01*
X-131176Y2141153D01*
X-123680D01*
X-117850Y2140876D01*
X-112853Y2139765D01*
X-108411Y2138099D01*
X-104525Y2135878D01*
X-101471Y2133380D01*
X-98694Y2130604D01*
X-96474Y2127827D01*
X-94808Y2124774D01*
X-93420Y2121442D01*
X-92309Y2118666D01*
X-91754Y2115890D01*
X-91199Y2113391D01*
X-90921Y2111170D01*
X-90643Y2109504D01*
Y2108394D01*
Y2108116D01*
Y2106173D01*
Y2104229D01*
X-90921Y2100065D01*
X-91199Y2098122D01*
Y2096456D01*
X-91476Y2095346D01*
Y2095068D01*
X-82592D01*
X-70932Y2149482D01*
D02*
G37*
G36*
X237228Y2147816D02*
X235285D01*
X228067Y2147261D01*
X221404Y2146150D01*
X215851Y2144485D01*
X210854Y2142819D01*
X206967Y2140876D01*
X204191Y2139210D01*
X203358Y2138377D01*
X202525Y2138099D01*
X202248Y2137544D01*
X201970D01*
X199749Y2135601D01*
X197806Y2133657D01*
X194752Y2129771D01*
X192531Y2126162D01*
X191143Y2122553D01*
X190032Y2119499D01*
X189755Y2117278D01*
X189477Y2115612D01*
Y2115334D01*
Y2115057D01*
X189755Y2112836D01*
X190032Y2110615D01*
X190865Y2108671D01*
X191698Y2106728D01*
X192253Y2105340D01*
X193086Y2104229D01*
X193364Y2103674D01*
X193641Y2103397D01*
X195585Y2101731D01*
X197528Y2100620D01*
X199472Y2099510D01*
X201415Y2098955D01*
X203081Y2098677D01*
X204469Y2098399D01*
X205857D01*
X208355Y2098677D01*
X210854Y2099232D01*
X212797Y2099788D01*
X214463Y2100898D01*
X215851Y2101731D01*
X216962Y2102286D01*
X217517Y2102841D01*
X217795Y2103119D01*
X219460Y2105062D01*
X220571Y2107006D01*
X221681Y2108949D01*
X222237Y2110892D01*
X222514Y2112558D01*
X222792Y2113946D01*
Y2114779D01*
Y2115057D01*
X222514Y2118111D01*
X221681Y2120887D01*
X220848Y2122830D01*
X219738Y2124774D01*
X218350Y2125884D01*
X217517Y2126994D01*
X216684Y2127272D01*
X216406Y2127550D01*
X215296Y2128383D01*
X214463Y2128938D01*
X213630Y2130326D01*
X213075Y2130881D01*
Y2131159D01*
X213353Y2131992D01*
X213908Y2133102D01*
X215296Y2134490D01*
X216962Y2135601D01*
X217239Y2136156D01*
X217517D01*
X221126Y2137544D01*
X224735Y2138377D01*
X226401Y2138655D01*
X228622D01*
X231676Y2138377D01*
X234174Y2137822D01*
X236395Y2136989D01*
X238339Y2135878D01*
X240004Y2134490D01*
X241115Y2133102D01*
X243336Y2129771D01*
X244446Y2126439D01*
X245002Y2123663D01*
X245279Y2122553D01*
Y2121720D01*
Y2121164D01*
Y2120887D01*
X245002Y2114501D01*
X244169Y2108671D01*
X242781Y2103397D01*
X241392Y2098677D01*
X240004Y2094790D01*
X238616Y2092014D01*
X238339Y2090904D01*
X237783Y2090071D01*
X237506Y2089793D01*
Y2089516D01*
X235840Y2087017D01*
X234174Y2085074D01*
X232509Y2083130D01*
X230565Y2081464D01*
X226956Y2078966D01*
X223347Y2077300D01*
X220016Y2076467D01*
X217239Y2075912D01*
X216129Y2075634D01*
X214741D01*
X202525Y2076190D01*
X200582Y2075912D01*
X198639Y2075634D01*
X197528Y2075079D01*
X196973Y2074802D01*
X195307Y2073413D01*
X194474Y2072025D01*
X194197Y2070915D01*
Y2070637D01*
Y2070360D01*
X194474Y2068694D01*
X195585Y2067583D01*
X196695Y2066751D01*
X198361Y2066195D01*
X199749Y2065918D01*
X201137Y2065640D01*
X202248D01*
X215018Y2067028D01*
X218072Y2066751D01*
X220571Y2066473D01*
X223069Y2065640D01*
X225013Y2064807D01*
X226401Y2063974D01*
X227789Y2063419D01*
X228344Y2062864D01*
X228622Y2062586D01*
X230288Y2060920D01*
X231676Y2058977D01*
X232509Y2056756D01*
X233341Y2055090D01*
X233619Y2053147D01*
X233897Y2052037D01*
Y2050926D01*
Y2050648D01*
X233619Y2044818D01*
X232786Y2038711D01*
X231676Y2032603D01*
X230565Y2026773D01*
X229177Y2021776D01*
X228622Y2019555D01*
X228067Y2017611D01*
X227511Y2016223D01*
X227234Y2015113D01*
X226956Y2014280D01*
Y2014002D01*
X225568Y2010116D01*
X223902Y2006784D01*
X222237Y2004008D01*
X220293Y2001509D01*
X218072Y1999288D01*
X216129Y1997623D01*
X213908Y1996235D01*
X211965Y1995124D01*
X207800Y1993458D01*
X204746Y1992625D01*
X203358D01*
X202525Y1992348D01*
X201693D01*
X197251Y1992625D01*
X195307Y1992903D01*
X193641Y1993181D01*
X192253D01*
X191143Y1993458D01*
X190588Y1993736D01*
X190310D01*
X188644Y1994291D01*
X187534Y1995124D01*
X186423Y1995957D01*
X185868Y1996790D01*
X185313Y1997900D01*
Y1998455D01*
X185590Y1999288D01*
X185868Y1999844D01*
X187534Y2001232D01*
X188922Y2002065D01*
X189200Y2002342D01*
X189477D01*
X192531Y2004563D01*
X195030Y2006784D01*
X196695Y2009283D01*
X197806Y2011504D01*
X198361Y2013725D01*
X198916Y2015390D01*
Y2016501D01*
Y2016779D01*
X198639Y2019277D01*
X198083Y2021498D01*
X197528Y2023719D01*
X196695Y2025385D01*
X195585Y2026773D01*
X195030Y2027883D01*
X194474Y2028439D01*
X194197Y2028716D01*
X192531Y2030382D01*
X190310Y2031493D01*
X188367Y2032603D01*
X186423Y2033158D01*
X184758Y2033436D01*
X183369Y2033713D01*
X181981D01*
X178928Y2033436D01*
X176429Y2032881D01*
X173930Y2032048D01*
X171987Y2031215D01*
X170599Y2030104D01*
X169211Y2029272D01*
X168655Y2028716D01*
X168378Y2028439D01*
X166712Y2026218D01*
X165602Y2023997D01*
X164491Y2021776D01*
X163936Y2019555D01*
X163658Y2017889D01*
X163381Y2016223D01*
Y2015113D01*
Y2014835D01*
X163936Y2010116D01*
X165046Y2005951D01*
X166990Y2002342D01*
X169211Y1999011D01*
X171154Y1996235D01*
X173097Y1994291D01*
X174208Y1993181D01*
X174763Y1992625D01*
X179483Y1989572D01*
X184480Y1987073D01*
X190032Y1985407D01*
X195030Y1984297D01*
X199749Y1983742D01*
X201693Y1983464D01*
X203636D01*
X205024Y1983186D01*
X206967D01*
X211965Y1983464D01*
X216962Y1983742D01*
X225846Y1985685D01*
X230010Y1986795D01*
X233619Y1987906D01*
X237228Y1989294D01*
X240282Y1990960D01*
X243058Y1992348D01*
X245557Y1993736D01*
X247778Y1994846D01*
X249443Y1995957D01*
X250832Y1997067D01*
X251942Y1997900D01*
X252497Y1998178D01*
X252775Y1998455D01*
X255829Y2001509D01*
X258605Y2004286D01*
X261104Y2007339D01*
X263325Y2010671D01*
X264990Y2013725D01*
X266378Y2016501D01*
X268599Y2022331D01*
X269988Y2027051D01*
X270265Y2029272D01*
X270543Y2030937D01*
X270820Y2032603D01*
Y2033713D01*
Y2034269D01*
Y2034546D01*
X270265Y2040099D01*
X268877Y2044818D01*
X266656Y2049260D01*
X263880Y2053147D01*
X260548Y2056478D01*
X256939Y2059532D01*
X253053Y2062031D01*
X248888Y2064252D01*
X244724Y2065918D01*
X240837Y2067583D01*
X237228Y2068694D01*
X233897Y2069527D01*
X231120Y2070082D01*
X228899Y2070637D01*
X227511Y2070915D01*
X226956D01*
Y2071192D01*
X231953Y2072303D01*
X236395Y2073691D01*
X240837Y2075079D01*
X244724Y2076467D01*
X248611Y2078133D01*
X251942Y2079799D01*
X258327Y2083130D01*
X263602Y2086462D01*
X267767Y2090071D01*
X271376Y2093680D01*
X274429Y2097011D01*
X276650Y2100343D01*
X278316Y2103397D01*
X279427Y2106173D01*
X280260Y2108671D01*
X280815Y2110615D01*
X281092Y2112003D01*
Y2115890D01*
X280537Y2118388D01*
X279149Y2123108D01*
X277206Y2127272D01*
X274985Y2130881D01*
X272486Y2133657D01*
X270543Y2135878D01*
X269155Y2136989D01*
X268877Y2137544D01*
X268599D01*
X263602Y2140876D01*
X258327Y2143374D01*
X252775Y2145318D01*
X247500Y2146428D01*
X242503Y2147261D01*
X240560Y2147539D01*
X238894D01*
X237228Y2147816D01*
D02*
G37*
G36*
X164769Y2149482D02*
X99805D01*
X36507Y2039821D01*
X35952D01*
X17629Y2149482D01*
X-48167D01*
X-50111Y2141153D01*
X-27623D01*
X-58717Y1994291D01*
X-80927D01*
X-82592Y1985963D01*
X-27623D01*
X-25680Y1994291D01*
X-50111D01*
X-19850Y2139765D01*
X-19295D01*
X6524Y1985963D01*
X14853D01*
X103970Y2141153D01*
X104525Y2140598D01*
X73709Y1994291D01*
X52054D01*
X50389Y1985963D01*
X133120D01*
X134786Y1994291D01*
X112853D01*
X143947Y2141153D01*
X163103D01*
X164158Y2146428D01*
X164436Y2147816D01*
X164769Y2149482D01*
D02*
G37*
G36*
X361880Y2147816D02*
X359937D01*
X355773Y2147539D01*
X351886Y2147261D01*
X344390Y2145595D01*
X338005Y2143374D01*
X332730Y2140876D01*
X330231Y2139487D01*
X328288Y2138377D01*
X326622Y2137266D01*
X325234Y2136156D01*
X323846Y2135323D01*
X323013Y2134490D01*
X322736Y2134213D01*
X322458Y2133935D01*
X319959Y2131436D01*
X317739Y2128660D01*
X315795Y2126162D01*
X314129Y2123385D01*
X311631Y2118388D01*
X309965Y2113669D01*
X308855Y2109782D01*
X308299Y2106450D01*
X308022Y2105340D01*
Y2104507D01*
Y2103952D01*
Y2103674D01*
X308299Y2100620D01*
X308855Y2097567D01*
X309687Y2094790D01*
X310798Y2092569D01*
X311631Y2090626D01*
X312464Y2089238D01*
X313019Y2088127D01*
X313297Y2087850D01*
X315518Y2085629D01*
X317739Y2083963D01*
X320237Y2082575D01*
X322458Y2081742D01*
X324401Y2081187D01*
X326067Y2080909D01*
X327455D01*
X330231Y2081187D01*
X332452Y2081742D01*
X334673Y2082297D01*
X336617Y2083408D01*
X338005Y2084241D01*
X339115Y2084796D01*
X339671Y2085351D01*
X339948Y2085629D01*
X341614Y2087572D01*
X342724Y2089793D01*
X343835Y2092014D01*
X344390Y2094235D01*
X344668Y2096178D01*
X344945Y2097844D01*
Y2098955D01*
Y2099232D01*
X344668Y2101731D01*
X344113Y2104229D01*
X343280Y2106173D01*
X342447Y2107839D01*
X341336Y2109227D01*
X340504Y2110060D01*
X339948Y2110615D01*
X339671Y2110892D01*
X337727Y2112558D01*
X335506Y2113669D01*
X333563Y2114501D01*
X331620Y2115057D01*
X329954Y2115334D01*
X328566Y2115612D01*
X325790D01*
X324679Y2115890D01*
X324124Y2116445D01*
X323569Y2117000D01*
X323013Y2117833D01*
Y2118111D01*
X323291Y2120609D01*
X324401Y2122830D01*
X325790Y2125051D01*
X327178Y2126994D01*
X328843Y2128660D01*
X329954Y2129771D01*
X331064Y2130604D01*
X331342Y2130881D01*
X334673Y2133102D01*
X338005Y2134490D01*
X341336Y2135601D01*
X344390Y2136434D01*
X347166Y2136989D01*
X349387Y2137266D01*
X351331D01*
X354662Y2136989D01*
X357438Y2136434D01*
X360215Y2135323D01*
X362158Y2133657D01*
X364101Y2131992D01*
X365489Y2130048D01*
X367988Y2126162D01*
X369099Y2121997D01*
X369931Y2118388D01*
X370209Y2117000D01*
Y2115890D01*
Y2115057D01*
Y2114779D01*
X369931Y2109504D01*
X369376Y2104229D01*
X368543Y2098955D01*
X367433Y2094235D01*
X366045Y2089516D01*
X364657Y2085074D01*
X362991Y2081187D01*
X361603Y2077300D01*
X359937Y2073969D01*
X358271Y2070915D01*
X356883Y2068139D01*
X355495Y2065918D01*
X354385Y2064252D01*
X353552Y2062864D01*
X352997Y2062031D01*
X352719Y2061753D01*
X349110Y2057311D01*
X344945Y2052592D01*
X340504Y2047872D01*
X335506Y2043153D01*
X325234Y2033713D01*
X319959Y2029272D01*
X314685Y2025107D01*
X309965Y2021220D01*
X305246Y2017611D01*
X301081Y2014280D01*
X297194Y2011504D01*
X294141Y2009283D01*
X291920Y2007617D01*
X290532Y2006507D01*
X289976Y2006229D01*
X286090Y1985963D01*
X383813D01*
X394362Y2036212D01*
X385756D01*
X384923Y2031770D01*
X383813Y2027883D01*
X382980Y2025107D01*
X382147Y2023164D01*
X381592Y2021776D01*
X381036Y2020943D01*
X380481Y2020388D01*
X379371Y2019555D01*
X377427Y2019000D01*
X375484Y2018722D01*
X373263Y2018444D01*
X371320Y2018167D01*
X321903D01*
Y2018444D01*
X329676Y2023719D01*
X337727Y2028994D01*
X344945Y2033991D01*
X351608Y2038988D01*
X357716Y2043430D01*
X362991Y2047595D01*
X367988Y2051481D01*
X372430Y2055368D01*
X376317Y2058699D01*
X379648Y2061476D01*
X382424Y2064252D01*
X384923Y2066473D01*
X386589Y2068416D01*
X388254Y2069804D01*
X389087Y2070915D01*
X389643Y2071470D01*
X389920Y2071748D01*
X392974Y2075357D01*
X395473Y2078966D01*
X397694Y2082575D01*
X399637Y2086184D01*
X401303Y2089516D01*
X402413Y2092847D01*
X404634Y2098677D01*
X405189Y2101453D01*
X405745Y2103952D01*
X406022Y2105895D01*
X406300Y2107839D01*
X406578Y2109227D01*
Y2113946D01*
X406022Y2116445D01*
X404634Y2121164D01*
X402413Y2125606D01*
X400192Y2129493D01*
X397694Y2132547D01*
X395473Y2134768D01*
X394085Y2136156D01*
X393807Y2136711D01*
X393529D01*
X388254Y2140320D01*
X382702Y2143097D01*
X377150Y2145040D01*
X371875Y2146428D01*
X367155Y2147261D01*
X365212Y2147539D01*
X363269D01*
X361880Y2147816D01*
D02*
G37*
G36*
X238755Y1948262D02*
X163797D01*
X161854Y1939933D01*
X180177D01*
X149083Y1793071D01*
X134647D01*
X132981Y1784742D01*
X206273D01*
X207939Y1793071D01*
X188228D01*
X219877Y1939933D01*
X236812D01*
X238755Y1948262D01*
D02*
G37*
G36*
X101332Y1950483D02*
X93281D01*
X-38312Y1793071D01*
X-54969D01*
X-56635Y1784742D01*
X-4164D01*
X-2221Y1793071D01*
X-27485D01*
X5275Y1831938D01*
X56913D01*
X54692Y1793071D01*
X34148D01*
X32204Y1784742D01*
X114380D01*
X116046Y1793071D01*
X92726D01*
X101332Y1950483D01*
D02*
G37*
G36*
X-302886Y1948262D02*
X-394778D01*
X-396444Y1939933D01*
X-372846D01*
X-403940Y1793071D01*
X-424206D01*
X-426150Y1784742D01*
X-334812D01*
X-326761Y1785020D01*
X-319543Y1785297D01*
X-312880Y1786130D01*
X-306772Y1786963D01*
X-301220Y1788351D01*
X-296223Y1789462D01*
X-292058Y1790850D01*
X-288172Y1792238D01*
X-284840Y1793626D01*
X-282064Y1795014D01*
X-279843Y1796402D01*
X-277900Y1797513D01*
X-276512Y1798346D01*
X-275679Y1799179D01*
X-275123Y1799456D01*
X-274846Y1799734D01*
X-272070Y1802510D01*
X-269571Y1805564D01*
X-267628Y1808340D01*
X-265962Y1811116D01*
X-263186Y1816391D01*
X-261242Y1821388D01*
X-260132Y1825830D01*
X-259854Y1827496D01*
X-259577Y1829162D01*
X-259299Y1830272D01*
Y1831105D01*
Y1831660D01*
Y1831938D01*
X-259854Y1837490D01*
X-261242Y1842488D01*
X-263186Y1846930D01*
X-265962Y1851094D01*
X-269293Y1854425D01*
X-272902Y1857479D01*
X-276789Y1860255D01*
X-280953Y1862476D01*
X-285118Y1864420D01*
X-289005Y1866085D01*
X-292614Y1867196D01*
X-295945Y1868306D01*
X-298721Y1868862D01*
X-300665Y1869417D01*
X-302053Y1869695D01*
X-302608D01*
Y1869972D01*
X-294002Y1871638D01*
X-286506Y1873581D01*
X-279843Y1876080D01*
X-277067Y1877468D01*
X-274568Y1878578D01*
X-272347Y1879689D01*
X-270126Y1880799D01*
X-268460Y1881910D01*
X-267072Y1882743D01*
X-265962Y1883576D01*
X-265129Y1884131D01*
X-264851Y1884686D01*
X-264574D01*
X-262075Y1886907D01*
X-259854Y1889128D01*
X-257911Y1891349D01*
X-256245Y1893570D01*
X-253747Y1898290D01*
X-252081Y1902454D01*
X-251248Y1906063D01*
X-250693Y1909117D01*
X-250415Y1910227D01*
Y1914392D01*
X-250970Y1916890D01*
X-252358Y1921610D01*
X-254579Y1926052D01*
X-256800Y1929938D01*
X-259299Y1932992D01*
X-261520Y1935213D01*
X-262908Y1936601D01*
X-263186Y1937157D01*
X-263463D01*
X-265962Y1939100D01*
X-269016Y1940766D01*
X-275401Y1943542D01*
X-282342Y1945485D01*
X-289282Y1946873D01*
X-292614Y1947429D01*
X-295667Y1947706D01*
X-298444Y1947984D01*
X-300942D01*
X-302886Y1948262D01*
D02*
G37*
%LPD*%
G36*
X60799Y1897734D02*
X57468Y1840544D01*
X12493D01*
X60244Y1898290D01*
X60799Y1897734D01*
D02*
G37*
G36*
X-309271Y1939655D02*
X-305107Y1939100D01*
X-301775Y1938267D01*
X-299277Y1937157D01*
X-297333Y1936046D01*
X-296223Y1935213D01*
X-295667Y1934658D01*
X-295390Y1934380D01*
X-294002Y1932159D01*
X-293169Y1929938D01*
X-292058Y1925497D01*
X-291781Y1923553D01*
X-291503Y1921887D01*
Y1920777D01*
Y1920499D01*
X-291781Y1914669D01*
X-292336Y1909117D01*
X-293169Y1904397D01*
X-294002Y1899955D01*
X-294835Y1896624D01*
X-295667Y1894125D01*
X-296223Y1892460D01*
X-296500Y1892182D01*
Y1891904D01*
X-298444Y1887740D01*
X-300387Y1884408D01*
X-302330Y1881910D01*
X-304274Y1879967D01*
X-305939Y1878578D01*
X-307328Y1877468D01*
X-308160Y1877190D01*
X-308438Y1876913D01*
X-311492Y1876080D01*
X-314823Y1875247D01*
X-318432Y1874692D01*
X-321764Y1874414D01*
X-324818D01*
X-327594Y1874136D01*
X-348138D01*
X-333979Y1939933D01*
X-314546D01*
X-309271Y1939655D01*
D02*
G37*
G36*
X-320653Y1865530D02*
X-315934Y1864975D01*
X-312325Y1864142D01*
X-309549Y1863032D01*
X-307605Y1861921D01*
X-306217Y1861088D01*
X-305662Y1860533D01*
X-305384Y1860255D01*
X-303718Y1858034D01*
X-302608Y1855813D01*
X-301775Y1853315D01*
X-301220Y1851094D01*
X-300942Y1849150D01*
X-300665Y1847485D01*
Y1846374D01*
Y1846097D01*
X-300942Y1840267D01*
X-301497Y1834437D01*
X-302330Y1829162D01*
X-303441Y1824442D01*
X-304551Y1820555D01*
X-305384Y1817502D01*
X-305662Y1816391D01*
X-305939Y1815558D01*
X-306217Y1815003D01*
Y1814725D01*
X-307328Y1811949D01*
X-308438Y1809451D01*
X-310381Y1805286D01*
X-312602Y1801955D01*
X-314268Y1799734D01*
X-315934Y1797790D01*
X-317322Y1796958D01*
X-318155Y1796402D01*
X-318432Y1796125D01*
X-321486Y1795014D01*
X-324818Y1794459D01*
X-328704Y1793904D01*
X-332591Y1793348D01*
X-336200D01*
X-339254Y1793071D01*
X-364795D01*
X-349526Y1865808D01*
X-323152D01*
X-320653Y1865530D01*
D02*
G37*
%LPC*%
G36*
X1346022Y1730956D02*
X1345096D01*
X1344171Y1730493D01*
X1343245Y1729567D01*
X1341394Y1728179D01*
X1339543Y1726328D01*
X1337229Y1723551D01*
X1334452Y1719849D01*
X1333989Y1719386D01*
X1333064Y1718460D01*
X1332138Y1717072D01*
X1330287Y1714758D01*
X1327973Y1711519D01*
X1324734Y1707353D01*
X1320569Y1702263D01*
X1320106Y1701337D01*
X1318717Y1699486D01*
X1316404Y1696247D01*
X1314090Y1693007D01*
X1311313Y1689305D01*
X1308999Y1685602D01*
X1307148Y1682826D01*
X1306222Y1680975D01*
X1306685Y1680512D01*
X1308073Y1680049D01*
X1308999Y1679586D01*
X1355740D01*
X1358054Y1680049D01*
X1358980D01*
X1359443Y1680512D01*
Y1680975D01*
Y1681900D01*
X1359906Y1683751D01*
X1359443Y1686528D01*
X1358980Y1690693D01*
X1358517Y1696247D01*
X1356666Y1703651D01*
X1355740Y1707816D01*
X1354815Y1712444D01*
Y1712907D01*
X1354352Y1714295D01*
X1353889Y1716609D01*
X1353427Y1718923D01*
X1351575Y1724014D01*
X1351113Y1726328D01*
X1350187Y1727716D01*
X1349724Y1728179D01*
X1348799Y1729567D01*
X1347873Y1730493D01*
X1346022Y1730956D01*
D02*
G37*
G36*
X-1713303Y-1576994D02*
X-1727561D01*
X-1737190Y-1624952D01*
X-1724969D01*
X-1722747Y-1624767D01*
X-1720340D01*
X-1717933Y-1624396D01*
X-1715711Y-1624211D01*
X-1713674Y-1623841D01*
X-1713489D01*
X-1712933Y-1623656D01*
X-1712007Y-1623285D01*
X-1710896Y-1622915D01*
X-1708304Y-1621434D01*
X-1707008Y-1620508D01*
X-1705897Y-1619397D01*
X-1705712Y-1619212D01*
X-1705341Y-1618656D01*
X-1704786Y-1617730D01*
X-1704230Y-1616434D01*
X-1703304Y-1614582D01*
X-1702379Y-1612175D01*
X-1701453Y-1609213D01*
X-1700342Y-1605695D01*
Y-1605509D01*
X-1700157Y-1605139D01*
Y-1604769D01*
X-1699971Y-1604028D01*
X-1699416Y-1601991D01*
X-1698860Y-1599584D01*
X-1698490Y-1596807D01*
X-1697935Y-1593659D01*
X-1697749Y-1590696D01*
X-1697564Y-1587733D01*
Y-1587548D01*
Y-1586993D01*
X-1697749Y-1586067D01*
X-1697935Y-1584956D01*
X-1698305Y-1583660D01*
X-1699046Y-1582364D01*
X-1699786Y-1581067D01*
X-1700897Y-1579956D01*
X-1701082Y-1579771D01*
X-1701638Y-1579401D01*
X-1702564Y-1579031D01*
X-1703860Y-1578475D01*
X-1705712Y-1577920D01*
X-1708304Y-1577364D01*
X-1711452Y-1577179D01*
X-1713303Y-1576994D01*
D02*
G37*
G36*
X-1299457D02*
X-1309271D01*
X-1318344Y-1619397D01*
X-1305012D01*
X-1303161Y-1619212D01*
X-1300754Y-1619026D01*
X-1298161Y-1618841D01*
X-1295754Y-1618286D01*
X-1293347Y-1617730D01*
X-1291495Y-1616804D01*
X-1291310Y-1616619D01*
X-1290755Y-1616249D01*
X-1290014Y-1615508D01*
X-1289088Y-1614397D01*
X-1287977Y-1612916D01*
X-1286681Y-1610879D01*
X-1285570Y-1608287D01*
X-1284459Y-1605324D01*
Y-1605139D01*
X-1284274Y-1604954D01*
X-1284089Y-1603843D01*
X-1283533Y-1602176D01*
X-1282978Y-1599954D01*
X-1282607Y-1597362D01*
X-1282052Y-1594770D01*
X-1281867Y-1591807D01*
X-1281681Y-1589030D01*
Y-1588844D01*
Y-1588104D01*
X-1281867Y-1587178D01*
X-1282052Y-1585882D01*
X-1282607Y-1584400D01*
X-1283163Y-1582919D01*
X-1284089Y-1581623D01*
X-1285200Y-1580327D01*
X-1285385Y-1580142D01*
X-1285940Y-1579771D01*
X-1286866Y-1579216D01*
X-1288347Y-1578660D01*
X-1290199Y-1578105D01*
X-1292606Y-1577549D01*
X-1295754Y-1577179D01*
X-1299457Y-1576994D01*
D02*
G37*
G36*
X-1589983Y-1574401D02*
X-1591649D01*
X-1592760Y-1574587D01*
X-1594057Y-1574772D01*
X-1595723Y-1575142D01*
X-1599426Y-1575883D01*
X-1603315Y-1577364D01*
X-1605352Y-1578475D01*
X-1607388Y-1579586D01*
X-1609240Y-1581067D01*
X-1611092Y-1582734D01*
X-1612758Y-1584586D01*
X-1614240Y-1586808D01*
Y-1586993D01*
X-1614610Y-1587363D01*
X-1614980Y-1588104D01*
X-1615351Y-1589215D01*
X-1616091Y-1590511D01*
X-1616832Y-1592177D01*
X-1617573Y-1594029D01*
X-1618498Y-1596436D01*
X-1619424Y-1599029D01*
X-1620535Y-1601991D01*
X-1621461Y-1605139D01*
X-1622572Y-1608842D01*
X-1623683Y-1612731D01*
X-1624794Y-1617175D01*
X-1625905Y-1621804D01*
X-1627016Y-1626803D01*
Y-1627174D01*
X-1627201Y-1627914D01*
X-1627572Y-1629396D01*
X-1627942Y-1631247D01*
X-1628312Y-1633469D01*
X-1628868Y-1635877D01*
X-1629423Y-1638654D01*
X-1629794Y-1641432D01*
X-1630905Y-1647172D01*
X-1631460Y-1650134D01*
X-1631830Y-1652727D01*
X-1632201Y-1655319D01*
X-1632571Y-1657541D01*
X-1632756Y-1659393D01*
Y-1660874D01*
Y-1661059D01*
Y-1661615D01*
X-1632571Y-1662355D01*
X-1632386Y-1663281D01*
X-1632201Y-1664577D01*
X-1631830Y-1665873D01*
X-1631090Y-1667355D01*
X-1630349Y-1668836D01*
X-1629423Y-1670317D01*
X-1628127Y-1671799D01*
X-1626461Y-1673095D01*
X-1624794Y-1674391D01*
X-1622572Y-1675317D01*
X-1619980Y-1676058D01*
X-1617017Y-1676613D01*
X-1613684Y-1676798D01*
X-1612573D01*
X-1611647Y-1676613D01*
X-1610721D01*
X-1609425Y-1676428D01*
X-1606648Y-1675872D01*
X-1603500Y-1674947D01*
X-1599982Y-1673836D01*
X-1596464Y-1671984D01*
X-1593131Y-1669577D01*
X-1592946Y-1669392D01*
X-1592760Y-1669206D01*
X-1592205Y-1668651D01*
X-1591649Y-1667910D01*
X-1590909Y-1666984D01*
X-1589983Y-1665503D01*
X-1588872Y-1663837D01*
X-1587761Y-1661985D01*
X-1586650Y-1659578D01*
X-1585354Y-1656800D01*
X-1584058Y-1653653D01*
X-1582576Y-1649949D01*
X-1581280Y-1645876D01*
X-1579984Y-1641432D01*
X-1578503Y-1636247D01*
X-1577206Y-1630692D01*
Y-1630507D01*
Y-1630322D01*
X-1576836Y-1629396D01*
X-1576466Y-1627729D01*
X-1576095Y-1625692D01*
X-1575540Y-1623100D01*
X-1574984Y-1620323D01*
X-1574244Y-1617175D01*
X-1573503Y-1613842D01*
X-1572207Y-1607176D01*
X-1571651Y-1603843D01*
X-1571096Y-1600695D01*
X-1570726Y-1597918D01*
X-1570355Y-1595325D01*
X-1569985Y-1593103D01*
Y-1591437D01*
Y-1591252D01*
Y-1591066D01*
Y-1590141D01*
X-1570170Y-1588659D01*
X-1570540Y-1586808D01*
X-1571096Y-1584771D01*
X-1571837Y-1582734D01*
X-1572762Y-1580697D01*
X-1574244Y-1578845D01*
X-1574429Y-1578660D01*
X-1575170Y-1578105D01*
X-1576281Y-1577364D01*
X-1577762Y-1576623D01*
X-1579984Y-1575883D01*
X-1582761Y-1575142D01*
X-1586094Y-1574587D01*
X-1589983Y-1574401D01*
D02*
G37*
G36*
X1478725Y-1626730D02*
X1472623D01*
X1462453Y-1675640D01*
X1470589D01*
X1471236Y-1675547D01*
X1472808Y-1675455D01*
X1474472Y-1675362D01*
X1476229Y-1675085D01*
X1477800Y-1674807D01*
X1478448Y-1674530D01*
X1479095Y-1674345D01*
X1479280Y-1674253D01*
X1479650Y-1674068D01*
X1480204Y-1673790D01*
X1481036Y-1673328D01*
X1481869Y-1672681D01*
X1482886Y-1671941D01*
X1483810Y-1671017D01*
X1484827Y-1669907D01*
X1484920Y-1669722D01*
X1485104Y-1669537D01*
X1485289Y-1669168D01*
X1485567Y-1668798D01*
X1485844Y-1668243D01*
X1486121Y-1667596D01*
X1486491Y-1666764D01*
X1486861Y-1665839D01*
X1487323Y-1664730D01*
X1487786Y-1663435D01*
X1488248Y-1662048D01*
X1488710Y-1660384D01*
X1489173Y-1658628D01*
X1489727Y-1656686D01*
X1490190Y-1654467D01*
Y-1654282D01*
X1490282Y-1653912D01*
X1490467Y-1653265D01*
X1490652Y-1652433D01*
X1490837Y-1651416D01*
X1491022Y-1650307D01*
X1491299Y-1649012D01*
X1491576Y-1647625D01*
X1492039Y-1644667D01*
X1492501Y-1641708D01*
X1492593Y-1640229D01*
X1492778Y-1638842D01*
X1492871Y-1637548D01*
Y-1636438D01*
Y-1636346D01*
Y-1635976D01*
X1492778Y-1635514D01*
X1492686Y-1634959D01*
X1492408Y-1634219D01*
X1492131Y-1633387D01*
X1491669Y-1632463D01*
X1491114Y-1631538D01*
X1490374Y-1630706D01*
X1489450Y-1629781D01*
X1488248Y-1628949D01*
X1486861Y-1628210D01*
X1485289Y-1627655D01*
X1483440Y-1627100D01*
X1481221Y-1626823D01*
X1478725Y-1626730D01*
D02*
G37*
G36*
X1417427Y-1640599D02*
X1401524Y-1659830D01*
X1416502D01*
X1417612Y-1640784D01*
X1417427Y-1640599D01*
D02*
G37*
G36*
X886544D02*
X870642Y-1659830D01*
X885620D01*
X886729Y-1640784D01*
X886544Y-1640599D01*
D02*
G37*
G36*
X568126Y-1626730D02*
X561007D01*
X556199Y-1650676D01*
X562301D01*
X563411Y-1650584D01*
X564613D01*
X565814Y-1650399D01*
X566924Y-1650307D01*
X567941Y-1650122D01*
X568033D01*
X568311Y-1650029D01*
X568773Y-1649844D01*
X569328Y-1649659D01*
X570622Y-1648920D01*
X571269Y-1648457D01*
X571824Y-1647903D01*
X571917Y-1647810D01*
X572101Y-1647533D01*
X572379Y-1647071D01*
X572656Y-1646423D01*
X573118Y-1645499D01*
X573581Y-1644297D01*
X574043Y-1642818D01*
X574598Y-1641061D01*
Y-1640969D01*
X574690Y-1640784D01*
Y-1640599D01*
X574783Y-1640229D01*
X575060Y-1639212D01*
X575337Y-1638010D01*
X575522Y-1636623D01*
X575800Y-1635051D01*
X575892Y-1633572D01*
X575985Y-1632093D01*
Y-1632000D01*
Y-1631723D01*
X575892Y-1631261D01*
X575800Y-1630706D01*
X575615Y-1630059D01*
X575245Y-1629412D01*
X574875Y-1628764D01*
X574320Y-1628210D01*
X574228Y-1628117D01*
X573951Y-1627932D01*
X573488Y-1627747D01*
X572841Y-1627470D01*
X571917Y-1627193D01*
X570622Y-1626915D01*
X569050Y-1626823D01*
X568126Y-1626730D01*
D02*
G37*
G36*
X1602986D02*
X1598086D01*
X1593555Y-1647903D01*
X1600212D01*
X1601137Y-1647810D01*
X1602339Y-1647718D01*
X1603633Y-1647625D01*
X1604835Y-1647348D01*
X1606037Y-1647071D01*
X1606961Y-1646608D01*
X1607054Y-1646516D01*
X1607331Y-1646331D01*
X1607701Y-1645961D01*
X1608163Y-1645406D01*
X1608718Y-1644667D01*
X1609365Y-1643650D01*
X1609920Y-1642355D01*
X1610475Y-1640876D01*
Y-1640784D01*
X1610567Y-1640691D01*
X1610660Y-1640136D01*
X1610937Y-1639304D01*
X1611214Y-1638195D01*
X1611399Y-1636900D01*
X1611677Y-1635606D01*
X1611769Y-1634127D01*
X1611862Y-1632740D01*
Y-1632647D01*
Y-1632278D01*
X1611769Y-1631815D01*
X1611677Y-1631168D01*
X1611399Y-1630429D01*
X1611122Y-1629689D01*
X1610660Y-1629042D01*
X1610105Y-1628395D01*
X1610013Y-1628302D01*
X1609735Y-1628117D01*
X1609273Y-1627840D01*
X1608533Y-1627562D01*
X1607609Y-1627285D01*
X1606407Y-1627008D01*
X1604835Y-1626823D01*
X1602986Y-1626730D01*
D02*
G37*
G36*
X822102D02*
X817202D01*
X812672Y-1647903D01*
X819329D01*
X820253Y-1647810D01*
X821455Y-1647718D01*
X822750Y-1647625D01*
X823952Y-1647348D01*
X825154Y-1647071D01*
X826078Y-1646608D01*
X826171Y-1646516D01*
X826448Y-1646331D01*
X826818Y-1645961D01*
X827280Y-1645406D01*
X827835Y-1644667D01*
X828482Y-1643650D01*
X829037Y-1642355D01*
X829591Y-1640876D01*
Y-1640784D01*
X829684Y-1640691D01*
X829776Y-1640136D01*
X830054Y-1639304D01*
X830331Y-1638195D01*
X830516Y-1636900D01*
X830793Y-1635606D01*
X830886Y-1634127D01*
X830978Y-1632740D01*
Y-1632647D01*
Y-1632278D01*
X830886Y-1631815D01*
X830793Y-1631168D01*
X830516Y-1630429D01*
X830239Y-1629689D01*
X829776Y-1629042D01*
X829222Y-1628395D01*
X829129Y-1628302D01*
X828852Y-1628117D01*
X828390Y-1627840D01*
X827650Y-1627562D01*
X826725Y-1627285D01*
X825523Y-1627008D01*
X823952Y-1626823D01*
X822102Y-1626730D01*
D02*
G37*
G36*
X623230D02*
X618329D01*
X613799Y-1647903D01*
X620456D01*
X621381Y-1647810D01*
X622582Y-1647718D01*
X623877Y-1647625D01*
X625079Y-1647348D01*
X626281Y-1647071D01*
X627205Y-1646608D01*
X627298Y-1646516D01*
X627575Y-1646331D01*
X627945Y-1645961D01*
X628407Y-1645406D01*
X628962Y-1644667D01*
X629609Y-1643650D01*
X630164Y-1642355D01*
X630719Y-1640876D01*
Y-1640784D01*
X630811Y-1640691D01*
X630903Y-1640136D01*
X631181Y-1639304D01*
X631458Y-1638195D01*
X631643Y-1636900D01*
X631921Y-1635606D01*
X632013Y-1634127D01*
X632105Y-1632740D01*
Y-1632647D01*
Y-1632278D01*
X632013Y-1631815D01*
X631921Y-1631168D01*
X631643Y-1630429D01*
X631366Y-1629689D01*
X630903Y-1629042D01*
X630349Y-1628395D01*
X630256Y-1628302D01*
X629979Y-1628117D01*
X629517Y-1627840D01*
X628777Y-1627562D01*
X627852Y-1627285D01*
X626651Y-1627008D01*
X625079Y-1626823D01*
X623230Y-1626730D01*
D02*
G37*
G36*
X693034Y-1625436D02*
X692202D01*
X691647Y-1625528D01*
X691000Y-1625621D01*
X690168Y-1625806D01*
X688319Y-1626176D01*
X686377Y-1626915D01*
X685360Y-1627470D01*
X684343Y-1628025D01*
X683418Y-1628764D01*
X682494Y-1629596D01*
X681662Y-1630521D01*
X680922Y-1631630D01*
Y-1631723D01*
X680737Y-1631908D01*
X680552Y-1632278D01*
X680367Y-1632832D01*
X679998Y-1633480D01*
X679628Y-1634312D01*
X679258Y-1635236D01*
X678796Y-1636438D01*
X678333Y-1637733D01*
X677779Y-1639212D01*
X677316Y-1640784D01*
X676762Y-1642633D01*
X676207Y-1644574D01*
X675652Y-1646793D01*
X675097Y-1649105D01*
X674543Y-1651601D01*
Y-1651786D01*
X674450Y-1652156D01*
X674265Y-1652895D01*
X674080Y-1653820D01*
X673896Y-1654929D01*
X673618Y-1656131D01*
X673341Y-1657518D01*
X673156Y-1658905D01*
X672601Y-1661771D01*
X672324Y-1663250D01*
X672139Y-1664545D01*
X671954Y-1665839D01*
X671769Y-1666949D01*
X671677Y-1667873D01*
Y-1668613D01*
Y-1668705D01*
Y-1668983D01*
X671769Y-1669353D01*
X671861Y-1669815D01*
X671954Y-1670462D01*
X672139Y-1671109D01*
X672509Y-1671849D01*
X672879Y-1672588D01*
X673341Y-1673328D01*
X673988Y-1674068D01*
X674820Y-1674715D01*
X675652Y-1675362D01*
X676762Y-1675824D01*
X678056Y-1676194D01*
X679535Y-1676472D01*
X681200Y-1676564D01*
X681754D01*
X682217Y-1676472D01*
X682679D01*
X683326Y-1676379D01*
X684713Y-1676102D01*
X686285Y-1675640D01*
X688041Y-1675085D01*
X689798Y-1674160D01*
X691462Y-1672958D01*
X691555Y-1672866D01*
X691647Y-1672773D01*
X691924Y-1672496D01*
X692202Y-1672126D01*
X692572Y-1671664D01*
X693034Y-1670924D01*
X693589Y-1670092D01*
X694143Y-1669168D01*
X694698Y-1667966D01*
X695345Y-1666579D01*
X695993Y-1665007D01*
X696732Y-1663158D01*
X697379Y-1661124D01*
X698027Y-1658905D01*
X698766Y-1656316D01*
X699413Y-1653543D01*
Y-1653450D01*
Y-1653358D01*
X699598Y-1652895D01*
X699783Y-1652063D01*
X699968Y-1651046D01*
X700245Y-1649752D01*
X700523Y-1648365D01*
X700893Y-1646793D01*
X701263Y-1645129D01*
X701910Y-1641801D01*
X702187Y-1640136D01*
X702464Y-1638565D01*
X702649Y-1637178D01*
X702834Y-1635883D01*
X703019Y-1634774D01*
Y-1633942D01*
Y-1633849D01*
Y-1633757D01*
Y-1633295D01*
X702927Y-1632555D01*
X702742Y-1631630D01*
X702464Y-1630613D01*
X702095Y-1629596D01*
X701632Y-1628579D01*
X700893Y-1627655D01*
X700800Y-1627562D01*
X700430Y-1627285D01*
X699876Y-1626915D01*
X699136Y-1626545D01*
X698027Y-1626176D01*
X696640Y-1625806D01*
X694975Y-1625528D01*
X693034Y-1625436D01*
D02*
G37*
G36*
X-445673Y-1992317D02*
X-445955D01*
X-446660D01*
X-447788Y-1992458D01*
X-449197Y-1992599D01*
X-450748Y-1992881D01*
X-452299Y-1993163D01*
X-453990Y-1993727D01*
X-455541Y-1994431D01*
X-455682Y-1994572D01*
X-456246Y-1994854D01*
X-456951Y-1995277D01*
X-457796Y-1995982D01*
X-458924Y-1996969D01*
X-459911Y-1997956D01*
X-460898Y-1999224D01*
X-461744Y-2000775D01*
X-461885Y-2000916D01*
X-462025Y-2001480D01*
X-462448Y-2002467D01*
X-462871Y-2003735D01*
X-463153Y-2005286D01*
X-463576Y-2007260D01*
X-463717Y-2009374D01*
X-463858Y-2011912D01*
Y-2016705D01*
X-463717Y-2018255D01*
Y-2019806D01*
X-463576Y-2021216D01*
X-425937D01*
Y-2012053D01*
X-426078Y-2010784D01*
Y-2009374D01*
X-426219Y-2007964D01*
X-426360Y-2006555D01*
X-426642Y-2005145D01*
Y-2005004D01*
X-426783Y-2004581D01*
X-427065Y-2003876D01*
X-427347Y-2003031D01*
X-428334Y-2000916D01*
X-429743Y-1998801D01*
X-429884Y-1998660D01*
X-430166Y-1998238D01*
X-430730Y-1997815D01*
X-431435Y-1997110D01*
X-432281Y-1996405D01*
X-433268Y-1995559D01*
X-434536Y-1994854D01*
X-435946Y-1994149D01*
X-436087Y-1994008D01*
X-436651Y-1993867D01*
X-437497Y-1993586D01*
X-438624Y-1993163D01*
X-440034Y-1992881D01*
X-441726Y-1992599D01*
X-443558Y-1992458D01*
X-445673Y-1992317D01*
D02*
G37*
%LPD*%
D44*
X860900Y-1738400D02*
G03*
X860900Y-1738400I-10000J0D01*
G01*
X882900Y-1794900D02*
X1225900D01*
X882900Y-2446900D02*
X1225900D01*
X-1553120Y1072325D02*
X-1454337Y1171108D01*
X-1391475Y910680D02*
X-1292692Y1009463D01*
X-1382394Y0D02*
X-0Y-1382394D01*
X0Y1382394D02*
X1382394Y0D01*
X-0Y-1382394D02*
X1382394Y0D01*
X-1382394Y0D02*
X0Y1382394D01*
X-1442000Y-1924000D02*
X-1162600D01*
X-1442000Y-2330400D02*
X-1162600D01*
X-1302300D02*
Y-2190700D01*
Y-2063700D02*
Y-1924000D01*
Y-2190700D02*
X-1213400Y-2076400D01*
D45*
X30000Y1240973D02*
G03*
X30000Y1240973I-30000J0D01*
G01*
D46*
X-91798Y1444266D02*
G03*
X-91798Y1444266I-12500J0D01*
G01*
%TF.MD5,6d1ffb13c8cfdc557a291a7560883e09*%
M02*
