%TF.GenerationSoftware,Altium Limited,Altium Designer,23.0.1 (38)*%
G04 Layer_Color=16711935*
%FSLAX45Y45*%
%MOMM*%
%TF.SameCoordinates,98E3409A-FA71-4B7D-AABF-4CEB4AF68500*%
%TF.FilePolarity,Negative*%
%TF.FileFunction,Soldermask,Bot*%
%TF.Part,Single*%
G01*
G75*
%TA.AperFunction,ComponentPad*%
%ADD29C,1.10000*%
%TA.AperFunction,ViaPad*%
%ADD30C,0.60960*%
%TA.AperFunction,SMDPad,CuDef*%
%ADD32O,1.60000X0.30000*%
%ADD33R,1.60000X0.30000*%
%TA.AperFunction,ComponentPad*%
%ADD52C,5.20320*%
%TA.AperFunction,ViaPad*%
%ADD53C,0.81280*%
%TA.AperFunction,SMDPad,CuDef*%
G04:AMPARAMS|DCode=54|XSize=1.8032mm|YSize=3.3032mm|CornerRadius=0.3016mm|HoleSize=0mm|Usage=FLASHONLY|Rotation=270.000|XOffset=0mm|YOffset=0mm|HoleType=Round|Shape=RoundedRectangle|*
%AMROUNDEDRECTD54*
21,1,1.80320,2.70000,0,0,270.0*
21,1,1.20000,3.30320,0,0,270.0*
1,1,0.60320,-1.35000,-0.60000*
1,1,0.60320,-1.35000,0.60000*
1,1,0.60320,1.35000,0.60000*
1,1,0.60320,1.35000,-0.60000*
%
%ADD54ROUNDEDRECTD54*%
G36*
X130194Y1699842D02*
X131501Y1699582D01*
X132762Y1699154D01*
X133956Y1698565D01*
X135064Y1697825D01*
X136065Y1696947D01*
X185647Y1647365D01*
X186525Y1646364D01*
X187265Y1645256D01*
X187854Y1644062D01*
X188282Y1642801D01*
X188542Y1641494D01*
X188629Y1640165D01*
Y1619036D01*
X188542Y1617707D01*
X188282Y1616401D01*
X187854Y1615140D01*
X187265Y1613945D01*
X186525Y1612838D01*
X185647Y1611837D01*
X129036Y1555226D01*
X128035Y1554348D01*
X126927Y1553608D01*
X125733Y1553019D01*
X124471Y1552591D01*
X123165Y1552331D01*
X121836Y1552244D01*
X120508Y1552331D01*
X119201Y1552591D01*
X117940Y1553019D01*
X116746Y1553608D01*
X115638Y1554348D01*
X114637Y1555226D01*
X43926Y1625937D01*
X43048Y1626938D01*
X42308Y1628046D01*
X41719Y1629240D01*
X41291Y1630501D01*
X41031Y1631808D01*
X40944Y1633136D01*
X41031Y1634465D01*
X41291Y1635772D01*
X41719Y1637033D01*
X41913Y1637428D01*
X42308Y1638227D01*
X43048Y1639335D01*
X43926Y1640336D01*
X100537Y1696947D01*
X101538Y1697825D01*
X102645Y1698565D01*
X103840Y1699154D01*
X105101Y1699582D01*
X106407Y1699842D01*
X107736Y1699929D01*
X128865D01*
X130194Y1699842D01*
D02*
G37*
G36*
X6492Y1597269D02*
X7799Y1597009D01*
X9060Y1596581D01*
X10254Y1595992D01*
X11362Y1595252D01*
X12363Y1594374D01*
X83074Y1523663D01*
X83952Y1522662D01*
X84692Y1521554D01*
X85281Y1520360D01*
X85709Y1519099D01*
X85969Y1517792D01*
X86056Y1516464D01*
X85969Y1515135D01*
X85709Y1513828D01*
X85281Y1512567D01*
X85087Y1512172D01*
X84692Y1511373D01*
X83952Y1510265D01*
X83074Y1509264D01*
X26463Y1452653D01*
X25462Y1451775D01*
X24355Y1451035D01*
X23160Y1450446D01*
X21899Y1450018D01*
X20593Y1449758D01*
X19264Y1449671D01*
X-1865D01*
X-3194Y1449758D01*
X-4500Y1450018D01*
X-5761Y1450446D01*
X-6956Y1451035D01*
X-8063Y1451775D01*
X-9065Y1452653D01*
X-58647Y1502235D01*
X-59525Y1503236D01*
X-60265Y1504344D01*
X-60854Y1505538D01*
X-61282Y1506799D01*
X-61542Y1508106D01*
X-61629Y1509435D01*
Y1530564D01*
X-61542Y1531893D01*
X-61282Y1533199D01*
X-60854Y1534460D01*
X-60265Y1535655D01*
X-59525Y1536762D01*
X-58647Y1537763D01*
X-2036Y1594374D01*
X-1035Y1595252D01*
X73Y1595992D01*
X1267Y1596581D01*
X2528Y1597009D01*
X3835Y1597269D01*
X5164Y1597356D01*
X6492Y1597269D01*
D02*
G37*
G36*
X-138739Y1109873D02*
X-137433Y1109613D01*
X-136171Y1109185D01*
X-134977Y1108596D01*
X-133869Y1107856D01*
X-132868Y1106978D01*
X-76257Y1050367D01*
X-75379Y1049366D01*
X-74639Y1048259D01*
X-74050Y1047064D01*
X-73622Y1045803D01*
X-73362Y1044497D01*
X-73275Y1043168D01*
X-73362Y1041839D01*
X-73622Y1040533D01*
X-74050Y1039271D01*
X-74639Y1038077D01*
X-75379Y1036969D01*
X-76257Y1035968D01*
X-146968Y965257D01*
X-147969Y964379D01*
X-149077Y963639D01*
X-150271Y963050D01*
X-151533Y962622D01*
X-152839Y962362D01*
X-154168Y962275D01*
X-155497Y962362D01*
X-156803Y962622D01*
X-158064Y963050D01*
X-158459Y963245D01*
X-159259Y963639D01*
X-160366Y964379D01*
X-161367Y965257D01*
X-217978Y1021868D01*
X-218856Y1022869D01*
X-219596Y1023977D01*
X-220185Y1025171D01*
X-220613Y1026433D01*
X-220873Y1027739D01*
X-220960Y1029068D01*
Y1050197D01*
X-220873Y1051525D01*
X-220613Y1052832D01*
X-220185Y1054093D01*
X-219596Y1055287D01*
X-218856Y1056395D01*
X-217978Y1057396D01*
X-168396Y1106978D01*
X-167395Y1107856D01*
X-166288Y1108596D01*
X-165093Y1109185D01*
X-163832Y1109613D01*
X-162526Y1109873D01*
X-161197Y1109960D01*
X-140068D01*
X-138739Y1109873D01*
D02*
G37*
G36*
X-36166Y1007301D02*
X-34860Y1007041D01*
X-33598Y1006613D01*
X-33204Y1006418D01*
X-32404Y1006024D01*
X-31297Y1005283D01*
X-30295Y1004405D01*
X26315Y947795D01*
X27193Y946793D01*
X27933Y945686D01*
X28523Y944492D01*
X28951Y943230D01*
X29211Y941924D01*
X29298Y940595D01*
Y919466D01*
X29211Y918137D01*
X28951Y916831D01*
X28523Y915570D01*
X27934Y914375D01*
X27193Y913268D01*
X26315Y912266D01*
X-23266Y862684D01*
X-24268Y861806D01*
X-25375Y861066D01*
X-26569Y860477D01*
X-27831Y860049D01*
X-29137Y859789D01*
X-30466Y859702D01*
X-51595D01*
X-52924Y859789D01*
X-54231Y860049D01*
X-55492Y860477D01*
X-56686Y861066D01*
X-57794Y861806D01*
X-58795Y862684D01*
X-115405Y919295D01*
X-116283Y920297D01*
X-117023Y921404D01*
X-117613Y922598D01*
X-118041Y923860D01*
X-118300Y925166D01*
X-118388Y926495D01*
X-118300Y927824D01*
X-118041Y929130D01*
X-117613Y930392D01*
X-117023Y931586D01*
X-116283Y932693D01*
X-115405Y933695D01*
X-44695Y1004405D01*
X-43693Y1005283D01*
X-42586Y1006024D01*
X-41392Y1006613D01*
X-40130Y1007041D01*
X-38824Y1007301D01*
X-37495Y1007388D01*
X-36166Y1007301D01*
D02*
G37*
G36*
X371494Y899742D02*
X372800Y899482D01*
X374061Y899054D01*
X375256Y898465D01*
X376363Y897725D01*
X377365Y896847D01*
X426947Y847265D01*
X427825Y846264D01*
X428565Y845156D01*
X429154Y843962D01*
X429582Y842701D01*
X429842Y841394D01*
X429929Y840065D01*
Y818936D01*
X429842Y817607D01*
X429582Y816301D01*
X429154Y815040D01*
X428565Y813845D01*
X427825Y812738D01*
X426947Y811737D01*
X370336Y755126D01*
X369335Y754248D01*
X368227Y753508D01*
X367033Y752919D01*
X365772Y752491D01*
X364465Y752231D01*
X363136Y752144D01*
X361808Y752231D01*
X360501Y752491D01*
X359240Y752919D01*
X358046Y753508D01*
X356938Y754248D01*
X355937Y755126D01*
X285226Y825837D01*
X284348Y826838D01*
X283608Y827946D01*
X283019Y829140D01*
X282591Y830401D01*
X282331Y831708D01*
X282244Y833036D01*
X282331Y834365D01*
X282591Y835672D01*
X283019Y836933D01*
X283213Y837328D01*
X283608Y838127D01*
X284348Y839235D01*
X285226Y840236D01*
X341837Y896847D01*
X342838Y897725D01*
X343945Y898465D01*
X345140Y899054D01*
X346401Y899482D01*
X347707Y899742D01*
X349036Y899829D01*
X370165D01*
X371494Y899742D01*
D02*
G37*
G36*
X-430839Y817773D02*
X-429533Y817513D01*
X-428271Y817085D01*
X-427077Y816496D01*
X-425969Y815756D01*
X-424968Y814878D01*
X-368357Y758267D01*
X-367479Y757266D01*
X-366739Y756159D01*
X-366150Y754964D01*
X-365722Y753703D01*
X-365462Y752397D01*
X-365375Y751068D01*
X-365462Y749739D01*
X-365722Y748433D01*
X-366150Y747171D01*
X-366739Y745977D01*
X-367479Y744869D01*
X-368357Y743868D01*
X-439068Y673157D01*
X-440069Y672279D01*
X-441177Y671539D01*
X-442371Y670950D01*
X-443633Y670522D01*
X-444939Y670262D01*
X-446268Y670175D01*
X-447597Y670262D01*
X-448903Y670522D01*
X-450164Y670950D01*
X-450559Y671145D01*
X-451359Y671539D01*
X-452466Y672279D01*
X-453467Y673157D01*
X-510078Y729768D01*
X-510956Y730769D01*
X-511696Y731877D01*
X-512285Y733071D01*
X-512713Y734333D01*
X-512973Y735639D01*
X-513060Y736968D01*
Y758097D01*
X-512973Y759425D01*
X-512713Y760732D01*
X-512285Y761993D01*
X-511696Y763187D01*
X-510956Y764295D01*
X-510078Y765296D01*
X-460496Y814878D01*
X-459495Y815756D01*
X-458388Y816496D01*
X-457193Y817085D01*
X-455932Y817513D01*
X-454626Y817773D01*
X-453297Y817860D01*
X-432168D01*
X-430839Y817773D01*
D02*
G37*
G36*
X247792Y797169D02*
X249099Y796909D01*
X250360Y796481D01*
X251554Y795892D01*
X252662Y795152D01*
X253663Y794274D01*
X324374Y723563D01*
X325252Y722562D01*
X325992Y721454D01*
X326581Y720260D01*
X327009Y718999D01*
X327269Y717692D01*
X327356Y716364D01*
X327269Y715035D01*
X327009Y713728D01*
X326581Y712467D01*
X326387Y712072D01*
X325992Y711273D01*
X325252Y710165D01*
X324374Y709164D01*
X267763Y652553D01*
X266762Y651675D01*
X265655Y650935D01*
X264460Y650346D01*
X263199Y649918D01*
X261893Y649658D01*
X260564Y649571D01*
X239435D01*
X238106Y649658D01*
X236799Y649918D01*
X235538Y650346D01*
X234344Y650935D01*
X233236Y651675D01*
X232235Y652553D01*
X182653Y702135D01*
X181775Y703136D01*
X181035Y704244D01*
X180446Y705438D01*
X180018Y706699D01*
X179758Y708006D01*
X179671Y709335D01*
Y730464D01*
X179758Y731793D01*
X180018Y733099D01*
X180446Y734360D01*
X181035Y735555D01*
X181775Y736662D01*
X182653Y737663D01*
X239264Y794274D01*
X240265Y795152D01*
X241373Y795892D01*
X242567Y796481D01*
X243829Y796909D01*
X245135Y797169D01*
X246464Y797256D01*
X247792Y797169D01*
D02*
G37*
G36*
X498494Y772742D02*
X499800Y772482D01*
X501061Y772054D01*
X502256Y771465D01*
X503363Y770725D01*
X504365Y769847D01*
X553947Y720265D01*
X554825Y719264D01*
X555565Y718156D01*
X556154Y716962D01*
X556582Y715701D01*
X556842Y714394D01*
X556929Y713065D01*
Y691936D01*
X556842Y690607D01*
X556582Y689301D01*
X556154Y688040D01*
X555565Y686845D01*
X554825Y685738D01*
X553947Y684737D01*
X497336Y628126D01*
X496335Y627248D01*
X495227Y626508D01*
X494033Y625919D01*
X492772Y625491D01*
X491465Y625231D01*
X490136Y625144D01*
X488808Y625231D01*
X487501Y625491D01*
X486240Y625919D01*
X485046Y626508D01*
X483938Y627248D01*
X482937Y628126D01*
X412226Y698837D01*
X411348Y699838D01*
X410608Y700946D01*
X410019Y702140D01*
X409591Y703401D01*
X409331Y704708D01*
X409244Y706036D01*
X409331Y707365D01*
X409591Y708672D01*
X410019Y709933D01*
X410213Y710328D01*
X410608Y711127D01*
X411348Y712235D01*
X412226Y713236D01*
X468837Y769847D01*
X469838Y770725D01*
X470945Y771465D01*
X472140Y772054D01*
X473401Y772482D01*
X474707Y772742D01*
X476036Y772829D01*
X497165D01*
X498494Y772742D01*
D02*
G37*
G36*
X-328266Y715200D02*
X-326960Y714941D01*
X-325698Y714513D01*
X-325304Y714318D01*
X-324504Y713924D01*
X-323397Y713183D01*
X-322395Y712305D01*
X-265785Y655695D01*
X-264907Y654693D01*
X-264167Y653586D01*
X-263577Y652392D01*
X-263149Y651130D01*
X-262889Y649824D01*
X-262802Y648495D01*
Y627366D01*
X-262889Y626037D01*
X-263149Y624731D01*
X-263577Y623470D01*
X-264166Y622275D01*
X-264907Y621168D01*
X-265785Y620166D01*
X-315366Y570584D01*
X-316368Y569706D01*
X-317475Y568966D01*
X-318669Y568377D01*
X-319931Y567949D01*
X-321237Y567689D01*
X-322566Y567602D01*
X-343695D01*
X-345024Y567689D01*
X-346331Y567949D01*
X-347592Y568377D01*
X-348786Y568966D01*
X-349894Y569706D01*
X-350895Y570584D01*
X-407505Y627195D01*
X-408383Y628197D01*
X-409123Y629304D01*
X-409713Y630498D01*
X-410141Y631760D01*
X-410400Y633066D01*
X-410488Y634395D01*
X-410400Y635724D01*
X-410141Y637030D01*
X-409713Y638292D01*
X-409123Y639486D01*
X-408383Y640593D01*
X-407505Y641595D01*
X-336795Y712305D01*
X-335793Y713183D01*
X-334686Y713924D01*
X-333492Y714513D01*
X-332230Y714941D01*
X-330924Y715200D01*
X-329595Y715288D01*
X-328266Y715200D01*
D02*
G37*
G36*
X374792Y670169D02*
X376099Y669909D01*
X377360Y669481D01*
X378554Y668892D01*
X379662Y668152D01*
X380663Y667274D01*
X451374Y596563D01*
X452252Y595562D01*
X452992Y594454D01*
X453581Y593260D01*
X454009Y591999D01*
X454269Y590692D01*
X454356Y589364D01*
X454269Y588035D01*
X454009Y586728D01*
X453581Y585467D01*
X453387Y585072D01*
X452992Y584273D01*
X452252Y583165D01*
X451374Y582164D01*
X394763Y525553D01*
X393762Y524675D01*
X392655Y523935D01*
X391460Y523346D01*
X390199Y522918D01*
X388893Y522658D01*
X387564Y522571D01*
X366435D01*
X365106Y522658D01*
X363799Y522918D01*
X362538Y523346D01*
X361344Y523935D01*
X360236Y524675D01*
X359235Y525553D01*
X309653Y575135D01*
X308775Y576136D01*
X308035Y577244D01*
X307446Y578438D01*
X307018Y579699D01*
X306758Y581006D01*
X306671Y582335D01*
Y603464D01*
X306758Y604793D01*
X307018Y606099D01*
X307446Y607360D01*
X308035Y608555D01*
X308775Y609662D01*
X309653Y610663D01*
X366264Y667274D01*
X367265Y668152D01*
X368373Y668892D01*
X369567Y669481D01*
X370829Y669909D01*
X372135Y670169D01*
X373464Y670256D01*
X374792Y670169D01*
D02*
G37*
G36*
X-748339Y500273D02*
X-747033Y500013D01*
X-745771Y499585D01*
X-744577Y498996D01*
X-743469Y498256D01*
X-742468Y497378D01*
X-685857Y440767D01*
X-684979Y439766D01*
X-684239Y438659D01*
X-683650Y437464D01*
X-683222Y436203D01*
X-682962Y434897D01*
X-682875Y433568D01*
X-682962Y432239D01*
X-683222Y430933D01*
X-683650Y429671D01*
X-684239Y428477D01*
X-684979Y427369D01*
X-685857Y426368D01*
X-756568Y355657D01*
X-757569Y354779D01*
X-758677Y354039D01*
X-759871Y353450D01*
X-761133Y353022D01*
X-762439Y352762D01*
X-763768Y352675D01*
X-765097Y352762D01*
X-766403Y353022D01*
X-767664Y353450D01*
X-768059Y353645D01*
X-768859Y354039D01*
X-769966Y354779D01*
X-770967Y355657D01*
X-827578Y412268D01*
X-828456Y413269D01*
X-829196Y414377D01*
X-829785Y415571D01*
X-830213Y416833D01*
X-830473Y418139D01*
X-830560Y419468D01*
Y440597D01*
X-830473Y441925D01*
X-830213Y443232D01*
X-829785Y444493D01*
X-829196Y445687D01*
X-828456Y446795D01*
X-827578Y447796D01*
X-777996Y497378D01*
X-776995Y498256D01*
X-775888Y498996D01*
X-774693Y499585D01*
X-773432Y500013D01*
X-772126Y500273D01*
X-770797Y500360D01*
X-749668D01*
X-748339Y500273D01*
D02*
G37*
G36*
X790594Y480642D02*
X791900Y480382D01*
X793161Y479954D01*
X794356Y479365D01*
X795463Y478625D01*
X796465Y477747D01*
X846047Y428165D01*
X846925Y427164D01*
X847665Y426056D01*
X848254Y424862D01*
X848682Y423601D01*
X848942Y422294D01*
X849029Y420965D01*
Y399836D01*
X848942Y398507D01*
X848682Y397201D01*
X848254Y395940D01*
X847665Y394745D01*
X846925Y393638D01*
X846047Y392637D01*
X789436Y336026D01*
X788435Y335148D01*
X787327Y334408D01*
X786133Y333819D01*
X784872Y333391D01*
X783565Y333131D01*
X782236Y333044D01*
X780908Y333131D01*
X779601Y333391D01*
X778340Y333819D01*
X777146Y334408D01*
X776038Y335148D01*
X775037Y336026D01*
X704326Y406737D01*
X703448Y407738D01*
X702708Y408846D01*
X702119Y410040D01*
X701691Y411301D01*
X701431Y412608D01*
X701344Y413936D01*
X701431Y415265D01*
X701691Y416572D01*
X702119Y417833D01*
X702313Y418228D01*
X702708Y419027D01*
X703448Y420135D01*
X704326Y421136D01*
X760937Y477747D01*
X761938Y478625D01*
X763045Y479365D01*
X764240Y479954D01*
X765501Y480382D01*
X766807Y480642D01*
X768136Y480729D01*
X789265D01*
X790594Y480642D01*
D02*
G37*
G36*
X-645766Y397700D02*
X-644460Y397441D01*
X-643198Y397013D01*
X-642804Y396818D01*
X-642004Y396424D01*
X-640897Y395683D01*
X-639895Y394805D01*
X-583285Y338195D01*
X-582407Y337193D01*
X-581667Y336086D01*
X-581077Y334892D01*
X-580649Y333630D01*
X-580389Y332324D01*
X-580302Y330995D01*
Y309866D01*
X-580389Y308537D01*
X-580649Y307231D01*
X-581077Y305970D01*
X-581666Y304775D01*
X-582407Y303668D01*
X-583285Y302666D01*
X-632866Y253084D01*
X-633868Y252206D01*
X-634975Y251466D01*
X-636169Y250877D01*
X-637431Y250449D01*
X-638737Y250189D01*
X-640066Y250102D01*
X-661195D01*
X-662524Y250189D01*
X-663831Y250449D01*
X-665092Y250877D01*
X-666286Y251466D01*
X-667394Y252206D01*
X-668395Y253084D01*
X-725005Y309695D01*
X-725883Y310697D01*
X-726623Y311804D01*
X-727213Y312998D01*
X-727641Y314260D01*
X-727901Y315566D01*
X-727988Y316895D01*
X-727901Y318224D01*
X-727641Y319530D01*
X-727213Y320792D01*
X-726623Y321986D01*
X-725883Y323093D01*
X-725005Y324095D01*
X-654295Y394805D01*
X-653293Y395683D01*
X-652186Y396424D01*
X-650992Y397013D01*
X-649730Y397441D01*
X-648424Y397700D01*
X-647095Y397788D01*
X-645766Y397700D01*
D02*
G37*
G36*
X-862639Y385973D02*
X-861333Y385713D01*
X-860071Y385285D01*
X-858877Y384696D01*
X-857769Y383956D01*
X-856768Y383078D01*
X-800157Y326467D01*
X-799279Y325466D01*
X-798539Y324359D01*
X-797950Y323164D01*
X-797522Y321903D01*
X-797262Y320597D01*
X-797175Y319268D01*
X-797262Y317939D01*
X-797522Y316633D01*
X-797950Y315371D01*
X-798539Y314177D01*
X-799279Y313069D01*
X-800157Y312068D01*
X-870868Y241357D01*
X-871869Y240479D01*
X-872977Y239739D01*
X-874171Y239150D01*
X-875433Y238722D01*
X-876739Y238462D01*
X-878068Y238375D01*
X-879397Y238462D01*
X-880703Y238722D01*
X-881964Y239150D01*
X-882359Y239345D01*
X-883159Y239739D01*
X-884266Y240479D01*
X-885267Y241357D01*
X-941878Y297968D01*
X-942756Y298969D01*
X-943496Y300077D01*
X-944085Y301271D01*
X-944513Y302533D01*
X-944773Y303839D01*
X-944860Y305168D01*
Y326297D01*
X-944773Y327625D01*
X-944513Y328932D01*
X-944085Y330193D01*
X-943496Y331387D01*
X-942756Y332495D01*
X-941878Y333496D01*
X-892296Y383078D01*
X-891295Y383956D01*
X-890188Y384696D01*
X-888993Y385285D01*
X-887732Y385713D01*
X-886426Y385973D01*
X-885097Y386060D01*
X-863968D01*
X-862639Y385973D01*
D02*
G37*
G36*
X666892Y378069D02*
X668199Y377809D01*
X669460Y377381D01*
X670654Y376792D01*
X671762Y376052D01*
X672763Y375174D01*
X743474Y304463D01*
X744352Y303462D01*
X745092Y302354D01*
X745681Y301160D01*
X746109Y299899D01*
X746369Y298592D01*
X746456Y297264D01*
X746369Y295935D01*
X746109Y294628D01*
X745681Y293367D01*
X745487Y292972D01*
X745092Y292173D01*
X744352Y291065D01*
X743474Y290064D01*
X686863Y233453D01*
X685862Y232575D01*
X684755Y231835D01*
X683560Y231246D01*
X682299Y230818D01*
X680993Y230558D01*
X679664Y230471D01*
X658535D01*
X657206Y230558D01*
X655899Y230818D01*
X654638Y231246D01*
X653444Y231835D01*
X652336Y232575D01*
X651335Y233453D01*
X601753Y283035D01*
X600875Y284036D01*
X600135Y285144D01*
X599546Y286338D01*
X599118Y287599D01*
X598858Y288906D01*
X598771Y290235D01*
Y311364D01*
X598858Y312693D01*
X599118Y313999D01*
X599546Y315260D01*
X600135Y316455D01*
X600875Y317562D01*
X601753Y318563D01*
X658364Y375174D01*
X659365Y376052D01*
X660473Y376792D01*
X661667Y377381D01*
X662929Y377809D01*
X664235Y378069D01*
X665564Y378156D01*
X666892Y378069D01*
D02*
G37*
G36*
X-760066Y283400D02*
X-758760Y283141D01*
X-757498Y282713D01*
X-757104Y282518D01*
X-756304Y282124D01*
X-755197Y281383D01*
X-754195Y280505D01*
X-697585Y223895D01*
X-696707Y222893D01*
X-695967Y221786D01*
X-695377Y220592D01*
X-694949Y219330D01*
X-694689Y218024D01*
X-694602Y216695D01*
Y195566D01*
X-694689Y194237D01*
X-694949Y192931D01*
X-695377Y191670D01*
X-695966Y190475D01*
X-696707Y189368D01*
X-697585Y188366D01*
X-747166Y138784D01*
X-748168Y137906D01*
X-749275Y137166D01*
X-750469Y136577D01*
X-751731Y136149D01*
X-753037Y135889D01*
X-754366Y135802D01*
X-775495D01*
X-776824Y135889D01*
X-778131Y136149D01*
X-779392Y136577D01*
X-780586Y137166D01*
X-781694Y137906D01*
X-782695Y138784D01*
X-839305Y195395D01*
X-840183Y196397D01*
X-840923Y197504D01*
X-841513Y198698D01*
X-841941Y199960D01*
X-842201Y201266D01*
X-842288Y202595D01*
X-842201Y203924D01*
X-841941Y205230D01*
X-841513Y206492D01*
X-840923Y207686D01*
X-840183Y208793D01*
X-839305Y209795D01*
X-768595Y280505D01*
X-767593Y281383D01*
X-766486Y282124D01*
X-765292Y282713D01*
X-764030Y283141D01*
X-762724Y283400D01*
X-761395Y283488D01*
X-760066Y283400D01*
D02*
G37*
G36*
X-976939Y271673D02*
X-975633Y271413D01*
X-974371Y270985D01*
X-973177Y270396D01*
X-972069Y269656D01*
X-971068Y268778D01*
X-914457Y212167D01*
X-913579Y211166D01*
X-912839Y210059D01*
X-912250Y208864D01*
X-911822Y207603D01*
X-911562Y206297D01*
X-911475Y204968D01*
X-911562Y203639D01*
X-911822Y202333D01*
X-912250Y201071D01*
X-912839Y199877D01*
X-913579Y198769D01*
X-914457Y197768D01*
X-985168Y127057D01*
X-986169Y126179D01*
X-987277Y125439D01*
X-988471Y124850D01*
X-989733Y124422D01*
X-991039Y124162D01*
X-992368Y124075D01*
X-993697Y124162D01*
X-995003Y124422D01*
X-996264Y124850D01*
X-996659Y125045D01*
X-997459Y125439D01*
X-998566Y126179D01*
X-999567Y127057D01*
X-1056178Y183668D01*
X-1057056Y184669D01*
X-1057796Y185777D01*
X-1058385Y186971D01*
X-1058813Y188233D01*
X-1059073Y189539D01*
X-1059160Y190868D01*
Y211997D01*
X-1059073Y213325D01*
X-1058813Y214632D01*
X-1058385Y215893D01*
X-1057796Y217087D01*
X-1057056Y218195D01*
X-1056178Y219196D01*
X-1006596Y268778D01*
X-1005595Y269656D01*
X-1004488Y270396D01*
X-1003293Y270985D01*
X-1002032Y271413D01*
X-1000726Y271673D01*
X-999397Y271760D01*
X-978268D01*
X-976939Y271673D01*
D02*
G37*
G36*
X-874366Y169100D02*
X-873060Y168841D01*
X-871798Y168413D01*
X-871404Y168218D01*
X-870604Y167824D01*
X-869497Y167083D01*
X-868495Y166205D01*
X-811885Y109595D01*
X-811007Y108593D01*
X-810267Y107486D01*
X-809677Y106292D01*
X-809249Y105030D01*
X-808989Y103724D01*
X-808902Y102395D01*
Y81266D01*
X-808989Y79937D01*
X-809249Y78631D01*
X-809677Y77370D01*
X-810266Y76175D01*
X-811007Y75068D01*
X-811885Y74066D01*
X-861466Y24484D01*
X-862468Y23606D01*
X-863575Y22866D01*
X-864769Y22277D01*
X-866031Y21849D01*
X-867337Y21589D01*
X-868666Y21502D01*
X-889795D01*
X-891124Y21589D01*
X-892431Y21849D01*
X-893692Y22277D01*
X-894886Y22866D01*
X-895994Y23606D01*
X-896995Y24484D01*
X-953605Y81095D01*
X-954483Y82097D01*
X-955223Y83204D01*
X-955813Y84398D01*
X-956241Y85660D01*
X-956501Y86966D01*
X-956588Y88295D01*
X-956501Y89624D01*
X-956241Y90930D01*
X-955813Y92192D01*
X-955223Y93386D01*
X-954483Y94493D01*
X-953605Y95495D01*
X-882895Y166205D01*
X-881893Y167083D01*
X-880786Y167824D01*
X-879592Y168413D01*
X-878330Y168841D01*
X-877024Y169100D01*
X-875695Y169188D01*
X-874366Y169100D01*
D02*
G37*
G36*
X-1091239Y157373D02*
X-1089933Y157113D01*
X-1088671Y156685D01*
X-1087477Y156096D01*
X-1086369Y155356D01*
X-1085368Y154478D01*
X-1028757Y97867D01*
X-1027879Y96866D01*
X-1027139Y95759D01*
X-1026550Y94564D01*
X-1026122Y93303D01*
X-1025862Y91997D01*
X-1025775Y90668D01*
X-1025862Y89339D01*
X-1026122Y88033D01*
X-1026550Y86771D01*
X-1027139Y85577D01*
X-1027879Y84469D01*
X-1028757Y83468D01*
X-1099468Y12757D01*
X-1100469Y11879D01*
X-1101577Y11139D01*
X-1102771Y10550D01*
X-1104033Y10122D01*
X-1105339Y9862D01*
X-1106668Y9775D01*
X-1107997Y9862D01*
X-1109303Y10122D01*
X-1110564Y10550D01*
X-1110959Y10745D01*
X-1111759Y11139D01*
X-1112866Y11879D01*
X-1113867Y12757D01*
X-1170478Y69368D01*
X-1171356Y70369D01*
X-1172096Y71477D01*
X-1172685Y72671D01*
X-1173113Y73933D01*
X-1173373Y75239D01*
X-1173460Y76568D01*
Y97697D01*
X-1173373Y99025D01*
X-1173113Y100332D01*
X-1172685Y101593D01*
X-1172096Y102787D01*
X-1171356Y103895D01*
X-1170478Y104896D01*
X-1120896Y154478D01*
X-1119895Y155356D01*
X-1118788Y156096D01*
X-1117593Y156685D01*
X-1116332Y157113D01*
X-1115026Y157373D01*
X-1113697Y157460D01*
X-1092568D01*
X-1091239Y157373D01*
D02*
G37*
G36*
X1648426Y106573D02*
X1649732Y106313D01*
X1650993Y105885D01*
X1652188Y105296D01*
X1653295Y104556D01*
X1654296Y103678D01*
X1703878Y54096D01*
X1704757Y53095D01*
X1705496Y51988D01*
X1706086Y50793D01*
X1706514Y49532D01*
X1706774Y48226D01*
X1706861Y46897D01*
Y25768D01*
X1706774Y24439D01*
X1706514Y23132D01*
X1706086Y21871D01*
X1705497Y20677D01*
X1704757Y19569D01*
X1703878Y18568D01*
X1647267Y-38043D01*
X1646266Y-38921D01*
X1645159Y-39661D01*
X1643964Y-40250D01*
X1642703Y-40678D01*
X1641397Y-40938D01*
X1640068Y-41025D01*
X1638739Y-40938D01*
X1637433Y-40678D01*
X1636171Y-40250D01*
X1634977Y-39661D01*
X1633869Y-38921D01*
X1632868Y-38043D01*
X1562157Y32668D01*
X1561279Y33669D01*
X1560539Y34777D01*
X1559950Y35971D01*
X1559522Y37233D01*
X1559262Y38539D01*
X1559175Y39868D01*
X1559262Y41197D01*
X1559522Y42503D01*
X1559950Y43764D01*
X1560145Y44159D01*
X1560539Y44959D01*
X1561279Y46066D01*
X1562157Y47067D01*
X1618768Y103678D01*
X1619769Y104556D01*
X1620877Y105296D01*
X1622071Y105885D01*
X1623333Y106313D01*
X1624639Y106573D01*
X1625968Y106660D01*
X1647097D01*
X1648426Y106573D01*
D02*
G37*
G36*
X998493Y86942D02*
X999799Y86682D01*
X1001060Y86254D01*
X1002255Y85665D01*
X1003362Y84925D01*
X1004363Y84047D01*
X1060974Y27436D01*
X1061852Y26435D01*
X1062592Y25327D01*
X1063181Y24133D01*
X1063609Y22871D01*
X1063869Y21565D01*
X1063956Y20236D01*
X1063869Y18908D01*
X1063609Y17601D01*
X1063181Y16340D01*
X1062592Y15146D01*
X1061852Y14038D01*
X1060974Y13037D01*
X990263Y-57674D01*
X989262Y-58552D01*
X988154Y-59292D01*
X986960Y-59881D01*
X985699Y-60309D01*
X984392Y-60569D01*
X983064Y-60656D01*
X981735Y-60569D01*
X980428Y-60309D01*
X979167Y-59881D01*
X978772Y-59687D01*
X977973Y-59292D01*
X976865Y-58552D01*
X975864Y-57674D01*
X919253Y-1063D01*
X918375Y-62D01*
X917635Y1045D01*
X917046Y2240D01*
X916618Y3501D01*
X916358Y4807D01*
X916271Y6136D01*
Y27265D01*
X916358Y28594D01*
X916618Y29901D01*
X917046Y31162D01*
X917635Y32356D01*
X918375Y33464D01*
X919253Y34465D01*
X968835Y84047D01*
X969836Y84925D01*
X970944Y85665D01*
X972138Y86254D01*
X973399Y86682D01*
X974706Y86942D01*
X976035Y87029D01*
X997164D01*
X998493Y86942D01*
D02*
G37*
G36*
X-1419206Y86942D02*
X-1417900Y86682D01*
X-1416639Y86254D01*
X-1415444Y85665D01*
X-1414337Y84925D01*
X-1413335Y84047D01*
X-1363753Y34465D01*
X-1362875Y33464D01*
X-1362135Y32356D01*
X-1361546Y31162D01*
X-1361118Y29901D01*
X-1360858Y28594D01*
X-1360771Y27265D01*
Y6136D01*
X-1360858Y4807D01*
X-1361118Y3501D01*
X-1361546Y2240D01*
X-1362135Y1045D01*
X-1362875Y-62D01*
X-1363753Y-1063D01*
X-1420364Y-57674D01*
X-1421365Y-58552D01*
X-1422473Y-59292D01*
X-1423667Y-59881D01*
X-1424928Y-60309D01*
X-1426235Y-60569D01*
X-1427564Y-60656D01*
X-1428892Y-60569D01*
X-1430199Y-60309D01*
X-1431460Y-59881D01*
X-1432654Y-59292D01*
X-1433762Y-58552D01*
X-1434763Y-57674D01*
X-1505474Y13037D01*
X-1506352Y14038D01*
X-1507092Y15146D01*
X-1507681Y16340D01*
X-1508109Y17601D01*
X-1508369Y18908D01*
X-1508456Y20236D01*
X-1508369Y21565D01*
X-1508109Y22872D01*
X-1507681Y24133D01*
X-1507487Y24528D01*
X-1507092Y25327D01*
X-1506352Y26435D01*
X-1505474Y27436D01*
X-1448863Y84047D01*
X-1447862Y84925D01*
X-1446755Y85665D01*
X-1445560Y86254D01*
X-1444299Y86682D01*
X-1442993Y86942D01*
X-1441664Y87029D01*
X-1420535D01*
X-1419206Y86942D01*
D02*
G37*
G36*
X-988666Y54800D02*
X-987360Y54541D01*
X-986098Y54113D01*
X-985704Y53918D01*
X-984904Y53524D01*
X-983797Y52783D01*
X-982795Y51905D01*
X-926185Y-4705D01*
X-925307Y-5707D01*
X-924567Y-6814D01*
X-923977Y-8008D01*
X-923549Y-9270D01*
X-923289Y-10576D01*
X-923202Y-11905D01*
Y-33034D01*
X-923289Y-34363D01*
X-923549Y-35669D01*
X-923977Y-36930D01*
X-924566Y-38125D01*
X-925307Y-39232D01*
X-926185Y-40234D01*
X-975766Y-89816D01*
X-976768Y-90694D01*
X-977875Y-91434D01*
X-979069Y-92023D01*
X-980331Y-92451D01*
X-981637Y-92711D01*
X-982966Y-92798D01*
X-1004095D01*
X-1005424Y-92711D01*
X-1006731Y-92451D01*
X-1007992Y-92023D01*
X-1009186Y-91434D01*
X-1010294Y-90694D01*
X-1011295Y-89816D01*
X-1067905Y-33205D01*
X-1068783Y-32203D01*
X-1069523Y-31096D01*
X-1070113Y-29902D01*
X-1070541Y-28640D01*
X-1070800Y-27334D01*
X-1070888Y-26005D01*
X-1070800Y-24676D01*
X-1070541Y-23370D01*
X-1070113Y-22108D01*
X-1069523Y-20914D01*
X-1068783Y-19807D01*
X-1067905Y-18805D01*
X-997195Y51905D01*
X-996193Y52783D01*
X-995086Y53524D01*
X-993892Y54113D01*
X-992630Y54541D01*
X-991324Y54800D01*
X-989995Y54888D01*
X-988666Y54800D01*
D02*
G37*
G36*
X-1198607Y48842D02*
X-1197301Y48582D01*
X-1196040Y48154D01*
X-1194845Y47565D01*
X-1193738Y46825D01*
X-1192737Y45947D01*
X-1136126Y-10664D01*
X-1135248Y-11665D01*
X-1134508Y-12773D01*
X-1133919Y-13967D01*
X-1133491Y-15228D01*
X-1133231Y-16535D01*
X-1133144Y-17864D01*
X-1133231Y-19192D01*
X-1133491Y-20499D01*
X-1133919Y-21760D01*
X-1134508Y-22954D01*
X-1135248Y-24062D01*
X-1136126Y-25063D01*
X-1206837Y-95774D01*
X-1207838Y-96652D01*
X-1208946Y-97392D01*
X-1210140Y-97981D01*
X-1211401Y-98409D01*
X-1212708Y-98669D01*
X-1214036Y-98756D01*
X-1215365Y-98669D01*
X-1216672Y-98409D01*
X-1217933Y-97981D01*
X-1218328Y-97787D01*
X-1219127Y-97392D01*
X-1220235Y-96652D01*
X-1221236Y-95774D01*
X-1277847Y-39163D01*
X-1278725Y-38162D01*
X-1279465Y-37055D01*
X-1280054Y-35860D01*
X-1280482Y-34599D01*
X-1280742Y-33293D01*
X-1280829Y-31964D01*
Y-10835D01*
X-1280742Y-9506D01*
X-1280482Y-8200D01*
X-1280054Y-6939D01*
X-1279465Y-5744D01*
X-1278725Y-4637D01*
X-1277847Y-3635D01*
X-1228265Y45947D01*
X-1227264Y46825D01*
X-1226156Y47565D01*
X-1224962Y48154D01*
X-1223701Y48582D01*
X-1222394Y48842D01*
X-1221065Y48929D01*
X-1199936D01*
X-1198607Y48842D01*
D02*
G37*
G36*
X1524724Y4000D02*
X1526030Y3741D01*
X1527292Y3313D01*
X1528486Y2723D01*
X1529593Y1983D01*
X1530595Y1105D01*
X1601305Y-69605D01*
X1602183Y-70607D01*
X1602924Y-71714D01*
X1603513Y-72908D01*
X1603941Y-74170D01*
X1604200Y-75476D01*
X1604288Y-76805D01*
X1604200Y-78134D01*
X1603941Y-79440D01*
X1603513Y-80702D01*
X1603318Y-81096D01*
X1602924Y-81896D01*
X1602183Y-83003D01*
X1601305Y-84005D01*
X1544695Y-140615D01*
X1543693Y-141493D01*
X1542586Y-142233D01*
X1541392Y-142823D01*
X1540130Y-143251D01*
X1538824Y-143511D01*
X1537495Y-143598D01*
X1516366D01*
X1515037Y-143511D01*
X1513731Y-143251D01*
X1512470Y-142823D01*
X1511275Y-142234D01*
X1510168Y-141493D01*
X1509167Y-140615D01*
X1459585Y-91034D01*
X1458707Y-90032D01*
X1457967Y-88925D01*
X1457377Y-87731D01*
X1456949Y-86469D01*
X1456689Y-85163D01*
X1456602Y-83834D01*
Y-62705D01*
X1456689Y-61376D01*
X1456949Y-60070D01*
X1457377Y-58809D01*
X1457966Y-57614D01*
X1458707Y-56507D01*
X1459585Y-55505D01*
X1516195Y1105D01*
X1517197Y1983D01*
X1518304Y2723D01*
X1519498Y3313D01*
X1520760Y3741D01*
X1522066Y4000D01*
X1523395Y4088D01*
X1524724Y4000D01*
D02*
G37*
G36*
X1101065Y-15631D02*
X1102372Y-15891D01*
X1103633Y-16319D01*
X1104028Y-16513D01*
X1104827Y-16908D01*
X1105935Y-17648D01*
X1106936Y-18526D01*
X1163547Y-75137D01*
X1164425Y-76138D01*
X1165165Y-77245D01*
X1165754Y-78440D01*
X1166182Y-79701D01*
X1166442Y-81007D01*
X1166529Y-82336D01*
Y-103465D01*
X1166442Y-104794D01*
X1166182Y-106100D01*
X1165754Y-107361D01*
X1165165Y-108556D01*
X1164425Y-109663D01*
X1163547Y-110665D01*
X1113965Y-160247D01*
X1112964Y-161125D01*
X1111856Y-161865D01*
X1110662Y-162454D01*
X1109401Y-162882D01*
X1108094Y-163142D01*
X1106765Y-163229D01*
X1085636D01*
X1084307Y-163142D01*
X1083001Y-162882D01*
X1081740Y-162454D01*
X1080545Y-161865D01*
X1079438Y-161125D01*
X1078437Y-160247D01*
X1021826Y-103636D01*
X1020948Y-102635D01*
X1020208Y-101527D01*
X1019619Y-100333D01*
X1019191Y-99072D01*
X1018931Y-97765D01*
X1018844Y-96436D01*
X1018931Y-95108D01*
X1019191Y-93801D01*
X1019619Y-92540D01*
X1020208Y-91346D01*
X1020948Y-90238D01*
X1021826Y-89237D01*
X1092537Y-18526D01*
X1093538Y-17648D01*
X1094646Y-16908D01*
X1095840Y-16319D01*
X1097101Y-15891D01*
X1098408Y-15631D01*
X1099736Y-15544D01*
X1101065Y-15631D01*
D02*
G37*
G36*
X-1542908D02*
X-1541601Y-15891D01*
X-1540340Y-16319D01*
X-1539146Y-16908D01*
X-1538038Y-17648D01*
X-1537037Y-18526D01*
X-1466326Y-89237D01*
X-1465448Y-90238D01*
X-1464708Y-91346D01*
X-1464119Y-92540D01*
X-1463691Y-93801D01*
X-1463431Y-95108D01*
X-1463344Y-96436D01*
X-1463431Y-97765D01*
X-1463691Y-99072D01*
X-1464119Y-100333D01*
X-1464313Y-100728D01*
X-1464708Y-101527D01*
X-1465448Y-102635D01*
X-1466326Y-103636D01*
X-1522937Y-160247D01*
X-1523938Y-161125D01*
X-1525045Y-161865D01*
X-1526240Y-162454D01*
X-1527501Y-162882D01*
X-1528807Y-163142D01*
X-1530136Y-163229D01*
X-1551265D01*
X-1552594Y-163142D01*
X-1553901Y-162882D01*
X-1555162Y-162454D01*
X-1556356Y-161865D01*
X-1557464Y-161125D01*
X-1558465Y-160247D01*
X-1608047Y-110665D01*
X-1608925Y-109664D01*
X-1609665Y-108556D01*
X-1610254Y-107362D01*
X-1610682Y-106101D01*
X-1610942Y-104794D01*
X-1611029Y-103465D01*
Y-82336D01*
X-1610942Y-81007D01*
X-1610682Y-79701D01*
X-1610254Y-78440D01*
X-1609665Y-77245D01*
X-1608925Y-76138D01*
X-1608047Y-75137D01*
X-1551436Y-18526D01*
X-1550435Y-17648D01*
X-1549327Y-16908D01*
X-1548133Y-16319D01*
X-1546871Y-15891D01*
X-1545565Y-15631D01*
X-1544236Y-15544D01*
X-1542908Y-15631D01*
D02*
G37*
G36*
X-1096035Y-53731D02*
X-1094728Y-53991D01*
X-1093467Y-54419D01*
X-1093072Y-54613D01*
X-1092273Y-55008D01*
X-1091165Y-55748D01*
X-1090164Y-56626D01*
X-1033553Y-113237D01*
X-1032675Y-114238D01*
X-1031935Y-115345D01*
X-1031346Y-116540D01*
X-1030918Y-117801D01*
X-1030658Y-119107D01*
X-1030571Y-120436D01*
Y-141565D01*
X-1030658Y-142894D01*
X-1030918Y-144201D01*
X-1031346Y-145462D01*
X-1031935Y-146656D01*
X-1032675Y-147764D01*
X-1033553Y-148765D01*
X-1083135Y-198347D01*
X-1084136Y-199225D01*
X-1085244Y-199965D01*
X-1086438Y-200554D01*
X-1087699Y-200982D01*
X-1089006Y-201242D01*
X-1090335Y-201329D01*
X-1111464D01*
X-1112793Y-201242D01*
X-1114099Y-200982D01*
X-1115360Y-200554D01*
X-1116555Y-199965D01*
X-1117662Y-199225D01*
X-1118663Y-198347D01*
X-1175274Y-141736D01*
X-1176152Y-140735D01*
X-1176892Y-139627D01*
X-1177481Y-138433D01*
X-1177909Y-137171D01*
X-1178169Y-135865D01*
X-1178256Y-134536D01*
X-1178169Y-133208D01*
X-1177909Y-131901D01*
X-1177481Y-130640D01*
X-1176892Y-129446D01*
X-1176152Y-128338D01*
X-1175274Y-127337D01*
X-1104563Y-56626D01*
X-1103562Y-55748D01*
X-1102454Y-55008D01*
X-1101260Y-54419D01*
X-1099999Y-53991D01*
X-1098692Y-53731D01*
X-1097364Y-53644D01*
X-1096035Y-53731D01*
D02*
G37*
G36*
X680993Y-230558D02*
X682299Y-230818D01*
X683560Y-231246D01*
X684755Y-231835D01*
X685862Y-232575D01*
X686863Y-233453D01*
X743474Y-290064D01*
X744352Y-291065D01*
X745092Y-292173D01*
X745681Y-293367D01*
X746109Y-294629D01*
X746369Y-295935D01*
X746456Y-297264D01*
X746369Y-298592D01*
X746109Y-299899D01*
X745681Y-301160D01*
X745092Y-302354D01*
X744352Y-303462D01*
X743474Y-304463D01*
X672763Y-375174D01*
X671762Y-376052D01*
X670654Y-376792D01*
X669460Y-377381D01*
X668199Y-377809D01*
X666892Y-378069D01*
X665564Y-378156D01*
X664235Y-378069D01*
X662928Y-377809D01*
X661667Y-377381D01*
X661272Y-377187D01*
X660473Y-376792D01*
X659365Y-376052D01*
X658364Y-375174D01*
X601753Y-318563D01*
X600875Y-317562D01*
X600135Y-316455D01*
X599546Y-315260D01*
X599118Y-313999D01*
X598858Y-312693D01*
X598771Y-311364D01*
Y-290235D01*
X598858Y-288906D01*
X599118Y-287599D01*
X599546Y-286338D01*
X600135Y-285144D01*
X600875Y-284036D01*
X601753Y-283035D01*
X651335Y-233453D01*
X652336Y-232575D01*
X653444Y-231835D01*
X654638Y-231246D01*
X655899Y-230818D01*
X657206Y-230558D01*
X658535Y-230471D01*
X679664D01*
X680993Y-230558D01*
D02*
G37*
G36*
X-631806Y-243258D02*
X-630499Y-243518D01*
X-629238Y-243946D01*
X-628044Y-244535D01*
X-626936Y-245275D01*
X-625935Y-246153D01*
X-576353Y-295735D01*
X-575475Y-296736D01*
X-574735Y-297844D01*
X-574146Y-299038D01*
X-573718Y-300299D01*
X-573458Y-301606D01*
X-573371Y-302935D01*
Y-324064D01*
X-573458Y-325393D01*
X-573718Y-326699D01*
X-574146Y-327960D01*
X-574735Y-329155D01*
X-575475Y-330262D01*
X-576353Y-331263D01*
X-632964Y-387874D01*
X-633965Y-388752D01*
X-635073Y-389492D01*
X-636267Y-390081D01*
X-637529Y-390509D01*
X-638835Y-390769D01*
X-640164Y-390856D01*
X-641492Y-390769D01*
X-642799Y-390509D01*
X-644060Y-390081D01*
X-645254Y-389492D01*
X-646362Y-388752D01*
X-647363Y-387874D01*
X-718074Y-317163D01*
X-718952Y-316162D01*
X-719692Y-315054D01*
X-720281Y-313860D01*
X-720709Y-312599D01*
X-720969Y-311292D01*
X-721056Y-309964D01*
X-720969Y-308635D01*
X-720709Y-307328D01*
X-720281Y-306067D01*
X-720087Y-305672D01*
X-719692Y-304873D01*
X-718952Y-303765D01*
X-718074Y-302764D01*
X-661463Y-246153D01*
X-660462Y-245275D01*
X-659355Y-244535D01*
X-658160Y-243946D01*
X-656899Y-243518D01*
X-655593Y-243258D01*
X-654264Y-243171D01*
X-633135D01*
X-631806Y-243258D01*
D02*
G37*
G36*
X783565Y-333131D02*
X784872Y-333391D01*
X786133Y-333819D01*
X786528Y-334013D01*
X787327Y-334408D01*
X788435Y-335148D01*
X789436Y-336026D01*
X846047Y-392637D01*
X846925Y-393638D01*
X847665Y-394745D01*
X848254Y-395940D01*
X848682Y-397201D01*
X848942Y-398507D01*
X849029Y-399836D01*
Y-420965D01*
X848942Y-422294D01*
X848682Y-423600D01*
X848254Y-424861D01*
X847665Y-426056D01*
X846925Y-427163D01*
X846047Y-428165D01*
X796465Y-477747D01*
X795464Y-478625D01*
X794356Y-479365D01*
X793162Y-479954D01*
X791901Y-480382D01*
X790594Y-480642D01*
X789265Y-480729D01*
X768136D01*
X766807Y-480642D01*
X765501Y-480382D01*
X764240Y-479954D01*
X763045Y-479365D01*
X761938Y-478625D01*
X760937Y-477747D01*
X704326Y-421136D01*
X703448Y-420135D01*
X702708Y-419027D01*
X702119Y-417833D01*
X701691Y-416572D01*
X701431Y-415265D01*
X701344Y-413936D01*
X701431Y-412608D01*
X701691Y-411301D01*
X702119Y-410040D01*
X702708Y-408846D01*
X703448Y-407738D01*
X704326Y-406737D01*
X775037Y-336026D01*
X776038Y-335148D01*
X777146Y-334408D01*
X778340Y-333819D01*
X779601Y-333391D01*
X780908Y-333131D01*
X782236Y-333044D01*
X783565Y-333131D01*
D02*
G37*
G36*
X-755508Y-345831D02*
X-754201Y-346091D01*
X-752940Y-346519D01*
X-751746Y-347108D01*
X-750638Y-347848D01*
X-749637Y-348726D01*
X-678926Y-419437D01*
X-678048Y-420438D01*
X-677308Y-421546D01*
X-676719Y-422740D01*
X-676291Y-424001D01*
X-676031Y-425308D01*
X-675944Y-426636D01*
X-676031Y-427965D01*
X-676291Y-429272D01*
X-676719Y-430533D01*
X-676913Y-430928D01*
X-677308Y-431727D01*
X-678048Y-432835D01*
X-678926Y-433836D01*
X-735537Y-490447D01*
X-736538Y-491325D01*
X-737645Y-492065D01*
X-738840Y-492654D01*
X-740101Y-493082D01*
X-741407Y-493342D01*
X-742736Y-493429D01*
X-763865D01*
X-765194Y-493342D01*
X-766500Y-493082D01*
X-767761Y-492654D01*
X-768956Y-492065D01*
X-770063Y-491325D01*
X-771065Y-490447D01*
X-820647Y-440865D01*
X-821525Y-439864D01*
X-822265Y-438756D01*
X-822854Y-437562D01*
X-823282Y-436301D01*
X-823542Y-434994D01*
X-823629Y-433665D01*
Y-412536D01*
X-823542Y-411207D01*
X-823282Y-409901D01*
X-822854Y-408640D01*
X-822265Y-407445D01*
X-821525Y-406338D01*
X-820647Y-405337D01*
X-764036Y-348726D01*
X-763035Y-347848D01*
X-761927Y-347108D01*
X-760733Y-346519D01*
X-759472Y-346091D01*
X-758165Y-345831D01*
X-756836Y-345744D01*
X-755508Y-345831D01*
D02*
G37*
G36*
X-468431Y-357726D02*
X-467102Y-357814D01*
X-465795Y-358073D01*
X-464534Y-358501D01*
X-463340Y-359091D01*
X-462232Y-359831D01*
X-461231Y-360709D01*
X-386108Y-435831D01*
X-385230Y-436833D01*
X-384490Y-437940D01*
X-383901Y-439134D01*
X-383473Y-440396D01*
X-383213Y-441702D01*
X-383126Y-443031D01*
Y-470438D01*
X-383213Y-471767D01*
X-383473Y-473074D01*
X-383901Y-474335D01*
X-384490Y-475529D01*
X-385230Y-476637D01*
X-386108Y-477638D01*
X-443115Y-534645D01*
X-444117Y-535523D01*
X-445224Y-536263D01*
X-446418Y-536852D01*
X-447680Y-537280D01*
X-448986Y-537540D01*
X-450315Y-537627D01*
X-451644Y-537540D01*
X-452950Y-537280D01*
X-454212Y-536852D01*
X-454606Y-536658D01*
X-455406Y-536263D01*
X-456513Y-535523D01*
X-457515Y-534645D01*
X-560045Y-432115D01*
X-560923Y-431113D01*
X-561663Y-430006D01*
X-562252Y-428812D01*
X-562680Y-427550D01*
X-562940Y-426244D01*
X-563027Y-424915D01*
X-562940Y-423586D01*
X-562680Y-422280D01*
X-562252Y-421018D01*
X-561663Y-419824D01*
X-560923Y-418717D01*
X-560045Y-417715D01*
X-503038Y-360708D01*
X-502037Y-359830D01*
X-500929Y-359090D01*
X-499735Y-358501D01*
X-498474Y-358073D01*
X-497167Y-357813D01*
X-495838Y-357726D01*
X-468431Y-357726D01*
D02*
G37*
G36*
X439693Y-471858D02*
X440999Y-472118D01*
X442260Y-472546D01*
X443455Y-473135D01*
X444562Y-473875D01*
X445563Y-474753D01*
X502174Y-531364D01*
X503052Y-532365D01*
X503792Y-533473D01*
X504381Y-534667D01*
X504809Y-535929D01*
X505069Y-537235D01*
X505156Y-538564D01*
X505069Y-539892D01*
X504809Y-541199D01*
X504381Y-542460D01*
X503792Y-543654D01*
X503052Y-544762D01*
X502174Y-545763D01*
X431463Y-616474D01*
X430462Y-617352D01*
X429354Y-618092D01*
X428160Y-618681D01*
X426899Y-619109D01*
X425592Y-619369D01*
X424264Y-619456D01*
X422935Y-619369D01*
X421628Y-619109D01*
X420367Y-618681D01*
X419972Y-618487D01*
X419173Y-618092D01*
X418065Y-617352D01*
X417064Y-616474D01*
X360453Y-559863D01*
X359575Y-558862D01*
X358835Y-557755D01*
X358246Y-556560D01*
X357818Y-555299D01*
X357558Y-553993D01*
X357471Y-552664D01*
Y-531535D01*
X357558Y-530206D01*
X357818Y-528899D01*
X358246Y-527638D01*
X358835Y-526444D01*
X359575Y-525336D01*
X360453Y-524335D01*
X410035Y-474753D01*
X411036Y-473875D01*
X412144Y-473135D01*
X413338Y-472546D01*
X414599Y-472118D01*
X415906Y-471858D01*
X417235Y-471771D01*
X438364D01*
X439693Y-471858D01*
D02*
G37*
G36*
X-615156Y-478460D02*
X-613850Y-478720D01*
X-612588Y-479148D01*
X-612194Y-479342D01*
X-611394Y-479737D01*
X-610287Y-480477D01*
X-609285Y-481355D01*
X-506755Y-583885D01*
X-505877Y-584887D01*
X-505137Y-585994D01*
X-504548Y-587188D01*
X-504120Y-588450D01*
X-503860Y-589756D01*
X-503773Y-591085D01*
X-503860Y-592414D01*
X-504120Y-593720D01*
X-504548Y-594982D01*
X-505137Y-596176D01*
X-505877Y-597283D01*
X-506755Y-598285D01*
X-563762Y-655292D01*
X-564763Y-656170D01*
X-565871Y-656910D01*
X-567065Y-657499D01*
X-568326Y-657927D01*
X-569633Y-658187D01*
X-570962Y-658274D01*
X-598369D01*
X-599698Y-658187D01*
X-601004Y-657927D01*
X-602265Y-657499D01*
X-603460Y-656910D01*
X-604567Y-656170D01*
X-605569Y-655292D01*
X-680691Y-580169D01*
X-681569Y-579167D01*
X-682309Y-578060D01*
X-682899Y-576866D01*
X-683327Y-575604D01*
X-683586Y-574298D01*
X-683674Y-572969D01*
Y-545561D01*
X-683586Y-544232D01*
X-683327Y-542926D01*
X-682899Y-541665D01*
X-682309Y-540470D01*
X-681569Y-539363D01*
X-680691Y-538362D01*
X-623685Y-481355D01*
X-622683Y-480477D01*
X-621576Y-479737D01*
X-620382Y-479148D01*
X-619120Y-478720D01*
X-617814Y-478460D01*
X-616485Y-478373D01*
X-615156Y-478460D01*
D02*
G37*
G36*
X542265Y-574431D02*
X543572Y-574691D01*
X544833Y-575119D01*
X545228Y-575313D01*
X546027Y-575708D01*
X547135Y-576448D01*
X548136Y-577326D01*
X604747Y-633937D01*
X605625Y-634938D01*
X606365Y-636045D01*
X606954Y-637240D01*
X607382Y-638501D01*
X607642Y-639807D01*
X607729Y-641136D01*
Y-662265D01*
X607642Y-663594D01*
X607382Y-664900D01*
X606954Y-666161D01*
X606365Y-667356D01*
X605625Y-668463D01*
X604747Y-669465D01*
X555165Y-719047D01*
X554164Y-719925D01*
X553056Y-720665D01*
X551862Y-721254D01*
X550601Y-721682D01*
X549294Y-721942D01*
X547965Y-722029D01*
X526836D01*
X525507Y-721942D01*
X524201Y-721682D01*
X522940Y-721254D01*
X521745Y-720665D01*
X520638Y-719925D01*
X519637Y-719047D01*
X463026Y-662436D01*
X462148Y-661435D01*
X461408Y-660327D01*
X460819Y-659133D01*
X460391Y-657872D01*
X460131Y-656565D01*
X460044Y-655236D01*
X460131Y-653908D01*
X460391Y-652601D01*
X460819Y-651340D01*
X461408Y-650146D01*
X462148Y-649038D01*
X463026Y-648037D01*
X533737Y-577326D01*
X534738Y-576448D01*
X535846Y-575708D01*
X537040Y-575119D01*
X538301Y-574691D01*
X539608Y-574431D01*
X540936Y-574344D01*
X542265Y-574431D01*
D02*
G37*
G36*
X287293Y-624258D02*
X288599Y-624518D01*
X289860Y-624946D01*
X291055Y-625535D01*
X292162Y-626275D01*
X293163Y-627153D01*
X349774Y-683764D01*
X350652Y-684765D01*
X351392Y-685873D01*
X351981Y-687067D01*
X352409Y-688329D01*
X352669Y-689635D01*
X352756Y-690964D01*
X352669Y-692292D01*
X352409Y-693599D01*
X351981Y-694860D01*
X351392Y-696054D01*
X350652Y-697162D01*
X349774Y-698163D01*
X279063Y-768874D01*
X278062Y-769752D01*
X276954Y-770492D01*
X275760Y-771081D01*
X274499Y-771509D01*
X273192Y-771769D01*
X271864Y-771856D01*
X270535Y-771769D01*
X269228Y-771509D01*
X267967Y-771081D01*
X267572Y-770887D01*
X266773Y-770492D01*
X265665Y-769752D01*
X264664Y-768874D01*
X208053Y-712263D01*
X207175Y-711262D01*
X206435Y-710155D01*
X205846Y-708960D01*
X205418Y-707699D01*
X205158Y-706393D01*
X205071Y-705064D01*
Y-683935D01*
X205158Y-682606D01*
X205418Y-681299D01*
X205846Y-680038D01*
X206435Y-678844D01*
X207175Y-677736D01*
X208053Y-676735D01*
X257635Y-627153D01*
X258636Y-626275D01*
X259744Y-625535D01*
X260938Y-624946D01*
X262199Y-624518D01*
X263506Y-624258D01*
X264835Y-624171D01*
X285964D01*
X287293Y-624258D01*
D02*
G37*
G36*
X-174606Y-700458D02*
X-173299Y-700718D01*
X-172038Y-701146D01*
X-170844Y-701735D01*
X-169736Y-702475D01*
X-168735Y-703353D01*
X-119153Y-752935D01*
X-118275Y-753936D01*
X-117535Y-755044D01*
X-116946Y-756238D01*
X-116518Y-757499D01*
X-116258Y-758806D01*
X-116171Y-760135D01*
Y-781264D01*
X-116258Y-782593D01*
X-116518Y-783899D01*
X-116946Y-785160D01*
X-117535Y-786355D01*
X-118275Y-787462D01*
X-119153Y-788463D01*
X-175764Y-845074D01*
X-176765Y-845952D01*
X-177873Y-846692D01*
X-179067Y-847281D01*
X-180329Y-847709D01*
X-181635Y-847969D01*
X-182964Y-848056D01*
X-184292Y-847969D01*
X-185599Y-847709D01*
X-186860Y-847281D01*
X-188054Y-846692D01*
X-189162Y-845952D01*
X-190163Y-845074D01*
X-260874Y-774363D01*
X-261752Y-773362D01*
X-262492Y-772254D01*
X-263081Y-771060D01*
X-263509Y-769799D01*
X-263769Y-768492D01*
X-263856Y-767164D01*
X-263769Y-765835D01*
X-263509Y-764528D01*
X-263081Y-763267D01*
X-262887Y-762872D01*
X-262492Y-762073D01*
X-261752Y-760965D01*
X-260874Y-759964D01*
X-204263Y-703353D01*
X-203262Y-702475D01*
X-202155Y-701735D01*
X-200960Y-701146D01*
X-199699Y-700718D01*
X-198393Y-700458D01*
X-197064Y-700371D01*
X-175935D01*
X-174606Y-700458D01*
D02*
G37*
G36*
X389865Y-726831D02*
X391172Y-727091D01*
X392433Y-727519D01*
X392828Y-727713D01*
X393627Y-728108D01*
X394735Y-728848D01*
X395736Y-729726D01*
X452347Y-786337D01*
X453225Y-787338D01*
X453965Y-788445D01*
X454554Y-789640D01*
X454982Y-790901D01*
X455242Y-792207D01*
X455329Y-793536D01*
Y-814665D01*
X455242Y-815994D01*
X454982Y-817300D01*
X454554Y-818561D01*
X453965Y-819756D01*
X453225Y-820863D01*
X452347Y-821865D01*
X402765Y-871447D01*
X401764Y-872325D01*
X400656Y-873065D01*
X399462Y-873654D01*
X398201Y-874082D01*
X396894Y-874342D01*
X395565Y-874429D01*
X374436D01*
X373107Y-874342D01*
X371801Y-874082D01*
X370540Y-873654D01*
X369345Y-873065D01*
X368238Y-872325D01*
X367237Y-871447D01*
X310626Y-814836D01*
X309748Y-813835D01*
X309008Y-812727D01*
X308419Y-811533D01*
X307991Y-810272D01*
X307731Y-808965D01*
X307644Y-807636D01*
X307731Y-806308D01*
X307991Y-805001D01*
X308419Y-803740D01*
X309008Y-802546D01*
X309748Y-801438D01*
X310626Y-800437D01*
X381337Y-729726D01*
X382338Y-728848D01*
X383446Y-728108D01*
X384640Y-727519D01*
X385901Y-727091D01*
X387208Y-726831D01*
X388536Y-726744D01*
X389865Y-726831D01*
D02*
G37*
G36*
X-298308Y-803031D02*
X-297001Y-803291D01*
X-295740Y-803719D01*
X-294546Y-804308D01*
X-293438Y-805048D01*
X-292437Y-805926D01*
X-221726Y-876637D01*
X-220848Y-877638D01*
X-220108Y-878746D01*
X-219519Y-879940D01*
X-219091Y-881201D01*
X-218831Y-882508D01*
X-218744Y-883836D01*
X-218831Y-885165D01*
X-219091Y-886472D01*
X-219519Y-887733D01*
X-219713Y-888128D01*
X-220108Y-888927D01*
X-220848Y-890035D01*
X-221726Y-891036D01*
X-278337Y-947647D01*
X-279338Y-948525D01*
X-280445Y-949265D01*
X-281640Y-949854D01*
X-282901Y-950282D01*
X-284207Y-950542D01*
X-285536Y-950629D01*
X-306665D01*
X-307994Y-950542D01*
X-309300Y-950282D01*
X-310561Y-949854D01*
X-311756Y-949265D01*
X-312863Y-948525D01*
X-313865Y-947647D01*
X-363447Y-898065D01*
X-364325Y-897064D01*
X-365065Y-895956D01*
X-365654Y-894762D01*
X-366082Y-893501D01*
X-366342Y-892194D01*
X-366429Y-890865D01*
Y-869736D01*
X-366342Y-868407D01*
X-366082Y-867101D01*
X-365654Y-865840D01*
X-365065Y-864645D01*
X-364325Y-863538D01*
X-363447Y-862537D01*
X-306836Y-805926D01*
X-305835Y-805048D01*
X-304727Y-804308D01*
X-303533Y-803719D01*
X-302272Y-803291D01*
X-300965Y-803031D01*
X-299636Y-802944D01*
X-298308Y-803031D01*
D02*
G37*
G36*
X117494Y-992558D02*
X118801Y-992818D01*
X120062Y-993246D01*
X121256Y-993835D01*
X122364Y-994575D01*
X123365Y-995453D01*
X172947Y-1045035D01*
X173825Y-1046036D01*
X174565Y-1047144D01*
X175154Y-1048338D01*
X175582Y-1049599D01*
X175842Y-1050906D01*
X175929Y-1052235D01*
Y-1073364D01*
X175842Y-1074693D01*
X175582Y-1075999D01*
X175154Y-1077260D01*
X174565Y-1078455D01*
X173825Y-1079562D01*
X172947Y-1080563D01*
X116336Y-1137174D01*
X115335Y-1138052D01*
X114227Y-1138792D01*
X113033Y-1139381D01*
X111771Y-1139809D01*
X110465Y-1140069D01*
X109136Y-1140156D01*
X107808Y-1140069D01*
X106501Y-1139809D01*
X105240Y-1139381D01*
X104046Y-1138792D01*
X102938Y-1138052D01*
X101937Y-1137174D01*
X31226Y-1066463D01*
X30348Y-1065462D01*
X29608Y-1064354D01*
X29019Y-1063160D01*
X28591Y-1061899D01*
X28331Y-1060592D01*
X28244Y-1059264D01*
X28331Y-1057935D01*
X28591Y-1056628D01*
X29019Y-1055367D01*
X29213Y-1054972D01*
X29608Y-1054173D01*
X30348Y-1053065D01*
X31226Y-1052064D01*
X87837Y-995453D01*
X88838Y-994575D01*
X89945Y-993835D01*
X91140Y-993246D01*
X92401Y-992818D01*
X93707Y-992558D01*
X95036Y-992471D01*
X116165D01*
X117494Y-992558D01*
D02*
G37*
G36*
X-6208Y-1095131D02*
X-4901Y-1095391D01*
X-3640Y-1095819D01*
X-2446Y-1096408D01*
X-1338Y-1097148D01*
X-337Y-1098026D01*
X70374Y-1168737D01*
X71252Y-1169738D01*
X71992Y-1170846D01*
X72581Y-1172040D01*
X73009Y-1173301D01*
X73269Y-1174608D01*
X73356Y-1175936D01*
X73269Y-1177265D01*
X73009Y-1178572D01*
X72581Y-1179833D01*
X72387Y-1180228D01*
X71992Y-1181027D01*
X71252Y-1182135D01*
X70374Y-1183136D01*
X13763Y-1239747D01*
X12762Y-1240625D01*
X11655Y-1241365D01*
X10460Y-1241954D01*
X9199Y-1242382D01*
X7893Y-1242642D01*
X6564Y-1242729D01*
X-14565D01*
X-15894Y-1242642D01*
X-17200Y-1242382D01*
X-18461Y-1241954D01*
X-19656Y-1241365D01*
X-20763Y-1240625D01*
X-21765Y-1239747D01*
X-71347Y-1190165D01*
X-72225Y-1189164D01*
X-72965Y-1188056D01*
X-73554Y-1186862D01*
X-73982Y-1185601D01*
X-74242Y-1184294D01*
X-74329Y-1182965D01*
Y-1161836D01*
X-74242Y-1160507D01*
X-73982Y-1159201D01*
X-73554Y-1157940D01*
X-72965Y-1156745D01*
X-72225Y-1155638D01*
X-71347Y-1154637D01*
X-14736Y-1098026D01*
X-13735Y-1097148D01*
X-12627Y-1096408D01*
X-11433Y-1095819D01*
X-10172Y-1095391D01*
X-8865Y-1095131D01*
X-7536Y-1095044D01*
X-6208Y-1095131D01*
D02*
G37*
G36*
X-220707Y-1525958D02*
X-219401Y-1526218D01*
X-218140Y-1526646D01*
X-216945Y-1527235D01*
X-215838Y-1527975D01*
X-214837Y-1528853D01*
X-158226Y-1585464D01*
X-157348Y-1586465D01*
X-156608Y-1587573D01*
X-156019Y-1588767D01*
X-155591Y-1590028D01*
X-155331Y-1591335D01*
X-155244Y-1592664D01*
X-155331Y-1593992D01*
X-155591Y-1595299D01*
X-156019Y-1596560D01*
X-156608Y-1597754D01*
X-157348Y-1598862D01*
X-158226Y-1599863D01*
X-228937Y-1670574D01*
X-229938Y-1671452D01*
X-231046Y-1672192D01*
X-232240Y-1672781D01*
X-233501Y-1673209D01*
X-234808Y-1673469D01*
X-236136Y-1673556D01*
X-237465Y-1673469D01*
X-238772Y-1673209D01*
X-240033Y-1672781D01*
X-240428Y-1672587D01*
X-241227Y-1672192D01*
X-242335Y-1671452D01*
X-243336Y-1670574D01*
X-299947Y-1613963D01*
X-300825Y-1612962D01*
X-301565Y-1611855D01*
X-302154Y-1610660D01*
X-302582Y-1609399D01*
X-302842Y-1608093D01*
X-302929Y-1606764D01*
Y-1585635D01*
X-302842Y-1584306D01*
X-302582Y-1583000D01*
X-302154Y-1581739D01*
X-301565Y-1580544D01*
X-300825Y-1579437D01*
X-299947Y-1578435D01*
X-250365Y-1528853D01*
X-249364Y-1527975D01*
X-248256Y-1527235D01*
X-247062Y-1526646D01*
X-245801Y-1526218D01*
X-244494Y-1525958D01*
X-243165Y-1525871D01*
X-222036D01*
X-220707Y-1525958D01*
D02*
G37*
G36*
X-118135Y-1628531D02*
X-116828Y-1628791D01*
X-115567Y-1629219D01*
X-115172Y-1629413D01*
X-114373Y-1629808D01*
X-113265Y-1630548D01*
X-112264Y-1631426D01*
X-55653Y-1688037D01*
X-54775Y-1689038D01*
X-54035Y-1690145D01*
X-53446Y-1691340D01*
X-53018Y-1692601D01*
X-52758Y-1693907D01*
X-52671Y-1695236D01*
Y-1716365D01*
X-52758Y-1717694D01*
X-53018Y-1719001D01*
X-53446Y-1720262D01*
X-54035Y-1721456D01*
X-54775Y-1722564D01*
X-55653Y-1723565D01*
X-105235Y-1773147D01*
X-106236Y-1774025D01*
X-107344Y-1774765D01*
X-108538Y-1775354D01*
X-109799Y-1775782D01*
X-111106Y-1776042D01*
X-112435Y-1776129D01*
X-133564D01*
X-134893Y-1776042D01*
X-136199Y-1775782D01*
X-137460Y-1775354D01*
X-138655Y-1774765D01*
X-139762Y-1774025D01*
X-140763Y-1773147D01*
X-197374Y-1716536D01*
X-198252Y-1715535D01*
X-198992Y-1714427D01*
X-199581Y-1713233D01*
X-200009Y-1711971D01*
X-200269Y-1710665D01*
X-200356Y-1709336D01*
X-200269Y-1708008D01*
X-200009Y-1706701D01*
X-199581Y-1705440D01*
X-198992Y-1704246D01*
X-198252Y-1703138D01*
X-197374Y-1702137D01*
X-126663Y-1631426D01*
X-125662Y-1630548D01*
X-124554Y-1629808D01*
X-123360Y-1629219D01*
X-122099Y-1628791D01*
X-120792Y-1628531D01*
X-119464Y-1628444D01*
X-118135Y-1628531D01*
D02*
G37*
D29*
X-2540000Y1270000D02*
D03*
Y-1370000D02*
D03*
X2540000Y1270000D02*
D03*
Y-1370000D02*
D03*
D30*
X-86360Y-1236980D02*
D03*
X-3096747Y-684804D02*
D03*
X-3116580Y-71120D02*
D03*
X-3129280Y568960D02*
D03*
X-3111500Y307340D02*
D03*
X-3004456Y334970D02*
D03*
X-3036049Y416305D02*
D03*
X-3041079Y502518D02*
D03*
X-3035300Y607060D02*
D03*
X3009419Y-551701D02*
D03*
X1512526Y-248940D02*
D03*
X3126740Y231140D02*
D03*
X1143000Y2207260D02*
D03*
X1125220Y1734820D02*
D03*
X1381760Y1488440D02*
D03*
X3086100Y-399141D02*
D03*
X3085764Y-490629D02*
D03*
X3086100Y-312781D02*
D03*
X2667000Y-322580D02*
D03*
X3060700Y-622300D02*
D03*
X3061165Y-881380D02*
D03*
X-625218Y-1120117D02*
D03*
X-621136Y-1417621D02*
D03*
X164020Y-1642300D02*
D03*
X881883Y-1004943D02*
D03*
X2590800Y558800D02*
D03*
X2326640Y1584960D02*
D03*
X2705100Y1587500D02*
D03*
X2712720Y1275080D02*
D03*
X2354580Y1280160D02*
D03*
X-960120Y-353060D02*
D03*
X1794598Y1026207D02*
D03*
X741648Y1229609D02*
D03*
X842761Y1183640D02*
D03*
X1921033Y1024831D02*
D03*
X1108693Y-883660D02*
D03*
X1028676Y-1018627D02*
D03*
X-1805165Y572765D02*
D03*
X3009900Y1054100D02*
D03*
X3136900Y901700D02*
D03*
X-1562100Y1371600D02*
D03*
X-1447800Y1485900D02*
D03*
X-787400Y1384300D02*
D03*
X-939800Y1397000D02*
D03*
X-889000Y1524000D02*
D03*
X-2540000Y-1129600D02*
D03*
Y-1054100D02*
D03*
X2552700Y990600D02*
D03*
Y1061720D02*
D03*
X2540000Y-1168400D02*
D03*
Y-1079500D02*
D03*
X-2703895Y979107D02*
D03*
X-2708097Y1107984D02*
D03*
X-2644860Y1043687D02*
D03*
X-2576461Y1112085D02*
D03*
X1176566Y-164635D02*
D03*
X2413000Y-749300D02*
D03*
X2667000D02*
D03*
X2540000D02*
D03*
X-2222500Y1854200D02*
D03*
X-2006600Y2133600D02*
D03*
X-990600Y2209800D02*
D03*
X-152400D02*
D03*
X749300D02*
D03*
X1524000Y2159000D02*
D03*
X1536700Y1346200D02*
D03*
X787400Y1752600D02*
D03*
X-3289300Y1231900D02*
D03*
Y1816100D02*
D03*
X-3378200Y838200D02*
D03*
Y-12700D02*
D03*
Y-1066800D02*
D03*
X-3289300Y-1841500D02*
D03*
X-2336800Y1600200D02*
D03*
X-2438400D02*
D03*
X-2540000D02*
D03*
X-2641600D02*
D03*
X-2743200D02*
D03*
X-2311400Y1435100D02*
D03*
X-2781300Y1371600D02*
D03*
Y1460500D02*
D03*
X-1562100Y-1409700D02*
D03*
X-1765300Y-1231900D02*
D03*
X1765300Y-1993900D02*
D03*
X1511300Y-1981200D02*
D03*
X1752600Y-2247900D02*
D03*
X1498600D02*
D03*
X622300Y-2374900D02*
D03*
Y-2489200D02*
D03*
X-685800Y-2336800D02*
D03*
X-863600Y-2451100D02*
D03*
X-876300Y-2209800D02*
D03*
X-1917700Y-2324100D02*
D03*
X-1739900Y-2451100D02*
D03*
Y-2209800D02*
D03*
X-2768600Y-1485900D02*
D03*
Y-1574800D02*
D03*
X-2298700Y-1485900D02*
D03*
Y-1574800D02*
D03*
X-2400300Y-1701800D02*
D03*
X-2489200D02*
D03*
X-2578100D02*
D03*
X-2667000D02*
D03*
X-2654300Y-889000D02*
D03*
X-2438400D02*
D03*
Y-736600D02*
D03*
X-2667000D02*
D03*
X-2997200Y-101600D02*
D03*
X-1993900Y-177800D02*
D03*
X-2070100Y-101600D02*
D03*
X-2400300Y-139700D02*
D03*
X-2514600D02*
D03*
X-2603500D02*
D03*
X-2692400D02*
D03*
X2298700Y1384300D02*
D03*
Y1473200D02*
D03*
X2768600Y1384300D02*
D03*
Y1473200D02*
D03*
X63500Y1727200D02*
D03*
X203200Y1714500D02*
D03*
X190500Y1549400D02*
D03*
X2311400Y-1498600D02*
D03*
Y-1574800D02*
D03*
X2781300Y-1498600D02*
D03*
Y-1574800D02*
D03*
X2679700Y-1701800D02*
D03*
X2590800D02*
D03*
X2489200D02*
D03*
X2400300D02*
D03*
X3149600Y-114300D02*
D03*
X2997200Y-88900D02*
D03*
X2654300Y-76200D02*
D03*
X2565400D02*
D03*
X2476500D02*
D03*
X2387600D02*
D03*
X2095500Y-88900D02*
D03*
X1524000Y127000D02*
D03*
X1752600Y76200D02*
D03*
X0Y-1765300D02*
D03*
X-63500Y-1854200D02*
D03*
X-241300Y-1841500D02*
D03*
X139700Y457200D02*
D03*
X25400Y355600D02*
D03*
X-165100Y165100D02*
D03*
X-419100Y-25400D02*
D03*
X-203200Y-215900D02*
D03*
X0Y-38100D02*
D03*
X190500Y114300D02*
D03*
X330200Y266700D02*
D03*
X533400Y63500D02*
D03*
X368300Y-76200D02*
D03*
X165100Y-279400D02*
D03*
X-12700Y-406400D02*
D03*
X76200Y-571500D02*
D03*
X444500Y-381000D02*
D03*
X355600Y-457200D02*
D03*
X571500Y-381000D02*
D03*
X508000Y-292100D02*
D03*
X596900Y-203200D02*
D03*
X673100Y-139700D02*
D03*
X749300Y-203200D02*
D03*
X889000Y-63500D02*
D03*
X812800Y12700D02*
D03*
X889000Y101600D02*
D03*
X762000Y215900D02*
D03*
X673100Y139700D02*
D03*
X571500Y215900D02*
D03*
X495300Y304800D02*
D03*
X571500Y381000D02*
D03*
X469900Y482600D02*
D03*
X406400Y406400D02*
D03*
X317500Y482600D02*
D03*
X241300Y558800D02*
D03*
X152400Y635000D02*
D03*
X88900Y698500D02*
D03*
X152400Y800100D02*
D03*
X38100Y850900D02*
D03*
X-127000Y774700D02*
D03*
X-165100Y647700D02*
D03*
X-228600Y546100D02*
D03*
X-254000Y457200D02*
D03*
X-330200Y368300D02*
D03*
X-495300Y279400D02*
D03*
X-571500Y203200D02*
D03*
X-635000Y139700D02*
D03*
X-711200Y63500D02*
D03*
X-774700Y0D02*
D03*
X-850900Y-63500D02*
D03*
X-927100Y-127000D02*
D03*
X-1612900Y0D02*
D03*
X-1663700Y-88900D02*
D03*
X-1625600Y-165100D02*
D03*
X-1445008Y-296651D02*
D03*
X-990600Y-190500D02*
D03*
X-723900Y-203200D02*
D03*
X-635000Y-127000D02*
D03*
X-558800Y-190500D02*
D03*
X-482600Y-254000D02*
D03*
X-393700Y-317500D02*
D03*
X-317500Y-393700D02*
D03*
X-279400Y-482600D02*
D03*
X-355600Y-558800D02*
D03*
X-266700Y-685800D02*
D03*
X-101600Y-698500D02*
D03*
X-889000Y-469900D02*
D03*
X-596900Y-762000D02*
D03*
X-508000Y-850900D02*
D03*
X190500Y-609600D02*
D03*
X38100Y-977900D02*
D03*
X203200Y-1117600D02*
D03*
X292100Y-1016000D02*
D03*
X733111Y-623271D02*
D03*
X1257300Y-76200D02*
D03*
X957597Y401307D02*
D03*
X593063Y760617D02*
D03*
X-295864Y744220D02*
D03*
X-355600Y850900D02*
D03*
X-565880Y747984D02*
D03*
X-1100562Y238368D02*
D03*
X1018100Y-718820D02*
D03*
X1083136Y-796464D02*
D03*
X999478Y-906780D02*
D03*
X733372Y1009392D02*
D03*
X-1016000Y-800100D02*
D03*
X914400Y-228600D02*
D03*
Y292100D02*
D03*
X-990600Y355600D02*
D03*
X-228600Y1112483D02*
D03*
X673100Y508000D02*
D03*
X609600Y-558800D02*
D03*
X457200Y-723900D02*
D03*
X304800Y-876300D02*
D03*
X-215900Y-965200D02*
D03*
X-88900Y-1079500D02*
D03*
X-457200Y-711200D02*
D03*
X-927100Y419100D02*
D03*
X-228600Y939800D02*
D03*
X76200Y1422400D02*
D03*
X1397000Y-50800D02*
D03*
X863600Y-482600D02*
D03*
X596900Y-749300D02*
D03*
X495300Y-850900D02*
D03*
X-76200Y-1447800D02*
D03*
X-381000Y-952500D02*
D03*
X-736600Y-609600D02*
D03*
X-1308100Y38100D02*
D03*
X-1244600Y101600D02*
D03*
X-1181100Y165100D02*
D03*
X444500Y901700D02*
D03*
X508000Y838200D02*
D03*
X863600Y482600D02*
D03*
X-2095500Y1181100D02*
D03*
X-1143000Y-2070100D02*
D03*
X2667000Y1061720D02*
D03*
X2438400D02*
D03*
Y990600D02*
D03*
X2667000D02*
D03*
X3187700Y1130300D02*
D03*
X2654300Y-1168400D02*
D03*
X2438400D02*
D03*
X2654300Y-1079500D02*
D03*
X2438400D02*
D03*
X-2425700Y-1129600D02*
D03*
X-2667000D02*
D03*
X-2425700Y-1054100D02*
D03*
X-2667000D02*
D03*
X693526Y1363874D02*
D03*
X474118Y1574286D02*
D03*
X372343Y1570757D02*
D03*
X492760Y1485900D02*
D03*
X1539240Y368300D02*
D03*
X507631Y1397369D02*
D03*
X632460Y1424939D02*
D03*
X793406Y1320800D02*
D03*
X1701800Y233680D02*
D03*
X1651000Y304800D02*
D03*
X1653540Y157480D02*
D03*
X-306213Y-1484487D02*
D03*
X3128541Y732413D02*
D03*
X-1625600Y-266700D02*
D03*
X2463800Y-279400D02*
D03*
X3060700Y-795020D02*
D03*
Y-708660D02*
D03*
Y-977900D02*
D03*
Y-1066800D02*
D03*
X3035300Y876300D02*
D03*
X3073169Y798686D02*
D03*
X3133033Y638900D02*
D03*
X3124200Y546100D02*
D03*
X3046957Y507479D02*
D03*
X2654300Y419100D02*
D03*
X3124200D02*
D03*
X3126778Y332778D02*
D03*
X3022600Y190500D02*
D03*
X2604569Y177800D02*
D03*
X3126480Y129193D02*
D03*
X3113409Y43828D02*
D03*
X3086100Y-38100D02*
D03*
X-3016304Y888254D02*
D03*
X-3008446Y750430D02*
D03*
X-1659657Y719857D02*
D03*
X-1143000Y1346200D02*
D03*
X-1003300Y939800D02*
D03*
X-1244600Y673100D02*
D03*
X793983Y-1111017D02*
D03*
X906802Y-1090726D02*
D03*
X1435859Y-662977D02*
D03*
X1334665Y-755755D02*
D03*
X1228898Y-810072D02*
D03*
X1262380Y-673100D02*
D03*
X1287780Y-500380D02*
D03*
X1378417Y-595163D02*
D03*
X1590040Y-472440D02*
D03*
X1493520Y-436880D02*
D03*
X1430020Y-363220D02*
D03*
X-1663875Y-416386D02*
D03*
X-1524000Y-469900D02*
D03*
X-1603102Y-355028D02*
D03*
X-2585720Y182880D02*
D03*
X-3093720Y721360D02*
D03*
X-690127Y574726D02*
D03*
X-3009900Y-695960D02*
D03*
X-3025140Y-553720D02*
D03*
X-2984500Y-977900D02*
D03*
X-3101340Y-594360D02*
D03*
X-3086100Y-459740D02*
D03*
X-3020060Y-398780D02*
D03*
X-3078480Y-314960D02*
D03*
X-2542540Y-381000D02*
D03*
X-3075940Y-208280D02*
D03*
X-3022600Y30480D02*
D03*
X-2667467Y68113D02*
D03*
X-2613660Y368300D02*
D03*
X-2692867Y483067D02*
D03*
X-3042920Y121920D02*
D03*
X-3048000Y210820D02*
D03*
X-2402862Y602002D02*
D03*
X-3092275Y818374D02*
D03*
X-584167Y1274541D02*
D03*
X-1107440Y-1084580D02*
D03*
X-1013460Y-1076960D02*
D03*
X-1097513Y-1191493D02*
D03*
X-736600Y-1399540D02*
D03*
X-698234Y-1300746D02*
D03*
X-651043Y-1507957D02*
D03*
X-841673Y-1310640D02*
D03*
X-847113Y-1173480D02*
D03*
X-934720Y-1259840D02*
D03*
X-1595120Y-541020D02*
D03*
X-1526540Y218440D02*
D03*
X-1460500Y292100D02*
D03*
X-1401924Y355558D02*
D03*
X-595491Y500853D02*
D03*
X-604520Y586740D02*
D03*
X-515620Y589280D02*
D03*
X-801382Y988060D02*
D03*
X-871220Y937260D02*
D03*
X-712843Y1170401D02*
D03*
X-627380Y1182816D02*
D03*
X-786784Y1125220D02*
D03*
X-721377Y1031458D02*
D03*
D32*
X-2845000Y-726038D02*
D03*
Y-676038D02*
D03*
Y-626038D02*
D03*
Y-576038D02*
D03*
Y-526038D02*
D03*
Y-476038D02*
D03*
Y-426038D02*
D03*
Y-376038D02*
D03*
Y-276039D02*
D03*
Y-226039D02*
D03*
Y-326038D02*
D03*
Y-176039D02*
D03*
Y-126039D02*
D03*
Y-76039D02*
D03*
Y-26039D02*
D03*
Y23961D02*
D03*
Y73961D02*
D03*
Y123961D02*
D03*
Y173961D02*
D03*
Y223960D02*
D03*
Y273960D02*
D03*
Y373960D02*
D03*
Y423960D02*
D03*
Y323960D02*
D03*
Y473960D02*
D03*
Y523960D02*
D03*
Y623960D02*
D03*
Y673960D02*
D03*
Y723959D02*
D03*
Y773959D02*
D03*
Y823959D02*
D03*
Y873959D02*
D03*
Y923959D02*
D03*
Y973959D02*
D03*
Y1023959D02*
D03*
Y1073959D02*
D03*
Y573960D02*
D03*
Y-1226320D02*
D03*
Y-776038D02*
D03*
Y-1126037D02*
D03*
Y-1076037D02*
D03*
Y-1026037D02*
D03*
Y-926037D02*
D03*
Y-876037D02*
D03*
Y-826037D02*
D03*
Y-976037D02*
D03*
Y-1176037D02*
D03*
X-2235000Y-1226316D02*
D03*
Y-1176316D02*
D03*
Y-1126316D02*
D03*
Y-1076316D02*
D03*
Y-1026316D02*
D03*
Y-976317D02*
D03*
Y-926317D02*
D03*
Y-876317D02*
D03*
Y-826317D02*
D03*
Y-776317D02*
D03*
Y-726317D02*
D03*
Y-676317D02*
D03*
Y-626317D02*
D03*
Y-576317D02*
D03*
Y-526317D02*
D03*
Y-476318D02*
D03*
Y-426318D02*
D03*
Y-376318D02*
D03*
Y-326318D02*
D03*
Y-276318D02*
D03*
Y-226318D02*
D03*
Y-176318D02*
D03*
Y-126318D02*
D03*
Y-76318D02*
D03*
Y-26318D02*
D03*
Y23681D02*
D03*
Y73681D02*
D03*
Y123681D02*
D03*
Y173681D02*
D03*
Y223681D02*
D03*
Y273681D02*
D03*
Y323681D02*
D03*
Y373681D02*
D03*
Y423681D02*
D03*
Y473681D02*
D03*
Y523680D02*
D03*
Y573680D02*
D03*
Y623680D02*
D03*
Y673680D02*
D03*
Y723680D02*
D03*
Y773680D02*
D03*
Y823680D02*
D03*
Y873680D02*
D03*
Y923680D02*
D03*
Y973680D02*
D03*
Y1023679D02*
D03*
Y1073679D02*
D03*
X2235000Y-726038D02*
D03*
Y-676038D02*
D03*
Y-626038D02*
D03*
Y-576038D02*
D03*
Y-526038D02*
D03*
Y-476038D02*
D03*
Y-426038D02*
D03*
Y-376038D02*
D03*
Y-276039D02*
D03*
Y-226039D02*
D03*
Y-326038D02*
D03*
Y-176039D02*
D03*
Y-126039D02*
D03*
Y-76039D02*
D03*
Y-26039D02*
D03*
Y23961D02*
D03*
Y73961D02*
D03*
Y123961D02*
D03*
Y173961D02*
D03*
Y223960D02*
D03*
Y273960D02*
D03*
Y373960D02*
D03*
Y423960D02*
D03*
Y323960D02*
D03*
Y473960D02*
D03*
Y523960D02*
D03*
Y623960D02*
D03*
Y673960D02*
D03*
Y723959D02*
D03*
Y773959D02*
D03*
Y823959D02*
D03*
Y873959D02*
D03*
Y923959D02*
D03*
Y973959D02*
D03*
Y1023959D02*
D03*
Y1073959D02*
D03*
Y573960D02*
D03*
Y-1226320D02*
D03*
Y-776038D02*
D03*
Y-1126037D02*
D03*
Y-1076037D02*
D03*
Y-1026037D02*
D03*
Y-926037D02*
D03*
Y-876037D02*
D03*
Y-826037D02*
D03*
Y-976037D02*
D03*
Y-1176037D02*
D03*
X2845000Y-1226316D02*
D03*
Y-1176316D02*
D03*
Y-1126316D02*
D03*
Y-1076316D02*
D03*
Y-1026316D02*
D03*
Y-976317D02*
D03*
Y-926317D02*
D03*
Y-876317D02*
D03*
Y-826317D02*
D03*
Y-776317D02*
D03*
Y-726317D02*
D03*
Y-676317D02*
D03*
Y-626317D02*
D03*
Y-576317D02*
D03*
Y-526317D02*
D03*
Y-476318D02*
D03*
Y-426318D02*
D03*
Y-376318D02*
D03*
Y-326318D02*
D03*
Y-276318D02*
D03*
Y-226318D02*
D03*
Y-176318D02*
D03*
Y-126318D02*
D03*
Y-76318D02*
D03*
Y-26318D02*
D03*
Y23681D02*
D03*
Y73681D02*
D03*
Y123681D02*
D03*
Y173681D02*
D03*
Y223681D02*
D03*
Y273681D02*
D03*
Y323681D02*
D03*
Y373681D02*
D03*
Y423681D02*
D03*
Y473681D02*
D03*
Y523680D02*
D03*
Y573680D02*
D03*
Y623680D02*
D03*
Y673680D02*
D03*
Y723680D02*
D03*
Y773680D02*
D03*
Y823680D02*
D03*
Y873680D02*
D03*
Y923680D02*
D03*
Y973680D02*
D03*
Y1023679D02*
D03*
Y1073679D02*
D03*
D33*
X-2845000Y1123959D02*
D03*
X-2235000Y1123679D02*
D03*
X2235000Y1123959D02*
D03*
X2845000Y1123679D02*
D03*
D52*
X2500000Y1900000D02*
D03*
X-2500000Y-2100000D02*
D03*
D53*
X3048000Y1524000D02*
D03*
X3302000Y1016000D02*
D03*
Y0D02*
D03*
Y-1016000D02*
D03*
Y-2032000D02*
D03*
X2794000Y2032000D02*
D03*
X2032000Y1524000D02*
D03*
X2286000Y-2032000D02*
D03*
X2032000Y-2540000D02*
D03*
X1778000Y2032000D02*
D03*
X1524000Y-2540000D02*
D03*
X1016000D02*
D03*
X508000D02*
D03*
X0Y508000D02*
D03*
X254000Y0D02*
D03*
X0Y-508000D02*
D03*
X254000Y-2032000D02*
D03*
X0Y-2540000D02*
D03*
X-254000Y0D02*
D03*
X-508000Y-2540000D02*
D03*
X-1016000Y1524000D02*
D03*
Y-2540000D02*
D03*
X-1524000D02*
D03*
X-1778000Y2032000D02*
D03*
X-2032000Y-2540000D02*
D03*
X-2286000Y2032000D02*
D03*
X-2540000Y-2540000D02*
D03*
X-2794000Y2032000D02*
D03*
X-3048000Y1524000D02*
D03*
D54*
X-2540000Y-1545000D02*
D03*
Y1445000D02*
D03*
X2540000Y-1545000D02*
D03*
Y1445000D02*
D03*
%TF.MD5,c69c2e88d926f4995fd64b064f6df501*%
M02*
