%TF.GenerationSoftware,Altium Limited,Altium Designer,23.0.1 (38)*%
G04 Layer_Color=8421504*
%FSLAX45Y45*%
%MOMM*%
%TF.SameCoordinates,98E3409A-FA71-4B7D-AABF-4CEB4AF68500*%
%TF.FilePolarity,Positive*%
%TF.FileFunction,Paste,Top*%
%TF.Part,Single*%
G01*
G75*
%TA.AperFunction,SMDPad,CuDef*%
%ADD11R,2.79000X0.74000*%
G04:AMPARAMS|DCode=14|XSize=2mm|YSize=2.4mm|CornerRadius=0mm|HoleSize=0mm|Usage=FLASHONLY|Rotation=45.000|XOffset=0mm|YOffset=0mm|HoleType=Round|Shape=Rectangle|*
%AMROTATEDRECTD14*
4,1,4,0.14142,-1.55564,-1.55564,0.14142,-0.14142,1.55564,1.55564,-0.14142,0.14142,-1.55564,0.0*
%
%ADD14ROTATEDRECTD14*%

%ADD24R,3.20000X1.20000*%
G36*
X216552Y1441614D02*
Y1429240D01*
X119325Y1332013D01*
X106950D01*
X94576Y1344387D01*
Y1356761D01*
X191803Y1453988D01*
X204177D01*
X216552Y1441614D01*
D02*
G37*
G36*
X-94576Y1356761D02*
Y1344387D01*
X-106950Y1332012D01*
X-119325D01*
X-216552Y1429239D01*
Y1441614D01*
X-204177Y1453988D01*
X-191803D01*
X-94576Y1356761D01*
D02*
G37*
G36*
X251907Y1406259D02*
Y1393884D01*
X154680Y1296657D01*
X142305D01*
X129931Y1309032D01*
Y1321406D01*
X227158Y1418633D01*
X239532D01*
X251907Y1406259D01*
D02*
G37*
G36*
X-129931Y1321406D02*
Y1309032D01*
X-142305Y1296657D01*
X-154680D01*
X-251907Y1393884D01*
Y1406259D01*
X-239532Y1418633D01*
X-227158D01*
X-129931Y1321406D01*
D02*
G37*
G36*
X287262Y1370903D02*
Y1358529D01*
X190035Y1261302D01*
X177661D01*
X165286Y1273676D01*
Y1286051D01*
X262514Y1383278D01*
X274888D01*
X287262Y1370903D01*
D02*
G37*
G36*
X-165286Y1286051D02*
Y1273676D01*
X-177661Y1261302D01*
X-190035D01*
X-287262Y1358529D01*
Y1370903D01*
X-274888Y1383278D01*
X-262514D01*
X-165286Y1286051D01*
D02*
G37*
G36*
X322617Y1335548D02*
Y1323174D01*
X225390Y1225946D01*
X213015D01*
X200641Y1238321D01*
Y1250695D01*
X297868Y1347922D01*
X310242D01*
X322617Y1335548D01*
D02*
G37*
G36*
X-200641Y1250695D02*
Y1238321D01*
X-213016Y1225946D01*
X-225390D01*
X-322617Y1323174D01*
Y1335548D01*
X-310243Y1347922D01*
X-297869D01*
X-200641Y1250695D01*
D02*
G37*
G36*
X-235997Y1215340D02*
Y1202966D01*
X-248371Y1190591D01*
X-260746D01*
X-357973Y1287819D01*
Y1300193D01*
X-345598Y1312567D01*
X-333224D01*
X-235997Y1215340D01*
D02*
G37*
G36*
X357973Y1300192D02*
Y1287818D01*
X260745Y1190591D01*
X248371D01*
X235997Y1202965D01*
Y1215340D01*
X333224Y1312567D01*
X345598D01*
X357973Y1300192D01*
D02*
G37*
G36*
X393328Y1264837D02*
Y1252463D01*
X296101Y1155236D01*
X283727D01*
X271353Y1167610D01*
Y1179985D01*
X368580Y1277212D01*
X380954D01*
X393328Y1264837D01*
D02*
G37*
G36*
X-271353Y1179984D02*
Y1167610D01*
X-283727Y1155236D01*
X-296101D01*
X-393328Y1252463D01*
Y1264837D01*
X-380954Y1277212D01*
X-368580D01*
X-271353Y1179984D01*
D02*
G37*
G36*
X428683Y1229482D02*
Y1217107D01*
X331456Y1119880D01*
X319082D01*
X306708Y1132255D01*
Y1144629D01*
X403935Y1241856D01*
X416309D01*
X428683Y1229482D01*
D02*
G37*
G36*
X-306708Y1144629D02*
Y1132255D01*
X-319082Y1119880D01*
X-331456D01*
X-428683Y1217107D01*
Y1229482D01*
X-416309Y1241856D01*
X-403935D01*
X-306708Y1144629D01*
D02*
G37*
G36*
X464039Y1194127D02*
Y1181753D01*
X366812Y1084525D01*
X354437D01*
X342063Y1096900D01*
Y1109274D01*
X439290Y1206501D01*
X451664D01*
X464039Y1194127D01*
D02*
G37*
G36*
X-342063Y1109274D02*
Y1096900D01*
X-354437Y1084525D01*
X-366812D01*
X-464039Y1181753D01*
Y1194127D01*
X-451664Y1206501D01*
X-439290D01*
X-342063Y1109274D01*
D02*
G37*
G36*
X499394Y1158771D02*
Y1146397D01*
X402167Y1049170D01*
X389793D01*
X377418Y1061544D01*
Y1073919D01*
X474645Y1171146D01*
X487020D01*
X499394Y1158771D01*
D02*
G37*
G36*
X-377418Y1073919D02*
Y1061544D01*
X-389793Y1049170D01*
X-402167D01*
X-499394Y1146397D01*
Y1158771D01*
X-487020Y1171146D01*
X-474645D01*
X-377418Y1073919D01*
D02*
G37*
G36*
X534750Y1123416D02*
Y1111042D01*
X437522Y1013815D01*
X425148D01*
X412774Y1026189D01*
Y1038563D01*
X510001Y1135790D01*
X522375D01*
X534750Y1123416D01*
D02*
G37*
G36*
X-412774Y1038563D02*
Y1026189D01*
X-425148Y1013815D01*
X-437522D01*
X-534750Y1111042D01*
Y1123416D01*
X-522375Y1135790D01*
X-510001D01*
X-412774Y1038563D01*
D02*
G37*
G36*
X-448129Y1003208D02*
Y990834D01*
X-460503Y978459D01*
X-472878D01*
X-570105Y1075686D01*
Y1088061D01*
X-557730Y1100435D01*
X-545356D01*
X-448129Y1003208D01*
D02*
G37*
G36*
X570105Y1088060D02*
Y1075686D01*
X472878Y978459D01*
X460503D01*
X448129Y990833D01*
Y1003208D01*
X545356Y1100435D01*
X557730D01*
X570105Y1088060D01*
D02*
G37*
G36*
X-483484Y967853D02*
Y955478D01*
X-495859Y943104D01*
X-508233D01*
X-605460Y1040331D01*
Y1052705D01*
X-593086Y1065080D01*
X-580712D01*
X-483484Y967853D01*
D02*
G37*
G36*
X605460Y1052705D02*
Y1040331D01*
X508233Y943104D01*
X495858D01*
X483484Y955478D01*
Y967852D01*
X580711Y1065079D01*
X593085D01*
X605460Y1052705D01*
D02*
G37*
G36*
X-1047503Y986209D02*
Y966056D01*
X-1077732Y935827D01*
X-1121573Y979668D01*
X-1091344Y1009897D01*
X-1071191D01*
X-1047503Y986209D01*
D02*
G37*
G36*
X640815Y1017350D02*
Y1004975D01*
X543588Y907748D01*
X531214D01*
X518839Y920123D01*
Y932497D01*
X616067Y1029724D01*
X628441D01*
X640815Y1017350D01*
D02*
G37*
G36*
X-518839Y932497D02*
Y920123D01*
X-531214Y907748D01*
X-543588D01*
X-640815Y1004975D01*
Y1017350D01*
X-628441Y1029724D01*
X-616067D01*
X-518839Y932497D01*
D02*
G37*
G36*
X-1105309Y908250D02*
X-1135538Y878021D01*
X-1155691D01*
X-1179379Y901709D01*
Y921862D01*
X-1149150Y952091D01*
X-1105309Y908250D01*
D02*
G37*
G36*
X676171Y981995D02*
Y969620D01*
X578944Y872393D01*
X566569D01*
X554195Y884768D01*
Y897142D01*
X651422Y994369D01*
X663796D01*
X676171Y981995D01*
D02*
G37*
G36*
X-554195Y897142D02*
Y884768D01*
X-566569Y872393D01*
X-578944D01*
X-676171Y969620D01*
Y981995D01*
X-663796Y994369D01*
X-651422D01*
X-554195Y897142D01*
D02*
G37*
G36*
X711526Y946639D02*
Y934265D01*
X614299Y837038D01*
X601925D01*
X589550Y849412D01*
Y861787D01*
X686777Y959014D01*
X699152D01*
X711526Y946639D01*
D02*
G37*
G36*
X-589550Y861787D02*
Y849412D01*
X-601925Y837038D01*
X-614299D01*
X-711526Y934265D01*
Y946639D01*
X-699152Y959014D01*
X-686777D01*
X-589550Y861787D01*
D02*
G37*
G36*
X746881Y911284D02*
Y898910D01*
X649654Y801683D01*
X637280D01*
X624906Y814057D01*
Y826431D01*
X722133Y923659D01*
X734507D01*
X746881Y911284D01*
D02*
G37*
G36*
X-624906Y826431D02*
Y814057D01*
X-637280Y801682D01*
X-649655D01*
X-746882Y898910D01*
Y911284D01*
X-734507Y923658D01*
X-722133D01*
X-624906Y826431D01*
D02*
G37*
G36*
X782237Y875929D02*
Y863554D01*
X685010Y766327D01*
X672635D01*
X660261Y778702D01*
Y791076D01*
X757488Y888303D01*
X769863D01*
X782237Y875929D01*
D02*
G37*
G36*
X-660261Y791076D02*
Y778702D01*
X-672635Y766327D01*
X-685010D01*
X-782237Y863554D01*
Y875929D01*
X-769863Y888303D01*
X-757488D01*
X-660261Y791076D01*
D02*
G37*
G36*
X-1220921Y812791D02*
Y792638D01*
X-1251150Y762409D01*
X-1294991Y806250D01*
X-1264762Y836479D01*
X-1244609D01*
X-1220921Y812791D01*
D02*
G37*
G36*
X-695616Y755721D02*
Y743346D01*
X-707991Y730972D01*
X-720365D01*
X-817592Y828199D01*
Y840574D01*
X-805218Y852948D01*
X-792843D01*
X-695616Y755721D01*
D02*
G37*
G36*
X817592Y840573D02*
Y828199D01*
X720365Y730972D01*
X707991D01*
X695616Y743346D01*
Y755721D01*
X792843Y852948D01*
X805218D01*
X817592Y840573D01*
D02*
G37*
G36*
X-1109468Y759609D02*
X-1153309Y715768D01*
X-1187568Y750028D01*
Y762119D01*
X-1155819Y793868D01*
X-1143728D01*
X-1109468Y759609D01*
D02*
G37*
G36*
X-1278727Y734832D02*
X-1308956Y704603D01*
X-1329109D01*
X-1352797Y728291D01*
Y748444D01*
X-1322568Y778673D01*
X-1278727Y734832D01*
D02*
G37*
G36*
X852947Y805218D02*
Y792843D01*
X755720Y695616D01*
X743346D01*
X730972Y707990D01*
Y720365D01*
X828199Y817592D01*
X840573D01*
X852947Y805218D01*
D02*
G37*
G36*
X-730972Y720365D02*
Y707990D01*
X-743346Y695616D01*
X-755720D01*
X-852947Y792843D01*
Y805217D01*
X-840573Y817592D01*
X-828199D01*
X-730972Y720365D01*
D02*
G37*
G36*
X888303Y769863D02*
Y757488D01*
X791076Y660261D01*
X778701D01*
X766327Y672635D01*
Y685010D01*
X863554Y782237D01*
X875928D01*
X888303Y769863D01*
D02*
G37*
G36*
X-766327Y685010D02*
Y672635D01*
X-778701Y660261D01*
X-791076D01*
X-888303Y757488D01*
Y769863D01*
X-875928Y782237D01*
X-863554D01*
X-766327Y685010D01*
D02*
G37*
G36*
X-1047632Y697772D02*
Y685681D01*
X-1079381Y653932D01*
X-1091472D01*
X-1125732Y688191D01*
X-1081891Y732032D01*
X-1047632Y697772D01*
D02*
G37*
G36*
X923658Y734507D02*
Y722133D01*
X826431Y624906D01*
X814057D01*
X801682Y637280D01*
Y649655D01*
X898910Y746882D01*
X911284D01*
X923658Y734507D01*
D02*
G37*
G36*
X-801683Y649654D02*
Y637280D01*
X-814057Y624906D01*
X-826431D01*
X-923659Y722133D01*
Y734507D01*
X-911284Y746881D01*
X-898910D01*
X-801683Y649654D01*
D02*
G37*
G36*
X959014Y699152D02*
Y686778D01*
X861786Y589551D01*
X849412D01*
X837038Y601925D01*
Y614299D01*
X934265Y711526D01*
X946639D01*
X959014Y699152D01*
D02*
G37*
G36*
X-837038Y614299D02*
Y601925D01*
X-849412Y589551D01*
X-861786D01*
X-959014Y686778D01*
Y699152D01*
X-946639Y711526D01*
X-934265D01*
X-837038Y614299D01*
D02*
G37*
G36*
X994369Y663797D02*
Y651422D01*
X897142Y554195D01*
X884767D01*
X872393Y566570D01*
Y578944D01*
X969620Y676171D01*
X981994D01*
X994369Y663797D01*
D02*
G37*
G36*
X-872393Y578944D02*
Y566570D01*
X-884768Y554195D01*
X-897142D01*
X-994369Y651422D01*
Y663797D01*
X-981995Y676171D01*
X-969620D01*
X-872393Y578944D01*
D02*
G37*
G36*
X-907749Y543589D02*
Y531214D01*
X-920123Y518840D01*
X-932497D01*
X-1029724Y616067D01*
Y628441D01*
X-1017350Y640816D01*
X-1004976D01*
X-907749Y543589D01*
D02*
G37*
G36*
X1029724Y628441D02*
Y616067D01*
X932497Y518840D01*
X920123D01*
X907749Y531214D01*
Y543588D01*
X1004976Y640816D01*
X1017350D01*
X1029724Y628441D01*
D02*
G37*
G36*
X1065080Y593086D02*
Y580712D01*
X967853Y483485D01*
X955478D01*
X943104Y495859D01*
Y508233D01*
X1040331Y605461D01*
X1052705D01*
X1065080Y593086D01*
D02*
G37*
G36*
X-943104Y508233D02*
Y495859D01*
X-955478Y483484D01*
X-967853D01*
X-1065080Y580712D01*
Y593086D01*
X-1052705Y605460D01*
X-1040331D01*
X-943104Y508233D01*
D02*
G37*
G36*
X1100435Y557730D02*
Y545356D01*
X1003208Y448129D01*
X990834D01*
X978459Y460503D01*
Y472878D01*
X1075686Y570105D01*
X1088061D01*
X1100435Y557730D01*
D02*
G37*
G36*
X-978459Y472878D02*
Y460503D01*
X-990833Y448129D01*
X-1003208D01*
X-1100435Y545356D01*
Y557730D01*
X-1088060Y570105D01*
X-1075686D01*
X-978459Y472878D01*
D02*
G37*
G36*
X1135790Y522375D02*
Y510001D01*
X1038563Y412774D01*
X1026188D01*
X1013814Y425148D01*
Y437523D01*
X1111041Y534750D01*
X1123416D01*
X1135790Y522375D01*
D02*
G37*
G36*
X-1013814Y437522D02*
Y425148D01*
X-1026188Y412774D01*
X-1038563D01*
X-1135790Y510001D01*
Y522375D01*
X-1123416Y534750D01*
X-1111041D01*
X-1013814Y437522D01*
D02*
G37*
G36*
X1171145Y487020D02*
Y474645D01*
X1073918Y377418D01*
X1061544D01*
X1049170Y389793D01*
Y402167D01*
X1146397Y499394D01*
X1158771D01*
X1171145Y487020D01*
D02*
G37*
G36*
X-1049170Y402167D02*
Y389793D01*
X-1061544Y377418D01*
X-1073918D01*
X-1171145Y474645D01*
Y487020D01*
X-1158771Y499394D01*
X-1146397D01*
X-1049170Y402167D01*
D02*
G37*
G36*
X1206501Y451665D02*
Y439290D01*
X1109274Y342063D01*
X1096900D01*
X1084525Y354437D01*
Y366812D01*
X1181752Y464039D01*
X1194127D01*
X1206501Y451665D01*
D02*
G37*
G36*
X-1084525Y366812D02*
Y354437D01*
X-1096900Y342063D01*
X-1109274D01*
X-1206501Y439290D01*
Y451665D01*
X-1194127Y464039D01*
X-1181752D01*
X-1084525Y366812D01*
D02*
G37*
G36*
X1241856Y416310D02*
Y403935D01*
X1144629Y306708D01*
X1132255D01*
X1119880Y319082D01*
Y331457D01*
X1217107Y428684D01*
X1229482D01*
X1241856Y416310D01*
D02*
G37*
G36*
X-1119880Y331457D02*
Y319082D01*
X-1132255Y306708D01*
X-1144629D01*
X-1241856Y403935D01*
Y416309D01*
X-1229482Y428684D01*
X-1217108D01*
X-1119880Y331457D01*
D02*
G37*
G36*
X1277212Y380954D02*
Y368580D01*
X1179984Y271353D01*
X1167610D01*
X1155236Y283727D01*
Y296101D01*
X1252463Y393328D01*
X1264837D01*
X1277212Y380954D01*
D02*
G37*
G36*
X-1155236Y296101D02*
Y283727D01*
X-1167610Y271353D01*
X-1179985D01*
X-1277212Y368580D01*
Y380954D01*
X-1264837Y393328D01*
X-1252463D01*
X-1155236Y296101D01*
D02*
G37*
G36*
X1312567Y345599D02*
Y333224D01*
X1215340Y235997D01*
X1202965D01*
X1190591Y248372D01*
Y260746D01*
X1287818Y357973D01*
X1300192D01*
X1312567Y345599D01*
D02*
G37*
G36*
X-1190592Y260746D02*
Y248372D01*
X-1202966Y235997D01*
X-1215340D01*
X-1312568Y333224D01*
Y345599D01*
X-1300193Y357973D01*
X-1287819D01*
X-1190592Y260746D01*
D02*
G37*
G36*
X-1225946Y225390D02*
Y213016D01*
X-1238320Y200642D01*
X-1250695D01*
X-1347922Y297869D01*
Y310243D01*
X-1335547Y322618D01*
X-1323173D01*
X-1225946Y225390D01*
D02*
G37*
G36*
X1347922Y310242D02*
Y297868D01*
X1250695Y200641D01*
X1238320D01*
X1225946Y213015D01*
Y225390D01*
X1323173Y322617D01*
X1335547D01*
X1347922Y310242D01*
D02*
G37*
G36*
X1383278Y274888D02*
Y262514D01*
X1286051Y165286D01*
X1273676D01*
X1261302Y177661D01*
Y190035D01*
X1358529Y287262D01*
X1370903D01*
X1383278Y274888D01*
D02*
G37*
G36*
X-1261302Y190035D02*
Y177661D01*
X-1273676Y165286D01*
X-1286051D01*
X-1383278Y262514D01*
Y274888D01*
X-1370903Y287262D01*
X-1358529D01*
X-1261302Y190035D01*
D02*
G37*
G36*
X1418633Y239533D02*
Y227158D01*
X1321406Y129931D01*
X1309031D01*
X1296657Y142306D01*
Y154680D01*
X1393884Y251907D01*
X1406259D01*
X1418633Y239533D01*
D02*
G37*
G36*
X-1296657Y154680D02*
Y142306D01*
X-1309031Y129931D01*
X-1321406D01*
X-1418633Y227158D01*
Y239533D01*
X-1406259Y251907D01*
X-1393884D01*
X-1296657Y154680D01*
D02*
G37*
G36*
X1453988Y204177D02*
Y191803D01*
X1356761Y94576D01*
X1344387D01*
X1332012Y106950D01*
Y119325D01*
X1429239Y216552D01*
X1441614D01*
X1453988Y204177D01*
D02*
G37*
G36*
X-1332013Y119325D02*
Y106950D01*
X-1344387Y94576D01*
X-1356761D01*
X-1453988Y191803D01*
Y204177D01*
X-1441614Y216552D01*
X-1429240D01*
X-1332013Y119325D01*
D02*
G37*
G36*
X1453988Y-191803D02*
Y-204177D01*
X1441614Y-216551D01*
X1429239D01*
X1332012Y-119324D01*
Y-106950D01*
X1344387Y-94575D01*
X1356761D01*
X1453988Y-191803D01*
D02*
G37*
G36*
X-1332012Y-106950D02*
Y-119324D01*
X-1429239Y-216551D01*
X-1441614D01*
X-1453988Y-204177D01*
Y-191803D01*
X-1356761Y-94575D01*
X-1344387D01*
X-1332012Y-106950D01*
D02*
G37*
G36*
X1418633Y-227158D02*
Y-239533D01*
X1406259Y-251907D01*
X1393884D01*
X1296657Y-154680D01*
Y-142306D01*
X1309031Y-129931D01*
X1321406D01*
X1418633Y-227158D01*
D02*
G37*
G36*
X-1296657Y-142306D02*
Y-154680D01*
X-1393884Y-251907D01*
X-1406259D01*
X-1418633Y-239533D01*
Y-227158D01*
X-1321406Y-129931D01*
X-1309031D01*
X-1296657Y-142306D01*
D02*
G37*
G36*
X1383277Y-262513D02*
Y-274887D01*
X1370903Y-287262D01*
X1358529D01*
X1261302Y-190035D01*
Y-177660D01*
X1273676Y-165286D01*
X1286050D01*
X1383277Y-262513D01*
D02*
G37*
G36*
X-1261302Y-177661D02*
Y-190035D01*
X-1358529Y-287262D01*
X-1370903D01*
X-1383278Y-274888D01*
Y-262514D01*
X-1286051Y-165286D01*
X-1273676D01*
X-1261302Y-177661D01*
D02*
G37*
G36*
X1347922Y-297869D02*
Y-310243D01*
X1335548Y-322617D01*
X1323173D01*
X1225946Y-225390D01*
Y-213016D01*
X1238321Y-200641D01*
X1250695D01*
X1347922Y-297869D01*
D02*
G37*
G36*
X-1225946Y-213016D02*
Y-225390D01*
X-1323173Y-322617D01*
X-1335548D01*
X-1347922Y-310243D01*
Y-297869D01*
X-1250695Y-200641D01*
X-1238321D01*
X-1225946Y-213016D01*
D02*
G37*
G36*
X1312567Y-333224D02*
Y-345598D01*
X1300192Y-357973D01*
X1287818D01*
X1190591Y-260745D01*
Y-248371D01*
X1202965Y-235997D01*
X1215339D01*
X1312567Y-333224D01*
D02*
G37*
G36*
X-1190591Y-248371D02*
Y-260745D01*
X-1287818Y-357973D01*
X-1300193D01*
X-1312567Y-345598D01*
Y-333224D01*
X-1215340Y-235997D01*
X-1202966D01*
X-1190591Y-248371D01*
D02*
G37*
G36*
X1277212Y-368579D02*
Y-380953D01*
X1264837Y-393328D01*
X1252463D01*
X1155236Y-296101D01*
Y-283726D01*
X1167610Y-271352D01*
X1179984D01*
X1277212Y-368579D01*
D02*
G37*
G36*
X-1155236Y-283726D02*
Y-296101D01*
X-1252463Y-393328D01*
X-1264837D01*
X-1277212Y-380953D01*
Y-368579D01*
X-1179984Y-271352D01*
X-1167610D01*
X-1155236Y-283726D01*
D02*
G37*
G36*
X1241856Y-403934D02*
Y-416309D01*
X1229482Y-428683D01*
X1217107D01*
X1119880Y-331456D01*
Y-319082D01*
X1132255Y-306707D01*
X1144629D01*
X1241856Y-403934D01*
D02*
G37*
G36*
X-1119881Y-319082D02*
Y-331456D01*
X-1217108Y-428683D01*
X-1229482D01*
X-1241857Y-416309D01*
Y-403935D01*
X-1144630Y-306708D01*
X-1132255D01*
X-1119881Y-319082D01*
D02*
G37*
G36*
X1206502Y-439290D02*
Y-451664D01*
X1194127Y-464038D01*
X1181753D01*
X1084526Y-366811D01*
Y-354437D01*
X1096900Y-342063D01*
X1109274D01*
X1206502Y-439290D01*
D02*
G37*
G36*
X-1084525Y-354437D02*
Y-366811D01*
X-1181752Y-464038D01*
X-1194127D01*
X-1206501Y-451664D01*
Y-439290D01*
X-1109274Y-342063D01*
X-1096900D01*
X-1084525Y-354437D01*
D02*
G37*
G36*
X1171145Y-474645D02*
Y-487020D01*
X1158771Y-499394D01*
X1146397D01*
X1049170Y-402167D01*
Y-389792D01*
X1061544Y-377418D01*
X1073918D01*
X1171145Y-474645D01*
D02*
G37*
G36*
X-1049170Y-389792D02*
Y-402167D01*
X-1146397Y-499394D01*
X-1158771D01*
X-1171145Y-487020D01*
Y-474645D01*
X-1073918Y-377418D01*
X-1061544D01*
X-1049170Y-389792D01*
D02*
G37*
G36*
X1135790Y-510000D02*
Y-522375D01*
X1123416Y-534749D01*
X1111041D01*
X1013814Y-437522D01*
Y-425147D01*
X1026189Y-412773D01*
X1038563D01*
X1135790Y-510000D01*
D02*
G37*
G36*
X-1013814Y-425148D02*
Y-437522D01*
X-1111041Y-534750D01*
X-1123416D01*
X-1135790Y-522375D01*
Y-510001D01*
X-1038563Y-412774D01*
X-1026188D01*
X-1013814Y-425148D01*
D02*
G37*
G36*
X1100435Y-545356D02*
Y-557731D01*
X1088060Y-570105D01*
X1075686D01*
X978459Y-472878D01*
Y-460504D01*
X990833Y-448129D01*
X1003208D01*
X1100435Y-545356D01*
D02*
G37*
G36*
X-978459Y-460504D02*
Y-472878D01*
X-1075686Y-570105D01*
X-1088060D01*
X-1100435Y-557731D01*
Y-545357D01*
X-1003208Y-448129D01*
X-990833D01*
X-978459Y-460504D01*
D02*
G37*
G36*
X1065079Y-580711D02*
Y-593085D01*
X1052705Y-605460D01*
X1040331D01*
X943104Y-508233D01*
Y-495858D01*
X955478Y-483484D01*
X967852D01*
X1065079Y-580711D01*
D02*
G37*
G36*
X-943104Y-495859D02*
Y-508233D01*
X-1040331Y-605460D01*
X-1052705D01*
X-1065080Y-593086D01*
Y-580712D01*
X-967853Y-483484D01*
X-955478D01*
X-943104Y-495859D01*
D02*
G37*
G36*
X1029724Y-616067D02*
Y-628441D01*
X1017350Y-640815D01*
X1004975D01*
X907748Y-543588D01*
Y-531214D01*
X920123Y-518839D01*
X932497D01*
X1029724Y-616067D01*
D02*
G37*
G36*
X-907748Y-531214D02*
Y-543588D01*
X-1004975Y-640815D01*
X-1017350D01*
X-1029724Y-628441D01*
Y-616067D01*
X-932497Y-518839D01*
X-920123D01*
X-907748Y-531214D01*
D02*
G37*
G36*
X-872393Y-566569D02*
Y-578943D01*
X-969620Y-676171D01*
X-981994D01*
X-994369Y-663796D01*
Y-651422D01*
X-897142Y-554195D01*
X-884767D01*
X-872393Y-566569D01*
D02*
G37*
G36*
X994369Y-651422D02*
Y-663796D01*
X981995Y-676171D01*
X969620D01*
X872393Y-578944D01*
Y-566569D01*
X884768Y-554195D01*
X897142D01*
X994369Y-651422D01*
D02*
G37*
G36*
X959014Y-686777D02*
Y-699152D01*
X946639Y-711526D01*
X934265D01*
X837038Y-614299D01*
Y-601924D01*
X849412Y-589550D01*
X861786D01*
X959014Y-686777D01*
D02*
G37*
G36*
X-837038Y-601924D02*
Y-614299D01*
X-934265Y-711526D01*
X-946639D01*
X-959014Y-699152D01*
Y-686777D01*
X-861786Y-589550D01*
X-849412D01*
X-837038Y-601924D01*
D02*
G37*
G36*
X923658Y-722133D02*
Y-734507D01*
X911284Y-746881D01*
X898909D01*
X801682Y-649654D01*
Y-637280D01*
X814057Y-624906D01*
X826431D01*
X923658Y-722133D01*
D02*
G37*
G36*
X-801682Y-637280D02*
Y-649654D01*
X-898909Y-746881D01*
X-911284D01*
X-923658Y-734507D01*
Y-722133D01*
X-826431Y-624906D01*
X-814057D01*
X-801682Y-637280D01*
D02*
G37*
G36*
X888303Y-757488D02*
Y-769862D01*
X875928Y-782236D01*
X863554D01*
X766327Y-685009D01*
Y-672635D01*
X778701Y-660261D01*
X791076D01*
X888303Y-757488D01*
D02*
G37*
G36*
X-766327Y-672635D02*
Y-685010D01*
X-863554Y-782237D01*
X-875929D01*
X-888303Y-769863D01*
Y-757488D01*
X-791076Y-660261D01*
X-778702D01*
X-766327Y-672635D01*
D02*
G37*
G36*
X852947Y-792843D02*
Y-805217D01*
X840573Y-817592D01*
X828199D01*
X730972Y-720365D01*
Y-707990D01*
X743346Y-695616D01*
X755720D01*
X852947Y-792843D01*
D02*
G37*
G36*
X-730972Y-707990D02*
Y-720365D01*
X-828199Y-817592D01*
X-840573D01*
X-852947Y-805218D01*
Y-792843D01*
X-755720Y-695616D01*
X-743346D01*
X-730972Y-707990D01*
D02*
G37*
G36*
X817592Y-828199D02*
Y-840573D01*
X805218Y-852947D01*
X792843D01*
X695616Y-755720D01*
Y-743346D01*
X707990Y-730972D01*
X720365D01*
X817592Y-828199D01*
D02*
G37*
G36*
X-695616Y-743346D02*
Y-755720D01*
X-792843Y-852947D01*
X-805217D01*
X-817592Y-840573D01*
Y-828199D01*
X-720365Y-730972D01*
X-707990D01*
X-695616Y-743346D01*
D02*
G37*
G36*
X782237Y-863554D02*
Y-875928D01*
X769863Y-888303D01*
X757488D01*
X660261Y-791076D01*
Y-778701D01*
X672635Y-766327D01*
X685010D01*
X782237Y-863554D01*
D02*
G37*
G36*
X-660261Y-778701D02*
Y-791076D01*
X-757488Y-888303D01*
X-769863D01*
X-782237Y-875928D01*
Y-863554D01*
X-685010Y-766327D01*
X-672635D01*
X-660261Y-778701D01*
D02*
G37*
G36*
X746881Y-898909D02*
Y-911284D01*
X734507Y-923658D01*
X722133D01*
X624906Y-826431D01*
Y-814057D01*
X637280Y-801682D01*
X649654D01*
X746881Y-898909D01*
D02*
G37*
G36*
X-624906Y-814057D02*
Y-826431D01*
X-722133Y-923658D01*
X-734507D01*
X-746881Y-911284D01*
Y-898909D01*
X-649654Y-801682D01*
X-637280D01*
X-624906Y-814057D01*
D02*
G37*
G36*
X711526Y-934265D02*
Y-946639D01*
X699152Y-959013D01*
X686777D01*
X589550Y-861786D01*
Y-849412D01*
X601925Y-837037D01*
X614299D01*
X711526Y-934265D01*
D02*
G37*
G36*
X-589550Y-849412D02*
Y-861786D01*
X-686777Y-959014D01*
X-699152D01*
X-711526Y-946639D01*
Y-934265D01*
X-614299Y-837038D01*
X-601924D01*
X-589550Y-849412D01*
D02*
G37*
G36*
X676171Y-969620D02*
Y-981994D01*
X663796Y-994369D01*
X651422D01*
X554195Y-897141D01*
Y-884767D01*
X566569Y-872393D01*
X578944D01*
X676171Y-969620D01*
D02*
G37*
G36*
X-554195Y-884767D02*
Y-897141D01*
X-651422Y-994369D01*
X-663796D01*
X-676171Y-981994D01*
Y-969620D01*
X-578944Y-872393D01*
X-566569D01*
X-554195Y-884767D01*
D02*
G37*
G36*
X640815Y-1004975D02*
Y-1017350D01*
X628441Y-1029724D01*
X616067D01*
X518839Y-932497D01*
Y-920123D01*
X531214Y-907748D01*
X543588D01*
X640815Y-1004975D01*
D02*
G37*
G36*
X-518839Y-920123D02*
Y-932497D01*
X-616067Y-1029724D01*
X-628441D01*
X-640815Y-1017350D01*
Y-1004975D01*
X-543588Y-907748D01*
X-531214D01*
X-518839Y-920123D01*
D02*
G37*
G36*
X605460Y-1040331D02*
Y-1052705D01*
X593085Y-1065079D01*
X580711D01*
X483484Y-967852D01*
Y-955478D01*
X495858Y-943104D01*
X508233D01*
X605460Y-1040331D01*
D02*
G37*
G36*
X-483484Y-955478D02*
Y-967853D01*
X-580712Y-1065080D01*
X-593086D01*
X-605460Y-1052705D01*
Y-1040331D01*
X-508233Y-943104D01*
X-495859D01*
X-483484Y-955478D01*
D02*
G37*
G36*
X570105Y-1075686D02*
Y-1088060D01*
X557731Y-1100435D01*
X545357D01*
X448129Y-1003208D01*
Y-990833D01*
X460504Y-978459D01*
X472878D01*
X570105Y-1075686D01*
D02*
G37*
G36*
X-448129Y-990833D02*
Y-1003208D01*
X-545356Y-1100435D01*
X-557731D01*
X-570105Y-1088060D01*
Y-1075686D01*
X-472878Y-978459D01*
X-460504D01*
X-448129Y-990833D01*
D02*
G37*
G36*
X534750Y-1111041D02*
Y-1123416D01*
X522375Y-1135790D01*
X510001D01*
X412774Y-1038563D01*
Y-1026188D01*
X425148Y-1013814D01*
X437522D01*
X534750Y-1111041D01*
D02*
G37*
G36*
X-412774Y-1026188D02*
Y-1038563D01*
X-510001Y-1135790D01*
X-522375D01*
X-534750Y-1123416D01*
Y-1111041D01*
X-437522Y-1013814D01*
X-425148D01*
X-412774Y-1026188D01*
D02*
G37*
G36*
X499394Y-1146396D02*
Y-1158771D01*
X487020Y-1171145D01*
X474645D01*
X377418Y-1073918D01*
Y-1061544D01*
X389793Y-1049169D01*
X402167D01*
X499394Y-1146396D01*
D02*
G37*
G36*
X-377418Y-1061544D02*
Y-1073918D01*
X-474645Y-1171145D01*
X-487020D01*
X-499394Y-1158771D01*
Y-1146396D01*
X-402167Y-1049169D01*
X-389793D01*
X-377418Y-1061544D01*
D02*
G37*
G36*
X464039Y-1181752D02*
Y-1194126D01*
X451664Y-1206501D01*
X439290D01*
X342063Y-1109274D01*
Y-1096899D01*
X354437Y-1084525D01*
X366812D01*
X464039Y-1181752D01*
D02*
G37*
G36*
X-342063Y-1096899D02*
Y-1109274D01*
X-439290Y-1206501D01*
X-451664D01*
X-464039Y-1194126D01*
Y-1181752D01*
X-366812Y-1084525D01*
X-354437D01*
X-342063Y-1096899D01*
D02*
G37*
G36*
X428683Y-1217107D02*
Y-1229482D01*
X416309Y-1241856D01*
X403935D01*
X306708Y-1144629D01*
Y-1132255D01*
X319082Y-1119880D01*
X331456D01*
X428683Y-1217107D01*
D02*
G37*
G36*
X-306708Y-1132255D02*
Y-1144629D01*
X-403935Y-1241856D01*
X-416309D01*
X-428683Y-1229482D01*
Y-1217107D01*
X-331456Y-1119880D01*
X-319082D01*
X-306708Y-1132255D01*
D02*
G37*
G36*
X393328Y-1252463D02*
Y-1264837D01*
X380953Y-1277212D01*
X368579D01*
X271352Y-1179984D01*
Y-1167610D01*
X283726Y-1155236D01*
X296101D01*
X393328Y-1252463D01*
D02*
G37*
G36*
X-271352Y-1167610D02*
Y-1179984D01*
X-368579Y-1277212D01*
X-380953D01*
X-393328Y-1264837D01*
Y-1252463D01*
X-296101Y-1155236D01*
X-283726D01*
X-271352Y-1167610D01*
D02*
G37*
G36*
X-235997Y-1202965D02*
Y-1215339D01*
X-333224Y-1312567D01*
X-345598D01*
X-357973Y-1300192D01*
Y-1287818D01*
X-260745Y-1190591D01*
X-248371D01*
X-235997Y-1202965D01*
D02*
G37*
G36*
X357973Y-1287818D02*
Y-1300193D01*
X345598Y-1312567D01*
X333224D01*
X235997Y-1215340D01*
Y-1202966D01*
X248371Y-1190591D01*
X260745D01*
X357973Y-1287818D01*
D02*
G37*
G36*
X322617Y-1323173D02*
Y-1335548D01*
X310243Y-1347922D01*
X297869D01*
X200641Y-1250695D01*
Y-1238321D01*
X213016Y-1225946D01*
X225390D01*
X322617Y-1323173D01*
D02*
G37*
G36*
X-200641Y-1238321D02*
Y-1250695D01*
X-297869Y-1347922D01*
X-310243D01*
X-322617Y-1335548D01*
Y-1323173D01*
X-225390Y-1225946D01*
X-213016D01*
X-200641Y-1238321D01*
D02*
G37*
G36*
X-165286Y-1273676D02*
Y-1286050D01*
X-262513Y-1383277D01*
X-274887D01*
X-287262Y-1370903D01*
Y-1358529D01*
X-190035Y-1261302D01*
X-177660D01*
X-165286Y-1273676D01*
D02*
G37*
G36*
X287262Y-1358529D02*
Y-1370903D01*
X274888Y-1383278D01*
X262514D01*
X165286Y-1286051D01*
Y-1273676D01*
X177661Y-1261302D01*
X190035D01*
X287262Y-1358529D01*
D02*
G37*
G36*
X251907Y-1393884D02*
Y-1406258D01*
X239532Y-1418633D01*
X227158D01*
X129931Y-1321406D01*
Y-1309031D01*
X142305Y-1296657D01*
X154680D01*
X251907Y-1393884D01*
D02*
G37*
G36*
X-129931Y-1309031D02*
Y-1321406D01*
X-227158Y-1418633D01*
X-239532D01*
X-251907Y-1406258D01*
Y-1393884D01*
X-154680Y-1296657D01*
X-142305D01*
X-129931Y-1309031D01*
D02*
G37*
G36*
X216551Y-1429239D02*
Y-1441614D01*
X204177Y-1453988D01*
X191803D01*
X94575Y-1356761D01*
Y-1344387D01*
X106950Y-1332012D01*
X119324D01*
X216551Y-1429239D01*
D02*
G37*
G36*
X-94575Y-1344387D02*
Y-1356761D01*
X-191803Y-1453988D01*
X-204177D01*
X-216551Y-1441614D01*
Y-1429239D01*
X-119324Y-1332012D01*
X-106950D01*
X-94575Y-1344387D01*
D02*
G37*
G36*
X-521500Y-1906740D02*
Y-1986800D01*
X-621500D01*
Y-1906740D01*
X-606560Y-1891800D01*
X-536440D01*
X-521500Y-1906740D01*
D02*
G37*
G36*
X-521500Y-2131860D02*
X-536440Y-2146800D01*
X-606560D01*
X-621500Y-2131860D01*
Y-2051800D01*
X-521500D01*
X-521500Y-2131860D01*
D02*
G37*
D11*
X850900Y-1866900D02*
D03*
X1257900D02*
D03*
X850900Y-1993900D02*
D03*
X1257900D02*
D03*
X850900Y-2120900D02*
D03*
X1257900D02*
D03*
X850900Y-2247900D02*
D03*
X1257900D02*
D03*
X850900Y-2374900D02*
D03*
X1257900D02*
D03*
D14*
X-1562100Y901700D02*
D03*
X-1279257Y1184543D02*
D03*
D24*
X-1645200Y-2330400D02*
D03*
Y-1930400D02*
D03*
X-965200Y-2330400D02*
D03*
Y-1930400D02*
D03*
%TF.MD5,74e2b9df0e20c18adf0770f11a024e7f*%
M02*
