%TF.GenerationSoftware,Altium Limited,Altium Designer,23.0.1 (38)*%
G04 Layer_Color=32896*
%FSLAX45Y45*%
%MOMM*%
%TF.SameCoordinates,98E3409A-FA71-4B7D-AABF-4CEB4AF68500*%
%TF.FilePolarity,Positive*%
%TF.FileFunction,Legend,Bot*%
%TF.Part,Single*%
G01*
G75*
%TA.AperFunction,NonConductor*%
%ADD44C,0.20000*%
%ADD47C,0.50000*%
%ADD48C,0.25400*%
D44*
X-2921000Y-1625600D02*
Y-1270000D01*
Y-1625600D02*
X-2717800D01*
X-2362200D02*
X-2159000D01*
Y-1270000D01*
X-2921000Y1168400D02*
Y1524000D01*
X-2717800D01*
X-2362200D02*
X-2159000D01*
Y1168400D02*
Y1524000D01*
X2159000Y-1625600D02*
Y-1270000D01*
Y-1625600D02*
X2362200D01*
X2717800D02*
X2921000D01*
Y-1270000D01*
X2159000Y1168400D02*
Y1524000D01*
X2362200D01*
X2717800D02*
X2921000D01*
Y1168400D02*
Y1524000D01*
D47*
X-2824800Y1625600D02*
G03*
X-2824800Y1625600I-20000J0D01*
G01*
X2255200D02*
G03*
X2255200Y1625600I-20000J0D01*
G01*
D48*
X2760922Y-1846597D02*
X2786314Y-1821205D01*
X2837098D01*
X2862490Y-1846597D01*
Y-1948163D01*
X2837098Y-1973555D01*
X2786314D01*
X2760922Y-1948163D01*
X2608572Y-1821205D02*
X2710139D01*
Y-1973555D01*
X2608572D01*
X2710139Y-1897380D02*
X2659355D01*
X2456221Y-1846597D02*
X2481613Y-1821205D01*
X2532396D01*
X2557788Y-1846597D01*
Y-1948163D01*
X2532396Y-1973555D01*
X2481613D01*
X2456221Y-1948163D01*
X2303870Y-1973555D02*
X2405437D01*
X2303870Y-1871988D01*
Y-1846597D01*
X2329262Y-1821205D01*
X2380046D01*
X2405437Y-1846597D01*
X-2400350Y1879583D02*
X-2374958Y1904975D01*
X-2324174D01*
X-2298782Y1879583D01*
Y1778017D01*
X-2324174Y1752625D01*
X-2374958D01*
X-2400350Y1778017D01*
X-2552700Y1904975D02*
X-2451133D01*
Y1752625D01*
X-2552700D01*
X-2451133Y1828800D02*
X-2501917D01*
X-2705051Y1879583D02*
X-2679659Y1904975D01*
X-2628876D01*
X-2603484Y1879583D01*
Y1778017D01*
X-2628876Y1752625D01*
X-2679659D01*
X-2705051Y1778017D01*
X-2755834Y1752625D02*
X-2806618D01*
X-2781226D01*
Y1904975D01*
X-2755834Y1879583D01*
%TF.MD5,42d36cd63e7e3a80ac3019da0df32dde*%
M02*
