%TF.GenerationSoftware,Altium Limited,Altium Designer,23.0.1 (38)*%
G04 Layer_Color=128*
%FSLAX45Y45*%
%MOMM*%
%TF.SameCoordinates,98E3409A-FA71-4B7D-AABF-4CEB4AF68500*%
%TF.FilePolarity,Positive*%
%TF.FileFunction,Drillmap*%
%TF.Part,Single*%
G01*
G75*
%TA.AperFunction,NonConductor*%
%ADD60C,0.12700*%
D60*
X2325000Y1900000D02*
X2675000D01*
X2500000Y1725000D02*
Y2075000D01*
X-2675000Y-2100000D02*
X-2325000D01*
X-2500000Y-2275000D02*
Y-1925000D01*
X-2595000Y1270000D02*
X-2485000D01*
X-2540000Y1215000D02*
Y1325000D01*
X-2595000Y-1370000D02*
X-2485000D01*
X-2540000Y-1425000D02*
Y-1315000D01*
X2485000Y1270000D02*
X2595000D01*
X2540000Y1215000D02*
Y1325000D01*
X2485000Y-1370000D02*
X2595000D01*
X2540000Y-1425000D02*
Y-1315000D01*
X-101600Y-1236980D02*
X-71120D01*
X-86360Y-1252220D02*
Y-1221740D01*
X-3111987Y-684804D02*
X-3081507D01*
X-3096747Y-700044D02*
Y-669564D01*
X-3131820Y-71120D02*
X-3101340D01*
X-3116580Y-86360D02*
Y-55880D01*
X-3144520Y568960D02*
X-3114040D01*
X-3129280Y553720D02*
Y584200D01*
X-3126740Y307340D02*
X-3096260D01*
X-3111500Y292100D02*
Y322580D01*
X-3019696Y334970D02*
X-2989216D01*
X-3004456Y319730D02*
Y350210D01*
X-3051289Y416305D02*
X-3020809D01*
X-3036049Y401065D02*
Y431545D01*
X-3056319Y502518D02*
X-3025839D01*
X-3041079Y487278D02*
Y517758D01*
X-3050540Y607060D02*
X-3020060D01*
X-3035300Y591820D02*
Y622300D01*
X2994179Y-551701D02*
X3024659D01*
X3009419Y-566941D02*
Y-536461D01*
X1497286Y-248940D02*
X1527766D01*
X1512526Y-264180D02*
Y-233700D01*
X3111500Y231140D02*
X3141980D01*
X3126740Y215900D02*
Y246380D01*
X1127760Y2207260D02*
X1158240D01*
X1143000Y2192020D02*
Y2222500D01*
X1109980Y1734820D02*
X1140460D01*
X1125220Y1719580D02*
Y1750060D01*
X1366520Y1488440D02*
X1397000D01*
X1381760Y1473200D02*
Y1503680D01*
X3070860Y-399141D02*
X3101340D01*
X3086100Y-414381D02*
Y-383901D01*
X3070524Y-490629D02*
X3101004D01*
X3085764Y-505869D02*
Y-475389D01*
X3070860Y-312781D02*
X3101340D01*
X3086100Y-328021D02*
Y-297541D01*
X2651760Y-322580D02*
X2682240D01*
X2667000Y-337820D02*
Y-307340D01*
X3045460Y-622300D02*
X3075940D01*
X3060700Y-637540D02*
Y-607060D01*
X3045925Y-881380D02*
X3076405D01*
X3061165Y-896620D02*
Y-866140D01*
X-640458Y-1120117D02*
X-609978D01*
X-625218Y-1135357D02*
Y-1104877D01*
X-636376Y-1417621D02*
X-605896D01*
X-621136Y-1432861D02*
Y-1402381D01*
X148780Y-1642300D02*
X179260D01*
X164020Y-1657540D02*
Y-1627060D01*
X866643Y-1004943D02*
X897123D01*
X881883Y-1020183D02*
Y-989703D01*
X2575560Y558800D02*
X2606040D01*
X2590800Y543560D02*
Y574040D01*
X2311400Y1584960D02*
X2341880D01*
X2326640Y1569720D02*
Y1600200D01*
X2689860Y1587500D02*
X2720340D01*
X2705100Y1572260D02*
Y1602740D01*
X2697480Y1275080D02*
X2727960D01*
X2712720Y1259840D02*
Y1290320D01*
X2339340Y1280160D02*
X2369820D01*
X2354580Y1264920D02*
Y1295400D01*
X-975360Y-353060D02*
X-944880D01*
X-960120Y-368300D02*
Y-337820D01*
X1779358Y1026207D02*
X1809838D01*
X1794598Y1010967D02*
Y1041447D01*
X726408Y1229609D02*
X756888D01*
X741648Y1214369D02*
Y1244849D01*
X827521Y1183640D02*
X858001D01*
X842761Y1168400D02*
Y1198880D01*
X1905793Y1024831D02*
X1936273D01*
X1921033Y1009591D02*
Y1040071D01*
X1093453Y-883660D02*
X1123933D01*
X1108693Y-898900D02*
Y-868420D01*
X1013436Y-1018627D02*
X1043916D01*
X1028676Y-1033867D02*
Y-1003387D01*
X-1820405Y572765D02*
X-1789925D01*
X-1805165Y557525D02*
Y588005D01*
X2994660Y1054100D02*
X3025140D01*
X3009900Y1038860D02*
Y1069340D01*
X3121660Y901700D02*
X3152140D01*
X3136900Y886460D02*
Y916940D01*
X-1577340Y1371600D02*
X-1546860D01*
X-1562100Y1356360D02*
Y1386840D01*
X-1463040Y1485900D02*
X-1432560D01*
X-1447800Y1470660D02*
Y1501140D01*
X-802640Y1384300D02*
X-772160D01*
X-787400Y1369060D02*
Y1399540D01*
X-955040Y1397000D02*
X-924560D01*
X-939800Y1381760D02*
Y1412240D01*
X-904240Y1524000D02*
X-873760D01*
X-889000Y1508760D02*
Y1539240D01*
X-2555240Y-1129600D02*
X-2524760D01*
X-2540000Y-1144840D02*
Y-1114360D01*
X-2555240Y-1054100D02*
X-2524760D01*
X-2540000Y-1069340D02*
Y-1038860D01*
X2537460Y990600D02*
X2567940D01*
X2552700Y975360D02*
Y1005840D01*
X2537460Y1061720D02*
X2567940D01*
X2552700Y1046480D02*
Y1076960D01*
X2524760Y-1168400D02*
X2555240D01*
X2540000Y-1183640D02*
Y-1153160D01*
X2524760Y-1079500D02*
X2555240D01*
X2540000Y-1094740D02*
Y-1064260D01*
X-2719135Y979107D02*
X-2688655D01*
X-2703895Y963867D02*
Y994347D01*
X-2723337Y1107984D02*
X-2692857D01*
X-2708097Y1092744D02*
Y1123224D01*
X-2660100Y1043687D02*
X-2629620D01*
X-2644860Y1028447D02*
Y1058927D01*
X-2591701Y1112085D02*
X-2561221D01*
X-2576461Y1096845D02*
Y1127325D01*
X1161326Y-164635D02*
X1191806D01*
X1176566Y-179875D02*
Y-149395D01*
X2397760Y-749300D02*
X2428240D01*
X2413000Y-764540D02*
Y-734060D01*
X2651760Y-749300D02*
X2682240D01*
X2667000Y-764540D02*
Y-734060D01*
X2524760Y-749300D02*
X2555240D01*
X2540000Y-764540D02*
Y-734060D01*
X-2237740Y1854200D02*
X-2207260D01*
X-2222500Y1838960D02*
Y1869440D01*
X-2021840Y2133600D02*
X-1991360D01*
X-2006600Y2118360D02*
Y2148840D01*
X-1005840Y2209800D02*
X-975360D01*
X-990600Y2194560D02*
Y2225040D01*
X-167640Y2209800D02*
X-137160D01*
X-152400Y2194560D02*
Y2225040D01*
X734060Y2209800D02*
X764540D01*
X749300Y2194560D02*
Y2225040D01*
X1508760Y2159000D02*
X1539240D01*
X1524000Y2143760D02*
Y2174240D01*
X1521460Y1346200D02*
X1551940D01*
X1536700Y1330960D02*
Y1361440D01*
X772160Y1752600D02*
X802640D01*
X787400Y1737360D02*
Y1767840D01*
X-3304540Y1231900D02*
X-3274060D01*
X-3289300Y1216660D02*
Y1247140D01*
X-3304540Y1816100D02*
X-3274060D01*
X-3289300Y1800860D02*
Y1831340D01*
X-3393440Y838200D02*
X-3362960D01*
X-3378200Y822960D02*
Y853440D01*
X-3393440Y-12700D02*
X-3362960D01*
X-3378200Y-27940D02*
Y2540D01*
X-3393440Y-1066800D02*
X-3362960D01*
X-3378200Y-1082040D02*
Y-1051560D01*
X-3304540Y-1841500D02*
X-3274060D01*
X-3289300Y-1856740D02*
Y-1826260D01*
X3032760Y1524000D02*
X3063240D01*
X3048000Y1508760D02*
Y1539240D01*
X3286760Y1016000D02*
X3317240D01*
X3302000Y1000760D02*
Y1031240D01*
X3286760Y0D02*
X3317240D01*
X3302000Y-15240D02*
Y15240D01*
X3286760Y-1016000D02*
X3317240D01*
X3302000Y-1031240D02*
Y-1000760D01*
X3286760Y-2032000D02*
X3317240D01*
X3302000Y-2047240D02*
Y-2016760D01*
X2778760Y2032000D02*
X2809240D01*
X2794000Y2016760D02*
Y2047240D01*
X2016760Y1524000D02*
X2047240D01*
X2032000Y1508760D02*
Y1539240D01*
X2270760Y-2032000D02*
X2301240D01*
X2286000Y-2047240D02*
Y-2016760D01*
X2016760Y-2540000D02*
X2047240D01*
X2032000Y-2555240D02*
Y-2524760D01*
X1762760Y2032000D02*
X1793240D01*
X1778000Y2016760D02*
Y2047240D01*
X1508760Y-2540000D02*
X1539240D01*
X1524000Y-2555240D02*
Y-2524760D01*
X1000760Y-2540000D02*
X1031240D01*
X1016000Y-2555240D02*
Y-2524760D01*
X492760Y-2540000D02*
X523240D01*
X508000Y-2555240D02*
Y-2524760D01*
X-15240Y508000D02*
X15240D01*
X0Y492760D02*
Y523240D01*
X238760Y0D02*
X269240D01*
X254000Y-15240D02*
Y15240D01*
X-15240Y-508000D02*
X15240D01*
X0Y-523240D02*
Y-492760D01*
X238760Y-2032000D02*
X269240D01*
X254000Y-2047240D02*
Y-2016760D01*
X-15240Y-2540000D02*
X15240D01*
X0Y-2555240D02*
Y-2524760D01*
X-269240Y0D02*
X-238760D01*
X-254000Y-15240D02*
Y15240D01*
X-523240Y-2540000D02*
X-492760D01*
X-508000Y-2555240D02*
Y-2524760D01*
X-1031240Y1524000D02*
X-1000760D01*
X-1016000Y1508760D02*
Y1539240D01*
X-1031240Y-2540000D02*
X-1000760D01*
X-1016000Y-2555240D02*
Y-2524760D01*
X-1539240Y-2540000D02*
X-1508760D01*
X-1524000Y-2555240D02*
Y-2524760D01*
X-1793240Y2032000D02*
X-1762760D01*
X-1778000Y2016760D02*
Y2047240D01*
X-2047240Y-2540000D02*
X-2016760D01*
X-2032000Y-2555240D02*
Y-2524760D01*
X-2301240Y2032000D02*
X-2270760D01*
X-2286000Y2016760D02*
Y2047240D01*
X-2555240Y-2540000D02*
X-2524760D01*
X-2540000Y-2555240D02*
Y-2524760D01*
X-2809240Y2032000D02*
X-2778760D01*
X-2794000Y2016760D02*
Y2047240D01*
X-3063240Y1524000D02*
X-3032760D01*
X-3048000Y1508760D02*
Y1539240D01*
X-2352040Y1600200D02*
X-2321560D01*
X-2336800Y1584960D02*
Y1615440D01*
X-2453640Y1600200D02*
X-2423160D01*
X-2438400Y1584960D02*
Y1615440D01*
X-2555240Y1600200D02*
X-2524760D01*
X-2540000Y1584960D02*
Y1615440D01*
X-2656840Y1600200D02*
X-2626360D01*
X-2641600Y1584960D02*
Y1615440D01*
X-2758440Y1600200D02*
X-2727960D01*
X-2743200Y1584960D02*
Y1615440D01*
X-2326640Y1435100D02*
X-2296160D01*
X-2311400Y1419860D02*
Y1450340D01*
X-2796540Y1371600D02*
X-2766060D01*
X-2781300Y1356360D02*
Y1386840D01*
X-2796540Y1460500D02*
X-2766060D01*
X-2781300Y1445260D02*
Y1475740D01*
X-1577340Y-1409700D02*
X-1546860D01*
X-1562100Y-1424940D02*
Y-1394460D01*
X-1780540Y-1231900D02*
X-1750060D01*
X-1765300Y-1247140D02*
Y-1216660D01*
X1750060Y-1993900D02*
X1780540D01*
X1765300Y-2009140D02*
Y-1978660D01*
X1496060Y-1981200D02*
X1526540D01*
X1511300Y-1996440D02*
Y-1965960D01*
X1737360Y-2247900D02*
X1767840D01*
X1752600Y-2263140D02*
Y-2232660D01*
X1483360Y-2247900D02*
X1513840D01*
X1498600Y-2263140D02*
Y-2232660D01*
X607060Y-2374900D02*
X637540D01*
X622300Y-2390140D02*
Y-2359660D01*
X607060Y-2489200D02*
X637540D01*
X622300Y-2504440D02*
Y-2473960D01*
X-701040Y-2336800D02*
X-670560D01*
X-685800Y-2352040D02*
Y-2321560D01*
X-878840Y-2451100D02*
X-848360D01*
X-863600Y-2466340D02*
Y-2435860D01*
X-891540Y-2209800D02*
X-861060D01*
X-876300Y-2225040D02*
Y-2194560D01*
X-1932940Y-2324100D02*
X-1902460D01*
X-1917700Y-2339340D02*
Y-2308860D01*
X-1755140Y-2451100D02*
X-1724660D01*
X-1739900Y-2466340D02*
Y-2435860D01*
X-1755140Y-2209800D02*
X-1724660D01*
X-1739900Y-2225040D02*
Y-2194560D01*
X-2783840Y-1485900D02*
X-2753360D01*
X-2768600Y-1501140D02*
Y-1470660D01*
X-2783840Y-1574800D02*
X-2753360D01*
X-2768600Y-1590040D02*
Y-1559560D01*
X-2313940Y-1485900D02*
X-2283460D01*
X-2298700Y-1501140D02*
Y-1470660D01*
X-2313940Y-1574800D02*
X-2283460D01*
X-2298700Y-1590040D02*
Y-1559560D01*
X-2415540Y-1701800D02*
X-2385060D01*
X-2400300Y-1717040D02*
Y-1686560D01*
X-2504440Y-1701800D02*
X-2473960D01*
X-2489200Y-1717040D02*
Y-1686560D01*
X-2593340Y-1701800D02*
X-2562860D01*
X-2578100Y-1717040D02*
Y-1686560D01*
X-2682240Y-1701800D02*
X-2651760D01*
X-2667000Y-1717040D02*
Y-1686560D01*
X-2669540Y-889000D02*
X-2639060D01*
X-2654300Y-904240D02*
Y-873760D01*
X-2453640Y-889000D02*
X-2423160D01*
X-2438400Y-904240D02*
Y-873760D01*
X-2453640Y-736600D02*
X-2423160D01*
X-2438400Y-751840D02*
Y-721360D01*
X-2682240Y-736600D02*
X-2651760D01*
X-2667000Y-751840D02*
Y-721360D01*
X-3012440Y-101600D02*
X-2981960D01*
X-2997200Y-116840D02*
Y-86360D01*
X-2009140Y-177800D02*
X-1978660D01*
X-1993900Y-193040D02*
Y-162560D01*
X-2085340Y-101600D02*
X-2054860D01*
X-2070100Y-116840D02*
Y-86360D01*
X-2415540Y-139700D02*
X-2385060D01*
X-2400300Y-154940D02*
Y-124460D01*
X-2529840Y-139700D02*
X-2499360D01*
X-2514600Y-154940D02*
Y-124460D01*
X-2618740Y-139700D02*
X-2588260D01*
X-2603500Y-154940D02*
Y-124460D01*
X-2707640Y-139700D02*
X-2677160D01*
X-2692400Y-154940D02*
Y-124460D01*
X2283460Y1384300D02*
X2313940D01*
X2298700Y1369060D02*
Y1399540D01*
X2283460Y1473200D02*
X2313940D01*
X2298700Y1457960D02*
Y1488440D01*
X2753360Y1384300D02*
X2783840D01*
X2768600Y1369060D02*
Y1399540D01*
X2753360Y1473200D02*
X2783840D01*
X2768600Y1457960D02*
Y1488440D01*
X48260Y1727200D02*
X78740D01*
X63500Y1711960D02*
Y1742440D01*
X187960Y1714500D02*
X218440D01*
X203200Y1699260D02*
Y1729740D01*
X175260Y1549400D02*
X205740D01*
X190500Y1534160D02*
Y1564640D01*
X2296160Y-1498600D02*
X2326640D01*
X2311400Y-1513840D02*
Y-1483360D01*
X2296160Y-1574800D02*
X2326640D01*
X2311400Y-1590040D02*
Y-1559560D01*
X2766060Y-1498600D02*
X2796540D01*
X2781300Y-1513840D02*
Y-1483360D01*
X2766060Y-1574800D02*
X2796540D01*
X2781300Y-1590040D02*
Y-1559560D01*
X2664460Y-1701800D02*
X2694940D01*
X2679700Y-1717040D02*
Y-1686560D01*
X2575560Y-1701800D02*
X2606040D01*
X2590800Y-1717040D02*
Y-1686560D01*
X2473960Y-1701800D02*
X2504440D01*
X2489200Y-1717040D02*
Y-1686560D01*
X2385060Y-1701800D02*
X2415540D01*
X2400300Y-1717040D02*
Y-1686560D01*
X3134360Y-114300D02*
X3164840D01*
X3149600Y-129540D02*
Y-99060D01*
X2981960Y-88900D02*
X3012440D01*
X2997200Y-104140D02*
Y-73660D01*
X2639060Y-76200D02*
X2669540D01*
X2654300Y-91440D02*
Y-60960D01*
X2550160Y-76200D02*
X2580640D01*
X2565400Y-91440D02*
Y-60960D01*
X2461260Y-76200D02*
X2491740D01*
X2476500Y-91440D02*
Y-60960D01*
X2372360Y-76200D02*
X2402840D01*
X2387600Y-91440D02*
Y-60960D01*
X2080260Y-88900D02*
X2110740D01*
X2095500Y-104140D02*
Y-73660D01*
X1508760Y127000D02*
X1539240D01*
X1524000Y111760D02*
Y142240D01*
X1737360Y76200D02*
X1767840D01*
X1752600Y60960D02*
Y91440D01*
X-15240Y-1765300D02*
X15240D01*
X0Y-1780540D02*
Y-1750060D01*
X-78740Y-1854200D02*
X-48260D01*
X-63500Y-1869440D02*
Y-1838960D01*
X-256540Y-1841500D02*
X-226060D01*
X-241300Y-1856740D02*
Y-1826260D01*
X124460Y457200D02*
X154940D01*
X139700Y441960D02*
Y472440D01*
X10160Y355600D02*
X40640D01*
X25400Y340360D02*
Y370840D01*
X-180340Y165100D02*
X-149860D01*
X-165100Y149860D02*
Y180340D01*
X-434340Y-25400D02*
X-403860D01*
X-419100Y-40640D02*
Y-10160D01*
X-218440Y-215900D02*
X-187960D01*
X-203200Y-231140D02*
Y-200660D01*
X-15240Y-38100D02*
X15240D01*
X0Y-53340D02*
Y-22860D01*
X175260Y114300D02*
X205740D01*
X190500Y99060D02*
Y129540D01*
X314960Y266700D02*
X345440D01*
X330200Y251460D02*
Y281940D01*
X518160Y63500D02*
X548640D01*
X533400Y48260D02*
Y78740D01*
X353060Y-76200D02*
X383540D01*
X368300Y-91440D02*
Y-60960D01*
X149860Y-279400D02*
X180340D01*
X165100Y-294640D02*
Y-264160D01*
X-27940Y-406400D02*
X2540D01*
X-12700Y-421640D02*
Y-391160D01*
X60960Y-571500D02*
X91440D01*
X76200Y-586740D02*
Y-556260D01*
X429260Y-381000D02*
X459740D01*
X444500Y-396240D02*
Y-365760D01*
X340360Y-457200D02*
X370840D01*
X355600Y-472440D02*
Y-441960D01*
X556260Y-381000D02*
X586740D01*
X571500Y-396240D02*
Y-365760D01*
X492760Y-292100D02*
X523240D01*
X508000Y-307340D02*
Y-276860D01*
X581660Y-203200D02*
X612140D01*
X596900Y-218440D02*
Y-187960D01*
X657860Y-139700D02*
X688340D01*
X673100Y-154940D02*
Y-124460D01*
X734060Y-203200D02*
X764540D01*
X749300Y-218440D02*
Y-187960D01*
X873760Y-63500D02*
X904240D01*
X889000Y-78740D02*
Y-48260D01*
X797560Y12700D02*
X828040D01*
X812800Y-2540D02*
Y27940D01*
X873760Y101600D02*
X904240D01*
X889000Y86360D02*
Y116840D01*
X746760Y215900D02*
X777240D01*
X762000Y200660D02*
Y231140D01*
X657860Y139700D02*
X688340D01*
X673100Y124460D02*
Y154940D01*
X556260Y215900D02*
X586740D01*
X571500Y200660D02*
Y231140D01*
X480060Y304800D02*
X510540D01*
X495300Y289560D02*
Y320040D01*
X556260Y381000D02*
X586740D01*
X571500Y365760D02*
Y396240D01*
X454660Y482600D02*
X485140D01*
X469900Y467360D02*
Y497840D01*
X391160Y406400D02*
X421640D01*
X406400Y391160D02*
Y421640D01*
X302260Y482600D02*
X332740D01*
X317500Y467360D02*
Y497840D01*
X226060Y558800D02*
X256540D01*
X241300Y543560D02*
Y574040D01*
X137160Y635000D02*
X167640D01*
X152400Y619760D02*
Y650240D01*
X73660Y698500D02*
X104140D01*
X88900Y683260D02*
Y713740D01*
X137160Y800100D02*
X167640D01*
X152400Y784860D02*
Y815340D01*
X22860Y850900D02*
X53340D01*
X38100Y835660D02*
Y866140D01*
X-142240Y774700D02*
X-111760D01*
X-127000Y759460D02*
Y789940D01*
X-180340Y647700D02*
X-149860D01*
X-165100Y632460D02*
Y662940D01*
X-243840Y546100D02*
X-213360D01*
X-228600Y530860D02*
Y561340D01*
X-269240Y457200D02*
X-238760D01*
X-254000Y441960D02*
Y472440D01*
X-345440Y368300D02*
X-314960D01*
X-330200Y353060D02*
Y383540D01*
X-510540Y279400D02*
X-480060D01*
X-495300Y264160D02*
Y294640D01*
X-586740Y203200D02*
X-556260D01*
X-571500Y187960D02*
Y218440D01*
X-650240Y139700D02*
X-619760D01*
X-635000Y124460D02*
Y154940D01*
X-726440Y63500D02*
X-695960D01*
X-711200Y48260D02*
Y78740D01*
X-789940Y0D02*
X-759460D01*
X-774700Y-15240D02*
Y15240D01*
X-866140Y-63500D02*
X-835660D01*
X-850900Y-78740D02*
Y-48260D01*
X-942340Y-127000D02*
X-911860D01*
X-927100Y-142240D02*
Y-111760D01*
X-1628140Y0D02*
X-1597660D01*
X-1612900Y-15240D02*
Y15240D01*
X-1678940Y-88900D02*
X-1648460D01*
X-1663700Y-104140D02*
Y-73660D01*
X-1640840Y-165100D02*
X-1610360D01*
X-1625600Y-180340D02*
Y-149860D01*
X-1460248Y-296651D02*
X-1429768D01*
X-1445008Y-311891D02*
Y-281411D01*
X-1005840Y-190500D02*
X-975360D01*
X-990600Y-205740D02*
Y-175260D01*
X-739140Y-203200D02*
X-708660D01*
X-723900Y-218440D02*
Y-187960D01*
X-650240Y-127000D02*
X-619760D01*
X-635000Y-142240D02*
Y-111760D01*
X-574040Y-190500D02*
X-543560D01*
X-558800Y-205740D02*
Y-175260D01*
X-497840Y-254000D02*
X-467360D01*
X-482600Y-269240D02*
Y-238760D01*
X-408940Y-317500D02*
X-378460D01*
X-393700Y-332740D02*
Y-302260D01*
X-332740Y-393700D02*
X-302260D01*
X-317500Y-408940D02*
Y-378460D01*
X-294640Y-482600D02*
X-264160D01*
X-279400Y-497840D02*
Y-467360D01*
X-370840Y-558800D02*
X-340360D01*
X-355600Y-574040D02*
Y-543560D01*
X-281940Y-685800D02*
X-251460D01*
X-266700Y-701040D02*
Y-670560D01*
X-116840Y-698500D02*
X-86360D01*
X-101600Y-713740D02*
Y-683260D01*
X-904240Y-469900D02*
X-873760D01*
X-889000Y-485140D02*
Y-454660D01*
X-612140Y-762000D02*
X-581660D01*
X-596900Y-777240D02*
Y-746760D01*
X-523240Y-850900D02*
X-492760D01*
X-508000Y-866140D02*
Y-835660D01*
X175260Y-609600D02*
X205740D01*
X190500Y-624840D02*
Y-594360D01*
X22860Y-977900D02*
X53340D01*
X38100Y-993140D02*
Y-962660D01*
X187960Y-1117600D02*
X218440D01*
X203200Y-1132840D02*
Y-1102360D01*
X276860Y-1016000D02*
X307340D01*
X292100Y-1031240D02*
Y-1000760D01*
X717871Y-623271D02*
X748351D01*
X733111Y-638511D02*
Y-608031D01*
X1242060Y-76200D02*
X1272540D01*
X1257300Y-91440D02*
Y-60960D01*
X942357Y401307D02*
X972837D01*
X957597Y386067D02*
Y416547D01*
X577823Y760617D02*
X608303D01*
X593063Y745377D02*
Y775857D01*
X-311104Y744220D02*
X-280624D01*
X-295864Y728980D02*
Y759460D01*
X-370840Y850900D02*
X-340360D01*
X-355600Y835660D02*
Y866140D01*
X-581120Y747984D02*
X-550640D01*
X-565880Y732744D02*
Y763224D01*
X-1115802Y238368D02*
X-1085322D01*
X-1100562Y223128D02*
Y253608D01*
X1002860Y-718820D02*
X1033340D01*
X1018100Y-734060D02*
Y-703580D01*
X1067896Y-796464D02*
X1098376D01*
X1083136Y-811704D02*
Y-781224D01*
X984238Y-906780D02*
X1014718D01*
X999478Y-922020D02*
Y-891540D01*
X718132Y1009392D02*
X748612D01*
X733372Y994152D02*
Y1024632D01*
X-1031240Y-800100D02*
X-1000760D01*
X-1016000Y-815340D02*
Y-784860D01*
X899160Y-228600D02*
X929640D01*
X914400Y-243840D02*
Y-213360D01*
X899160Y292100D02*
X929640D01*
X914400Y276860D02*
Y307340D01*
X-1005840Y355600D02*
X-975360D01*
X-990600Y340360D02*
Y370840D01*
X-243840Y1112483D02*
X-213360D01*
X-228600Y1097243D02*
Y1127723D01*
X657860Y508000D02*
X688340D01*
X673100Y492760D02*
Y523240D01*
X594360Y-558800D02*
X624840D01*
X609600Y-574040D02*
Y-543560D01*
X441960Y-723900D02*
X472440D01*
X457200Y-739140D02*
Y-708660D01*
X289560Y-876300D02*
X320040D01*
X304800Y-891540D02*
Y-861060D01*
X-231140Y-965200D02*
X-200660D01*
X-215900Y-980440D02*
Y-949960D01*
X-104140Y-1079500D02*
X-73660D01*
X-88900Y-1094740D02*
Y-1064260D01*
X-472440Y-711200D02*
X-441960D01*
X-457200Y-726440D02*
Y-695960D01*
X-942340Y419100D02*
X-911860D01*
X-927100Y403860D02*
Y434340D01*
X-243840Y939800D02*
X-213360D01*
X-228600Y924560D02*
Y955040D01*
X60960Y1422400D02*
X91440D01*
X76200Y1407160D02*
Y1437640D01*
X1381760Y-50800D02*
X1412240D01*
X1397000Y-66040D02*
Y-35560D01*
X848360Y-482600D02*
X878840D01*
X863600Y-497840D02*
Y-467360D01*
X581660Y-749300D02*
X612140D01*
X596900Y-764540D02*
Y-734060D01*
X480060Y-850900D02*
X510540D01*
X495300Y-866140D02*
Y-835660D01*
X-91440Y-1447800D02*
X-60960D01*
X-76200Y-1463040D02*
Y-1432560D01*
X-396240Y-952500D02*
X-365760D01*
X-381000Y-967740D02*
Y-937260D01*
X-751840Y-609600D02*
X-721360D01*
X-736600Y-624840D02*
Y-594360D01*
X-1323340Y38100D02*
X-1292860D01*
X-1308100Y22860D02*
Y53340D01*
X-1259840Y101600D02*
X-1229360D01*
X-1244600Y86360D02*
Y116840D01*
X-1196340Y165100D02*
X-1165860D01*
X-1181100Y149860D02*
Y180340D01*
X429260Y901700D02*
X459740D01*
X444500Y886460D02*
Y916940D01*
X492760Y838200D02*
X523240D01*
X508000Y822960D02*
Y853440D01*
X848360Y482600D02*
X878840D01*
X863600Y467360D02*
Y497840D01*
X-2110740Y1181100D02*
X-2080260D01*
X-2095500Y1165860D02*
Y1196340D01*
X-1158240Y-2070100D02*
X-1127760D01*
X-1143000Y-2085340D02*
Y-2054860D01*
X2651760Y1061720D02*
X2682240D01*
X2667000Y1046480D02*
Y1076960D01*
X2423160Y1061720D02*
X2453640D01*
X2438400Y1046480D02*
Y1076960D01*
X2423160Y990600D02*
X2453640D01*
X2438400Y975360D02*
Y1005840D01*
X2651760Y990600D02*
X2682240D01*
X2667000Y975360D02*
Y1005840D01*
X3172460Y1130300D02*
X3202940D01*
X3187700Y1115060D02*
Y1145540D01*
X2639060Y-1168400D02*
X2669540D01*
X2654300Y-1183640D02*
Y-1153160D01*
X2423160Y-1168400D02*
X2453640D01*
X2438400Y-1183640D02*
Y-1153160D01*
X2639060Y-1079500D02*
X2669540D01*
X2654300Y-1094740D02*
Y-1064260D01*
X2423160Y-1079500D02*
X2453640D01*
X2438400Y-1094740D02*
Y-1064260D01*
X-2440940Y-1129600D02*
X-2410460D01*
X-2425700Y-1144840D02*
Y-1114360D01*
X-2682240Y-1129600D02*
X-2651760D01*
X-2667000Y-1144840D02*
Y-1114360D01*
X-2440940Y-1054100D02*
X-2410460D01*
X-2425700Y-1069340D02*
Y-1038860D01*
X-2682240Y-1054100D02*
X-2651760D01*
X-2667000Y-1069340D02*
Y-1038860D01*
X678286Y1363874D02*
X708766D01*
X693526Y1348634D02*
Y1379114D01*
X458878Y1574286D02*
X489358D01*
X474118Y1559046D02*
Y1589526D01*
X357103Y1570757D02*
X387583D01*
X372343Y1555517D02*
Y1585997D01*
X477520Y1485900D02*
X508000D01*
X492760Y1470660D02*
Y1501140D01*
X1524000Y368300D02*
X1554480D01*
X1539240Y353060D02*
Y383540D01*
X492391Y1397369D02*
X522871D01*
X507631Y1382129D02*
Y1412609D01*
X617220Y1424939D02*
X647700D01*
X632460Y1409699D02*
Y1440179D01*
X778166Y1320800D02*
X808646D01*
X793406Y1305560D02*
Y1336040D01*
X1686560Y233680D02*
X1717040D01*
X1701800Y218440D02*
Y248920D01*
X1635760Y304800D02*
X1666240D01*
X1651000Y289560D02*
Y320040D01*
X1638300Y157480D02*
X1668780D01*
X1653540Y142240D02*
Y172720D01*
X-321453Y-1484487D02*
X-290973D01*
X-306213Y-1499727D02*
Y-1469247D01*
X3113301Y732413D02*
X3143781D01*
X3128541Y717173D02*
Y747653D01*
X-1640840Y-266700D02*
X-1610360D01*
X-1625600Y-281940D02*
Y-251460D01*
X2448560Y-279400D02*
X2479040D01*
X2463800Y-294640D02*
Y-264160D01*
X3045460Y-795020D02*
X3075940D01*
X3060700Y-810260D02*
Y-779780D01*
X3045460Y-708660D02*
X3075940D01*
X3060700Y-723900D02*
Y-693420D01*
X3045460Y-977900D02*
X3075940D01*
X3060700Y-993140D02*
Y-962660D01*
X3045460Y-1066800D02*
X3075940D01*
X3060700Y-1082040D02*
Y-1051560D01*
X3020060Y876300D02*
X3050540D01*
X3035300Y861060D02*
Y891540D01*
X3057929Y798686D02*
X3088409D01*
X3073169Y783446D02*
Y813926D01*
X3117793Y638900D02*
X3148273D01*
X3133033Y623660D02*
Y654140D01*
X3108960Y546100D02*
X3139440D01*
X3124200Y530860D02*
Y561340D01*
X3031717Y507479D02*
X3062197D01*
X3046957Y492239D02*
Y522719D01*
X2639060Y419100D02*
X2669540D01*
X2654300Y403860D02*
Y434340D01*
X3108960Y419100D02*
X3139440D01*
X3124200Y403860D02*
Y434340D01*
X3111538Y332778D02*
X3142018D01*
X3126778Y317538D02*
Y348018D01*
X3007360Y190500D02*
X3037840D01*
X3022600Y175260D02*
Y205740D01*
X2589329Y177800D02*
X2619809D01*
X2604569Y162560D02*
Y193040D01*
X3111240Y129193D02*
X3141720D01*
X3126480Y113953D02*
Y144433D01*
X3098169Y43828D02*
X3128649D01*
X3113409Y28588D02*
Y59068D01*
X3070860Y-38100D02*
X3101340D01*
X3086100Y-53340D02*
Y-22860D01*
X-3031544Y888254D02*
X-3001064D01*
X-3016304Y873014D02*
Y903494D01*
X-3023686Y750430D02*
X-2993206D01*
X-3008446Y735190D02*
Y765670D01*
X-1674897Y719857D02*
X-1644417D01*
X-1659657Y704617D02*
Y735097D01*
X-1158240Y1346200D02*
X-1127760D01*
X-1143000Y1330960D02*
Y1361440D01*
X-1018540Y939800D02*
X-988060D01*
X-1003300Y924560D02*
Y955040D01*
X-1259840Y673100D02*
X-1229360D01*
X-1244600Y657860D02*
Y688340D01*
X778743Y-1111017D02*
X809223D01*
X793983Y-1126257D02*
Y-1095777D01*
X891562Y-1090726D02*
X922042D01*
X906802Y-1105966D02*
Y-1075486D01*
X1420619Y-662977D02*
X1451099D01*
X1435859Y-678217D02*
Y-647737D01*
X1319425Y-755755D02*
X1349905D01*
X1334665Y-770995D02*
Y-740515D01*
X1213658Y-810072D02*
X1244138D01*
X1228898Y-825312D02*
Y-794832D01*
X1247140Y-673100D02*
X1277620D01*
X1262380Y-688340D02*
Y-657860D01*
X1272540Y-500380D02*
X1303020D01*
X1287780Y-515620D02*
Y-485140D01*
X1363177Y-595163D02*
X1393657D01*
X1378417Y-610403D02*
Y-579923D01*
X1574800Y-472440D02*
X1605280D01*
X1590040Y-487680D02*
Y-457200D01*
X1478280Y-436880D02*
X1508760D01*
X1493520Y-452120D02*
Y-421640D01*
X1414780Y-363220D02*
X1445260D01*
X1430020Y-378460D02*
Y-347980D01*
X-1679115Y-416386D02*
X-1648635D01*
X-1663875Y-431626D02*
Y-401146D01*
X-1539240Y-469900D02*
X-1508760D01*
X-1524000Y-485140D02*
Y-454660D01*
X-1618342Y-355028D02*
X-1587862D01*
X-1603102Y-370268D02*
Y-339789D01*
X-2600960Y182880D02*
X-2570480D01*
X-2585720Y167640D02*
Y198120D01*
X-3108960Y721360D02*
X-3078480D01*
X-3093720Y706120D02*
Y736600D01*
X-705367Y574726D02*
X-674887D01*
X-690127Y559486D02*
Y589966D01*
X-3025140Y-695960D02*
X-2994660D01*
X-3009900Y-711200D02*
Y-680720D01*
X-3040380Y-553720D02*
X-3009900D01*
X-3025140Y-568960D02*
Y-538480D01*
X-2999740Y-977900D02*
X-2969260D01*
X-2984500Y-993140D02*
Y-962660D01*
X-3116580Y-594360D02*
X-3086100D01*
X-3101340Y-609600D02*
Y-579120D01*
Y-459740D02*
X-3070860D01*
X-3086100Y-474980D02*
Y-444500D01*
X-3035300Y-398780D02*
X-3004820D01*
X-3020060Y-414020D02*
Y-383540D01*
X-3093720Y-314960D02*
X-3063240D01*
X-3078480Y-330200D02*
Y-299720D01*
X-2557780Y-381000D02*
X-2527300D01*
X-2542540Y-396240D02*
Y-365760D01*
X-3091180Y-208280D02*
X-3060700D01*
X-3075940Y-223520D02*
Y-193040D01*
X-3037840Y30480D02*
X-3007360D01*
X-3022600Y15240D02*
Y45720D01*
X-2682707Y68113D02*
X-2652227D01*
X-2667467Y52873D02*
Y83353D01*
X-2628900Y368300D02*
X-2598420D01*
X-2613660Y353060D02*
Y383540D01*
X-2708107Y483067D02*
X-2677627D01*
X-2692867Y467827D02*
Y498307D01*
X-3058160Y121920D02*
X-3027680D01*
X-3042920Y106680D02*
Y137160D01*
X-3063240Y210820D02*
X-3032760D01*
X-3048000Y195580D02*
Y226060D01*
X-2418102Y602002D02*
X-2387622D01*
X-2402862Y586762D02*
Y617242D01*
X-3107515Y818374D02*
X-3077035D01*
X-3092275Y803134D02*
Y833614D01*
X-599407Y1274541D02*
X-568927D01*
X-584167Y1259301D02*
Y1289781D01*
X-1122680Y-1084580D02*
X-1092200D01*
X-1107440Y-1099820D02*
Y-1069340D01*
X-1028700Y-1076960D02*
X-998220D01*
X-1013460Y-1092200D02*
Y-1061720D01*
X-1112753Y-1191493D02*
X-1082273D01*
X-1097513Y-1206733D02*
Y-1176253D01*
X-751840Y-1399540D02*
X-721360D01*
X-736600Y-1414780D02*
Y-1384300D01*
X-713474Y-1300746D02*
X-682994D01*
X-698234Y-1315986D02*
Y-1285506D01*
X-666283Y-1507957D02*
X-635803D01*
X-651043Y-1523197D02*
Y-1492717D01*
X-856913Y-1310640D02*
X-826433D01*
X-841673Y-1325880D02*
Y-1295400D01*
X-862353Y-1173480D02*
X-831873D01*
X-847113Y-1188720D02*
Y-1158240D01*
X-949960Y-1259840D02*
X-919480D01*
X-934720Y-1275080D02*
Y-1244600D01*
X-1610360Y-541020D02*
X-1579880D01*
X-1595120Y-556260D02*
Y-525780D01*
X-1541780Y218440D02*
X-1511300D01*
X-1526540Y203200D02*
Y233680D01*
X-1475740Y292100D02*
X-1445260D01*
X-1460500Y276860D02*
Y307340D01*
X-1417164Y355558D02*
X-1386684D01*
X-1401924Y340318D02*
Y370798D01*
X-610731Y500853D02*
X-580251D01*
X-595491Y485613D02*
Y516093D01*
X-619760Y586740D02*
X-589280D01*
X-604520Y571500D02*
Y601980D01*
X-530860Y589280D02*
X-500380D01*
X-515620Y574040D02*
Y604520D01*
X-816622Y988060D02*
X-786142D01*
X-801382Y972820D02*
Y1003300D01*
X-886460Y937260D02*
X-855980D01*
X-871220Y922020D02*
Y952500D01*
X-728083Y1170401D02*
X-697603D01*
X-712843Y1155161D02*
Y1185641D01*
X-642620Y1182816D02*
X-612140D01*
X-627380Y1167576D02*
Y1198056D01*
X-802024Y1125220D02*
X-771544D01*
X-786784Y1109980D02*
Y1140460D01*
X-736617Y1031458D02*
X-706137D01*
X-721377Y1016218D02*
Y1046698D01*
%TF.MD5,3cf533bab4c553c7c425812e7d5dae93*%
M02*
