%TF.GenerationSoftware,Altium Limited,Altium Designer,23.0.1 (38)*%
G04 Layer_Color=128*
%FSLAX45Y45*%
%MOMM*%
%TF.SameCoordinates,98E3409A-FA71-4B7D-AABF-4CEB4AF68500*%
%TF.FilePolarity,Positive*%
%TF.FileFunction,Paste,Bot*%
%TF.Part,Single*%
G01*
G75*
%TA.AperFunction,SMDPad,CuDef*%
G04:AMPARAMS|DCode=31|XSize=1.6mm|YSize=3.1mm|CornerRadius=0.2mm|HoleSize=0mm|Usage=FLASHONLY|Rotation=270.000|XOffset=0mm|YOffset=0mm|HoleType=Round|Shape=RoundedRectangle|*
%AMROUNDEDRECTD31*
21,1,1.60000,2.70000,0,0,270.0*
21,1,1.20000,3.10000,0,0,270.0*
1,1,0.40000,-1.35000,-0.60000*
1,1,0.40000,-1.35000,0.60000*
1,1,0.40000,1.35000,0.60000*
1,1,0.40000,1.35000,-0.60000*
%
%ADD31ROUNDEDRECTD31*%
%ADD32O,1.60000X0.30000*%
%ADD33R,1.60000X0.30000*%
G36*
X178447Y1640165D02*
Y1619036D01*
X121836Y1562426D01*
X51126Y1633136D01*
X107736Y1689747D01*
X128865D01*
X178447Y1640165D01*
D02*
G37*
G36*
X75874Y1516464D02*
X19264Y1459853D01*
X-1865D01*
X-51447Y1509435D01*
Y1530564D01*
X5164Y1587174D01*
X75874Y1516464D01*
D02*
G37*
G36*
X-83457Y1043168D02*
X-154168Y972457D01*
X-210779Y1029068D01*
Y1050197D01*
X-161197Y1099779D01*
X-140068D01*
X-83457Y1043168D01*
D02*
G37*
G36*
X19116Y940595D02*
Y919466D01*
X-30466Y869884D01*
X-51595D01*
X-108206Y926495D01*
X-37495Y997206D01*
X19116Y940595D01*
D02*
G37*
G36*
X419747Y840065D02*
Y818936D01*
X363136Y762326D01*
X292426Y833036D01*
X349036Y889647D01*
X370165D01*
X419747Y840065D01*
D02*
G37*
G36*
X-375557Y751068D02*
X-446268Y680357D01*
X-502879Y736968D01*
Y758097D01*
X-453297Y807679D01*
X-432168D01*
X-375557Y751068D01*
D02*
G37*
G36*
X317174Y716364D02*
X260564Y659753D01*
X239435D01*
X189853Y709335D01*
Y730464D01*
X246464Y787074D01*
X317174Y716364D01*
D02*
G37*
G36*
X546747Y713065D02*
Y691936D01*
X490136Y635326D01*
X419426Y706036D01*
X476036Y762647D01*
X497165D01*
X546747Y713065D01*
D02*
G37*
G36*
X-272984Y648495D02*
Y627366D01*
X-322566Y577784D01*
X-343695D01*
X-400306Y634395D01*
X-329595Y705106D01*
X-272984Y648495D01*
D02*
G37*
G36*
X444174Y589364D02*
X387564Y532753D01*
X366435D01*
X316853Y582335D01*
Y603464D01*
X373464Y660074D01*
X444174Y589364D01*
D02*
G37*
G36*
X-693057Y433568D02*
X-763768Y362857D01*
X-820379Y419468D01*
Y440597D01*
X-770797Y490179D01*
X-749668D01*
X-693057Y433568D01*
D02*
G37*
G36*
X838847Y420965D02*
Y399836D01*
X782236Y343226D01*
X711526Y413936D01*
X768136Y470547D01*
X789265D01*
X838847Y420965D01*
D02*
G37*
G36*
X-590484Y330995D02*
Y309866D01*
X-640066Y260284D01*
X-661195D01*
X-717806Y316895D01*
X-647095Y387606D01*
X-590484Y330995D01*
D02*
G37*
G36*
X-807357Y319268D02*
X-878068Y248557D01*
X-934679Y305168D01*
Y326297D01*
X-885097Y375879D01*
X-863968D01*
X-807357Y319268D01*
D02*
G37*
G36*
X736274Y297264D02*
X679664Y240653D01*
X658535D01*
X608953Y290235D01*
Y311364D01*
X665564Y367974D01*
X736274Y297264D01*
D02*
G37*
G36*
X-704784Y216695D02*
Y195566D01*
X-754366Y145984D01*
X-775495D01*
X-832106Y202595D01*
X-761395Y273306D01*
X-704784Y216695D01*
D02*
G37*
G36*
X-921657Y204968D02*
X-992368Y134257D01*
X-1048979Y190868D01*
Y211997D01*
X-999397Y261579D01*
X-978268D01*
X-921657Y204968D01*
D02*
G37*
G36*
X-819084Y102395D02*
Y81266D01*
X-868666Y31684D01*
X-889795D01*
X-946406Y88295D01*
X-875695Y159006D01*
X-819084Y102395D01*
D02*
G37*
G36*
X-1035957Y90668D02*
X-1106668Y19957D01*
X-1163279Y76568D01*
Y97697D01*
X-1113697Y147279D01*
X-1092568D01*
X-1035957Y90668D01*
D02*
G37*
G36*
X1696679Y46897D02*
Y25768D01*
X1640068Y-30843D01*
X1569357Y39868D01*
X1625968Y96479D01*
X1647097D01*
X1696679Y46897D01*
D02*
G37*
G36*
X1053774Y20236D02*
X983064Y-50474D01*
X926453Y6136D01*
Y27265D01*
X976035Y76847D01*
X997164D01*
X1053774Y20236D01*
D02*
G37*
G36*
X-1370953Y27265D02*
Y6136D01*
X-1427564Y-50474D01*
X-1498274Y20236D01*
X-1441664Y76847D01*
X-1420535D01*
X-1370953Y27265D01*
D02*
G37*
G36*
X-933384Y-11905D02*
Y-33034D01*
X-982966Y-82616D01*
X-1004095D01*
X-1060706Y-26005D01*
X-989995Y44706D01*
X-933384Y-11905D01*
D02*
G37*
G36*
X-1143326Y-17864D02*
X-1214036Y-88574D01*
X-1270647Y-31964D01*
Y-10835D01*
X-1221065Y38747D01*
X-1199936D01*
X-1143326Y-17864D01*
D02*
G37*
G36*
X1594106Y-76805D02*
X1537495Y-133416D01*
X1516366D01*
X1466784Y-83834D01*
Y-62705D01*
X1523395Y-6094D01*
X1594106Y-76805D01*
D02*
G37*
G36*
X1156347Y-82336D02*
Y-103465D01*
X1106765Y-153047D01*
X1085636D01*
X1029026Y-96436D01*
X1099736Y-25726D01*
X1156347Y-82336D01*
D02*
G37*
G36*
X-1473526Y-96436D02*
X-1530136Y-153047D01*
X-1551265D01*
X-1600847Y-103465D01*
Y-82336D01*
X-1544236Y-25726D01*
X-1473526Y-96436D01*
D02*
G37*
G36*
X-1040753Y-120436D02*
Y-141565D01*
X-1090335Y-191147D01*
X-1111464D01*
X-1168074Y-134536D01*
X-1097364Y-63826D01*
X-1040753Y-120436D01*
D02*
G37*
G36*
X736274Y-297264D02*
X665564Y-367974D01*
X608953Y-311364D01*
Y-290235D01*
X658535Y-240653D01*
X679664D01*
X736274Y-297264D01*
D02*
G37*
G36*
X-583553Y-302935D02*
Y-324064D01*
X-640164Y-380674D01*
X-710874Y-309964D01*
X-654264Y-253353D01*
X-633135D01*
X-583553Y-302935D01*
D02*
G37*
G36*
X838847Y-399836D02*
Y-420965D01*
X789265Y-470547D01*
X768136D01*
X711526Y-413936D01*
X782236Y-343226D01*
X838847Y-399836D01*
D02*
G37*
G36*
X-686126Y-426636D02*
X-742736Y-483247D01*
X-763865D01*
X-813447Y-433665D01*
Y-412536D01*
X-756836Y-355926D01*
X-686126Y-426636D01*
D02*
G37*
G36*
X-468431Y-367908D02*
X-393308Y-443031D01*
Y-470438D01*
X-450315Y-527445D01*
X-552845Y-424915D01*
X-495838Y-367908D01*
X-468431Y-367908D01*
D02*
G37*
G36*
X494974Y-538564D02*
X424264Y-609274D01*
X367653Y-552664D01*
Y-531535D01*
X417235Y-481953D01*
X438364D01*
X494974Y-538564D01*
D02*
G37*
G36*
X-513955Y-591085D02*
X-570962Y-648092D01*
X-598369D01*
X-673492Y-572969D01*
Y-545561D01*
X-616485Y-488555D01*
X-513955Y-591085D01*
D02*
G37*
G36*
X597547Y-641136D02*
Y-662265D01*
X547965Y-711847D01*
X526836D01*
X470226Y-655236D01*
X540936Y-584526D01*
X597547Y-641136D01*
D02*
G37*
G36*
X342574Y-690964D02*
X271864Y-761674D01*
X215253Y-705064D01*
Y-683935D01*
X264835Y-634353D01*
X285964D01*
X342574Y-690964D01*
D02*
G37*
G36*
X-126353Y-760135D02*
Y-781264D01*
X-182964Y-837874D01*
X-253674Y-767164D01*
X-197064Y-710553D01*
X-175935D01*
X-126353Y-760135D01*
D02*
G37*
G36*
X445147Y-793536D02*
Y-814665D01*
X395565Y-864247D01*
X374436D01*
X317826Y-807636D01*
X388536Y-736926D01*
X445147Y-793536D01*
D02*
G37*
G36*
X-228926Y-883836D02*
X-285536Y-940447D01*
X-306665D01*
X-356247Y-890865D01*
Y-869736D01*
X-299636Y-813126D01*
X-228926Y-883836D01*
D02*
G37*
G36*
X165747Y-1052235D02*
Y-1073364D01*
X109136Y-1129974D01*
X38426Y-1059264D01*
X95036Y-1002653D01*
X116165D01*
X165747Y-1052235D01*
D02*
G37*
G36*
X63174Y-1175936D02*
X6564Y-1232547D01*
X-14565D01*
X-64147Y-1182965D01*
Y-1161836D01*
X-7536Y-1105226D01*
X63174Y-1175936D01*
D02*
G37*
G36*
X-165426Y-1592664D02*
X-236136Y-1663374D01*
X-292747Y-1606764D01*
Y-1585635D01*
X-243165Y-1536053D01*
X-222036D01*
X-165426Y-1592664D01*
D02*
G37*
G36*
X-62853Y-1695236D02*
Y-1716365D01*
X-112435Y-1765947D01*
X-133564D01*
X-190174Y-1709336D01*
X-119464Y-1638626D01*
X-62853Y-1695236D01*
D02*
G37*
D31*
X-2540000Y-1545000D02*
D03*
Y1445000D02*
D03*
X2540000Y-1545000D02*
D03*
Y1445000D02*
D03*
D32*
X-2845000Y-726038D02*
D03*
Y-676038D02*
D03*
Y-626038D02*
D03*
Y-576038D02*
D03*
Y-526038D02*
D03*
Y-476038D02*
D03*
Y-426038D02*
D03*
Y-376038D02*
D03*
Y-276039D02*
D03*
Y-226039D02*
D03*
Y-326038D02*
D03*
Y-176039D02*
D03*
Y-126039D02*
D03*
Y-76039D02*
D03*
Y-26039D02*
D03*
Y23961D02*
D03*
Y73961D02*
D03*
Y123961D02*
D03*
Y173961D02*
D03*
Y223960D02*
D03*
Y273960D02*
D03*
Y373960D02*
D03*
Y423960D02*
D03*
Y323960D02*
D03*
Y473960D02*
D03*
Y523960D02*
D03*
Y623960D02*
D03*
Y673960D02*
D03*
Y723959D02*
D03*
Y773959D02*
D03*
Y823959D02*
D03*
Y873959D02*
D03*
Y923959D02*
D03*
Y973959D02*
D03*
Y1023959D02*
D03*
Y1073959D02*
D03*
Y573960D02*
D03*
Y-1226320D02*
D03*
Y-776038D02*
D03*
Y-1126037D02*
D03*
Y-1076037D02*
D03*
Y-1026037D02*
D03*
Y-926037D02*
D03*
Y-876037D02*
D03*
Y-826037D02*
D03*
Y-976037D02*
D03*
Y-1176037D02*
D03*
X-2235000Y-1226316D02*
D03*
Y-1176316D02*
D03*
Y-1126316D02*
D03*
Y-1076316D02*
D03*
Y-1026316D02*
D03*
Y-976317D02*
D03*
Y-926317D02*
D03*
Y-876317D02*
D03*
Y-826317D02*
D03*
Y-776317D02*
D03*
Y-726317D02*
D03*
Y-676317D02*
D03*
Y-626317D02*
D03*
Y-576317D02*
D03*
Y-526317D02*
D03*
Y-476318D02*
D03*
Y-426318D02*
D03*
Y-376318D02*
D03*
Y-326318D02*
D03*
Y-276318D02*
D03*
Y-226318D02*
D03*
Y-176318D02*
D03*
Y-126318D02*
D03*
Y-76318D02*
D03*
Y-26318D02*
D03*
Y23681D02*
D03*
Y73681D02*
D03*
Y123681D02*
D03*
Y173681D02*
D03*
Y223681D02*
D03*
Y273681D02*
D03*
Y323681D02*
D03*
Y373681D02*
D03*
Y423681D02*
D03*
Y473681D02*
D03*
Y523680D02*
D03*
Y573680D02*
D03*
Y623680D02*
D03*
Y673680D02*
D03*
Y723680D02*
D03*
Y773680D02*
D03*
Y823680D02*
D03*
Y873680D02*
D03*
Y923680D02*
D03*
Y973680D02*
D03*
Y1023679D02*
D03*
Y1073679D02*
D03*
X2235000Y-726038D02*
D03*
Y-676038D02*
D03*
Y-626038D02*
D03*
Y-576038D02*
D03*
Y-526038D02*
D03*
Y-476038D02*
D03*
Y-426038D02*
D03*
Y-376038D02*
D03*
Y-276039D02*
D03*
Y-226039D02*
D03*
Y-326038D02*
D03*
Y-176039D02*
D03*
Y-126039D02*
D03*
Y-76039D02*
D03*
Y-26039D02*
D03*
Y23961D02*
D03*
Y73961D02*
D03*
Y123961D02*
D03*
Y173961D02*
D03*
Y223960D02*
D03*
Y273960D02*
D03*
Y373960D02*
D03*
Y423960D02*
D03*
Y323960D02*
D03*
Y473960D02*
D03*
Y523960D02*
D03*
Y623960D02*
D03*
Y673960D02*
D03*
Y723959D02*
D03*
Y773959D02*
D03*
Y823959D02*
D03*
Y873959D02*
D03*
Y923959D02*
D03*
Y973959D02*
D03*
Y1023959D02*
D03*
Y1073959D02*
D03*
Y573960D02*
D03*
Y-1226320D02*
D03*
Y-776038D02*
D03*
Y-1126037D02*
D03*
Y-1076037D02*
D03*
Y-1026037D02*
D03*
Y-926037D02*
D03*
Y-876037D02*
D03*
Y-826037D02*
D03*
Y-976037D02*
D03*
Y-1176037D02*
D03*
X2845000Y-1226316D02*
D03*
Y-1176316D02*
D03*
Y-1126316D02*
D03*
Y-1076316D02*
D03*
Y-1026316D02*
D03*
Y-976317D02*
D03*
Y-926317D02*
D03*
Y-876317D02*
D03*
Y-826317D02*
D03*
Y-776317D02*
D03*
Y-726317D02*
D03*
Y-676317D02*
D03*
Y-626317D02*
D03*
Y-576317D02*
D03*
Y-526317D02*
D03*
Y-476318D02*
D03*
Y-426318D02*
D03*
Y-376318D02*
D03*
Y-326318D02*
D03*
Y-276318D02*
D03*
Y-226318D02*
D03*
Y-176318D02*
D03*
Y-126318D02*
D03*
Y-76318D02*
D03*
Y-26318D02*
D03*
Y23681D02*
D03*
Y73681D02*
D03*
Y123681D02*
D03*
Y173681D02*
D03*
Y223681D02*
D03*
Y273681D02*
D03*
Y323681D02*
D03*
Y373681D02*
D03*
Y423681D02*
D03*
Y473681D02*
D03*
Y523680D02*
D03*
Y573680D02*
D03*
Y623680D02*
D03*
Y673680D02*
D03*
Y723680D02*
D03*
Y773680D02*
D03*
Y823680D02*
D03*
Y873680D02*
D03*
Y923680D02*
D03*
Y973680D02*
D03*
Y1023679D02*
D03*
Y1073679D02*
D03*
D33*
X-2845000Y1123959D02*
D03*
X-2235000Y1123679D02*
D03*
X2235000Y1123959D02*
D03*
X2845000Y1123679D02*
D03*
%TF.MD5,9713314e572492521a7719955da68c72*%
M02*
